<svg width="75" height="71" viewBox="0 0 75 71" fill="none" xmlns="http://www.w3.org/2000/svg">
<path d="M61.1863 6.47498L61.9548 5.65175L63.5357 6.96392L66.449 3.96155L67.216 4.73323L63.4748 8.5026L61.1863 6.47498Z" fill="#E0E0E0"/>
<path d="M70.5183 6.27968C70.5183 6.27968 70.5183 6.24531 70.5105 6.17814C70.5027 6.11097 70.4996 6.011 70.4902 5.8829C70.4902 5.8173 70.4824 5.74544 70.4777 5.66577C70.473 5.5861 70.4527 5.49863 70.4386 5.4049C70.4246 5.31117 70.4074 5.20964 70.3902 5.10185C70.3693 4.98747 70.3422 4.87431 70.309 4.76287C70.1642 4.18006 69.9314 3.62275 69.6185 3.11016C69.2103 2.42766 68.6747 1.82999 68.0408 1.34966L67.7721 1.15127C67.6784 1.08879 67.58 1.03255 67.4816 0.971632C67.3832 0.91071 67.2863 0.845101 67.1785 0.796676L66.8567 0.640465L66.6927 0.563921L66.5209 0.501437L66.1725 0.373344C66.0538 0.334291 65.9304 0.309297 65.807 0.276493C65.684 0.240306 65.5587 0.212129 65.4321 0.192139C65.1742 0.143609 64.9132 0.113334 64.651 0.101537C64.5167 0.101537 64.3824 0.0827917 64.2464 0.0859159L63.8372 0.106223C63.7684 0.106223 63.6981 0.106223 63.6294 0.120282L63.4232 0.151525C63.2858 0.174956 63.1452 0.190577 63.0061 0.220257C62.4387 0.348504 61.8901 0.549051 61.3737 0.816983C61.2425 0.887278 61.1175 0.973194 60.9879 1.04661C60.9223 1.08391 60.8587 1.12458 60.7973 1.16846L60.6145 1.30436C60.3677 1.48807 60.1329 1.68739 59.9116 1.90109C59.6939 2.12692 59.4914 2.36698 59.3055 2.61966L59.1633 2.81023L59.0384 3.01331L58.9134 3.21795L58.8509 3.32104L58.7994 3.42883L58.5885 3.86778L58.4198 4.32548C58.2187 4.95711 58.1134 5.61529 58.1074 6.27812C58.1134 6.94146 58.2187 7.60016 58.4198 8.23232L58.5885 8.69158C58.6588 8.83685 58.7291 8.98213 58.7978 9.12741L58.8509 9.23519L58.9134 9.33829L59.0384 9.54449L59.1633 9.74756L59.3055 9.93814C59.4914 10.1903 59.6939 10.4299 59.9116 10.6552C60.1325 10.8698 60.3673 11.0697 60.6145 11.2534L60.7957 11.3893C60.8567 11.4346 60.9238 11.4706 60.9879 11.5096C61.1175 11.5877 61.2425 11.6658 61.3737 11.7408C61.6347 11.877 61.9045 11.9955 62.1813 12.0954C62.4505 12.1946 62.7261 12.2755 63.0061 12.3375C63.1452 12.3672 63.2858 12.3828 63.4232 12.4063L63.6294 12.4375C63.6997 12.4469 63.7684 12.4469 63.8372 12.4516L64.2464 12.4719C64.3824 12.4719 64.5167 12.4609 64.651 12.4563C64.9132 12.4445 65.1742 12.4142 65.4321 12.3657C65.5592 12.3455 65.685 12.3173 65.8086 12.2813C65.9304 12.2485 66.0538 12.2219 66.1725 12.1829L66.5224 12.0564L66.6943 11.9939L66.8505 11.9158L67.1801 11.7627C67.2879 11.7143 67.3832 11.6455 67.4831 11.5893C67.5831 11.5331 67.68 11.4721 67.7753 11.4096L68.0424 11.2097C68.6769 10.7307 69.2127 10.1334 69.6201 9.45076C69.9309 8.93732 70.1616 8.37948 70.3043 7.79649C70.3373 7.68501 70.3645 7.57186 70.3855 7.45751C70.4027 7.34973 70.4183 7.24819 70.434 7.15446C70.4496 7.06074 70.4652 6.97326 70.473 6.89359C70.4808 6.81392 70.4824 6.73738 70.4855 6.67646C70.4949 6.54836 70.5011 6.44995 70.5058 6.37966C70.5105 6.30936 70.5136 6.27968 70.5136 6.27968C70.5136 6.27968 70.5136 6.31405 70.5136 6.38122C70.5136 6.44839 70.5136 6.54836 70.5027 6.67646L70.4933 6.89515C70.4933 6.97638 70.4699 7.0623 70.4574 7.15759C70.4449 7.25287 70.4293 7.35441 70.4137 7.47001C70.398 7.5856 70.3621 7.69183 70.3356 7.81211C70.1944 8.39979 69.9642 8.96241 69.6529 9.48044C69.2459 10.171 68.7091 10.7763 68.0721 11.2628L67.8049 11.4503C67.7096 11.5143 67.6097 11.5705 67.5113 11.633C67.4128 11.6955 67.3144 11.7611 67.2066 11.8095L66.8817 11.9658L66.7161 12.0439C66.6599 12.0657 66.6021 12.0876 66.5428 12.1079L66.1913 12.2376C66.071 12.2782 65.946 12.3032 65.8226 12.3375C65.6981 12.3748 65.5713 12.404 65.443 12.425C65.1819 12.4739 64.9179 12.5052 64.6526 12.5187C64.5167 12.5187 64.3808 12.5375 64.2433 12.5344L63.8294 12.5141C63.7591 12.5141 63.6888 12.5141 63.62 12.5016L63.4107 12.4703C63.2701 12.4469 63.1295 12.4313 62.989 12.4016C62.7046 12.3396 62.4249 12.2582 62.1517 12.1579C61.8714 12.0576 61.5985 11.938 61.3347 11.8002C61.2019 11.7283 61.0738 11.644 60.9441 11.5674C60.8785 11.5268 60.8114 11.4924 60.7489 11.4456L60.5646 11.3081C60.3143 11.1223 60.0763 10.9203 59.8522 10.7036C59.6311 10.4759 59.426 10.2332 59.2383 9.97719L59.0931 9.78505L58.9665 9.57886L58.84 9.3711L58.7775 9.26643L58.7244 9.15709C58.6525 9.01025 58.5822 8.86185 58.5104 8.71501C58.4385 8.56817 58.3979 8.40259 58.3401 8.24638C58.1337 7.60658 58.0247 6.93939 58.0168 6.26718C58.0249 5.5955 58.1339 4.92884 58.3401 4.28955L58.5104 3.82092C58.5822 3.67252 58.6541 3.52568 58.7244 3.37884L58.7775 3.26793L58.8415 3.16483L58.9681 2.95707L59.0931 2.75087L59.2383 2.55717C59.4265 2.30161 59.6321 2.05942 59.8538 1.83235C60.077 1.61525 60.3144 1.41329 60.5646 1.22782L60.7504 1.09035C60.8114 1.04349 60.8801 1.00912 60.9441 0.968508C61.0754 0.890402 61.2019 0.812297 61.3347 0.735753C61.5982 0.597248 61.8712 0.477704 62.1517 0.378031C62.4249 0.277757 62.7046 0.196336 62.989 0.134341C63.1295 0.104661 63.2701 0.0890403 63.4107 0.0656086L63.6185 0.0343663C63.6888 0.0249936 63.7591 0.0265558 63.8294 0.0218694L64.2433 0C64.3808 0 64.5167 0.0124967 64.651 0.017183C64.9168 0.0306356 65.1814 0.0619485 65.443 0.11091C65.5713 0.13194 65.6981 0.161159 65.8226 0.198388C65.946 0.232754 66.071 0.257748 66.1913 0.298363L66.5428 0.428018L66.7161 0.490502L66.8817 0.57017L67.2066 0.726381C67.3144 0.776368 67.4097 0.846663 67.5113 0.904461C67.6128 0.962259 67.7096 1.02318 67.8049 1.08567L68.0736 1.28874C68.7115 1.77487 69.2489 2.38019 69.656 3.07111C69.9676 3.589 70.1979 4.15167 70.3387 4.73944C70.3652 4.85972 70.4043 4.97063 70.4168 5.08154C70.4293 5.19245 70.4465 5.29086 70.4605 5.39396C70.4746 5.49706 70.4886 5.57517 70.4965 5.65484C70.5043 5.7345 70.4964 5.81105 70.5058 5.87353C70.5058 6.00319 70.5136 6.1016 70.5168 6.17033C70.5199 6.23907 70.5183 6.27968 70.5183 6.27968Z" fill="#E0E0E0"/>
<path d="M59.0165 12.5094C59.0087 12.5094 59.0087 12.4454 58.9775 12.3376C58.9336 12.1859 58.8408 12.053 58.7135 11.9596C58.6116 11.8819 58.49 11.8343 58.3625 11.8221C58.235 11.8099 58.1066 11.8335 57.9919 11.8904C57.8771 11.9472 57.7805 12.035 57.7129 12.1438C57.6454 12.2527 57.6096 12.3782 57.6096 12.5063C57.6096 12.6344 57.6454 12.7599 57.7129 12.8688C57.7805 12.9776 57.8771 13.0654 57.9919 13.1222C58.1066 13.1791 58.235 13.2027 58.3625 13.1905C58.49 13.1783 58.6116 13.1307 58.7135 13.053C58.8407 12.9595 58.9335 12.8266 58.9775 12.675C59.0087 12.5657 59.0087 12.5016 59.0165 12.5016C59.0195 12.5171 59.0195 12.533 59.0165 12.5485C59.0182 12.5936 59.014 12.6388 59.004 12.6828C58.9706 12.8503 58.8787 13.0003 58.7447 13.1061C58.6455 13.1842 58.5282 13.2358 58.4036 13.2563C58.2791 13.2768 58.1514 13.2654 58.0324 13.2233C57.8855 13.1706 57.7585 13.0738 57.6686 12.9462C57.5788 12.8185 57.5306 12.6663 57.5306 12.5102C57.5306 12.3541 57.5788 12.2019 57.6686 12.0742C57.7585 11.9466 57.8855 11.8498 58.0324 11.7971C58.1517 11.7556 58.2797 11.745 58.4042 11.7663C58.5288 11.7876 58.6459 11.8401 58.7447 11.9189C58.8778 12.0231 58.9701 12.1707 59.0056 12.336C59.0155 12.3795 59.0197 12.4242 59.0181 12.4688C59.0198 12.4823 59.0193 12.4961 59.0165 12.5094Z" fill="#E0E0E0"/>
<path d="M4.45357 40.5071H0V44.9607H4.45357V40.5071Z" fill="#F5F5F5"/>
<path d="M4.45357 45.434H0V49.8875H4.45357V45.434Z" fill="#F5F5F5"/>
<path d="M4.45357 50.3593H0V54.8128H4.45357V50.3593Z" fill="#F5F5F5"/>
<path d="M9.49138 40.5071H5.03781V44.9607H9.49138V40.5071Z" fill="#F5F5F5"/>
<path d="M9.49138 45.434H5.03781V49.8875H9.49138V45.434Z" fill="#F5F5F5"/>
<path d="M9.49138 50.3593H5.03781V54.8128H9.49138V50.3593Z" fill="#F5F5F5"/>
<path d="M14.5308 40.5071H10.0772V44.9607H14.5308V40.5071Z" fill="#F5F5F5"/>
<path d="M14.5308 45.434H10.0772V49.8875H14.5308V45.434Z" fill="#F5F5F5"/>
<path d="M14.5308 50.3593H10.0772V54.8128H14.5308V50.3593Z" fill="#F5F5F5"/>
<path d="M19.5701 40.5071H15.1165V44.9607H19.5701V40.5071Z" fill="#F5F5F5"/>
<path d="M19.5701 45.434H15.1165V49.8875H19.5701V45.434Z" fill="#F5F5F5"/>
<path d="M19.5701 50.3593H15.1165V54.8128H19.5701V50.3593Z" fill="#F5F5F5"/>
<path d="M24.6095 40.5071H20.1559V44.9607H24.6095V40.5071Z" fill="#F5F5F5"/>
<path d="M24.6095 45.434H20.1559V49.8875H24.6095V45.434Z" fill="#F5F5F5"/>
<path d="M24.6095 50.3593H20.1559V54.8128H24.6095V50.3593Z" fill="#F5F5F5"/>
<path d="M29.6488 40.5071H25.1953V44.9607H29.6488V40.5071Z" fill="#F5F5F5"/>
<path d="M29.6488 45.434H25.1953V49.8875H29.6488V45.434Z" fill="#F5F5F5"/>
<path d="M29.6488 50.3593H25.1953V54.8128H29.6488V50.3593Z" fill="#F5F5F5"/>
<path d="M34.6866 40.5071H30.2331V44.9607H34.6866V40.5071Z" fill="#F5F5F5"/>
<path d="M34.6866 45.434H30.2331V49.8875H34.6866V45.434Z" fill="#F5F5F5"/>
<path d="M34.6866 50.3593H30.2331V54.8128H34.6866V50.3593Z" fill="#F5F5F5"/>
<path d="M39.726 40.5071H35.2724V44.9607H39.726V40.5071Z" fill="#F5F5F5"/>
<path d="M39.726 45.434H35.2724V49.8875H39.726V45.434Z" fill="#F5F5F5"/>
<path d="M39.726 50.3593H35.2724V54.8128H39.726V50.3593Z" fill="#F5F5F5"/>
<path d="M44.7654 40.5071H40.3118V44.9607H44.7654V40.5071Z" fill="#F5F5F5"/>
<path d="M44.7654 45.434H40.3118V49.8875H44.7654V45.434Z" fill="#F5F5F5"/>
<path d="M44.7654 50.3593H40.3118V54.8128H44.7654V50.3593Z" fill="#F5F5F5"/>
<path d="M49.8047 40.5071H45.3512V44.9607H49.8047V40.5071Z" fill="#F5F5F5"/>
<path d="M49.8047 45.434H45.3512V49.8875H49.8047V45.434Z" fill="#F5F5F5"/>
<path d="M49.8047 50.3593H45.3512V54.8128H49.8047V50.3593Z" fill="#F5F5F5"/>
<path d="M54.8441 40.5071H50.3905V44.9607H54.8441V40.5071Z" fill="#F5F5F5"/>
<path d="M54.8441 45.434H50.3905V49.8875H54.8441V45.434Z" fill="#F5F5F5"/>
<path d="M54.8441 50.3593H50.3905V54.8128H54.8441V50.3593Z" fill="#F5F5F5"/>
<path d="M59.8835 40.5071H55.4299V44.9607H59.8835V40.5071Z" fill="#F5F5F5"/>
<path d="M59.8835 45.434H55.4299V49.8875H59.8835V45.434Z" fill="#F5F5F5"/>
<path d="M59.8835 50.3593H55.4299V54.8128H59.8835V50.3593Z" fill="#F5F5F5"/>
<path d="M64.9213 40.5071H60.4677V44.9607H64.9213V40.5071Z" fill="#F5F5F5"/>
<path d="M64.9213 45.434H60.4677V49.8875H64.9213V45.434Z" fill="#F5F5F5"/>
<path d="M64.9213 50.3593H60.4677V54.8128H64.9213V50.3593Z" fill="#F5F5F5"/>
<path d="M69.9606 40.5071H65.507V44.9607H69.9606V40.5071Z" fill="#F5F5F5"/>
<path d="M69.9606 45.434H65.507V49.8875H69.9606V45.434Z" fill="#F5F5F5"/>
<path d="M69.9606 50.3593H65.507V54.8128H69.9606V50.3593Z" fill="#F5F5F5"/>
<path d="M75 40.5071H70.5464V44.9607H75V40.5071Z" fill="#F5F5F5"/>
<path d="M75 45.434H70.5464V49.8875H75V45.434Z" fill="#F5F5F5"/>
<path d="M75 50.3593H70.5464V54.8128H75V50.3593Z" fill="#F5F5F5"/>
<path d="M39.5214 7.7356C39.5214 7.7356 37.9764 7.98241 37.1376 10.7036C36.2987 13.4248 35.4443 17.7331 35.4739 17.9487C35.5442 18.4735 36.0394 18.5266 36.4456 18.8969C36.6846 19.1171 36.733 19.0531 36.569 19.9388C36.4221 20.737 34.4304 27.5322 34.0227 28.9194C34.0137 28.9507 34.0113 28.9836 34.0156 29.0159C34.02 29.0482 34.0311 29.0792 34.0481 29.107C34.0652 29.1348 34.0879 29.1587 34.1147 29.1772C34.1415 29.1958 34.1719 29.2085 34.2039 29.2146L35.8941 29.527C35.9249 29.5331 35.9565 29.5328 35.9872 29.5262C36.0178 29.5196 36.0468 29.5069 36.0724 29.4888C36.0979 29.4707 36.1196 29.4476 36.1359 29.4208C36.1523 29.3941 36.163 29.3643 36.1675 29.3333L37.7765 18.586C37.7765 18.586 39.8666 8.44792 39.8744 8.27609C39.8822 8.10425 39.9728 7.74653 39.5214 7.7356Z" fill="#E0E0E0"/>
<path d="M8.56193 30.7548C8.13391 30.4345 7.97926 29.2817 7.39659 28.5272C6.81393 27.7727 3.04924 25.6342 2.7665 25.4764C2.69112 25.4276 2.60107 25.4066 2.51188 25.417C2.49672 25.4203 2.4828 25.4278 2.47176 25.4386C2.46072 25.4495 2.45302 25.4633 2.44957 25.4784C2.44612 25.4935 2.44707 25.5093 2.45229 25.5239C2.45752 25.5385 2.46681 25.5513 2.47907 25.5608L5.7595 28.0102C5.78744 28.03 5.80758 28.0589 5.81642 28.092C5.82526 28.1251 5.82226 28.1602 5.80793 28.1914C5.7984 28.2094 5.78511 28.2251 5.76896 28.2375C5.75281 28.25 5.73418 28.2588 5.71432 28.2634C5.69447 28.268 5.67387 28.2682 5.6539 28.2642C5.63393 28.2601 5.61508 28.2518 5.59861 28.2398L2.28537 25.8872C2.25078 25.8616 2.2074 25.8507 2.16477 25.857C2.12215 25.8633 2.08377 25.8862 2.05808 25.9208C2.0324 25.9554 2.02151 25.9988 2.0278 26.0414C2.0341 26.0841 2.05708 26.1224 2.09167 26.1481L5.32055 28.6194C5.34822 28.6394 5.36804 28.6685 5.37659 28.7015C5.38515 28.7346 5.3819 28.7696 5.36741 28.8006C5.35808 28.8188 5.34488 28.8347 5.32875 28.8473C5.31262 28.8599 5.29393 28.8688 5.274 28.8734C5.25407 28.878 5.23337 28.8782 5.21335 28.874C5.19333 28.8698 5.17447 28.8613 5.15809 28.849L1.84798 26.484C1.81152 26.4575 1.76602 26.4465 1.7215 26.4535C1.67697 26.4606 1.63706 26.485 1.61054 26.5215C1.58403 26.5579 1.57308 26.6034 1.58011 26.6479C1.58714 26.6925 1.61157 26.7324 1.64803 26.7589L4.85192 29.2286C4.87983 29.2484 4.89984 29.2775 4.90842 29.3106C4.91699 29.3438 4.91358 29.3789 4.89878 29.4098C4.88945 29.428 4.87625 29.444 4.86012 29.4565C4.84398 29.4691 4.8253 29.478 4.80537 29.4826C4.78543 29.4872 4.76474 29.4874 4.74472 29.4832C4.7247 29.479 4.70584 29.4705 4.68946 29.4582L1.39809 27.0057C1.38454 26.9957 1.36839 26.9899 1.35159 26.9888C1.33478 26.9878 1.31804 26.9916 1.30336 26.9999C1.28868 27.0081 1.2767 27.0204 1.26884 27.0353C1.26098 27.0502 1.25759 27.067 1.25907 27.0838C1.27364 27.1741 1.32022 27.2562 1.39028 27.315C1.62148 27.5415 4.74726 30.5361 5.6361 30.8797C6.52494 31.2234 7.67621 31.036 8.10423 31.3593C8.49632 31.6499 16.5896 38.0936 17.9971 39.2152C18.0244 39.2366 18.0557 39.2523 18.0892 39.2614C18.1226 39.2705 18.1576 39.2728 18.192 39.2681C18.2263 39.2634 18.2594 39.2519 18.2893 39.2342C18.3191 39.2166 18.3451 39.1931 18.3657 39.1652L19.0234 38.281C19.0445 38.2534 19.0597 38.2217 19.0682 38.1879C19.0767 38.1542 19.0782 38.1191 19.0726 38.0847C19.0671 38.0504 19.0546 38.0175 19.0359 37.9881C19.0172 37.9588 18.9928 37.9335 18.964 37.9139C17.4816 36.8939 8.95246 31.0453 8.56193 30.7548Z" fill="#E0E0E0"/>
<path d="M71.3978 70.0903C71.3978 70.1122 56.0891 70.1309 37.197 70.1309C18.3048 70.1309 2.98676 70.1122 2.98676 70.0903C2.98676 70.0684 18.2954 70.0497 37.197 70.0497C56.0985 70.0497 71.3978 70.0669 71.3978 70.0903Z" fill="#263238"/>
<path d="M17.7362 62.4704C17.7823 62.1716 17.7688 61.8666 17.6964 61.573C17.6241 61.2794 17.4944 61.0031 17.3148 60.7598C17.1351 60.5166 16.9092 60.3114 16.6499 60.1559C16.3906 60.0004 16.103 59.8977 15.8039 59.8539C15.7512 59.842 15.6961 59.8487 15.6477 59.8726C15.6194 59.901 15.599 59.9362 15.5883 59.9747C15.5776 60.0133 15.5771 60.054 15.5867 60.0929C15.6419 60.6736 15.8791 61.2221 16.2646 61.6601C16.6501 62.098 17.164 62.4029 17.7331 62.5313" fill="#455A64"/>
<path d="M14.5245 66.699C15.1025 67.8909 15.9304 68.6923 16.963 68.7298C17.1676 68.7376 17.3238 68.6017 17.5206 68.5908C17.6356 68.6166 17.7465 68.6581 17.8502 68.7142C17.9039 68.7381 17.9618 68.7514 18.0205 68.7532C19.0843 68.697 19.9903 67.9487 20.6011 66.6975C21.4509 64.9464 21.1885 63.064 20.0153 62.4923C19.8616 62.4151 19.7011 62.3523 19.5358 62.3048C19.3456 62.2526 19.1486 62.2295 18.9515 62.2361C18.4942 62.2653 18.0444 62.3671 17.619 62.5376L17.5612 62.5579C16.6084 62.1377 15.8429 62.1346 15.1072 62.4923C13.934 63.0656 13.6732 64.9479 14.5245 66.699Z" fill="#407BFF"/>
<path d="M14.5448 64.9245C14.4895 64.8149 14.4566 64.6954 14.448 64.573C14.4134 64.2766 14.4492 63.9763 14.5527 63.6964C14.6561 63.4166 14.8241 63.1651 15.0431 62.9624C15.1294 62.8745 15.2324 62.8049 15.3462 62.7578C15.3462 62.7703 15.2368 62.8453 15.0822 63.0031C14.8832 63.2094 14.7291 63.4548 14.6297 63.7236C14.5302 63.9925 14.4875 64.279 14.5042 64.5652C14.5198 64.787 14.5589 64.9198 14.5448 64.9245Z" fill="#FAFAFA"/>
<path d="M14.7604 65.7571C14.7385 65.7571 14.701 65.679 14.676 65.5728C14.651 65.4665 14.6495 65.3744 14.676 65.3697C14.7026 65.365 14.7354 65.4478 14.7604 65.554C14.7854 65.6602 14.7823 65.7524 14.7604 65.7571Z" fill="#FAFAFA"/>
<path d="M20.1606 59.6055C20.1606 59.6195 19.9403 59.7039 19.6092 59.9023C19.4162 60.0183 19.2324 60.1488 19.0593 60.2928C18.85 60.472 18.6562 60.6685 18.4798 60.8802C18.3042 61.0943 18.1474 61.3233 18.0111 61.5644C17.9039 61.7627 17.812 61.969 17.7362 62.1814C17.6081 62.5438 17.5706 62.7828 17.555 62.7797C17.5526 62.7229 17.5584 62.6661 17.5722 62.611C17.5811 62.5451 17.5941 62.4799 17.6112 62.4157C17.6315 62.3407 17.6487 62.2595 17.6815 62.1626C17.7515 61.9447 17.8398 61.7331 17.9455 61.53C18.2073 61.0311 18.5676 60.5905 19.0046 60.235C19.1824 60.0908 19.3727 59.9628 19.5732 59.8523C19.6489 59.8081 19.7272 59.7685 19.8076 59.7336C19.8667 59.7036 19.9278 59.6776 19.9903 59.6555C20.0443 59.6305 20.1017 59.6136 20.1606 59.6055Z" fill="#263238"/>
<path d="M8.85403 67.3613V67.5831L11.708 68.9141C11.708 68.9141 11.9423 69.6201 14.0215 69.6561C16.1007 69.692 21.1041 69.6967 21.1041 69.6967C21.1041 69.6967 22.4803 69.7264 23.3692 68.9484L26.0966 67.6238L26.0607 67.3457L8.85403 67.3613Z" fill="#E0E0E0"/>
<path d="M20.901 69.6732H14.2215V69.9685H20.901V69.6732Z" fill="#E0E0E0"/>
<path d="M23.416 68.936H23.3864H23.2973L22.9568 68.9454L21.7071 68.9688C20.6464 68.9844 19.1827 69.0016 17.5675 69.0032C15.9523 69.0047 14.4855 68.9938 13.4264 68.9672C12.8968 68.9548 12.4688 68.9423 12.1767 68.9266L11.8361 68.911H11.7471H11.7174H11.8361L12.1782 68.9188C12.4735 68.9298 12.9015 68.936 13.4279 68.9454C14.487 68.9626 15.9507 68.9704 17.5691 68.9672C19.1874 68.9641 20.648 68.9548 21.7071 68.9469L22.9568 68.9376H23.416V68.936Z" fill="#263238"/>
<path d="M20.7448 69.6732C20.7448 69.6857 19.2624 69.6967 17.4363 69.6967C15.6102 69.6967 14.1277 69.6857 14.1277 69.6732C14.1277 69.6607 15.6086 69.6514 17.4363 69.6514C19.2639 69.6514 20.7448 69.6607 20.7448 69.6732Z" fill="#263238"/>
<path d="M26.0388 67.6238C26.0388 67.6363 22.1867 67.6457 17.4363 67.6457C12.6859 67.6457 8.83374 67.6363 8.83374 67.6238C8.83374 67.6113 12.6843 67.6019 17.4363 67.6019C22.1882 67.6019 26.0388 67.6113 26.0388 67.6238Z" fill="#263238"/>
<path d="M31.5515 19.5077C31.5163 21.6083 30.8589 23.6514 29.6625 25.3785C28.4661 27.1055 26.7845 28.439 24.8302 29.2103C22.8759 29.9816 20.7368 30.156 18.6834 29.7115C16.63 29.267 14.7545 28.2236 13.2941 26.7132C11.8337 25.2028 10.854 23.2932 10.4789 21.226C10.1039 19.1588 10.3502 17.0268 11.1869 15.0996C12.0235 13.1724 13.4129 11.5365 15.1793 10.399C16.9456 9.26145 19.0097 8.67325 21.1104 8.7088C23.9269 8.75645 26.6091 9.92091 28.5672 11.946C30.5252 13.9712 31.5987 16.6911 31.5515 19.5077Z" fill="#407BFF"/>
<g opacity="0.3">
<path d="M31.5515 19.5077C31.5163 21.6083 30.8589 23.6514 29.6625 25.3785C28.4661 27.1055 26.7845 28.439 24.8302 29.2103C22.8759 29.9816 20.7368 30.156 18.6834 29.7115C16.63 29.267 14.7545 28.2236 13.2941 26.7132C11.8337 25.2028 10.854 23.2932 10.4789 21.226C10.1039 19.1588 10.3502 17.0268 11.1869 15.0996C12.0235 13.1724 13.4129 11.5365 15.1793 10.399C16.9456 9.26145 19.0097 8.67325 21.1104 8.7088C23.9269 8.75645 26.6091 9.92091 28.5672 11.946C30.5252 13.9712 31.5987 16.6911 31.5515 19.5077Z" fill="black"/>
</g>
<path d="M27.6985 26.5521C31.8754 22.3751 31.8754 15.6029 27.6985 11.426C23.5215 7.24901 16.7493 7.24901 12.5724 11.426C8.39543 15.6029 8.39543 22.3751 12.5724 26.5521C16.7493 30.729 23.5215 30.729 27.6985 26.5521Z" fill="#407BFF"/>
<path d="M28.7105 23.2038C31.0376 18.4682 29.0852 12.7428 24.3496 10.4157C19.6141 8.08859 13.8886 10.041 11.5615 14.7766C9.23442 19.5121 11.1869 25.2376 15.9224 27.5647C20.658 29.8918 26.3834 27.9393 28.7105 23.2038Z" fill="white"/>
<path d="M29.6894 19.1499C29.6894 19.1499 29.6894 19.0968 29.6894 18.9937C29.6894 18.8906 29.6894 18.7391 29.6754 18.5391C29.6068 17.1754 29.2465 15.8423 28.6189 14.6297C27.9913 13.4171 27.111 12.3531 26.0372 11.5096C24.8705 10.5921 23.5053 9.96027 22.0507 9.66479C20.8203 9.41587 19.5532 9.40951 18.3204 9.64604C17.8853 9.7316 17.4563 9.84588 17.0364 9.98814C15.1922 10.6286 13.5894 11.82 12.4445 13.4013C11.2996 14.9825 10.668 16.8771 10.6351 18.829C10.6023 20.7809 11.1697 22.6958 12.2606 24.3147C13.3515 25.9336 14.9134 27.1783 16.7349 27.8805C17.148 28.0356 17.5706 28.164 18.0002 28.2648C18.4194 28.3609 18.8448 28.4277 19.2733 28.4648C20.0929 28.5406 20.9189 28.5096 21.7305 28.3726C23.1924 28.122 24.5757 27.5337 25.7701 26.6543C27.5109 25.3777 28.7688 23.55 29.3395 21.4681C29.4917 20.9055 29.5932 20.3305 29.6426 19.7498C29.6644 19.5514 29.6629 19.3983 29.6723 19.2968C29.6816 19.1952 29.6816 19.1405 29.6816 19.1405C29.6816 19.1405 29.6816 19.3514 29.6582 19.7498C29.6159 20.3303 29.5191 20.9056 29.3692 21.4681C28.8093 23.5643 27.552 25.4073 25.8045 26.6933C24.6041 27.5787 23.2132 28.1709 21.743 28.4226C20.926 28.5633 20.0942 28.5964 19.2686 28.521C18.8371 28.4832 18.4086 28.4164 17.9861 28.3211C17.5527 28.2206 17.1263 28.0918 16.7099 27.9352C14.8694 27.2318 13.2901 25.9789 12.1866 24.3466C11.083 22.7143 10.5088 20.7818 10.5419 18.8118C10.575 16.8417 11.2138 14.9296 12.3716 13.3353C13.5293 11.741 15.1498 10.5418 17.0129 9.90067C17.4367 9.76497 17.8687 9.65645 18.3063 9.57575C19.6597 9.31311 21.0538 9.34603 22.3933 9.67227C23.7328 9.9985 24.9859 10.6103 26.0669 11.4659C27.0294 12.2293 27.8374 13.1693 28.4476 14.2355C29.2025 15.5495 29.6286 17.0265 29.6894 18.5407C29.6988 18.9484 29.6894 19.1499 29.6894 19.1499Z" fill="#263238"/>
<path d="M15.718 31.7749L16.2303 28.7897L17.9065 29.3989L16.6318 32.0701C16.5849 32.1699 16.5052 32.2506 16.406 32.2987C16.3067 32.3467 16.194 32.3592 16.0866 32.3341C15.9649 32.3063 15.8587 32.2327 15.79 32.1285C15.7213 32.0243 15.6955 31.8976 15.718 31.7749Z" fill="#407BFF"/>
<path d="M30.4314 27.7165L28.7303 25.2172L27.4572 26.4669L29.7191 28.3664C29.8036 28.4371 29.9098 28.4769 30.02 28.4792C30.1302 28.4815 30.2379 28.4461 30.3252 28.3789C30.4253 28.3038 30.4924 28.1927 30.5122 28.0692C30.532 27.9456 30.503 27.8192 30.4314 27.7165Z" fill="#407BFF"/>
<path d="M17.1173 6.89707L16.6396 7.04944L17.3202 9.18358L17.798 9.03121L17.1173 6.89707Z" fill="#407BFF"/>
<path d="M17.0623 6.02086L16.1753 6.30361C16.0002 6.35942 15.9035 6.54659 15.9593 6.72168L16.0338 6.95534C16.0896 7.13043 16.2768 7.22712 16.4519 7.17131L17.3389 6.88856C17.514 6.83275 17.6107 6.64557 17.5549 6.47049L17.4804 6.23683C17.4246 6.06174 17.2374 5.96505 17.0623 6.02086Z" fill="#407BFF"/>
<path d="M19.9403 16.7756C19.8263 16.4272 20.1981 15.7196 20.1715 15.0666C20.145 14.4136 18.8843 11.7237 18.789 11.5222C18.7654 11.465 18.723 11.4176 18.6688 11.3878C18.6597 11.385 18.6501 11.3845 18.6408 11.3864C18.6315 11.3884 18.6229 11.3928 18.6158 11.3991C18.6087 11.4054 18.6034 11.4134 18.6004 11.4224C18.5973 11.4314 18.5967 11.441 18.5985 11.4503L19.4686 14.1262C19.476 14.1484 19.4756 14.1725 19.4674 14.1944C19.4591 14.2164 19.4435 14.2348 19.4233 14.2465C19.4107 14.2531 19.3969 14.2569 19.3828 14.2576C19.3686 14.2583 19.3545 14.2558 19.3414 14.2505C19.3283 14.2451 19.3165 14.2369 19.3069 14.2265C19.2973 14.2161 19.2901 14.2038 19.2858 14.1903L18.361 11.5565C18.3517 11.5286 18.3317 11.5055 18.3053 11.4923C18.2789 11.4791 18.2484 11.4769 18.2204 11.4863C18.1925 11.4956 18.1694 11.5156 18.1562 11.542C18.143 11.5684 18.1408 11.5989 18.1501 11.6268L18.9718 14.2824C18.9796 14.3046 18.9793 14.3288 18.971 14.3508C18.9628 14.3728 18.947 14.3912 18.9265 14.4027C18.9141 14.4093 18.9004 14.4131 18.8863 14.4138C18.8723 14.4145 18.8583 14.412 18.8453 14.4067C18.8323 14.4013 18.8207 14.3931 18.8112 14.3827C18.8018 14.3723 18.7947 14.3599 18.7906 14.3465L17.8799 11.7128C17.8684 11.6863 17.8475 11.6652 17.8212 11.6534C17.7949 11.6416 17.7652 11.6401 17.7378 11.649C17.7104 11.658 17.6874 11.6769 17.6733 11.702C17.6591 11.7271 17.6548 11.7565 17.6612 11.7846L18.4766 14.4402C18.4841 14.4624 18.4837 14.4865 18.4754 14.5084C18.4672 14.5303 18.4516 14.5487 18.4313 14.5605C18.4188 14.5671 18.405 14.5709 18.3908 14.5716C18.3767 14.5722 18.3626 14.5698 18.3495 14.5645C18.3364 14.5591 18.3246 14.5509 18.315 14.5405C18.3054 14.5301 18.2982 14.5177 18.2939 14.5043L17.4238 11.8268C17.4202 11.8159 17.4135 11.8063 17.4045 11.7992C17.3956 11.792 17.3848 11.7876 17.3734 11.7864C17.362 11.7853 17.3505 11.7874 17.3403 11.7927C17.3301 11.7979 17.3217 11.8059 17.316 11.8159C17.288 11.872 17.2814 11.9364 17.2972 11.9971C17.3378 12.2142 17.8986 15.1307 18.261 15.6758C18.6235 16.221 19.3389 16.574 19.4529 16.9255C19.556 17.2379 21.5321 24.0612 21.8758 25.2453C21.8823 25.2681 21.8935 25.2894 21.9085 25.3078C21.9234 25.3262 21.942 25.3414 21.963 25.3525C21.984 25.3636 22.007 25.3703 22.0307 25.3723C22.0543 25.3743 22.0782 25.3715 22.1007 25.364L22.8193 25.1313C22.8421 25.1241 22.8632 25.1123 22.8813 25.0968C22.8995 25.0812 22.9142 25.062 22.9247 25.0406C22.9353 25.0191 22.9413 24.9957 22.9425 24.9718C22.9437 24.948 22.9401 24.9241 22.9318 24.9017C22.5037 23.7488 20.0434 17.0927 19.9403 16.7756Z" fill="#E0E0E0"/>
<path d="M25.8982 12.361C25.8982 12.361 24.9234 12.0845 23.6878 13.4545C22.4522 14.8244 20.7776 17.1114 20.7354 17.2488C20.6323 17.5769 20.9088 17.7425 21.0478 18.0721C21.1291 18.2658 21.1759 18.2377 20.8354 18.7157C20.5308 19.1437 17.5081 22.5866 16.8911 23.2895C16.878 23.3057 16.8684 23.3244 16.8626 23.3444C16.8569 23.3644 16.8552 23.3854 16.8577 23.406C16.8601 23.4267 16.8667 23.4466 16.877 23.4647C16.8873 23.4828 16.9011 23.4987 16.9176 23.5113L17.8221 24.1581C17.8558 24.1806 17.8971 24.1892 17.937 24.1819C17.977 24.1746 18.0125 24.1521 18.0361 24.119L21.9117 18.2533C21.9117 18.2533 25.906 12.8781 25.9591 12.775C26.0122 12.6719 26.1591 12.4907 25.8982 12.361Z" fill="#E0E0E0"/>
<path d="M23.6207 3.36949C23.7681 3.11026 23.9973 2.90718 24.2723 2.79195C24.5474 2.67672 24.8529 2.65584 25.1411 2.73257C25.4293 2.8093 25.6839 2.97932 25.8653 3.21607C26.0466 3.45282 26.1444 3.74297 26.1435 4.04119L23.6207 3.36949Z" fill="#407BFF"/>
<path d="M18.6859 6.13912C18.6859 6.13912 20.6292 2.27602 25.025 3.51009C29.4208 4.74415 29.1786 8.93998 29.1786 8.93998L18.6859 6.13912Z" fill="#407BFF"/>
<path d="M29.2552 8.99621C29.099 9.55388 26.6168 9.37111 23.6988 8.58693C20.7807 7.80275 18.536 6.7124 18.686 6.15629C18.8359 5.60018 21.3228 5.78138 24.2424 6.56556C27.162 7.34974 29.4052 8.43853 29.2552 8.99621Z" fill="#263238"/>
<path d="M23.4192 6.35779L22.8537 8.79624L24.2549 9.08523L24.8828 6.74675L23.4192 6.35779Z" fill="#407BFF"/>
<g opacity="0.3">
<path d="M18.6875 6.27509C18.6875 6.27509 21.3603 6.47192 22.2288 6.63594C23.0973 6.79996 26.0872 7.5732 27.0542 7.96217C28.0211 8.35113 29.0052 9.21186 29.0052 9.21186L29.2552 8.99785C29.2552 8.99785 29.3536 8.70886 28.7662 8.35894C26.7224 7.22929 24.4976 6.46389 22.1913 6.09701C18.8484 5.58464 18.6969 6.00485 18.6594 6.21573" fill="black"/>
</g>
<path d="M26.8292 4.299C26.8214 4.3115 26.6496 4.18497 26.3528 4.01938C25.9658 3.80426 25.5574 3.62993 25.1343 3.4992C24.7117 3.36649 24.274 3.28776 23.8315 3.26488C23.4926 3.25083 23.2817 3.28363 23.2801 3.26488C23.3269 3.24747 23.3757 3.23643 23.4254 3.23208C23.4833 3.22242 23.5417 3.21616 23.6004 3.21333C23.6777 3.20596 23.7554 3.20283 23.8331 3.20396C24.2834 3.21143 24.7302 3.28458 25.1593 3.4211C25.5885 3.55288 25.9999 3.73704 26.384 3.9694C26.5011 4.03949 26.6138 4.1167 26.7214 4.20059C26.7614 4.22869 26.7976 4.26176 26.8292 4.299Z" fill="#263238"/>
<g opacity="0.3">
<path d="M23.9409 3.45381C23.1004 3.38347 22.2559 3.53162 21.4896 3.88388C20.7232 4.23614 20.0609 4.78054 19.567 5.46425L20.7948 5.59703C21.3853 4.39889 22.6037 3.51161 23.9409 3.45381Z" fill="white"/>
</g>
<g opacity="0.3">
<path d="M25.264 3.00241C25.0761 2.93854 24.8782 2.90891 24.6798 2.91494C24.4838 2.94733 24.2954 3.01508 24.1237 3.11489C24.1158 3.11489 24.1596 3.04928 24.2533 2.98367C24.3782 2.90003 24.5219 2.84857 24.6715 2.83385C24.8211 2.81913 24.9721 2.84162 25.1109 2.89931C25.2156 2.94618 25.2687 2.99304 25.264 3.00241Z" fill="white"/>
</g>
<g opacity="0.3">
<path d="M10.5645 22.6788C10.5488 22.6503 10.5358 22.6205 10.5255 22.5897L10.4271 22.3289C10.3729 22.1924 10.3259 22.0532 10.2865 21.9118C10.2396 21.7462 10.174 21.5603 10.1303 21.3479C10.0865 21.1354 10.024 20.9058 9.985 20.6543C9.94594 20.4028 9.90689 20.1325 9.87565 19.8467C9.82388 19.2266 9.82388 18.6032 9.87565 17.9831C9.93414 17.363 10.0449 16.749 10.2068 16.1476C10.2865 15.8727 10.363 15.6102 10.4536 15.3665C10.5442 15.1229 10.6317 14.9073 10.7176 14.7073C10.8035 14.5074 10.8941 14.3356 10.9691 14.1809C11.0441 14.0263 11.1175 13.8966 11.18 13.7935L11.3237 13.5529C11.339 13.5248 11.3568 13.4982 11.3768 13.4733C11.3675 13.5044 11.3544 13.5343 11.3378 13.5623L11.2081 13.8076C11.1503 13.9138 11.08 14.0434 11.0097 14.2012C10.9394 14.359 10.8535 14.5293 10.7707 14.7308C10.6879 14.9323 10.5958 15.1478 10.5177 15.3884C10.4396 15.629 10.3615 15.8867 10.2787 16.1695C9.9576 17.3654 9.84869 18.6084 9.95688 19.842C9.98656 20.1247 10.0116 20.395 10.0584 20.6434C10.1053 20.8917 10.1459 21.126 10.1928 21.3354C10.2396 21.5447 10.2927 21.7337 10.3365 21.8993C10.3802 22.0649 10.4239 22.2117 10.463 22.3211L10.5474 22.5851C10.5571 22.6154 10.5629 22.6469 10.5645 22.6788Z" fill="white"/>
</g>
<path d="M25.2078 9.57575C25.1741 9.56655 25.1416 9.55345 25.1109 9.5367L24.8469 9.4008L24.6548 9.30707L24.4189 9.2071L24.1487 9.09306L23.8362 8.98059C22.7016 8.57809 21.5121 8.35157 20.309 8.30888C19.9966 8.29571 19.6838 8.29884 19.3717 8.31826C18.8238 8.33557 18.2794 8.41363 17.7487 8.55101C17.3221 8.65284 16.9017 8.77906 16.4896 8.92904C16.2111 9.02589 15.9378 9.13748 15.6711 9.26333C15.4868 9.35237 15.3883 9.40705 15.3852 9.4008C15.4064 9.38325 15.4295 9.36806 15.454 9.3555C15.4993 9.32738 15.5664 9.2852 15.6586 9.23834C15.9172 9.10114 16.1844 8.98062 16.4584 8.87749C16.8706 8.7199 17.2921 8.58791 17.7206 8.48228C17.9643 8.41979 18.2246 8.36772 18.5016 8.32607C18.786 8.27688 19.0738 8.24972 19.3624 8.24484C19.6801 8.22391 19.9987 8.22026 20.3168 8.2339C21.5275 8.27543 22.7237 8.51119 23.8597 8.93216L24.1721 9.05089L24.4423 9.17273L24.6751 9.27739C24.7469 9.31332 24.8094 9.34925 24.8672 9.37893L25.1281 9.52108C25.1559 9.53745 25.1825 9.55572 25.2078 9.57575Z" fill="#263238"/>
<path d="M17.2738 6.97013C17.1692 7.04574 17.05 7.09893 16.9239 7.12634C16.8061 7.17715 16.6788 7.20218 16.5505 7.19976C16.6549 7.12371 16.7741 7.07049 16.9004 7.04355C17.0182 6.99274 17.1455 6.96771 17.2738 6.97013Z" fill="#263238"/>
<path d="M7.06699 9.41958C6.90867 9.16831 6.83754 8.87188 6.8646 8.57613C6.89166 8.28038 7.01541 8.00178 7.2167 7.78341C7.41799 7.56505 7.68562 7.41908 7.9782 7.36809C8.27077 7.3171 8.572 7.36392 8.8353 7.50131L7.06699 9.41958Z" fill="#407BFF"/>
<path d="M7.231 15.0822C7.231 15.0822 4.70507 11.569 7.84491 8.24486C10.9847 4.92069 14.5823 7.09202 14.5823 7.09202L7.231 15.0822Z" fill="#407BFF"/>
<path d="M14.6276 7.09359C15.0525 7.48568 13.7419 9.59297 11.7017 11.8002C9.66163 14.0075 7.66369 15.4806 7.24036 15.0885C6.81703 14.6964 8.13233 12.5891 10.1631 10.3818C12.1938 8.17457 14.2042 6.7015 14.6276 7.09359Z" fill="#263238"/>
<path d="M9.61948 10.9911L11.5143 12.625L12.4235 11.5191L10.6442 9.87573L9.61948 10.9911Z" fill="#407BFF"/>
<g opacity="0.3">
<path d="M7.35129 15.1416C7.35129 15.1416 8.76812 12.8656 9.31642 12.1736C9.86472 11.4815 11.9392 9.19305 12.7343 8.51822C13.5294 7.84339 14.7151 7.33726 14.7151 7.33726L14.6854 7.16543L14.6417 7.09982C14.6417 7.09982 14.4339 6.86707 13.7653 7.27009C13.1811 7.62157 10.8254 9.23991 8.81967 11.9564C6.81392 14.6729 7.11385 15.0088 7.28255 15.1384" fill="black"/>
</g>
<path d="M9.38203 7.01392C9.38203 7.02641 9.1977 7.12014 8.91339 7.30603C8.54255 7.54858 8.19806 7.8292 7.88552 8.14332C7.57135 8.45565 7.29837 8.80684 7.07323 9.18837C6.90296 9.48205 6.83266 9.682 6.8186 9.67731C6.82544 9.62794 6.83856 9.57964 6.85766 9.5336C6.87581 9.48028 6.8972 9.42811 6.9217 9.37739C6.9514 9.30594 6.98477 9.23607 7.02168 9.16807C7.2362 8.7727 7.5078 8.4111 7.82773 8.0949C8.14354 7.77585 8.49772 7.49723 8.88215 7.26542C8.99804 7.1939 9.11859 7.13023 9.243 7.07484C9.28635 7.04829 9.33312 7.02779 9.38203 7.01392Z" fill="#263238"/>
<path d="M13.267 10.713C13.267 10.7239 13.0936 10.8692 12.814 11.1348C12.4514 11.4721 12.1112 11.8327 11.7955 12.2142C11.4812 12.597 11.2006 13.0062 10.9566 13.4373C10.7692 13.7685 10.6755 13.9856 10.663 13.9794C10.6745 13.9254 10.6923 13.873 10.7161 13.8232C10.7715 13.6824 10.8346 13.5447 10.9051 13.4108C11.1373 12.9668 11.4148 12.5481 11.733 12.1611C12.0504 11.7755 12.3995 11.417 12.7765 11.0895C12.9202 10.9645 13.0421 10.8677 13.128 10.8052C13.17 10.7684 13.2167 10.7374 13.267 10.713Z" fill="#263238"/>
<g opacity="0.3">
<path d="M7.43094 8.99316C6.97742 9.70517 6.71564 10.5223 6.67103 11.3653C6.62642 12.2083 6.80048 13.0486 7.17632 13.8045L7.86521 12.7782C7.07947 11.6956 6.86077 10.2007 7.43094 8.99316Z" fill="white"/>
</g>
<g opacity="0.3">
<path d="M7.44812 7.75125C7.3046 7.88845 7.18618 8.04969 7.09821 8.2277C7.03676 8.41663 7.00925 8.61496 7.01698 8.81349C7.00761 8.81349 6.97636 8.75256 6.9623 8.63853C6.9459 8.48888 6.96684 8.33749 7.02327 8.19791C7.0797 8.05834 7.16985 7.93493 7.28566 7.83873C7.3747 7.76844 7.44187 7.74344 7.44812 7.75125Z" fill="white"/>
</g>
<path d="M28.4194 20.0217C28.1961 19.9935 28.0195 19.9373 28.0242 19.8967C28.0289 19.8561 28.2148 19.8405 28.4382 19.8623C28.6616 19.8842 28.8381 19.942 28.8334 19.9889C28.8287 20.0357 28.6428 20.0498 28.4194 20.0217Z" fill="#263238"/>
<path d="M25.264 25.5765C25.125 25.3984 25.0406 25.2344 25.0734 25.2079C25.1062 25.1813 25.2468 25.3031 25.3858 25.4765C25.5249 25.6499 25.6123 25.8155 25.5764 25.8452C25.5405 25.8749 25.4015 25.753 25.264 25.5765Z" fill="#263238"/>
<path d="M19.103 27.2729C19.1311 27.0495 19.1874 26.873 19.2295 26.8777C19.2717 26.8823 19.2858 27.0667 19.2624 27.2901C19.2389 27.5134 19.1827 27.69 19.1358 27.6853C19.089 27.6806 19.0749 27.4947 19.103 27.2729Z" fill="#263238"/>
<path d="M13.5497 24.1159C13.7262 23.9784 13.8918 23.8925 13.9168 23.9253C13.9418 23.9581 13.8231 24.0987 13.6481 24.2377C13.4732 24.3768 13.3092 24.4642 13.2795 24.4283C13.2498 24.3924 13.3716 24.2596 13.5497 24.1159Z" fill="#263238"/>
<path d="M11.8533 17.9564C12.0767 17.9846 12.2532 18.0408 12.2485 18.0814C12.2438 18.122 12.0579 18.1377 11.8345 18.1142C11.6112 18.0908 11.4346 18.0346 11.4393 17.9893C11.444 17.944 11.6299 17.9283 11.8533 17.9564Z" fill="#263238"/>
<path d="M15.0056 12.4016C15.1447 12.5797 15.229 12.7437 15.1962 12.7703C15.1634 12.7968 15.0228 12.675 14.8838 12.5016C14.7448 12.3282 14.6573 12.1611 14.6932 12.133C14.7291 12.1048 14.8713 12.2314 15.0056 12.4016Z" fill="#263238"/>
<path d="M21.1697 10.7052C21.1416 10.9285 21.0854 11.1051 21.0432 11.1004C21.001 11.0957 20.9869 10.9114 21.0104 10.688C21.0338 10.4646 21.09 10.2865 21.1369 10.2928C21.1838 10.299 21.1978 10.4833 21.1697 10.7052Z" fill="#263238"/>
<path d="M26.7214 13.8622C26.5449 13.9997 26.3793 14.084 26.3543 14.0528C26.3293 14.0215 26.4481 13.8778 26.623 13.7403C26.798 13.6029 26.962 13.5123 26.9917 13.5498C27.0214 13.5873 26.9011 13.7247 26.7214 13.8622Z" fill="#263238"/>
<path d="M6.9014 6.21411C6.88845 6.23682 6.87271 6.25781 6.85454 6.2766L6.7077 6.45155C6.62873 6.53727 6.55417 6.62694 6.48432 6.72024C6.40153 6.82958 6.29843 6.9483 6.20626 7.09202L6.05005 7.3154C5.9985 7.3935 5.95164 7.47942 5.89384 7.56534C5.78449 7.73717 5.69233 7.93243 5.58142 8.13394C5.37254 8.58033 5.20419 9.04458 5.07842 9.5211C4.9662 10.0009 4.89667 10.4896 4.87066 10.9817C4.87066 11.2082 4.85348 11.4237 4.87066 11.6268C4.87066 11.7268 4.87066 11.8252 4.88316 11.9189C4.89565 12.0127 4.9019 12.1017 4.90971 12.1876C4.92221 12.3595 4.95501 12.511 4.97532 12.6469C4.99186 12.7626 5.0148 12.8773 5.04405 12.9905L5.09092 13.2077C5.09815 13.2331 5.10183 13.2594 5.10185 13.2858C5.0893 13.2628 5.08034 13.238 5.07529 13.2124L5.01281 12.9984C4.97799 12.8857 4.95034 12.7709 4.93002 12.6547C4.89652 12.4999 4.87097 12.3435 4.85347 12.1861C4.84254 12.1001 4.83161 12.0095 4.82067 11.9158C4.80974 11.8221 4.80817 11.7237 4.80193 11.6206C4.7863 11.4175 4.80193 11.1988 4.80193 10.9692C4.82342 10.4727 4.89247 9.97941 5.00812 9.4961C5.13579 9.01244 5.30837 8.54176 5.52362 8.0902C5.62984 7.88713 5.72669 7.69187 5.83604 7.52003C5.88915 7.43412 5.93758 7.3482 5.99225 7.2701L6.14846 7.04828C6.24531 6.90456 6.35154 6.78741 6.43745 6.68118C6.51102 6.58929 6.58978 6.50167 6.67333 6.41875C6.73738 6.35626 6.78893 6.30315 6.82954 6.26254C6.85126 6.2433 6.87542 6.22702 6.9014 6.21411Z" fill="#263238"/>
<path d="M4.48638 8.58069C4.50824 8.59162 4.35828 8.90873 4.23956 9.31957C4.12084 9.7304 4.08335 10.0788 4.05211 10.0772C4.03684 9.81218 4.074 9.54676 4.16146 9.29613C4.22234 9.03884 4.3327 8.79584 4.48638 8.58069Z" fill="#263238"/>
<path d="M30.8829 7.66531C30.8557 7.58659 30.8359 7.50554 30.8235 7.42318C30.8079 7.34508 30.7892 7.24979 30.7579 7.14044C30.7267 7.0311 30.7017 6.90456 30.6564 6.76866C30.6111 6.63276 30.5689 6.48436 30.5002 6.32815C30.4315 6.17193 30.3721 6.00635 30.2971 5.83452C30.1246 5.46413 29.9241 5.10746 29.6973 4.7676C29.4655 4.43193 29.2091 4.11394 28.9303 3.81627C28.7959 3.68349 28.6725 3.55384 28.546 3.44449C28.4195 3.33514 28.3023 3.23204 28.1914 3.143C28.0805 3.05396 27.9758 2.98679 27.879 2.91025C27.7821 2.83371 27.7071 2.78841 27.64 2.74467C27.568 2.70315 27.5 2.65504 27.4369 2.60095C27.5126 2.6345 27.5857 2.67366 27.6556 2.71811C27.7411 2.76579 27.824 2.81793 27.904 2.87432C27.9977 2.93993 28.1086 3.00866 28.2164 3.09927C28.3242 3.18987 28.4554 3.28203 28.5804 3.39607C28.7053 3.5101 28.8365 3.63351 28.9724 3.76629C29.2585 4.06363 29.5197 4.38389 29.7535 4.72386C29.982 5.06757 30.1826 5.42905 30.3533 5.80484C30.4268 5.9798 30.5002 6.14538 30.5517 6.30628C30.6033 6.46717 30.6548 6.6187 30.6923 6.7546C30.7298 6.89051 30.7595 7.02016 30.7845 7.13107C30.8095 7.24198 30.8251 7.34039 30.836 7.42006C30.8582 7.50043 30.8739 7.58244 30.8829 7.66531Z" fill="#263238"/>
<path d="M30.9813 6.022C30.9368 5.79634 30.8752 5.5744 30.797 5.3581C30.6935 5.15132 30.575 4.9524 30.4424 4.76294C30.64 4.90241 30.79 5.09928 30.872 5.32686C30.9782 5.54208 31.0163 5.78456 30.9813 6.022Z" fill="#263238"/>
<path d="M14.4089 29.4364C14.3787 29.4314 14.3493 29.4225 14.3214 29.4098L14.073 29.3192C13.9422 29.2741 13.8139 29.222 13.6887 29.163C13.5403 29.0943 13.3763 29.0224 13.1904 28.9209L12.9077 28.7647C12.8093 28.7116 12.7124 28.646 12.6093 28.5835C12.4016 28.4601 12.1938 28.307 11.972 28.1508C11.0226 27.4466 10.2095 26.5753 9.57259 25.5795C9.432 25.3468 9.29297 25.1297 9.18519 24.9125C9.12895 24.8063 9.07115 24.7048 9.02898 24.6001C8.9868 24.4954 8.93837 24.4002 8.89463 24.3064C8.80559 24.1221 8.74624 23.9456 8.68688 23.7941C8.63519 23.6648 8.59035 23.5328 8.55253 23.3988L8.47755 23.1442C8.46828 23.1152 8.46149 23.0854 8.45724 23.0552C8.4733 23.0814 8.48541 23.1098 8.49317 23.1395L8.58221 23.3879C8.61814 23.4973 8.66501 23.6285 8.72905 23.7769C8.7931 23.9253 8.85558 24.1002 8.94775 24.283C8.99149 24.3752 9.03679 24.472 9.08521 24.572C9.13364 24.672 9.193 24.7719 9.24923 24.8844C9.35858 25.0969 9.49917 25.3124 9.63976 25.5421C9.96174 26.027 10.3211 26.4861 10.7145 26.9151C11.117 27.3396 11.5526 27.7314 12.0173 28.0867C12.236 28.2429 12.4406 28.3992 12.6421 28.5226C12.7437 28.5866 12.839 28.6522 12.9358 28.7085L13.2154 28.8647C13.3904 28.9693 13.5591 29.0443 13.7044 29.1177C13.8496 29.1911 13.9762 29.2474 14.0824 29.2911L14.323 29.3973C14.3528 29.4075 14.3816 29.4206 14.4089 29.4364Z" fill="#263238"/>
<path d="M10.8504 28.81C10.5151 28.5367 10.1968 28.243 9.89754 27.9306C9.57953 27.637 9.28007 27.324 9.00089 26.9933C9.33706 27.2657 9.65535 27.5594 9.95377 27.8728C10.2718 28.1663 10.5712 28.4793 10.8504 28.81Z" fill="#263238"/>
<path d="M31.7202 14.3793C31.739 14.4072 31.7547 14.437 31.767 14.4683L31.8858 14.7307C31.9389 14.8448 31.9998 14.9854 32.0592 15.1525C32.1185 15.3197 32.1982 15.5071 32.2607 15.7211L32.3669 16.057C32.4028 16.1741 32.4309 16.2975 32.4653 16.4256C32.5372 16.6787 32.5887 16.9552 32.6481 17.2457C32.8812 18.5121 32.9149 19.8071 32.7481 21.0838C32.7028 21.376 32.6653 21.6556 32.6075 21.9118C32.5793 22.0414 32.559 22.1664 32.5278 22.2851C32.4966 22.4038 32.4684 22.5163 32.4403 22.6256C32.3888 22.8428 32.3216 23.0349 32.2685 23.2036C32.2154 23.3723 32.1638 23.5161 32.1123 23.6332L32.0076 23.9019C31.9967 23.9335 31.9826 23.9638 31.9654 23.9925C31.9704 23.9593 31.9793 23.9267 31.992 23.8956L32.0826 23.6238C32.1248 23.5051 32.1732 23.3614 32.2201 23.1911C32.2669 23.0209 32.3325 22.8287 32.3763 22.61C32.4028 22.5022 32.4309 22.3882 32.4591 22.2711C32.4872 22.1539 32.5075 22.0274 32.534 21.8993C32.5887 21.6431 32.6231 21.365 32.6653 21.0745C32.7409 20.4401 32.7722 19.8012 32.759 19.1625C32.7386 18.5241 32.6744 17.8878 32.5668 17.2582C32.509 16.9692 32.4606 16.6943 32.3919 16.4413C32.3591 16.3147 32.3325 16.1913 32.2982 16.0742C32.2638 15.957 32.231 15.8461 32.1982 15.7383C32.1388 15.5243 32.0654 15.3353 32.0092 15.1681C31.9529 15.001 31.8967 14.8557 31.853 14.7432C31.8092 14.6308 31.7764 14.5449 31.7483 14.4761C31.7349 14.4451 31.7255 14.4126 31.7202 14.3793Z" fill="#263238"/>
<path d="M33.5947 17.052C33.6188 17.1047 33.6357 17.1604 33.6447 17.2176C33.6713 17.3238 33.7041 17.4816 33.7369 17.6753C33.9061 18.6954 33.9035 19.7366 33.7291 20.7558C33.6963 20.951 33.6635 21.1072 33.6353 21.215C33.6247 21.2713 33.6079 21.3263 33.5853 21.379C33.5713 21.379 33.6197 21.1369 33.6728 20.7542C33.742 20.2463 33.778 19.7344 33.7806 19.2218C33.781 18.7098 33.7476 18.1984 33.6806 17.6909C33.6228 17.2941 33.576 17.0551 33.5947 17.052Z" fill="#263238"/>
<path d="M15.6164 7.4951C15.6164 7.4951 15.5383 7.4498 15.4602 7.33108C15.3629 7.17468 15.3175 6.99152 15.3305 6.80777C15.3429 6.6233 15.4128 6.44736 15.5305 6.30477C15.6195 6.19855 15.6976 6.14856 15.7039 6.16418C15.7101 6.1798 15.6492 6.22979 15.5758 6.33914C15.4783 6.47901 15.4209 6.64282 15.4096 6.81293C15.3983 6.98304 15.4336 7.153 15.5117 7.30452C15.5711 7.42168 15.6305 7.48573 15.6164 7.4951Z" fill="#263238"/>
<path d="M17.933 7.18726C17.9854 7.0177 18.0179 6.8426 18.0299 6.66552C18.0158 6.48781 17.9818 6.31226 17.9283 6.14221C17.9377 6.14221 17.9814 6.18439 18.0252 6.27655C18.0823 6.39768 18.1116 6.53004 18.1111 6.66396C18.1134 6.79822 18.0851 6.93125 18.0283 7.05292C17.9846 7.14665 17.9408 7.19351 17.933 7.18726Z" fill="#263238"/>
<path d="M12.8093 7.92773C12.7579 7.98056 12.7014 8.02818 12.6406 8.06989C12.5297 8.1558 12.3703 8.2839 12.1719 8.44479C11.6682 8.86598 11.1869 9.31336 10.7301 9.78508C10.1943 10.3365 9.73661 10.8629 9.40857 11.2472L9.02273 11.7034C8.97606 11.7606 8.92373 11.8129 8.86652 11.8596C8.90195 11.795 8.94326 11.7338 8.98992 11.6768C9.07428 11.5643 9.19925 11.4019 9.35702 11.2082C9.66944 10.8145 10.1256 10.2803 10.6645 9.72729C11.1223 9.25215 11.6113 8.80805 12.1282 8.39793C12.3282 8.24172 12.4922 8.11987 12.6093 8.04177C12.6721 7.99732 12.7391 7.95913 12.8093 7.92773Z" fill="#263238"/>
<path d="M26.7777 7.39657C26.724 7.38791 26.6715 7.3727 26.6215 7.35127L26.1966 7.20599C25.8357 7.08102 25.339 6.91388 24.7907 6.74673C24.2424 6.57959 23.7269 6.44993 23.3551 6.36558C22.9833 6.28122 22.7553 6.23592 22.7568 6.22343C22.8123 6.21958 22.8681 6.22379 22.9224 6.23592C23.0286 6.24842 23.1801 6.27341 23.3676 6.30934C23.7425 6.37964 24.2564 6.50304 24.8126 6.66863C25.3687 6.83421 25.867 7.01385 26.2184 7.15132C26.3965 7.22005 26.5387 7.27941 26.6371 7.32159C26.6865 7.34153 26.7336 7.36666 26.7777 7.39657Z" fill="#263238"/>
<path d="M15.4008 16.4927C15.4578 16.3612 15.5434 16.2441 15.6516 16.15C15.7597 16.0559 15.8875 15.9873 16.0257 15.9491C16.3256 15.8533 16.5084 15.909 16.574 16.1163C16.6174 16.2499 16.6255 16.3925 16.5974 16.5302C16.5681 16.6662 16.5095 16.7942 16.4256 16.9051C16.2417 17.1319 16.0164 17.3217 15.7617 17.4644C15.8851 18.1001 15.9179 18.5719 15.8648 18.8796C16.2282 18.8859 16.4719 18.8859 16.5959 18.8796C16.7232 18.8724 16.8491 18.8493 16.9708 18.8109C17.0264 18.7983 17.0766 18.7683 17.1142 18.7254C17.1519 18.6825 17.1749 18.6287 17.1801 18.5719C17.1941 18.4547 17.2113 18.3923 17.2332 18.386C17.2551 18.3798 17.305 18.386 17.3222 18.4454C17.3486 18.5256 17.3577 18.6104 17.3491 18.6944C17.3405 18.7784 17.3143 18.8596 17.2722 18.9327C17.2002 19.0764 17.0745 19.1858 16.9223 19.2374C16.7838 19.2846 16.6371 19.3032 16.4912 19.292L16.2319 19.2702L16.0069 19.2405L15.7711 19.2108C15.7229 19.3052 15.6555 19.3885 15.5732 19.4552C15.4908 19.5219 15.3954 19.5707 15.2931 19.5982C15.2475 19.6129 15.1994 19.6183 15.1517 19.6143C15.104 19.6103 15.0575 19.5969 15.015 19.5748C14.9718 19.5551 14.9332 19.5266 14.9017 19.4911C14.8702 19.4556 14.8466 19.4138 14.8322 19.3686C14.7666 19.1655 14.851 19.0265 15.0822 18.9531C15.2254 18.9146 15.3728 18.8937 15.5211 18.8906C15.5 18.4759 15.4478 18.0634 15.3649 17.6565C15.3274 17.6721 15.2743 17.6909 15.2087 17.7127C15.1431 17.7346 15.1072 17.733 15.0994 17.7127C15.079 17.6456 15.1571 17.5737 15.3368 17.4956C15.2577 17.1624 15.28 16.8132 15.4008 16.4927ZM15.4774 19.1796C15.3368 19.1576 15.194 19.1539 15.0525 19.1686C15.0421 19.1704 15.0323 19.1746 15.0238 19.1809C15.0153 19.1872 15.0085 19.1954 15.0038 19.2048C14.999 19.2142 14.9966 19.2246 14.9967 19.2352C14.9967 19.2457 14.9993 19.2561 15.0041 19.2655C15.0123 19.2906 15.0264 19.3135 15.0451 19.3322C15.0638 19.351 15.0867 19.365 15.1118 19.3733C15.1735 19.3952 15.2408 19.3952 15.3024 19.3733C15.3432 19.3551 15.3797 19.3285 15.4094 19.2951C15.439 19.2616 15.4611 19.2223 15.4743 19.1796H15.4774ZM16.21 16.8708C16.2632 16.7931 16.2974 16.704 16.3099 16.6106C16.3224 16.5173 16.3128 16.4223 16.2819 16.3334C16.2209 16.1397 16.1257 16.0647 15.9929 16.1069C15.7044 16.1996 15.6159 16.599 15.7273 17.305C15.9194 17.1992 16.0846 17.0506 16.21 16.8708Z" fill="#263238"/>
<path d="M17.2925 18.4485L17.1363 17.8393C17.0145 17.4581 16.9661 17.2441 16.9911 17.1972C17.0327 17.1214 17.0791 17.0484 17.1301 16.9785C17.1988 16.8801 17.2535 16.8223 17.2863 16.8114C17.3191 16.8005 17.3566 16.7973 17.3707 16.8114C17.3931 16.8334 17.4083 16.8618 17.4144 16.8926C17.4635 17.0533 17.4795 17.2223 17.4613 17.3894C17.4986 17.671 17.5576 17.9494 17.6378 18.222C17.7049 18.4313 17.7721 18.5266 17.8408 18.5047C17.9096 18.4828 17.9971 18.3766 18.0611 18.1923C18.137 17.9519 18.1801 17.7023 18.1892 17.4503C18.1341 17.2538 18.0985 17.0524 18.083 16.8489C18.1099 16.7792 18.1422 16.7119 18.1798 16.6474C18.21 16.5727 18.2652 16.5108 18.336 16.4724C18.3876 16.4568 18.436 16.5162 18.4782 16.6505C18.4971 16.7221 18.5097 16.7953 18.5157 16.8692C18.528 16.9505 18.528 17.0332 18.5157 17.1144C18.5079 17.2269 18.5875 17.5409 18.7516 18.0517C18.7828 18.1486 18.8094 18.1923 18.8297 18.186C18.889 18.1626 18.9484 18.0611 19.0093 17.8736C19.0764 17.6552 19.1219 17.4308 19.1452 17.2035C19.1467 17.0632 19.1742 16.9244 19.2264 16.7942C19.2499 16.7942 19.2655 16.7942 19.2749 16.827C19.3096 17.0002 19.3096 17.1786 19.2749 17.3519C19.1843 18.0392 19.0437 18.4141 18.85 18.4766C18.7408 18.5196 18.6202 18.5246 18.5079 18.4907C18.4751 18.4735 18.4376 18.4016 18.397 18.2735C18.3563 18.1454 18.3251 18.0111 18.2861 17.8549C18.2626 18.0824 18.2068 18.3054 18.1205 18.5172C18.0928 18.5896 18.0496 18.655 17.9941 18.7089C17.9385 18.7629 17.8718 18.8041 17.7987 18.8296C17.7493 18.8538 17.6944 18.8645 17.6395 18.8607C17.5847 18.8568 17.5318 18.8386 17.4863 18.8078C17.3916 18.7068 17.3249 18.583 17.2925 18.4485Z" fill="#263238"/>
<path d="M19.7154 17.869L19.7747 18.0252C19.806 18.1293 19.7935 18.1887 19.7372 18.2033C19.6536 18.2292 19.567 18.2439 19.4795 18.247C19.3936 18.247 19.3436 18.2283 19.3311 18.1877C19.3186 18.1471 19.2827 18.0033 19.2264 17.7565C19.1702 17.5097 19.1218 17.3254 19.0827 17.2051L18.9827 16.8927C18.935 16.7904 18.9187 16.6762 18.9359 16.5646C18.9787 16.4902 19.0256 16.4182 19.0765 16.3491C19.1468 16.2522 19.2014 16.1929 19.2421 16.1929C19.2827 16.1929 19.3108 16.1788 19.3264 16.1929C19.3476 16.2131 19.3623 16.2392 19.3686 16.2678C19.4279 16.4511 19.4491 16.6446 19.4311 16.8364C19.4779 17.0442 19.5139 17.1879 19.5389 17.266C19.5389 17.241 19.5826 17.0958 19.6482 16.8318C19.6942 16.6278 19.7574 16.4282 19.8372 16.235C19.8716 16.1324 19.9452 16.0476 20.0419 15.9992C20.1156 15.9747 20.1958 15.9786 20.2668 16.0101C20.3016 16.0232 20.3329 16.0441 20.3583 16.0712C20.3838 16.0983 20.4027 16.1308 20.4136 16.1663C20.4827 16.3996 20.5395 16.6363 20.5839 16.8755C20.648 17.1879 20.6917 17.3879 20.7183 17.4675C20.7448 17.5472 20.7667 17.5847 20.7885 17.5784C20.8479 17.555 20.9073 17.4535 20.9666 17.266C21.0315 17.0505 21.0755 16.8292 21.0978 16.6052C21.1291 16.3397 21.1572 16.2038 21.1806 16.196C21.2041 16.1882 21.2197 16.196 21.2291 16.2272C21.262 16.4006 21.262 16.5787 21.2291 16.7521C21.1385 17.4415 20.9968 17.8164 20.8042 17.8768C20.6947 17.921 20.5735 17.9265 20.4605 17.8924C20.4282 17.8758 20.3954 17.8148 20.3621 17.7097C20.3277 17.605 20.284 17.43 20.2277 17.1864C20.1715 16.9427 20.1247 16.763 20.0872 16.6459C20.0497 16.5287 20.0106 16.4756 19.97 16.4897C19.9294 16.5037 19.8591 16.6584 19.7622 16.9583C19.6907 17.1358 19.6474 17.3235 19.6341 17.5144C19.6518 17.6346 19.679 17.7531 19.7154 17.869Z" fill="#263238"/>
<path d="M21.9164 16.0553L21.8727 15.7695C21.8607 15.7302 21.8353 15.6964 21.8008 15.6742C21.7852 15.6624 21.7669 15.6547 21.7475 15.6517C21.7282 15.6487 21.7084 15.6505 21.6899 15.657C21.5571 15.6992 21.4743 15.8335 21.4415 16.0616C21.4071 16.2669 21.42 16.4774 21.479 16.6771C21.521 16.8346 21.6092 16.9761 21.7321 17.0832C21.7753 17.1236 21.8282 17.1521 21.8856 17.1661C21.9431 17.1801 22.0032 17.1789 22.0601 17.1629C22.163 17.1321 22.2558 17.0744 22.3288 16.9957C22.4021 16.9107 22.4588 16.8127 22.4959 16.7067C22.5847 16.4511 22.6424 16.1857 22.6678 15.9163C22.6678 15.8429 22.6834 15.7898 22.6897 15.7601C22.6959 15.7304 22.71 15.707 22.7287 15.7007C22.7474 15.6945 22.7631 15.7007 22.7724 15.7335C22.8119 15.8869 22.8157 16.0472 22.7834 16.2022C22.7537 16.3912 22.7256 16.5396 22.699 16.6443C22.6667 16.7613 22.6255 16.8757 22.5756 16.9864C22.5234 17.1085 22.445 17.2177 22.3459 17.3063C22.2468 17.3948 22.1296 17.4605 22.0023 17.4987C21.9151 17.5326 21.8208 17.5441 21.728 17.5321C21.6352 17.5201 21.5469 17.485 21.4712 17.43C21.3273 17.3295 21.2203 17.1847 21.1666 17.0176C21.0375 16.6115 21.027 16.2746 21.1354 16.0069C21.1824 15.8802 21.2583 15.7661 21.357 15.6736C21.4556 15.5812 21.5744 15.5129 21.704 15.4742C21.8 15.4373 21.9063 15.4373 22.0023 15.4742C22.0388 15.4898 22.0715 15.5128 22.0985 15.5419C22.1254 15.571 22.1459 15.6054 22.1585 15.6429C22.2017 15.749 22.2104 15.8659 22.1835 15.9772C22.1727 16.0143 22.1527 16.0481 22.1254 16.0754C22.0981 16.1027 22.0644 16.1226 22.0273 16.1334C21.9789 16.1475 21.9383 16.1225 21.9164 16.0553Z" fill="#263238"/>
<path d="M23.2536 16.7411L23.3129 16.8973C23.3442 16.9973 23.3317 17.0535 23.2739 17.0739C23.1912 17.1014 23.1048 17.1161 23.0177 17.1176C22.9318 17.1176 22.8818 17.1004 22.8693 17.0598C22.8568 17.0192 22.8209 16.8755 22.7646 16.6286C22.7084 16.3818 22.6584 16.1975 22.6209 16.0757L22.5209 15.7632C22.2304 14.851 22.2075 14.2183 22.4522 13.8653C22.5009 13.7923 22.5723 13.7375 22.6553 13.7091C22.6912 13.6966 22.7381 13.7247 22.799 13.7919C22.8708 13.8756 22.924 13.9735 22.9552 14.0793C23.051 14.3729 23.0912 14.6817 23.0739 14.99C23.0655 15.2321 23.0255 15.4721 22.9552 15.7039C22.9802 15.7945 23.0224 15.9351 23.0817 16.1225C23.0895 16.0975 23.1255 15.9523 23.1911 15.6883C23.2363 15.4842 23.2996 15.2845 23.3801 15.0915C23.4426 14.9588 23.5097 14.8791 23.5847 14.8557C23.6585 14.8312 23.7387 14.8351 23.8097 14.8666C23.8443 14.88 23.8754 14.901 23.9008 14.928C23.9262 14.9551 23.9453 14.9874 23.9565 15.0228C24.0258 15.2555 24.0826 15.4917 24.1268 15.7304C24.1908 16.0429 24.2346 16.2444 24.2596 16.324C24.2846 16.4037 24.3095 16.4412 24.3299 16.4349C24.3908 16.4115 24.4501 16.3084 24.5095 16.1225C24.5763 15.904 24.6218 15.6796 24.6454 15.4524C24.6766 15.1868 24.7048 15.0509 24.7282 15.0431C24.7516 15.0353 24.7672 15.0431 24.7766 15.0743C24.8103 15.2477 24.8103 15.4259 24.7766 15.5992C24.686 16.2886 24.5449 16.6635 24.3533 16.7239C24.2438 16.7681 24.1226 16.7736 24.0096 16.7396C23.9763 16.7229 23.9435 16.662 23.9112 16.5568C23.8768 16.4506 23.8315 16.2772 23.7769 16.0335C23.7222 15.7898 23.6738 15.6102 23.6363 15.493C23.5988 15.3758 23.5597 15.3227 23.5191 15.3368C23.4785 15.3508 23.4082 15.5071 23.3114 15.8054C23.2398 15.9829 23.1966 16.1706 23.1833 16.3615C23.196 16.4898 23.2195 16.6168 23.2536 16.7411ZM22.8427 14.2527C22.7959 14.0965 22.7521 14.034 22.7131 14.0465C22.649 14.0668 22.649 14.2855 22.7131 14.6994C22.749 14.9197 22.8021 15.1681 22.8771 15.4539C22.9531 15.0558 22.9414 14.6458 22.8427 14.2527Z" fill="#263238"/>
<path d="M15.593 21.3634L14.5917 21.6758L14.3589 20.9447L17.2785 20.0074L17.5128 20.7385L16.5162 21.0509L17.3222 23.58L16.399 23.8752L15.593 21.3634Z" fill="#263238"/>
<path d="M17.6237 19.909L18.5454 19.6154L19.5857 22.8755L18.6641 23.1707L17.6237 19.909Z" fill="#263238"/>
<path d="M23.1864 21.7273L22.6256 20.009L22.2366 21.6836L21.8258 21.8132L20.5589 20.7198L21.0979 22.3943L20.2449 22.6661L19.2061 19.406L19.9653 19.1639L21.7102 20.6807L22.2288 18.4422L22.988 18.2001L24.0362 21.4571L23.1864 21.7273Z" fill="#263238"/>
<path d="M27.076 19.7029L27.3041 20.4152L24.6907 21.2494L23.6503 17.9892L26.2075 17.1738L26.4356 17.8861L24.7907 18.411L24.9656 18.9609L26.4153 18.4922L26.6355 19.1811L25.1859 19.6498L25.3765 20.2465L27.076 19.7029Z" fill="#263238"/>
<path d="M51.5496 37.0391C52.6633 31.4904 54.1805 26.0304 56.0891 20.7026L59.4023 16.4583C60.8285 16.0803 62.3969 16.7098 63.3935 17.7971C64.3902 18.8843 64.876 20.3589 65.0369 21.8257C65.1978 23.2926 65.0634 24.7719 64.965 26.245C64.7432 29.5972 64.7135 33.0105 63.7231 36.2206C63.3357 37.4796 62.739 38.7699 61.6205 39.4651C60.4286 40.2055 58.9118 40.1118 57.5247 39.9072C55.8598 39.6615 54.216 39.2902 52.6072 38.7965C52.2135 38.6762 51.7855 38.5184 51.5871 38.1576C51.4028 37.8233 51.4746 37.414 51.5496 37.0391Z" fill="#263238"/>
<path d="M51.3512 11.8205C53.4726 11.5987 55.2659 12.525 56.9608 13.8215C58.6557 15.1181 59.8741 16.9895 60.5161 19.0249C61.1925 21.1666 61.2394 23.5332 60.4771 25.6467C59.7148 27.7602 58.1183 29.5942 56.0532 30.4892C53.2414 31.7014 49.7735 30.9938 47.4491 28.9912C45.1247 26.9886 43.9234 23.8362 44.0031 20.776C44.0578 18.6625 44.6998 16.538 45.9901 14.8635C47.2804 13.1889 49.244 12.0017 51.3512 11.8283" fill="#263238"/>
<path d="M56.8702 19.3421C56.6156 18.5188 56.7921 17.6238 56.7249 16.7708C56.5781 14.8791 55.1628 13.2811 53.4648 12.4376C51.8839 11.6565 49.8891 11.6752 47.8912 12.1814C46.5228 12.5297 45.2122 13.2045 44.2468 14.2371C43.611 14.9304 43.1504 15.7658 42.9033 16.6734C42.6563 17.5811 42.6301 18.5347 42.8268 19.4546L52.5041 18.6735C53.3539 19.4749 54.2224 20.2887 55.2878 20.773C55.593 20.9319 55.9342 21.0088 56.2781 20.9964C56.4488 20.9862 56.6131 20.9274 56.7515 20.8269C56.8899 20.7264 56.9966 20.5885 57.0592 20.4293C57.1654 20.07 56.9733 19.6982 56.8702 19.3421Z" fill="#263238"/>
<path d="M46.0229 40.7586C46.0229 40.7586 46.5915 34.2884 46.5899 34.304C46.5884 34.3196 43.1923 33.651 42.5972 29.1803C42.3019 26.9574 42.505 23.3302 42.7659 20.3668C43.0018 17.7003 44.8544 14.4667 47.51 14.8167L55.7673 17.127C56.1565 17.1772 56.5126 17.372 56.7647 17.6728C57.0168 17.9735 57.1464 18.3581 57.1279 18.75L55.7048 34.821L55.2065 41.4006L46.0229 40.7586Z" fill="#FFBF9D"/>
<path d="M44.4311 24.183C44.4259 24.3318 44.479 24.4768 44.5791 24.5871C44.6792 24.6973 44.8183 24.7642 44.9669 24.7735C45.0394 24.7812 45.1127 24.7743 45.1825 24.7532C45.2523 24.7321 45.3172 24.6973 45.3733 24.6507C45.4293 24.604 45.4755 24.5467 45.509 24.4819C45.5425 24.4171 45.5627 24.3463 45.5683 24.2736C45.5735 24.1248 45.5204 23.9798 45.4203 23.8696C45.3203 23.7593 45.1811 23.6924 45.0325 23.6831C44.96 23.6754 44.8867 23.6823 44.8169 23.7034C44.7471 23.7245 44.6822 23.7594 44.6262 23.806C44.5701 23.8526 44.5239 23.91 44.4904 23.9747C44.4569 24.0395 44.4367 24.1103 44.4311 24.183Z" fill="#263238"/>
<path d="M43.5063 22.2757C43.5751 22.3507 44.0156 22.0429 44.631 22.0585C45.2465 22.0742 45.687 22.3944 45.7558 22.321C45.7901 22.2897 45.7214 22.1523 45.5277 22.0085C45.2669 21.8169 44.9531 21.711 44.6295 21.7055C44.3099 21.696 43.9957 21.789 43.7328 21.9711C43.5407 22.1085 43.472 22.2413 43.5063 22.2757Z" fill="#263238"/>
<path d="M49.9735 24.183C49.9683 24.3318 50.0214 24.4768 50.1214 24.5871C50.2215 24.6973 50.3606 24.7642 50.5093 24.7735C50.5818 24.7812 50.6551 24.7743 50.7249 24.7533C50.7947 24.7322 50.8595 24.6973 50.9156 24.6507C50.9717 24.604 51.0178 24.5467 51.0513 24.4819C51.0849 24.4171 51.105 24.3463 51.1107 24.2736C51.1159 24.1251 51.063 23.9803 50.9632 23.8701C50.8635 23.7598 50.7248 23.6928 50.5764 23.6831C50.5038 23.6754 50.4304 23.6823 50.3605 23.7033C50.2907 23.7244 50.2257 23.7593 50.1695 23.8059C50.1133 23.8525 50.067 23.9098 50.0333 23.9746C49.9997 24.0394 49.9793 24.1102 49.9735 24.183Z" fill="#263238"/>
<path d="M49.4173 22.2148C49.4876 22.2913 49.9281 21.982 50.542 21.9992C51.156 22.0164 51.5996 22.3351 51.6668 22.2616C51.7011 22.2288 51.6324 22.0929 51.4387 21.9492C51.1777 21.7582 50.8639 21.6528 50.5405 21.6477C50.2212 21.6385 49.9072 21.7309 49.6438 21.9117C49.4517 22.0476 49.3845 22.1804 49.4173 22.2148Z" fill="#263238"/>
<path d="M47.1991 27.0432C47.1991 27.0073 46.8227 26.9323 46.2056 26.837C46.0494 26.8167 45.8932 26.7824 45.8776 26.6808C45.862 26.5793 45.9135 26.3996 45.9932 26.2122C46.1494 25.8357 46.315 25.4421 46.4884 25.0297C47.1757 23.3441 47.6771 21.957 47.6084 21.9304C47.5397 21.9039 46.9289 23.2473 46.2416 24.9313C46.076 25.3468 45.9166 25.7436 45.7729 26.1216C45.7089 26.2997 45.6011 26.4996 45.6761 26.7355C45.6972 26.7914 45.7308 26.8418 45.7744 26.8827C45.818 26.9236 45.8704 26.9539 45.9276 26.9714C46.0137 26.9979 46.103 27.0126 46.1931 27.0151C46.8086 27.0713 47.1945 27.0713 47.1991 27.0432Z" fill="#263238"/>
<path d="M46.5899 34.3039C48.6857 34.3888 50.7639 33.8902 52.5931 32.8636C52.5931 32.8636 50.8998 36.13 46.454 35.602L46.5899 34.3039Z" fill="#FF9A6C"/>
<path d="M49.2924 19.7295C49.3486 19.8982 49.9641 19.8341 50.6827 19.9388C51.4012 20.0434 51.9792 20.2512 52.0792 20.1075C52.1229 20.0372 52.0261 19.8779 51.7949 19.7107C51.4865 19.5039 51.1349 19.3703 50.7669 19.3202C50.399 19.2701 50.0245 19.3049 49.672 19.4217C49.4049 19.528 49.2674 19.656 49.2924 19.7295Z" fill="#263238"/>
<path d="M43.7485 19.5919C43.8531 19.7341 44.2796 19.6013 44.7888 19.606C45.2981 19.6107 45.7261 19.7247 45.8292 19.581C45.8745 19.5107 45.8104 19.3701 45.6246 19.2326C45.3757 19.0679 45.0835 18.9809 44.7851 18.9826C44.4866 18.9842 44.1954 19.0745 43.9484 19.242C43.7688 19.381 43.7063 19.5232 43.7485 19.5919Z" fill="#263238"/>
<path d="M58.4807 18.147C57.7762 15.5414 54.2099 11.8251 51.5121 11.8985L47.1039 14.2839C47.2116 15.0225 47.5165 15.7184 47.9867 16.2982C48.4568 16.8781 49.0746 17.3203 49.7751 17.5784C50.5249 17.8439 51.4356 17.947 51.8589 18.6203C52.2822 19.2936 51.9776 20.2668 52.3775 20.9728C52.929 21.9523 54.5567 21.9788 54.9581 23.0301C55.1331 23.4878 55.0066 24.0221 55.1909 24.4782C55.4346 25.0859 56.9092 25.906 57.5341 25.7373C58.1589 25.5686 58.2151 24.5048 58.4432 23.958C58.8337 23.0208 58.7119 22.524 58.6213 21.9882C58.4104 20.7151 58.8165 19.3904 58.4807 18.147Z" fill="#263238"/>
<path d="M55.6783 26.1778C55.6876 25.8466 56.0907 25.0734 56.4187 25.0312C57.2966 24.9172 58.8712 25.0312 58.829 27.2478C58.7728 30.2846 55.7361 29.6004 55.7329 29.5145C55.7298 29.4285 55.647 27.3228 55.6783 26.1778Z" fill="#FFBF9D"/>
<path d="M56.6812 28.3804C56.6952 28.371 56.7343 28.4194 56.8233 28.4616C56.948 28.518 57.0898 28.5236 57.2185 28.4772C57.5403 28.3647 57.8199 27.8618 57.8434 27.3135C57.8562 27.0535 57.8103 26.794 57.709 26.5543C57.6824 26.459 57.6332 26.3715 57.5654 26.2995C57.4977 26.2274 57.4135 26.1728 57.3201 26.1403C57.2599 26.1242 57.1961 26.1292 57.1392 26.1545C57.0824 26.1798 57.0359 26.2239 57.0076 26.2793C56.9655 26.3637 56.9842 26.4246 56.967 26.4355C56.9498 26.4465 56.903 26.384 56.9295 26.259C56.9484 26.1844 56.9919 26.1184 57.0529 26.0716C57.1377 26.0101 57.2431 25.9843 57.3466 25.9997C57.5809 26.02 57.7871 26.2387 57.8902 26.4808C58.0154 26.746 58.0733 27.0378 58.0589 27.3306C58.0277 27.9414 57.7043 28.5085 57.2623 28.6272C57.1803 28.6493 57.0943 28.6528 57.0108 28.6374C56.9273 28.622 56.8483 28.5881 56.7796 28.5381C56.6858 28.4554 56.6718 28.3866 56.6812 28.3804Z" fill="#FF9A6C"/>
<path d="M48.0427 13.4216C47.685 14.637 45.7089 16.0975 44.8263 17.0036C43.1392 18.7344 42.7956 19.3217 42.5441 23.4082C41.8942 21.9476 41.4147 20.5261 41.574 18.9343C41.7333 17.3425 42.4238 15.7836 43.6047 14.7057C44.7857 13.6278 46.4759 13.0842 48.0411 13.4138" fill="#263238"/>
<path d="M58.9212 26.8667C59.0377 26.7599 59.1401 26.6386 59.2258 26.5059C59.3391 26.3613 59.4434 26.2101 59.5383 26.0529L59.9007 25.4124C60.4021 24.4439 60.7989 22.9443 60.7739 21.2744C60.7528 20.4902 60.6486 19.7105 60.463 18.9484C60.3037 18.329 60.0812 17.7275 59.7991 17.1535C59.6757 16.9098 59.5445 16.699 59.432 16.5146C59.3196 16.3303 59.1962 16.1866 59.0993 16.0694C59.0001 15.946 58.8844 15.8367 58.7556 15.7445C58.7166 15.7773 59.2133 16.2428 59.646 17.2269C59.8996 17.7991 60.1009 18.3931 60.2475 19.0015C60.418 19.7484 60.5158 20.5101 60.5396 21.2759C60.5614 22.9052 60.2053 24.3674 59.7585 25.3374L59.4336 25.9826C59.3414 26.1747 59.2274 26.32 59.154 26.4512C59.0579 26.5785 58.9796 26.7183 58.9212 26.8667Z" fill="#455A64"/>
<path d="M49.1159 28.446C49.0866 28.3068 49.0337 28.1737 48.9596 28.0523C48.9227 27.9918 48.8711 27.9416 48.8097 27.9061C48.7483 27.8706 48.679 27.8511 48.6082 27.8492C48.5055 27.8613 48.4076 27.8995 48.3239 27.9602L47.1851 28.6334L47.0851 28.9115C47.3123 29.2661 47.6088 29.571 47.9568 29.8081C48.0567 29.8875 48.1779 29.9353 48.3051 29.9456C48.4667 29.9278 48.6173 29.855 48.7316 29.7394C48.9009 29.6242 49.0406 29.4706 49.1393 29.2911C49.2611 29.0318 49.1893 28.7256 49.1159 28.446Z" fill="#FF9A6C"/>
<path d="M48.2598 30.0394C48.2473 30.0113 48.5254 29.9644 48.8144 29.6723C48.9802 29.5031 49.0945 29.2902 49.144 29.0584C49.1983 28.7752 49.1542 28.482 49.019 28.2274C48.9839 28.1611 48.9426 28.0983 48.8956 28.0399C48.8556 27.9854 48.8058 27.9388 48.7487 27.9024C48.7259 27.8874 48.6998 27.8781 48.6726 27.8754C48.6454 27.8726 48.6179 27.8766 48.5925 27.8868C48.5321 27.9136 48.4741 27.9454 48.4191 27.9821C48.1786 28.129 47.9614 28.257 47.7787 28.3648C47.4116 28.5773 47.1773 28.7007 47.1663 28.6773C47.1554 28.6538 47.3663 28.5007 47.7178 28.2617C47.8927 28.143 48.1036 28.004 48.3426 27.8509C48.4057 27.8061 48.4732 27.7679 48.5441 27.7369C48.5896 27.7191 48.6385 27.7119 48.6872 27.7157C48.7359 27.7195 48.7831 27.7342 48.8253 27.7587C48.9002 27.8044 48.9659 27.8638 49.019 27.9337C49.0731 27.9998 49.1207 28.0709 49.1611 28.1461C49.3142 28.4333 49.3591 28.7659 49.2877 29.0834C49.2281 29.3408 49.09 29.5734 48.8925 29.7489C48.7638 29.8662 48.6114 29.9546 48.4457 30.0082C48.3301 30.0472 48.2614 30.0472 48.2598 30.0394Z" fill="#263238"/>
<path d="M64.4245 70.0528L62.2048 64.3371C62.2048 64.3371 62.361 58.437 62.903 55.7455C63.4451 53.0539 62.2344 38.0827 62.2344 38.0827L55.5924 36.3019C55.5924 36.3019 53.9787 39.0293 51.0513 38.7591C47.6147 38.4467 46.415 36.3019 46.415 36.3019L42.3207 36.9627C42.3207 36.9627 39.7729 46.0651 38.6794 48.1927C37.5859 50.3203 37.5 56.8764 37.5 56.8764C37.5 56.8764 38.6841 60.5427 38.9762 61.769C39.0188 61.9465 39.004 62.133 38.934 62.3016L36.1816 70.0528H64.4245Z" fill="#407BFF"/>
<g opacity="0.3">
<path d="M59.5632 55.1019C59.6242 55.9189 59.4539 57.1826 59.607 57.9871L60.9254 58.2698C61.4261 57.2992 61.7569 56.2499 61.9033 55.1675C61.9033 55.1675 59.5445 54.8769 59.5632 55.1019Z" fill="black"/>
</g>
<g opacity="0.3">
<path d="M57.6934 60.288C57.5179 60.0968 57.2963 59.9537 57.0498 59.8725C56.7857 59.8354 56.5165 59.8677 56.2687 59.9662L52.3869 61.1362L49.6188 60.4192C50.1669 61.5036 51.0722 62.3659 52.182 62.8605C53.2918 63.355 54.5382 63.4517 55.7111 63.1342C56.1891 63.0045 56.6796 62.8046 57.1623 62.9108C57.6184 63.0108 57.9683 63.3591 58.3245 63.659C59.418 64.5776 61.0754 64.6307 62.4953 64.7525C61.1363 62.9686 59.3367 61.8189 57.6934 60.288Z" fill="black"/>
</g>
<path d="M59.896 57.1466L62.6047 57.6481L62.136 47.6037L62.2282 38.0748C62.2282 38.0748 65.6523 39.1683 67.3566 42.3863C69.0609 45.6042 69.3858 50.0343 69.5686 52.4244C69.7794 55.1799 69.9591 61.961 69.6966 63.6013C69.4342 65.2415 67.5722 66.9426 64.4245 65.9319C62.8343 65.4211 57.2154 60.6301 57.2154 60.6301L59.896 57.1466Z" fill="#407BFF"/>
<path d="M42.3207 36.958C42.3207 36.958 36.6315 38.0265 35.4755 40.265C34.3195 42.5035 28.8303 54.8817 29.5395 58.4464C30.2487 62.0111 34.4695 63.6013 35.8942 62.1814C37.3188 60.7614 38.681 56.803 38.681 56.803L42.3207 36.958Z" fill="#407BFF"/>
<path d="M63.1889 65.2665L63.1576 65.2478L63.0686 65.1853L62.7312 64.9385L61.4815 64.0012L57.1904 60.7973L57.1591 60.7723L57.1841 60.7411L58.6697 58.8666C59.1508 58.2636 59.6179 57.6778 60.0631 57.117L60.0787 57.0983H60.1037L62.4125 57.6028H62.3985C63.116 57.504 63.8466 57.5637 64.5386 57.7778C65.0733 57.9395 65.5778 58.1881 66.0319 58.5135C66.3244 58.7226 66.5926 58.9636 66.8317 59.2321C66.9161 59.3243 66.9708 59.4024 67.0114 59.4524L67.0551 59.5102C67.0604 59.5165 67.0651 59.5233 67.0692 59.5305C67.0692 59.5305 67.0692 59.5305 67.0504 59.5133L67.002 59.4602C66.9598 59.4118 66.9005 59.3368 66.8161 59.2477C66.1906 58.5847 65.3995 58.1004 64.5245 57.845C63.8402 57.6401 63.1195 57.5868 62.4125 57.6887H62.4L60.0897 57.192L60.1287 57.1779L58.7369 58.9275C58.2214 59.5758 57.7199 60.2053 57.2482 60.802V60.7474L61.5159 63.9794L62.7562 64.9291L63.0874 65.1869L63.1717 65.254C63.1811 65.2572 63.1905 65.265 63.1889 65.2665Z" fill="#263238"/>
<path d="M62.6125 48.3473C62.6188 48.3782 62.623 48.4095 62.625 48.441C62.625 48.5113 62.639 48.5972 62.6484 48.7097C62.6656 48.9549 62.689 49.2908 62.7187 49.7016C62.7718 50.5374 62.839 51.6949 62.864 52.9743C62.889 54.2536 62.8515 55.4158 62.7812 56.2547C62.7656 56.464 62.7437 56.6515 62.7265 56.817C62.7093 56.9826 62.6906 57.1295 62.6734 57.2419L62.6312 57.5091C62.6279 57.5403 62.6216 57.5712 62.6125 57.6012C62.6087 57.5701 62.6087 57.5386 62.6125 57.5075C62.6125 57.4372 62.6281 57.3513 62.6375 57.2388C62.6468 57.1263 62.6656 56.9795 62.6781 56.8139C62.6906 56.6483 62.7093 56.4593 62.7203 56.25C62.7765 55.4143 62.8046 54.2567 62.7796 52.9774C62.7546 51.698 62.6968 50.5436 62.6578 49.7063C62.639 49.2955 62.625 48.9581 62.614 48.7144C62.614 48.6035 62.614 48.5144 62.6062 48.4441C62.6037 48.4117 62.6058 48.3791 62.6125 48.3473Z" fill="#263238"/>
<path d="M38.5388 45.2152C38.5407 45.2297 38.5407 45.2444 38.5388 45.2589L38.5076 45.3839C38.4748 45.498 38.4326 45.6573 38.3764 45.8526C38.3201 46.0478 38.2483 46.3103 38.1733 46.6039C38.0983 46.8976 38.0046 47.2288 37.9202 47.6052C37.7067 48.4742 37.5393 49.3539 37.4188 50.2405C37.3907 50.492 37.3516 50.7482 37.3297 51.0106C37.3079 51.2731 37.2907 51.5433 37.2704 51.8167C37.2501 52.0901 37.2563 52.3712 37.2501 52.654C37.2438 52.9367 37.2626 53.2257 37.2673 53.5163C37.3215 54.6127 37.4515 55.7041 37.6562 56.7826L37.8124 57.5043C37.8609 57.7386 37.9077 57.973 37.9686 58.1838C38.0827 58.6181 38.1733 59.0274 38.2811 59.3945C38.3889 59.7616 38.4795 60.0943 38.5638 60.3864C38.6482 60.6785 38.731 60.9253 38.795 61.1315L38.9387 61.6002C38.9528 61.6502 38.9637 61.6908 38.9731 61.722C38.9783 61.7361 38.9814 61.7508 38.9825 61.7658C38.9757 61.7527 38.97 61.7391 38.9653 61.7251L38.9231 61.6049C38.884 61.4924 38.8309 61.3362 38.7669 61.1362C38.7028 60.9363 38.6107 60.6832 38.5232 60.3958C38.4357 60.1084 38.3373 59.7709 38.2295 59.4054C38.1217 59.0399 38.0218 58.6244 37.9062 58.1948C37.8452 57.9776 37.7984 57.7496 37.75 57.5153C37.7015 57.2809 37.6469 57.0466 37.5937 56.792C37.3831 55.713 37.2495 54.6204 37.1938 53.5225C37.1938 53.2288 37.1735 52.9398 37.1767 52.6555C37.1798 52.3712 37.1907 52.0901 37.1985 51.8151C37.2063 51.5402 37.2407 51.2699 37.261 51.0044C37.2813 50.7388 37.3235 50.4842 37.3532 50.2327C37.4768 49.3438 37.6499 48.4624 37.8718 47.5927C37.9608 47.221 38.0561 46.8867 38.1374 46.5946C38.2186 46.3024 38.2936 46.0494 38.3545 45.8447C38.4154 45.6401 38.4638 45.487 38.4998 45.3761C38.5154 45.3261 38.5279 45.2855 38.5388 45.2543C38.5376 45.2413 38.5376 45.2282 38.5388 45.2152Z" fill="#263238"/>
<path d="M37.8984 46.4992C37.7295 46.1781 37.5843 45.845 37.4641 45.5026C37.3184 45.17 37.1978 44.8269 37.1032 44.4763C37.2734 44.7971 37.4191 45.1302 37.5391 45.4729C37.6856 45.8051 37.8057 46.1483 37.8984 46.4992Z" fill="#263238"/>
<path d="M63.6919 45.9088C63.5283 46.3362 63.3395 46.7535 63.1264 47.1585C62.9375 47.5758 62.7242 47.9816 62.4875 48.3738C62.6511 47.9464 62.8399 47.5291 63.053 47.1241C63.2419 46.7068 63.4552 46.301 63.6919 45.9088Z" fill="#263238"/>
<path d="M42.6034 36.9579L49.5236 46.4993L59.4586 37.2469L55.5924 36.2971H46.415L42.6034 36.9579Z" fill="#FFBF9D"/>
<g opacity="0.3">
<path d="M37.3001 44.9747C37.3001 47.0961 37.1267 49.4189 36.6471 51.4856L36.7924 53.8288C36.8783 55.8267 36.3706 57.242 35.4786 59.0306C36.3081 58.6432 36.8533 57.7965 37.0876 56.9108C37.3219 56.0251 37.286 55.091 37.2313 54.1771C37.1501 52.8103 37.136 51.4809 37.3875 50.1344C37.5328 49.3533 37.7827 47.8553 37.9811 47.1289C37.9796 47.1226 38.0874 46.8024 37.3001 44.9747Z" fill="black"/>
</g>
<g opacity="0.3">
<path d="M67.8049 59.4617C67.6159 58.4433 66.6552 57.7091 65.6461 57.4747C64.637 57.2404 63.6388 57.4185 62.6203 57.5997C64.89 57.4997 66.2975 58.5245 67.2769 59.7867C67.3326 59.8826 67.4233 59.9531 67.53 59.9835C67.5876 59.9854 67.6442 59.9688 67.6917 59.9362C67.7392 59.9036 67.7751 59.8567 67.794 59.8023C67.8291 59.692 67.8329 59.5741 67.8049 59.4617Z" fill="black"/>
</g>
<path d="M50.378 53.5929C50.3523 53.4466 50.366 53.296 50.4179 53.1567C50.4698 53.0175 50.558 52.8947 50.6733 52.8009C50.9081 52.615 51.202 52.5197 51.5012 52.5322C51.763 52.5322 52.0194 52.607 52.2401 52.7478C52.3652 52.8256 52.47 52.932 52.5458 53.0584C52.6216 53.1847 52.6663 53.3273 52.676 53.4743C52.6858 53.6213 52.6604 53.7685 52.602 53.9038C52.5436 54.0391 52.4538 54.1584 52.3401 54.2521C52.0887 54.4676 51.7648 54.5793 51.434 54.5645C51.1568 54.5668 50.8894 54.4622 50.6873 54.2724C50.4968 54.0756 50.3531 53.8038 50.3749 53.5945" fill="#407BFF"/>
<path d="M47.5194 54.338C46.4009 54.5114 45.3246 53.2445 45.0747 52.44C45.056 52.3995 45.0474 52.355 45.0496 52.3104C45.0518 52.2658 45.0647 52.2224 45.0872 52.1838C45.1236 52.1525 45.1673 52.131 45.2143 52.1211C45.2613 52.1113 45.31 52.1135 45.3559 52.1276C45.9052 52.2169 46.4115 52.4796 46.8008 52.8773C47.1901 53.275 47.4419 53.7869 47.5194 54.338Z" fill="#455A64"/>
<path d="M46.2806 53.699C46.2548 53.5527 46.2686 53.4021 46.3205 53.2629C46.3724 53.1236 46.4606 53.0008 46.5759 52.907C46.8103 52.7215 47.1035 52.6262 47.4022 52.6384C47.6642 52.6371 47.9209 52.712 48.1411 52.8539C48.2668 52.9316 48.3722 53.0382 48.4484 53.1648C48.5246 53.2914 48.5695 53.4344 48.5793 53.5819C48.589 53.7294 48.5634 53.877 48.5046 54.0126C48.4458 54.1482 48.3555 54.2678 48.2411 54.3614C47.9897 54.5767 47.6658 54.6884 47.3351 54.6738C47.0578 54.6764 46.7903 54.5717 46.5884 54.3817C46.3962 54.1833 46.2541 53.913 46.2759 53.7037" fill="#407BFF"/>
<path d="M57.5966 53.6991C57.5701 53.5529 57.5834 53.4022 57.635 53.2629C57.6867 53.1236 57.7748 53.0007 57.8902 52.9071C58.1251 52.7212 58.4189 52.6259 58.7181 52.6384C58.9801 52.6374 59.2367 52.7123 59.457 52.854C59.5828 52.9317 59.6881 53.0383 59.7643 53.1649C59.8405 53.2915 59.8854 53.4345 59.8952 53.582C59.9049 53.7294 59.8794 53.8771 59.8205 54.0127C59.7617 54.1483 59.6714 54.2678 59.557 54.3614C59.3055 54.5766 58.9817 54.6883 58.651 54.6739C58.3733 54.6764 58.1053 54.5717 57.9027 54.3817C57.7121 54.1833 57.5684 53.9131 57.5903 53.7038" fill="#407BFF"/>
<g opacity="0.3">
<path d="M50.378 53.5929C50.3523 53.4466 50.366 53.296 50.4179 53.1567C50.4698 53.0175 50.558 52.8947 50.6733 52.8009C50.9081 52.615 51.202 52.5197 51.5012 52.5322C51.763 52.5322 52.0194 52.607 52.2401 52.7478C52.3652 52.8256 52.47 52.932 52.5458 53.0584C52.6216 53.1847 52.6663 53.3273 52.676 53.4743C52.6858 53.6213 52.6604 53.7685 52.602 53.9038C52.5436 54.0391 52.4538 54.1584 52.3401 54.2521C52.0887 54.4676 51.7648 54.5793 51.434 54.5645C51.1568 54.5668 50.8894 54.4622 50.6873 54.2724C50.4968 54.0756 50.3531 53.8038 50.3749 53.5945" fill="black"/>
</g>
<g opacity="0.3">
<path d="M46.2806 53.699C46.2548 53.5527 46.2686 53.4021 46.3205 53.2629C46.3724 53.1236 46.4606 53.0008 46.5759 52.907C46.8103 52.7215 47.1035 52.6262 47.4022 52.6384C47.6642 52.6371 47.9209 52.712 48.1411 52.8539C48.2668 52.9316 48.3722 53.0382 48.4484 53.1648C48.5246 53.2914 48.5695 53.4344 48.5793 53.5819C48.589 53.7294 48.5634 53.877 48.5046 54.0126C48.4458 54.1482 48.3555 54.2678 48.2411 54.3614C47.9897 54.5767 47.6658 54.6884 47.3351 54.6738C47.0578 54.6764 46.7903 54.5717 46.5884 54.3817C46.3962 54.1833 46.2541 53.913 46.2759 53.7037" fill="black"/>
</g>
<g opacity="0.3">
<path d="M57.5966 53.6991C57.5701 53.5529 57.5834 53.4022 57.635 53.2629C57.6867 53.1236 57.7748 53.0007 57.8902 52.9071C58.1251 52.7212 58.4189 52.6259 58.7181 52.6384C58.9801 52.6374 59.2367 52.7123 59.457 52.854C59.5828 52.9317 59.6881 53.0383 59.7643 53.1649C59.8405 53.2915 59.8854 53.4345 59.8952 53.582C59.9049 53.7294 59.8794 53.8771 59.8205 54.0127C59.7617 54.1483 59.6714 54.2678 59.557 54.3614C59.3055 54.5766 58.9817 54.6883 58.651 54.6739C58.3733 54.6764 58.1053 54.5717 57.9027 54.3817C57.7121 54.1833 57.5684 53.9131 57.5903 53.7038" fill="black"/>
</g>
<path d="M52.0276 54.0708C52.0511 53.4913 52.4681 52.7915 52.8196 52.3307C53.1756 51.8648 53.6665 51.5201 54.2255 51.3434C54.2637 51.3287 54.306 51.3287 54.3442 51.3434C54.3624 51.3548 54.378 51.3699 54.3901 51.3876C54.4022 51.4054 54.4105 51.4254 54.4145 51.4465C54.525 51.789 54.5431 52.1547 54.467 52.5065C54.3909 52.8582 54.2233 53.1837 53.9811 53.45C53.739 53.7162 53.4308 53.9138 53.0878 54.0229C52.7448 54.1319 52.3791 54.1484 52.0276 54.0708Z" fill="#455A64"/>
<path d="M56.111 53.1696C56.3373 52.9202 56.5407 52.651 56.7187 52.3651C56.8959 52.0766 56.9895 51.7445 56.9889 51.4059C56.9912 51.381 56.9879 51.3559 56.9792 51.3324C56.9706 51.3088 56.9568 51.2876 56.9389 51.27C56.9177 51.258 56.8943 51.2506 56.8701 51.2482C56.8459 51.2458 56.8214 51.2484 56.7983 51.256C56.165 51.3827 55.5874 51.705 55.1471 52.1776C54.7068 52.6501 54.4259 53.249 54.3442 53.8897L54.3083 54.0537C54.8322 54.3784 55.4617 54.487 56.0641 54.3568C56.5504 54.282 57.0168 54.1104 57.4357 53.8522C57.8572 53.59 58.1632 53.1773 58.2917 52.6978C57.9158 52.6118 57.5257 52.6095 57.1489 52.691C56.772 52.7726 56.4177 52.9359 56.111 53.1696Z" fill="#455A64"/>
<path d="M49.194 52.0276C48.6847 51.4809 47.9677 51.1716 47.2445 50.9825C47.1912 51.3504 47.2114 51.7252 47.3039 52.0852C47.3964 52.4453 47.5593 52.7834 47.7833 53.08C48.0073 53.3766 48.2879 53.6259 48.6089 53.8134C48.9299 54.0009 49.2848 54.1229 49.6532 54.1724L49.6985 54.0943C49.9656 53.396 49.7032 52.5743 49.194 52.0276Z" fill="#455A64"/>
<path d="M59.193 54.3239C59.2149 53.7443 59.632 53.0445 59.9835 52.5821C60.3406 52.1175 60.8311 51.773 61.3893 51.5949C61.4276 51.5802 61.4699 51.5802 61.5081 51.5949C61.526 51.6065 61.5413 51.6216 61.5531 51.6393C61.5649 51.657 61.573 51.677 61.5768 51.698C61.6885 52.0402 61.7078 52.4059 61.6328 52.758C61.5578 53.1101 61.3912 53.4362 61.1498 53.7033C60.9084 53.9704 60.6008 54.169 60.258 54.279C59.9152 54.3891 59.5495 54.4067 59.1977 54.3301" fill="#455A64"/>
<path d="M45.1715 53.774C45.1715 53.774 46.6899 58.2963 48.0021 58.9993C49.3143 59.7022 52.2432 60.3677 53.7288 60.3505C55.2143 60.3333 56.1094 60.2974 57.3044 59.6335L57.3404 59.6132C58.7962 58.7931 59.9274 57.4992 60.5458 55.9469L61.4831 53.6038L45.1715 53.774Z" fill="#E0E0E0"/>
<path d="M60.4302 56.325C60.2847 56.4557 60.1184 56.5613 59.9382 56.6374C59.7283 56.7314 59.5056 56.7935 59.2774 56.8218C58.974 56.861 58.6659 56.8387 58.3713 56.7562C58.0449 56.6687 57.7153 56.4859 57.3294 56.4437C57.1305 56.4305 56.9311 56.4609 56.7452 56.5328C56.5499 56.5999 56.3578 56.6984 56.1532 56.789C55.9447 56.8893 55.7207 56.9537 55.4908 56.9795C55.25 56.9958 55.0082 56.9688 54.7769 56.8999C54.3083 56.7749 53.8553 56.5406 53.357 56.4562C53.1136 56.4138 52.8637 56.4294 52.6275 56.5015C52.3977 56.5819 52.1773 56.6866 51.9698 56.814C51.7647 56.9361 51.5512 57.0436 51.3309 57.1357C51.115 57.2265 50.8799 57.2625 50.6467 57.2404C50.189 57.1779 49.8344 56.9171 49.458 56.8265C49.1028 56.7565 48.7368 56.764 48.3848 56.8483C48.0892 56.9143 47.7897 56.9612 47.4881 56.9889C47.2585 57.0072 47.0274 56.985 46.8055 56.9233C46.6654 56.8832 46.5344 56.8163 46.4197 56.7265C46.3788 56.6965 46.3421 56.6613 46.3103 56.6218C46.4555 56.7499 46.6281 56.8429 46.8149 56.8936C47.0339 56.9478 47.2604 56.9647 47.485 56.9436C47.7842 56.9097 48.081 56.8575 48.3738 56.7874C48.7319 56.6984 49.1051 56.6888 49.4673 56.7593C49.8594 56.8514 50.2187 57.1092 50.6498 57.1623C50.8705 57.1826 51.0927 57.1477 51.2966 57.0608C51.5115 56.9705 51.7203 56.8662 51.9214 56.7483C52.1338 56.62 52.3595 56.5152 52.5947 56.4359C52.843 56.3596 53.1058 56.343 53.3617 56.3875C53.8772 56.4765 54.3271 56.7109 54.7879 56.8343C55.2263 56.9757 55.7028 56.9386 56.1141 56.7312C56.3156 56.6437 56.5109 56.5453 56.7124 56.4765C56.9079 56.4019 57.1176 56.3715 57.3263 56.3875C57.7309 56.4312 58.0605 56.6187 58.3776 56.7077C58.6649 56.7916 58.966 56.817 59.2633 56.7827C59.488 56.7585 59.708 56.7016 59.9163 56.614C60.0525 56.5574 60.1832 56.4883 60.3068 56.4078C60.3865 56.3531 60.4287 56.3234 60.4302 56.325Z" fill="#263238"/>
<path d="M60.4302 55.8016C60.2828 55.933 60.1144 56.0386 59.9319 56.1141C59.7194 56.2085 59.4941 56.2712 59.2633 56.2999C58.9568 56.3394 58.6454 56.3166 58.3479 56.2328C58.0183 56.1453 57.684 55.9625 57.2935 55.9204C57.0926 55.9079 56.8913 55.9382 56.703 56.0094C56.5046 56.0781 56.3109 56.1765 56.1032 56.2656C55.8928 56.3666 55.6667 56.4311 55.4346 56.4562C55.1908 56.4722 54.9461 56.4458 54.7113 56.378C54.2427 56.2515 53.7741 56.0188 53.2773 55.9329C53.0308 55.8912 52.778 55.9067 52.5384 55.9782C52.3057 56.0585 52.0821 56.1632 51.8714 56.2906C51.664 56.4124 51.4484 56.5199 51.2263 56.6124C51.0077 56.7034 50.7699 56.7388 50.5343 56.7155C50.0656 56.653 49.7126 56.3921 49.3314 56.3031C48.9723 56.2319 48.602 56.2388 48.2458 56.3234C47.9476 56.3894 47.6455 56.4363 47.3413 56.464C47.1092 56.4819 46.8757 56.4602 46.6508 56.3999C46.5095 56.3593 46.377 56.2926 46.2603 56.2031C46.2193 56.1728 46.1821 56.1376 46.1494 56.0984C46.2972 56.2257 46.4718 56.3181 46.6602 56.3687C46.8817 56.4237 47.111 56.4406 47.3382 56.4187C47.64 56.3849 47.9394 56.3327 48.2348 56.2625C48.5991 56.1728 48.9785 56.1627 49.3471 56.2328C49.7438 56.3249 50.1078 56.5827 50.5436 56.6358C50.7667 56.6566 50.9915 56.6222 51.1982 56.5358C51.4169 56.4432 51.6293 56.3362 51.8339 56.2156C52.0492 56.0875 52.2775 55.9828 52.515 55.9032C52.7679 55.8259 53.0355 55.8093 53.2961 55.8547C53.8162 55.9438 54.2739 56.1781 54.7395 56.3015C55.1824 56.4449 55.664 56.4079 56.0797 56.1984C56.2844 56.1109 56.4812 56.0125 56.6858 55.9438C56.8852 55.8692 57.0984 55.8388 57.3107 55.8547C57.72 55.8985 58.0527 56.0859 58.3745 56.175C58.6649 56.2592 58.9691 56.2852 59.2696 56.2515C59.4966 56.2264 59.7191 56.1696 59.9303 56.0828C60.0641 56.027 60.1927 55.9596 60.3146 55.8813C60.3513 55.8521 60.3899 55.8255 60.4302 55.8016Z" fill="#263238"/>
<path d="M54.6192 60.3443C54.6192 60.3443 52.3682 58.9384 51.8402 59.1086C51.6901 59.1603 51.5594 59.2564 51.4654 59.3842C51.3713 59.5121 51.3184 59.6655 51.3137 59.8241C50.907 59.4407 50.4726 59.0878 50.0141 58.7681C49.7516 58.5994 49.4298 58.476 49.1377 58.6119L49.0487 58.7212L49.0877 58.9165C49.0877 58.9165 47.7506 58.5229 48.3582 59.3102C48.9659 60.0975 51.6137 61.7142 52.0479 61.9173C52.4822 62.1204 54.4926 62.7187 55.4221 62.1594C55.9982 62.0038 56.5203 61.6925 56.9311 61.2597C57.5747 60.5505 58.5229 59.3961 58.5229 59.3961L58.4604 58.2401L55.8798 60.1584L54.6192 60.3443Z" fill="#FFBF9D"/>
<path d="M60.1615 57.5606C60.1399 57.4011 60.0732 57.251 59.9694 57.1279C59.8585 57.0139 59.5882 56.9155 59.4664 57.0201C59.1618 57.2357 58.8056 57.8684 58.8056 57.8684C58.601 58.0105 58.337 58.0246 58.1511 58.1886C58.0517 58.2629 57.97 58.3583 57.9119 58.468C57.8539 58.5776 57.8208 58.6988 57.8152 58.8228C57.8316 58.9701 57.8906 59.1094 57.9849 59.2237C58.0793 59.338 58.2049 59.4224 58.3464 59.4664C58.6315 59.5492 58.9319 59.5652 59.2243 59.5133C59.5367 59.4758 59.8788 59.407 60.0756 59.1618C60.2245 58.9366 60.2897 58.6663 60.26 58.3979C60.253 58.1164 60.2201 57.8361 60.1615 57.5606Z" fill="#FFBF9D"/>
<path d="M50.6764 60.8989C50.5477 60.8268 50.429 60.738 50.3234 60.6349C50.0572 60.3985 49.8173 60.134 49.6079 59.846C49.3973 59.5589 49.2202 59.2486 49.0799 58.9213C49.0523 58.8612 49.0421 58.7947 49.0503 58.7291C49.0581 58.6781 49.0856 58.6321 49.1268 58.601C49.1987 58.551 49.2518 58.5807 49.2471 58.5838C49.2098 58.5855 49.1743 58.6005 49.1471 58.626C49.1166 58.6546 49.0982 58.6937 49.0956 58.7354C49.0934 58.7924 49.1063 58.849 49.133 58.8994C49.2867 59.214 49.4676 59.5145 49.6735 59.7976C49.8804 60.0816 50.1108 60.3476 50.3624 60.5927C50.4728 60.6887 50.5777 60.7909 50.6764 60.8989Z" fill="#FF9A6C"/>
<path d="M55.3377 62.0361C55.2752 62.045 55.2118 62.0476 55.1487 62.0439C55.0747 62.0443 55.0006 62.0407 54.9269 62.033C54.841 62.0252 54.741 62.0205 54.6332 62.0017C54.3801 61.9643 54.1303 61.9063 53.8865 61.8283C53.5877 61.7309 53.298 61.607 53.0211 61.4581C52.7452 61.3052 52.4838 61.1274 52.2401 60.927C52.0435 60.7625 51.8607 60.5822 51.6933 60.3881C51.628 60.3148 51.5664 60.2381 51.509 60.1584C51.4627 60.1002 51.4199 60.0391 51.3809 59.9757C51.3429 59.9251 51.3115 59.87 51.2872 59.8116C51.2997 59.8116 51.4434 60.0303 51.7355 60.3506C51.9069 60.5362 52.0912 60.7095 52.287 60.8692C52.5284 61.0626 52.7854 61.2355 53.0555 61.3863C53.3281 61.5322 53.6117 61.6565 53.9037 61.758C54.1438 61.8372 54.3891 61.8993 54.6379 61.9439C55.0691 62.0189 55.3393 62.0189 55.3377 62.0361Z" fill="#FF9A6C"/>
<path d="M58.94 59.5632C58.9079 59.5793 58.8727 59.5884 58.8369 59.5898C58.7401 59.6027 58.6419 59.599 58.5463 59.5789C58.4028 59.554 58.2672 59.495 58.1511 59.407C58.0072 59.2943 57.9054 59.1364 57.8621 58.9587C57.8161 58.7805 57.8367 58.5917 57.9199 58.4276C57.9918 58.2955 58.1003 58.1871 58.2323 58.1152C58.3185 58.0667 58.4136 58.0364 58.512 58.0261C58.5807 58.0261 58.6182 58.0261 58.6182 58.0261C58.4932 58.0505 58.3729 58.0948 58.262 58.1573C58.1476 58.2298 58.0548 58.3318 57.9933 58.4526C57.9214 58.6013 57.9048 58.7707 57.9465 58.9306C57.9869 59.0908 58.0772 59.2341 58.2042 59.3399C58.31 59.426 58.4331 59.4883 58.5651 59.5226C58.6886 59.5474 58.814 59.561 58.94 59.5632Z" fill="#FF9A6C"/>
<g opacity="0.6">
<path d="M48.9628 57.9684C48.8497 57.6114 48.6782 57.2756 48.4551 56.9749L47.1398 54.9754C47.0606 54.8306 46.9468 54.7077 46.8086 54.6177C46.6805 54.5474 46.3072 54.374 46.2291 54.6864C46.2131 54.7603 46.2186 54.8373 46.2447 54.9082C46.6766 56.1489 47.4162 57.2599 48.3942 58.1371C48.541 58.2683 48.7691 58.3995 48.9128 58.2277C48.9408 58.1914 48.9599 58.149 48.9686 58.104C48.9773 58.0589 48.9753 58.0125 48.9628 57.9684Z" fill="white"/>
</g>
<path d="M31.1797 33.2167C30.8892 32.7621 30.5908 32.2981 30.1675 31.967C30.0974 31.9003 30.0148 31.8481 29.9244 31.8136C29.8341 31.779 29.7377 31.7626 29.641 31.7655C29.5584 31.7794 29.4802 31.8127 29.4128 31.8626C29.3455 31.9126 29.2909 31.9778 29.2536 32.0529C29.1803 32.2044 29.1469 32.3722 29.1568 32.5403C29.1708 33.1245 29.4864 33.6603 29.8457 34.1227C30.205 34.5851 30.6267 35.0084 30.9001 35.5286H32.6528L31.1797 33.2167Z" fill="#FF9A6C"/>
<path d="M42.3816 34.0665C41.8458 33.6432 41.1569 33.4604 40.4774 33.3901C40.479 33.7299 40.5481 34.066 40.6806 34.3788C40.8132 34.6916 41.0066 34.975 41.2496 35.2125C41.4926 35.45 41.7803 35.6368 42.0962 35.7622C42.412 35.8875 42.7495 35.9488 43.0892 35.9426L43.1189 35.8661C43.2642 35.1944 42.9158 34.4914 42.3816 34.0665Z" fill="#455A64"/>
<path d="M41.2194 34.0415C41.3356 34.1027 41.4437 34.1783 41.5412 34.2664C41.7318 34.4227 41.9848 34.6351 42.2504 34.8913C42.5159 35.1475 42.7409 35.399 42.8955 35.5849C42.9849 35.6801 43.0635 35.7849 43.1299 35.8973C43.0287 35.8141 42.9356 35.7215 42.8518 35.6208C42.6878 35.4458 42.4566 35.2053 42.1941 34.9491C41.9317 34.6929 41.6833 34.468 41.5037 34.3071C41.402 34.2262 41.307 34.1374 41.2194 34.0415Z" fill="#263238"/>
<path d="M44.756 33.8649C44.7091 33.187 44.3795 32.5575 43.9749 32.0092C43.7265 32.2389 43.5261 32.5157 43.3853 32.8234C43.2446 33.1312 43.1663 33.4638 43.1549 33.802C43.1436 34.1402 43.1995 34.4773 43.3193 34.7938C43.4392 35.1103 43.6206 35.3999 43.8531 35.6457L43.9312 35.6161C44.5186 35.2755 44.8044 34.5445 44.756 33.8649Z" fill="#455A64"/>
<path d="M44.0609 32.7386C44.068 32.8702 44.0612 33.0022 44.0406 33.1323C44.0171 33.4025 43.989 33.7228 43.9578 34.0696C43.9265 34.4164 43.9047 34.7428 43.8828 35.0146C43.8803 35.1464 43.8656 35.2776 43.8391 35.4067C43.8201 35.2759 43.8159 35.1433 43.8266 35.0115C43.8266 34.7694 43.8453 34.432 43.8765 34.0618C43.9078 33.6915 43.9484 33.3572 43.9843 33.1167C43.9962 32.9883 44.0219 32.8616 44.0609 32.7386Z" fill="#263238"/>
<path d="M43.4282 36.0738C43.9605 36.0738 44.392 35.6422 44.392 35.1099C44.392 34.5776 43.9605 34.1461 43.4282 34.1461C42.8959 34.1461 42.4644 34.5776 42.4644 35.1099C42.4644 35.6422 42.8959 36.0738 43.4282 36.0738Z" fill="#407BFF"/>
<g opacity="0.3">
<path d="M43.4282 36.0738C43.9605 36.0738 44.392 35.6422 44.392 35.1099C44.392 34.5776 43.9605 34.1461 43.4282 34.1461C42.8959 34.1461 42.4644 34.5776 42.4644 35.1099C42.4644 35.6422 42.8959 36.0738 43.4282 36.0738Z" fill="black"/>
</g>
<path d="M39.6026 36.3816C38.695 36.3816 37.7656 35.6411 37.1376 35.0085L37.1157 34.9866C37.0916 34.9629 37.0649 34.9419 37.0361 34.9241C36.9571 34.8767 36.8673 34.8504 36.7752 34.8476C32.6825 34.6554 27.2463 33.2074 27.1917 33.1933C27.139 33.1792 27.0942 33.1448 27.0669 33.0977C27.0397 33.0505 27.0323 32.9944 27.0464 32.9418C27.0605 32.8892 27.0949 32.8443 27.142 32.8171C27.1892 32.7898 27.2453 32.7825 27.2979 32.7965C27.3526 32.8122 32.7465 34.2477 36.7939 34.4368C36.9597 34.4422 37.1212 34.4907 37.2626 34.5773C37.3167 34.6113 37.3665 34.6517 37.411 34.6976L37.4344 34.7211C38.267 35.5599 39.0653 36.0035 39.676 35.9707C40.7195 35.9145 43.3486 35.135 43.3751 35.1272C43.4009 35.1193 43.4279 35.1166 43.4547 35.1192C43.4815 35.1219 43.5075 35.1298 43.5312 35.1426C43.5549 35.1554 43.5758 35.1728 43.5927 35.1938C43.6096 35.2147 43.6222 35.2388 43.6297 35.2647C43.6453 35.3169 43.6396 35.3731 43.6138 35.4211C43.5881 35.4691 43.5444 35.505 43.4923 35.5209C43.3829 35.5537 40.7898 36.3207 39.6979 36.38L39.6026 36.3816Z" fill="#E0E0E0"/>
<path d="M39.6026 36.3815H39.6932C39.7526 36.3737 39.8416 36.369 39.9572 36.3534C40.19 36.3237 40.5289 36.2612 40.9616 36.1659C41.3944 36.0707 41.9223 35.9379 42.5238 35.7723C42.8268 35.6895 43.1564 35.5973 43.4923 35.4942C43.5296 35.4785 43.5605 35.4505 43.5798 35.4148C43.5991 35.3792 43.6057 35.338 43.5984 35.2981C43.5911 35.2582 43.5704 35.222 43.5398 35.1955C43.5091 35.1689 43.4703 35.1536 43.4298 35.1521C43.3854 35.1548 43.3416 35.1643 43.3001 35.1803L43.1611 35.2209L42.8784 35.3021C42.1129 35.5145 41.2725 35.7457 40.3524 35.9191C40.1175 35.9637 39.8802 35.9945 39.6417 36.0113C39.3907 36.0111 39.1427 35.9579 38.9137 35.8551C38.4443 35.6387 38.0145 35.3451 37.6422 34.9866C37.4422 34.8132 37.2829 34.5867 37.0267 34.5179C36.8993 34.4838 36.768 34.4664 36.6362 34.4664L36.2253 34.4398C35.677 34.4023 35.1178 34.343 34.5508 34.2742C33.4151 34.1305 32.2482 33.9337 31.0579 33.6962C29.8675 33.4588 28.7147 33.1995 27.6056 32.9152L27.3979 32.8621L27.2948 32.8355C27.266 32.8286 27.236 32.8286 27.2073 32.8355C27.1792 32.841 27.153 32.8536 27.1312 32.8722C27.1095 32.8908 27.0929 32.9147 27.0831 32.9416C27.0734 32.9685 27.0708 32.9975 27.0756 33.0257C27.0803 33.054 27.0923 33.0805 27.1104 33.1026C27.1448 33.1511 27.2026 33.1604 27.2744 33.1792L27.476 33.2307L27.8774 33.3323C28.4117 33.4635 28.935 33.5864 29.4473 33.7009C31.2597 34.1145 33.0918 34.4368 34.9366 34.6663C35.3302 34.7163 35.7067 34.746 36.0629 34.7788L36.5815 34.8132C36.6674 34.821 36.7455 34.8225 36.8314 34.8319C36.915 34.8427 36.9945 34.8744 37.0626 34.9241C37.1239 34.9722 37.1818 35.0244 37.236 35.0803L37.3922 35.2365C37.5 35.3349 37.6047 35.4286 37.7046 35.5145C37.8935 35.6716 38.0929 35.8157 38.3014 35.9457C38.5888 36.1296 38.9059 36.2622 39.2386 36.3378C39.3549 36.3592 39.4722 36.3738 39.5901 36.3815H39.4995C39.411 36.3793 39.3227 36.3705 39.2355 36.355C38.8994 36.2843 38.5784 36.1547 38.2873 35.9722C38.0762 35.8437 37.8742 35.7007 37.6828 35.5442C37.5766 35.4599 37.4703 35.3661 37.3625 35.2677L37.2063 35.1115C37.1544 35.055 37.098 35.0027 37.0376 34.9553C36.9756 34.9101 36.903 34.8816 36.8267 34.8725C36.7502 34.8647 36.6705 34.8616 36.5799 34.8569L36.0597 34.8241C35.7036 34.7944 35.3256 34.7647 34.9319 34.7179C33.0833 34.496 31.2474 34.1785 29.4317 33.7665C28.9193 33.6541 28.3955 33.5322 27.8602 33.401L27.4588 33.301L27.2557 33.2479C27.2198 33.2385 27.1917 33.2339 27.151 33.2198C27.1118 33.2047 27.0772 33.1793 27.0511 33.1464C27.0244 33.1135 27.0067 33.0743 26.9997 33.0325C26.9927 32.9908 26.9966 32.9479 27.0111 32.9081C27.0255 32.8683 27.0501 32.833 27.0823 32.8054C27.1145 32.7779 27.1532 32.7592 27.1948 32.7512C27.2354 32.7443 27.2772 32.747 27.3166 32.759L27.4197 32.7855L27.6259 32.8387C28.7335 33.1183 29.8879 33.3776 31.0766 33.6197C32.2654 33.8618 33.4292 34.054 34.5617 34.1977C35.1287 34.268 35.6864 34.3273 36.2331 34.3664L36.6409 34.3929C36.7796 34.3935 36.9176 34.4119 37.0517 34.4476C37.1189 34.4679 37.1834 34.4963 37.2438 34.532C37.3032 34.5679 37.3532 34.6163 37.4094 34.6585C37.5078 34.7491 37.5969 34.8444 37.6953 34.9319C38.0609 35.2856 38.4834 35.5755 38.945 35.7895C39.1643 35.8897 39.4021 35.9429 39.6432 35.9457C39.8786 35.9297 40.1128 35.9 40.3446 35.8566C41.2616 35.6864 42.102 35.4599 42.8674 35.2505L43.1502 35.1709L43.2892 35.1303C43.3362 35.1126 43.3858 35.1025 43.436 35.1006C43.4882 35.1035 43.5379 35.1239 43.577 35.1585C43.6162 35.1931 43.6426 35.2398 43.652 35.2912C43.6613 35.3426 43.6532 35.3957 43.6287 35.4418C43.6043 35.488 43.565 35.5246 43.5173 35.5458C43.1689 35.6504 42.8471 35.7364 42.5409 35.8192C41.9302 35.9754 41.4022 36.1097 40.9663 36.2003C40.5305 36.2909 40.1853 36.3487 39.9588 36.3721C39.8416 36.3846 39.7526 36.3878 39.6932 36.3925C39.6628 36.3905 39.6326 36.3868 39.6026 36.3815Z" fill="#263238"/>
<path d="M27.7509 36.8283C27.7509 36.8283 27.9508 33.5478 28.3414 33.2198C28.7319 32.8918 30.3127 32.5012 30.5205 32.595C30.7283 32.6887 31.9264 33.1542 31.9686 33.3526C31.9882 33.4176 31.9926 33.4862 31.9816 33.5532C31.9706 33.6202 31.9445 33.6838 31.9051 33.7391C31.8658 33.7944 31.8143 33.84 31.7546 33.8724C31.695 33.9047 31.6287 33.923 31.5609 33.9259L30.6236 33.7556L29.6863 34.2617L29.5754 35.1662C29.5754 35.1662 30.5299 34.4039 30.8501 34.1789C31.1703 33.954 31.9639 33.9634 31.9951 34.5507C31.9951 34.5507 33.2292 34.6991 33.2667 35.4114C33.2667 35.4114 34.3602 36.2034 34.4211 36.6096C34.482 37.0157 33.9415 37.828 33.9415 37.828C33.9415 37.828 35.6083 39.4401 35.563 39.9884C35.5177 40.5367 35.6848 42.2629 35.6848 42.2629L31.8936 42.7315L31.8108 41.1694C31.8108 41.1694 27.9977 37.5984 27.7509 36.8283Z" fill="#FFBF9D"/>
<path d="M33.8853 36.6971C33.8547 36.8711 33.7798 37.0344 33.6679 37.1711C33.556 37.3079 33.4109 37.4136 33.2464 37.4782C33.2339 37.4579 33.4307 37.336 33.6057 37.1189C33.7806 36.9017 33.8634 36.6893 33.8853 36.6971Z" fill="#FF9A6C"/>
<path d="M34.1508 37.0235C34.1696 37.0376 34.0774 37.1376 33.9259 37.1313C33.7744 37.1251 33.69 37.0173 33.7088 37.0048C33.7275 36.9923 33.8103 37.047 33.929 37.0501C34.0477 37.0532 34.1368 37.0063 34.1508 37.0235Z" fill="#FF9A6C"/>
<path d="M33.2323 35.4536C33.2323 35.4677 33.1027 35.5145 32.9059 35.6317C32.6511 35.7835 32.4269 35.9816 32.2451 36.2159C32.1072 36.3938 31.9966 36.5912 31.917 36.8017V36.8173H31.9045C31.7242 36.8978 31.537 36.9621 31.3453 37.0095C31.5145 36.9096 31.6922 36.8249 31.8764 36.7564L31.8577 36.7767C31.9304 36.5545 32.0414 36.3467 32.1857 36.1628C32.3733 35.9198 32.6109 35.7201 32.8824 35.577C32.9907 35.5152 33.1092 35.4734 33.2323 35.4536Z" fill="#FF9A6C"/>
<path d="M30.1081 36.4081C30.1081 36.4081 30.1237 36.3706 30.1784 36.3253C30.2586 36.2655 30.3492 36.2211 30.4455 36.1941C30.581 36.1583 30.7091 36.0985 30.8235 36.0176C30.9519 35.9 31.0715 35.7731 31.1813 35.638C31.4296 35.3553 31.6499 35.1038 31.8249 34.9241C31.9102 34.8208 32.006 34.7265 32.1107 34.6429C32.0411 34.7552 31.9599 34.8599 31.8686 34.9554C31.7124 35.1444 31.4906 35.4037 31.2437 35.6849C31.1311 35.8239 31.0067 35.953 30.872 36.0707C30.7485 36.154 30.61 36.2123 30.4643 36.2425C30.3713 36.2635 30.2819 36.2977 30.1987 36.3441C30.1409 36.3847 30.1128 36.4128 30.1081 36.4081Z" fill="#FF9A6C"/>
<path d="M29.5582 35.1553C29.4896 35.3874 29.3628 35.5982 29.1897 35.7674C29.0166 35.9367 28.8031 36.0588 28.5694 36.1222C28.7692 36.0011 28.958 35.8626 29.1333 35.7083C29.2907 35.5366 29.4329 35.3515 29.5582 35.1553Z" fill="#FF9A6C"/>
<path d="M33.9821 37.85C33.9821 37.8625 33.9259 37.85 33.8416 37.85C33.7318 37.8484 33.6237 37.8771 33.5291 37.9327L33.4713 37.9671V37.8999V37.8796C33.4699 37.7647 33.4498 37.6508 33.412 37.5422C33.3807 37.461 33.3432 37.4188 33.3511 37.4094C33.3589 37.4001 33.4135 37.4313 33.4635 37.5157C33.5216 37.6266 33.5521 37.7498 33.5526 37.875V37.8953L33.4901 37.8625C33.5969 37.7994 33.7221 37.7752 33.8447 37.7937C33.9384 37.8015 33.9868 37.8359 33.9821 37.85Z" fill="#FF9A6C"/>
<path d="M31.3609 42.2238C31.3609 42.2238 29.0178 55.4096 29.2068 56.7998C29.3958 58.1901 29.7957 63.7387 33.9212 63.1295C38.0468 62.5203 37.3313 56.7514 37.1876 55.6454C37.0439 54.5395 36.0738 47.1538 36.0738 47.1538L35.7614 41.9879L31.3609 42.2238Z" fill="#407BFF"/>
<path d="M36.7924 53.421C36.7811 53.3833 36.7738 53.3446 36.7705 53.3054C36.7611 53.221 36.7455 53.1117 36.7283 52.9742C36.6924 52.6852 36.6455 52.2682 36.5924 51.7511C36.4862 50.717 36.3628 49.2877 36.2378 47.7068C36.1128 46.1259 35.9973 44.6966 35.9051 43.6625C35.8598 43.1517 35.8223 42.7362 35.7957 42.4378C35.7853 42.2993 35.776 42.1884 35.7676 42.1051C35.7655 42.066 35.7655 42.0269 35.7676 41.9879C35.779 42.025 35.7864 42.0633 35.7895 42.102C35.7999 42.1863 35.814 42.2972 35.8317 42.4347C35.8676 42.7221 35.9145 43.1408 35.9676 43.6578C36.0738 44.6904 36.1972 46.1213 36.3237 47.7006C36.4503 49.2798 36.5627 50.7107 36.6502 51.7527C36.6955 52.2635 36.733 52.6806 36.7596 52.9774C36.7705 53.1164 36.7799 53.2273 36.7877 53.3117C36.7911 53.348 36.7926 53.3845 36.7924 53.421Z" fill="#263238"/>
<g opacity="0.6">
<path d="M45.0122 57.5903H38.6278V70.0544H45.0122V57.5903Z" fill="white"/>
</g>
<path d="M43.7156 69.2484H39.9416C39.7204 69.2484 39.5082 69.1605 39.3517 69.004C39.1953 68.8476 39.1074 68.6354 39.1074 68.4142V60.9051L40.8742 61.1972C41.3429 61.2738 41.8204 61.2801 42.291 61.216L44.5498 60.9036V68.4111C44.5502 68.5209 44.5289 68.6297 44.4872 68.7312C44.4455 68.8328 44.3841 68.9251 44.3066 69.0029C44.2291 69.0807 44.137 69.1424 44.0356 69.1846C43.9342 69.2267 43.8255 69.2484 43.7156 69.2484Z" fill="#EBEBEB"/>
<path d="M44.9981 57.6607C44.9202 57.6944 44.8397 57.722 44.7576 57.7434C44.5368 57.8125 44.3126 57.8698 44.0858 57.9153C43.7506 57.9864 43.4116 58.0385 43.0705 58.0715C42.652 58.1114 42.2317 58.1276 41.8114 58.1199C41.0466 58.1031 40.2853 58.011 39.5385 57.845C39.2542 57.7809 39.0246 57.7216 38.8684 57.6731C38.7862 57.6526 38.7057 57.6254 38.6278 57.5919C38.712 57.6011 38.7951 57.6178 38.8762 57.6419C39.0324 57.681 39.2652 57.7325 39.551 57.7887C40.2952 57.9388 41.051 58.024 41.8099 58.0434C42.2269 58.0514 42.644 58.0374 43.0595 58.0012C43.4423 57.9653 43.7859 57.9168 44.0718 57.8606C44.3577 57.8044 44.5889 57.7559 44.7466 57.7153C44.8286 57.6896 44.9128 57.6713 44.9981 57.6607Z" fill="#263238"/>
<path d="M39.1183 58.7478C39.1402 58.7478 39.159 60.8926 39.159 63.5388C39.159 66.185 39.1402 68.3298 39.1183 68.3298C39.0965 68.3298 39.0777 66.185 39.0777 63.5388C39.0777 60.8926 39.0949 58.7478 39.1183 58.7478Z" fill="#263238"/>
<path d="M43.3767 69.2983C43.3767 69.3202 42.6112 69.3389 41.6677 69.3389C40.7242 69.3389 39.9588 69.3202 39.9588 69.2983C39.9588 69.2764 40.7226 69.2577 41.6677 69.2577C42.6128 69.2577 43.3767 69.2764 43.3767 69.2983Z" fill="#263238"/>
<path d="M39.1199 60.9363C39.6301 61.4937 40.3237 61.8491 41.0741 61.9376C42.316 62.0814 43.511 61.4815 44.617 60.8988C42.7909 61.1566 40.8929 61.4097 39.1355 60.8551" fill="white"/>
<g opacity="0.6">
<path d="M42.1395 63.9763C41.5755 64.3512 41.1241 64.8839 40.5539 65.2494C39.9838 65.6149 39.1996 65.7852 38.6513 65.3853V66.246C39.1996 66.6459 39.9838 66.4772 40.5539 66.1101C41.1241 65.743 41.5755 65.2135 42.1395 64.837C42.5587 64.5618 43.0311 64.3779 43.526 64.2972C44.0209 64.2164 44.5273 64.2407 45.0122 64.3684V63.5077C44.5273 63.3796 44.0209 63.3551 43.5259 63.4359C43.0309 63.5166 42.5585 63.7007 42.1395 63.9763Z" fill="white"/>
</g>
</svg>
