<svg width="35" height="53" viewBox="0 0 35 53" fill="none" xmlns="http://www.w3.org/2000/svg">
<path d="M14.9359 22.6617C14.0258 17.6821 12.786 12.7821 11.2264 8.00072L8.51894 4.19178C7.3535 3.85252 6.0719 4.41748 5.25749 5.3932C4.44308 6.36892 4.04609 7.6923 3.91461 9.00868C3.78313 10.3251 3.89291 11.6527 3.97333 12.9746C4.15459 15.9831 4.17885 19.0462 4.98815 21.9271C5.30472 23.0571 5.79234 24.215 6.70632 24.8389C7.68028 25.5034 8.91976 25.4192 10.0533 25.2356C11.4137 25.0151 12.7571 24.6819 14.0717 24.2388C14.3934 24.1309 14.7432 23.9893 14.9053 23.6655C15.0559 23.3655 14.9972 22.9982 14.9359 22.6617Z" fill="#263238"/>
<path d="M15.098 0.029507C13.3646 -0.169562 11.8991 0.66176 10.5141 1.82533C9.12914 2.9889 8.13347 4.66837 7.60883 6.49504C7.05611 8.41703 7.01781 10.5409 7.64074 12.4377C8.26367 14.3344 9.56826 15.9802 11.2558 16.7835C13.5535 17.8714 16.3873 17.2363 18.2867 15.4391C20.1862 13.6419 21.1678 10.8129 21.1027 8.06656C21.058 6.1698 20.5334 4.26322 19.479 2.76039C18.4246 1.25756 16.82 0.192126 15.098 0.0365159" fill="#263238"/>
<path d="M10.5882 6.77971C10.7963 6.04092 10.652 5.23763 10.7069 4.4722C10.8269 2.77451 11.9834 1.34037 13.371 0.583347C14.6628 -0.117599 16.2929 -0.100776 17.9255 0.353437C19.0437 0.666059 20.1147 1.27168 20.9036 2.19833C21.4231 2.82052 21.7995 3.57021 22.0014 4.38477C22.2032 5.19934 22.2247 6.05513 22.0639 6.88065L14.156 6.1797C13.4616 6.89887 12.7519 7.62926 11.8813 8.06385C11.6319 8.20645 11.353 8.27552 11.072 8.26432C10.9325 8.25517 10.7983 8.2024 10.6852 8.11223C10.5721 8.02207 10.4849 7.89827 10.4338 7.75543C10.3469 7.43299 10.504 7.09935 10.5882 6.77971Z" fill="#263238"/>
<path d="M19.4523 25.9995C19.4523 25.9995 18.9876 20.1929 18.9889 20.2069C18.9902 20.2209 21.7653 19.6209 22.2516 15.6087C22.4929 13.6138 22.3269 10.3586 22.1138 7.6992C21.921 5.30617 20.4071 2.40425 18.237 2.71828L11.4895 4.79167C11.1714 4.83671 10.8805 5.01156 10.6745 5.28144C10.4685 5.55132 10.3625 5.89647 10.3776 6.24824L11.5405 20.6709L11.9477 26.5757L19.4523 25.9995Z" fill="#FFBF9D"/>
<path d="M20.7529 11.124C20.7572 11.2575 20.7138 11.3876 20.632 11.4866C20.5502 11.5856 20.4365 11.6456 20.3151 11.6539C20.2558 11.6608 20.1959 11.6547 20.1389 11.6357C20.0819 11.6168 20.0289 11.5855 19.983 11.5437C19.9372 11.5018 19.8995 11.4503 19.8721 11.3922C19.8447 11.3341 19.8283 11.2705 19.8236 11.2053C19.8194 11.0717 19.8628 10.9416 19.9446 10.8427C20.0263 10.7437 20.14 10.6837 20.2615 10.6754C20.3207 10.6684 20.3806 10.6746 20.4377 10.6935C20.4947 10.7125 20.5477 10.7438 20.5935 10.7856C20.6394 10.8274 20.6771 10.8789 20.7045 10.9371C20.7318 10.9952 20.7483 11.0587 20.7529 11.124Z" fill="#263238"/>
<path d="M21.5086 9.41244C21.4525 9.47973 21.0925 9.20356 20.5896 9.21758C20.0866 9.2316 19.7266 9.51898 19.6705 9.45309C19.6424 9.42506 19.6986 9.30169 19.8568 9.17272C20.0699 9.00075 20.3264 8.90572 20.5908 8.90075C20.852 8.89219 21.1088 8.97571 21.3235 9.13907C21.4805 9.26244 21.5367 9.3816 21.5086 9.41244Z" fill="#263238"/>
<path d="M16.2239 11.124C16.2281 11.2575 16.1847 11.3876 16.103 11.4866C16.0212 11.5856 15.9075 11.6456 15.7861 11.6539C15.7268 11.6608 15.6669 11.6547 15.6099 11.6357C15.5528 11.6168 15.4998 11.5855 15.454 11.5437C15.4082 11.5018 15.3705 11.4503 15.3431 11.3922C15.3157 11.3341 15.2992 11.2705 15.2946 11.2053C15.2904 11.072 15.3336 10.9421 15.4151 10.8431C15.4966 10.7442 15.6099 10.684 15.7312 10.6754C15.7905 10.6684 15.8505 10.6746 15.9076 10.6935C15.9647 10.7124 16.0178 10.7437 16.0637 10.7855C16.1096 10.8273 16.1475 10.8788 16.175 10.937C16.2025 10.9951 16.2191 11.0587 16.2239 11.124Z" fill="#263238"/>
<path d="M16.6783 9.3576C16.6209 9.42629 16.2609 9.14872 15.7593 9.16414C15.2576 9.17956 14.8951 9.46555 14.8402 9.39966C14.8121 9.37022 14.8683 9.24825 15.0265 9.11928C15.2398 8.94782 15.4963 8.85328 15.7605 8.84871C16.0214 8.84043 16.278 8.92339 16.4932 9.08563C16.6502 9.2076 16.7051 9.32676 16.6783 9.3576Z" fill="#263238"/>
<path d="M18.491 13.691C18.491 13.6588 18.7986 13.5915 19.3028 13.506C19.4305 13.4878 19.5581 13.4569 19.5709 13.3658C19.5836 13.2747 19.5415 13.1135 19.4764 12.9452C19.3488 12.6074 19.2135 12.2541 19.0718 11.884C18.5101 10.3714 18.1004 9.12648 18.1565 9.10265C18.2127 9.07881 18.7118 10.2844 19.2735 11.7957C19.4088 12.1686 19.539 12.5247 19.6564 12.8639C19.7087 13.0237 19.7968 13.2032 19.7356 13.4149C19.7183 13.4651 19.6908 13.5103 19.6552 13.547C19.6196 13.5837 19.5768 13.6109 19.53 13.6266C19.4596 13.6503 19.3866 13.6635 19.313 13.6658C18.8101 13.7163 18.4948 13.7163 18.491 13.691Z" fill="#263238"/>
<path d="M18.9888 20.2069C17.2762 20.283 15.578 19.8355 14.0832 18.9143C14.0832 18.9143 15.467 21.8457 19.0999 21.3718L18.9888 20.2069Z" fill="#FF9A6C"/>
<path d="M16.7804 7.12723C16.7345 7.27863 16.2315 7.22115 15.6443 7.31508C15.0571 7.40901 14.5848 7.59546 14.5031 7.46649C14.4674 7.4034 14.5465 7.26041 14.7355 7.11041C14.9875 6.92479 15.2748 6.80492 15.5755 6.75997C15.8761 6.71502 16.1822 6.74617 16.4702 6.85105C16.6885 6.94638 16.8008 7.06134 16.7804 7.12723Z" fill="#263238"/>
<path d="M21.3108 7.00392C21.2253 7.13149 20.8768 7.01233 20.4606 7.01654C20.0445 7.02074 19.6947 7.12308 19.6105 6.9941C19.5735 6.93102 19.6258 6.80485 19.7777 6.68148C19.9811 6.53367 20.2198 6.45556 20.4637 6.45706C20.7076 6.45855 20.9455 6.5396 21.1474 6.68989C21.2942 6.81466 21.3452 6.94223 21.3108 7.00392Z" fill="#263238"/>
<path d="M9.27215 5.70716C9.84785 3.36881 12.7621 0.0337053 14.9666 0.0995943L18.5689 2.24028C18.4809 2.90317 18.2316 3.5277 17.8475 4.04805C17.4633 4.5684 16.9584 4.96529 16.3861 5.19688C15.7734 5.4352 15.0292 5.52772 14.6832 6.13194C14.3373 6.73615 14.5862 7.60953 14.2594 8.24319C13.8088 9.12218 12.4787 9.14601 12.1507 10.0895C12.0077 10.5002 12.1111 10.9797 11.9605 11.389C11.7613 11.9344 10.5563 12.6704 10.0457 12.519C9.53511 12.3676 9.48915 11.4129 9.30278 10.9222C8.98366 10.0811 9.08323 9.63527 9.15726 9.15442C9.32959 8.01188 8.9977 6.82307 9.27215 5.70716Z" fill="#263238"/>
<path d="M11.5621 12.9142C11.5545 12.617 11.2251 11.9231 10.9571 11.8852C10.2397 11.7829 8.95295 11.8852 8.98741 13.8745C9.03337 16.5998 11.5149 15.9858 11.5174 15.9087C11.52 15.8316 11.5876 13.9418 11.5621 12.9142Z" fill="#FFBF9D"/>
<path d="M10.7427 14.8909C10.7312 14.8825 10.6993 14.9259 10.6265 14.9638C10.5246 15.0144 10.4088 15.0194 10.3036 14.9778C10.0406 14.8769 9.81211 14.4255 9.79296 13.9334C9.78249 13.7001 9.82001 13.4672 9.90274 13.2521C9.92446 13.1666 9.96471 13.0881 10.0201 13.0234C10.0754 12.9587 10.1442 12.9097 10.2206 12.8806C10.2697 12.8661 10.3219 12.8706 10.3683 12.8933C10.4148 12.916 10.4528 12.9556 10.4759 13.0053C10.5104 13.081 10.495 13.1357 10.5091 13.1455C10.5231 13.1553 10.5614 13.0993 10.5397 12.9871C10.5243 12.9202 10.4887 12.8609 10.4389 12.8189C10.3696 12.7637 10.2835 12.7406 10.1989 12.7544C10.0074 12.7726 9.83891 12.9689 9.75466 13.1862C9.6524 13.4241 9.60505 13.686 9.6168 13.9488C9.64233 14.497 9.90657 15.0058 10.2678 15.1124C10.3348 15.1323 10.405 15.1354 10.4733 15.1216C10.5415 15.1078 10.6061 15.0773 10.6623 15.0325C10.7388 14.9582 10.7503 14.8965 10.7427 14.8909Z" fill="#FF9A6C"/>
<path d="M17.8017 1.46645C18.094 2.55712 19.7088 3.86789 20.43 4.68099C21.8086 6.23429 22.0894 6.7614 22.295 10.4288C22.826 9.11798 23.2179 7.84226 23.0877 6.41373C22.9575 4.9852 22.3933 3.58611 21.4282 2.61881C20.4632 1.6515 19.082 1.16364 17.803 1.45944" fill="#263238"/>
<path d="M8.91211 13.5325C8.81692 13.4366 8.73327 13.3278 8.66319 13.2087C8.57067 13.079 8.48541 12.9432 8.40789 12.8021L8.11174 12.2273C7.70199 11.3582 7.37776 10.0124 7.39818 8.51373C7.4154 7.81001 7.50055 7.11029 7.6522 6.42631C7.78239 5.87042 7.96418 5.33067 8.19471 4.81553C8.29556 4.59684 8.40278 4.40758 8.49469 4.24216C8.5866 4.07674 8.68744 3.94776 8.76659 3.84262C8.84769 3.73185 8.94217 3.63375 9.04741 3.55103C9.07933 3.58047 8.6734 3.99823 8.31981 4.88142C8.11259 5.39491 7.9481 5.92793 7.82836 6.47397C7.68901 7.14431 7.60907 7.82788 7.58965 8.51513C7.57178 9.9773 7.86283 11.2895 8.2279 12.1601L8.49341 12.739C8.56873 12.9115 8.66191 13.0418 8.72191 13.1596C8.80045 13.2738 8.86444 13.3993 8.91211 13.5325Z" fill="#455A64"/>
<path d="M16.9248 14.9498C16.9487 14.825 16.9919 14.7055 17.0524 14.5966C17.0827 14.5423 17.1248 14.4972 17.1749 14.4653C17.2251 14.4335 17.2817 14.416 17.3396 14.4143C17.4236 14.4251 17.5035 14.4594 17.572 14.5138L18.5025 15.1181L18.5842 15.3676C18.3986 15.6858 18.1563 15.9595 17.8719 16.1723C17.7903 16.2435 17.6912 16.2864 17.5873 16.2957C17.4552 16.2797 17.3322 16.2143 17.2388 16.1106C17.1004 16.0072 16.9863 15.8693 16.9056 15.7083C16.8061 15.4755 16.8648 15.2008 16.9248 14.9498Z" fill="#FF9A6C"/>
<path d="M17.6242 16.3797C17.6344 16.3545 17.4072 16.3124 17.171 16.0503C17.0355 15.8984 16.9421 15.7073 16.9017 15.4993C16.8573 15.2452 16.8933 14.9821 17.0038 14.7535C17.0325 14.6941 17.0662 14.6377 17.1046 14.5853C17.1373 14.5364 17.178 14.4946 17.2246 14.4619C17.2433 14.4484 17.2646 14.4401 17.2869 14.4376C17.3091 14.4352 17.3316 14.4387 17.3523 14.4479C17.4017 14.4719 17.4491 14.5005 17.494 14.5334C17.6906 14.6652 17.868 14.7802 18.0173 14.8769C18.3173 15.0676 18.5088 15.1783 18.5177 15.1573C18.5267 15.1362 18.3543 14.9989 18.0671 14.7844C17.9242 14.6778 17.7518 14.5531 17.5565 14.4157C17.505 14.3755 17.4498 14.3412 17.3919 14.3133C17.3547 14.2974 17.3147 14.2909 17.2749 14.2943C17.2352 14.2977 17.1966 14.3109 17.1621 14.333C17.1008 14.374 17.0472 14.4272 17.0038 14.49C16.9596 14.5493 16.9207 14.6131 16.8876 14.6806C16.7626 14.9384 16.7259 15.2368 16.7842 15.5218C16.8329 15.7528 16.9458 15.9615 17.1072 16.119C17.2124 16.2243 17.3369 16.3036 17.4723 16.3517C17.5667 16.3867 17.6229 16.3867 17.6242 16.3797Z" fill="#263238"/>
<path d="M4.41497 52.2893L6.22887 47.1598C6.22887 47.1598 6.10122 41.8648 5.65827 39.4494C5.21533 37.0339 6.20462 23.5982 6.20462 23.5982L11.6323 22C11.6323 22 12.9509 24.4477 15.3431 24.2052C18.1514 23.9248 19.1317 22 19.1317 22L22.4774 22.593C22.4774 22.593 24.5594 30.7618 25.4529 32.6712C26.3465 34.5806 26.4167 40.4643 26.4167 40.4643C26.4167 40.4643 25.4491 43.7546 25.2104 44.8551C25.1756 45.0144 25.1877 45.1818 25.2449 45.3331L27.4941 52.2893H4.41497Z" fill="#FF6240"/>
<g opacity="0.3">
<path d="M8.38752 38.8718C8.33774 39.605 8.47687 40.7391 8.35178 41.4611L7.27441 41.7149C6.86523 40.8437 6.59496 39.9021 6.47532 38.9307C6.47532 38.9307 8.40284 38.67 8.38752 38.8718Z" fill="black"/>
</g>
<g opacity="0.3">
<path d="M9.9155 43.526C10.0589 43.3544 10.24 43.226 10.4414 43.1531C10.6572 43.1198 10.8772 43.1488 11.0797 43.2372L14.2518 44.2872L16.5137 43.6437C16.0659 44.6169 15.3261 45.3907 14.4192 45.8346C13.5123 46.2784 12.4938 46.3652 11.5354 46.0802C11.1448 45.9639 10.7439 45.7844 10.3495 45.8798C9.97677 45.9695 9.69084 46.2821 9.3998 46.5513C8.50625 47.3756 7.15188 47.4232 5.99154 47.5326C7.1021 45.9316 8.57263 44.8998 9.9155 43.526Z" fill="black"/>
</g>
<path d="M8.11558 40.7068L5.90213 41.1568L6.28508 32.1426L6.20977 23.5911C6.20977 23.5911 3.41168 24.5724 2.01902 27.4603C0.626358 30.3482 0.360847 34.324 0.211496 36.4689C0.0391684 38.9418 -0.107626 45.0274 0.106826 46.4994C0.321278 47.9714 1.84286 49.4981 4.41501 48.591C5.71448 48.1326 10.3061 43.833 10.3061 43.833L8.11558 40.7068Z" fill="#FF6240"/>
<path d="M22.4774 22.5889C22.4774 22.5889 27.1264 23.5478 28.071 25.5567C29.0156 27.5656 33.5013 38.6742 32.9217 41.8733C32.3422 45.0724 28.8931 46.4996 27.7289 45.2252C26.5648 43.9509 25.4517 40.3985 25.4517 40.3985L22.4774 22.5889Z" fill="#FF6240"/>
<path d="M5.42478 47.9938L5.45032 47.977L5.52308 47.9209L5.7988 47.6994L6.82 46.8583L10.3265 43.983L10.3521 43.9606L10.3316 43.9326L9.1177 42.2503C8.72454 41.7092 8.34286 41.1834 7.97906 40.6802L7.96629 40.6633H7.94587L6.0592 41.1162H6.07069C5.48432 41.0275 4.88737 41.0811 4.32189 41.2732C3.88491 41.4183 3.47264 41.6414 3.10156 41.9335C2.86258 42.1211 2.64338 42.3374 2.44799 42.5783C2.37906 42.661 2.33438 42.7311 2.30119 42.776L2.26545 42.8279C2.26116 42.8336 2.25732 42.8397 2.25396 42.8461C2.25396 42.8461 2.25396 42.8461 2.26928 42.8307L2.30886 42.783C2.34332 42.7396 2.39182 42.6723 2.46075 42.5924C2.97192 41.9973 3.61834 41.5627 4.33338 41.3335C4.89255 41.1496 5.48149 41.1017 6.0592 41.1933H6.06942L7.95736 40.7475L7.92545 40.7348L9.06281 42.305C9.48405 42.8867 9.89381 43.4517 10.2793 43.9872V43.9382L6.79192 46.8387L5.77838 47.691L5.50776 47.9223L5.43883 47.9826C5.43117 47.9854 5.42351 47.9924 5.42478 47.9938Z" fill="#263238"/>
<path d="M5.89576 32.8101C5.89056 32.8378 5.88715 32.8659 5.88555 32.8942C5.88555 32.9573 5.87406 33.0344 5.8664 33.1353C5.85236 33.3554 5.83321 33.6568 5.80896 34.0255C5.76556 34.7755 5.71067 35.8143 5.69025 36.9625C5.66982 38.1106 5.70046 39.1536 5.7579 39.9065C5.77067 40.0943 5.78854 40.2625 5.80258 40.4111C5.81662 40.5597 5.83194 40.6915 5.84598 40.7925L5.88044 41.0322C5.88318 41.0602 5.88831 41.0879 5.89576 41.1149C5.89886 41.087 5.89886 41.0587 5.89576 41.0308C5.89576 40.9677 5.883 40.8906 5.87534 40.7896C5.86768 40.6887 5.85236 40.5569 5.84215 40.4083C5.83194 40.2597 5.81662 40.0901 5.80768 39.9022C5.76173 39.1522 5.73875 38.1134 5.75918 36.9653C5.7796 35.8171 5.82683 34.7811 5.85875 34.0297C5.87406 33.661 5.88555 33.3582 5.89449 33.1395C5.89449 33.04 5.89449 32.9601 5.90087 32.897C5.90292 32.8679 5.9012 32.8386 5.89576 32.8101Z" fill="#263238"/>
<path d="M25.5678 29.999C25.5663 30.0121 25.5663 30.0253 25.5678 30.0383L25.5933 30.1504C25.6202 30.2528 25.6546 30.3958 25.7006 30.571C25.7465 30.7462 25.8052 30.9818 25.8665 31.2453C25.9278 31.5089 26.0044 31.8061 26.0733 32.1439C26.2478 32.9238 26.3846 33.7132 26.4831 34.5089C26.506 34.7346 26.538 34.9645 26.5558 35.2001C26.5737 35.4356 26.5877 35.6781 26.6043 35.9234C26.6209 36.1688 26.6158 36.4211 26.6209 36.6748C26.626 36.9286 26.6107 37.1879 26.6069 37.4487C26.5625 38.4327 26.4563 39.4121 26.289 40.3801L26.1614 41.0277C26.1218 41.238 26.0835 41.4483 26.0337 41.6376C25.9406 42.0273 25.8665 42.3946 25.7784 42.724C25.6904 43.0535 25.6163 43.3521 25.5474 43.6142C25.4785 43.8764 25.4108 44.0979 25.3585 44.2829L25.241 44.7035C25.2295 44.7484 25.2206 44.7848 25.213 44.8128C25.2087 44.8255 25.2061 44.8387 25.2053 44.8521C25.2108 44.8403 25.2155 44.8282 25.2193 44.8156L25.2538 44.7077C25.2857 44.6068 25.3291 44.4666 25.3815 44.2871C25.4338 44.1077 25.5091 43.8806 25.5806 43.6226C25.6521 43.3647 25.7325 43.0619 25.8206 42.7338C25.9086 42.4058 25.9903 42.0329 26.0848 41.6474C26.1346 41.4525 26.1729 41.2478 26.2125 41.0375C26.252 40.8273 26.2967 40.617 26.3401 40.3885C26.5122 39.4202 26.6214 38.4396 26.6669 37.4543C26.6669 37.1907 26.6835 36.9314 26.6809 36.6763C26.6784 36.4211 26.6694 36.1688 26.6631 35.922C26.6567 35.6753 26.6286 35.4328 26.612 35.1945C26.5954 34.9561 26.5609 34.7276 26.5367 34.5019C26.4357 33.7041 26.2942 32.9132 26.1129 32.1327C26.0401 31.7991 25.9623 31.4991 25.8959 31.2369C25.8295 30.9748 25.7682 30.7476 25.7184 30.564C25.6687 30.3804 25.6291 30.243 25.5997 30.1434C25.587 30.0986 25.5768 30.0621 25.5678 30.0341C25.5688 30.0224 25.5688 30.0107 25.5678 29.999Z" fill="#263238"/>
<path d="M26.0913 31.1514C26.2293 30.8632 26.3479 30.5642 26.4461 30.257C26.5652 29.9585 26.6638 29.6506 26.741 29.336C26.602 29.6238 26.4829 29.9228 26.3849 30.2304C26.2652 30.5284 26.167 30.8364 26.0913 31.1514Z" fill="#263238"/>
<path d="M5.0137 30.6216C5.14738 31.0051 5.30169 31.3796 5.47579 31.7431C5.63016 32.1176 5.80449 32.4818 5.99788 32.8338C5.8642 32.4502 5.7099 32.0757 5.53579 31.7123C5.38143 31.3378 5.20709 30.9736 5.0137 30.6216Z" fill="#263238"/>
<path d="M22.2465 22.5886L16.5916 31.1514L8.47306 22.848L11.6324 21.9956H19.1318L22.2465 22.5886Z" fill="#FFBF9D"/>
<g opacity="0.3">
<path d="M26.5801 29.7832C26.5801 31.687 26.7218 33.7716 27.1137 35.6263L26.995 37.7291C26.9248 39.5222 27.3397 40.7923 28.0685 42.3974C27.3907 42.0498 26.9452 41.29 26.7537 40.4951C26.5623 39.7002 26.5916 38.8619 26.6363 38.0418C26.7027 36.8151 26.7142 35.6221 26.5087 34.4137C26.3899 33.7127 26.1857 32.3683 26.0236 31.7164C26.0249 31.7108 25.9368 31.4234 26.5801 29.7832Z" fill="black"/>
</g>
<g opacity="0.3">
<path d="M1.65262 42.7844C1.80707 41.8704 2.59212 41.2115 3.41674 41.0012C4.24136 40.7909 5.05704 40.9508 5.88932 41.1134C4.03456 41.0237 2.88444 41.9433 2.08407 43.076C2.03858 43.1621 1.96445 43.2254 1.87728 43.2527C1.83024 43.2544 1.78393 43.2395 1.74512 43.2102C1.70632 43.181 1.67704 43.1389 1.66155 43.0901C1.63285 42.9911 1.62976 42.8853 1.65262 42.7844Z" fill="black"/>
</g>
<path d="M15.8934 37.5176C15.9145 37.3863 15.9032 37.2511 15.8608 37.1262C15.8184 37.0012 15.7464 36.891 15.6521 36.8068C15.4602 36.64 15.2201 36.5544 14.9756 36.5657C14.7617 36.5657 14.5522 36.6328 14.3718 36.7592C14.2696 36.829 14.1839 36.9245 14.122 37.0379C14.06 37.1513 14.0235 37.2792 14.0156 37.4112C14.0076 37.5431 14.0283 37.6752 14.076 37.7966C14.1238 37.918 14.1972 38.0251 14.2901 38.1092C14.4955 38.3026 14.7602 38.4028 15.0305 38.3896C15.257 38.3916 15.4755 38.2977 15.6406 38.1274C15.7964 37.9508 15.9138 37.7068 15.8959 37.519" fill="#FF6240"/>
<path d="M18.2293 38.1863C19.1433 38.3419 20.0228 37.205 20.227 36.483C20.2422 36.4466 20.2493 36.4067 20.2475 36.3667C20.2457 36.3267 20.2352 36.2877 20.2168 36.2531C20.1871 36.225 20.1513 36.2057 20.1129 36.1968C20.0745 36.188 20.0347 36.19 19.9972 36.2026C19.5484 36.2827 19.1346 36.5185 18.8165 36.8754C18.4984 37.2324 18.2926 37.6917 18.2293 38.1863Z" fill="#455A64"/>
<path d="M19.2416 37.6127C19.2627 37.4814 19.2514 37.3463 19.209 37.2213C19.1666 37.0964 19.0945 36.9861 19.0003 36.902C18.8087 36.7355 18.5692 36.6499 18.3251 36.6609C18.111 36.6597 17.9012 36.7269 17.7213 36.8543C17.6185 36.924 17.5324 37.0197 17.4702 37.1333C17.4079 37.247 17.3712 37.3753 17.3632 37.5076C17.3552 37.64 17.3762 37.7725 17.4242 37.8942C17.4723 38.0158 17.5461 38.1231 17.6396 38.2071C17.845 38.4004 18.1097 38.5006 18.3799 38.4875C18.6065 38.4899 18.8251 38.3959 18.9901 38.2254C19.1471 38.0473 19.2633 37.8048 19.2454 37.6169" fill="#FF6240"/>
<path d="M9.99461 37.6128C10.0162 37.4816 10.0054 37.3464 9.96317 37.2214C9.92095 37.0963 9.84893 36.986 9.75462 36.902C9.56271 36.7352 9.32262 36.6497 9.07808 36.6609C8.86403 36.66 8.65432 36.7272 8.4743 36.8544C8.37156 36.9241 8.28546 37.0197 8.22319 37.1334C8.16091 37.247 8.12425 37.3753 8.11626 37.5077C8.10827 37.64 8.12918 37.7725 8.17724 37.8942C8.22531 38.0159 8.29914 38.1232 8.3926 38.2072C8.59812 38.4003 8.86274 38.5005 9.13297 38.4876C9.3599 38.4898 9.5789 38.3959 9.74441 38.2254C9.90015 38.0474 10.0176 37.8049 9.99971 37.617" fill="#FF6240"/>
<g opacity="0.3">
<path d="M15.8934 37.5176C15.9145 37.3863 15.9032 37.2511 15.8608 37.1262C15.8184 37.0012 15.7464 36.891 15.6521 36.8068C15.4602 36.64 15.2201 36.5544 14.9756 36.5657C14.7617 36.5657 14.5522 36.6328 14.3718 36.7592C14.2696 36.829 14.1839 36.9245 14.122 37.0379C14.06 37.1513 14.0235 37.2792 14.0156 37.4112C14.0076 37.5431 14.0283 37.6752 14.076 37.7966C14.1238 37.918 14.1972 38.0251 14.2901 38.1092C14.4955 38.3026 14.7602 38.4028 15.0305 38.3896C15.257 38.3916 15.4755 38.2977 15.6406 38.1274C15.7964 37.9508 15.9138 37.7068 15.8959 37.519" fill="black"/>
</g>
<g opacity="0.3">
<path d="M19.2416 37.6127C19.2627 37.4814 19.2514 37.3463 19.209 37.2213C19.1666 37.0964 19.0945 36.9861 19.0003 36.902C18.8087 36.7355 18.5692 36.6499 18.3251 36.6609C18.111 36.6597 17.9012 36.7269 17.7213 36.8543C17.6185 36.924 17.5324 37.0197 17.4702 37.1333C17.4079 37.247 17.3712 37.3753 17.3632 37.5076C17.3552 37.64 17.3762 37.7725 17.4242 37.8942C17.4723 38.0158 17.5461 38.1231 17.6396 38.2071C17.845 38.4004 18.1097 38.5006 18.3799 38.4875C18.6065 38.4899 18.8251 38.3959 18.9901 38.2254C19.1471 38.0473 19.2633 37.8048 19.2454 37.6169" fill="black"/>
</g>
<g opacity="0.3">
<path d="M9.99461 37.6128C10.0162 37.4816 10.0054 37.3464 9.96317 37.2214C9.92095 37.0963 9.84893 36.986 9.75462 36.902C9.56271 36.7352 9.32262 36.6497 9.07808 36.6609C8.86403 36.66 8.65432 36.7272 8.4743 36.8544C8.37156 36.9241 8.28546 37.0197 8.22319 37.1334C8.16091 37.247 8.12425 37.3753 8.11626 37.5077C8.10827 37.64 8.12918 37.7725 8.17724 37.8942C8.22531 38.0159 8.29914 38.1232 8.3926 38.2072C8.59812 38.4003 8.86274 38.5005 9.13297 38.4876C9.3599 38.4898 9.5789 38.3959 9.74441 38.2254C9.90015 38.0474 10.0176 37.8049 9.99971 37.617" fill="black"/>
</g>
<path d="M14.5453 37.9466C14.5262 37.4265 14.1854 36.7985 13.8981 36.3849C13.6073 35.9669 13.2061 35.6575 12.7493 35.4989C12.7181 35.4857 12.6835 35.4857 12.6523 35.4989C12.6374 35.5092 12.6247 35.5227 12.6148 35.5386C12.6049 35.5545 12.5981 35.5725 12.5948 35.5914C12.5046 35.8988 12.4898 36.227 12.552 36.5427C12.6141 36.8584 12.7511 37.1505 12.949 37.3894C13.1469 37.6284 13.3987 37.8057 13.679 37.9035C13.9593 38.0014 14.2581 38.0162 14.5453 37.9466Z" fill="#455A64"/>
<path d="M11.2086 37.1377C11.0236 36.9139 10.8574 36.6723 10.712 36.4157C10.5672 36.1568 10.4907 35.8588 10.4912 35.555C10.4893 35.5326 10.492 35.51 10.4991 35.4889C10.5062 35.4678 10.5174 35.4487 10.532 35.433C10.5493 35.4222 10.5685 35.4156 10.5883 35.4134C10.6081 35.4112 10.628 35.4136 10.6469 35.4204C11.1645 35.5341 11.6365 35.8234 11.9963 36.2474C12.3561 36.6715 12.5856 37.209 12.6523 37.784L12.6817 37.9312C12.2535 38.2225 11.7392 38.32 11.2469 38.2031C10.8495 38.136 10.4684 37.982 10.1261 37.7503C9.78167 37.515 9.53159 37.1446 9.42659 36.7143C9.73372 36.6372 10.0525 36.6351 10.3605 36.7083C10.6684 36.7814 10.958 36.928 11.2086 37.1377Z" fill="#455A64"/>
<path d="M16.8608 36.1127C17.277 35.622 17.8629 35.3444 18.4539 35.1748C18.4974 35.505 18.4809 35.8413 18.4053 36.1644C18.3298 36.4875 18.1966 36.7909 18.0135 37.0572C17.8305 37.3234 17.6012 37.5471 17.3389 37.7154C17.0766 37.8836 16.7866 37.9931 16.4855 38.0375L16.4485 37.9674C16.2302 37.3407 16.4447 36.6033 16.8608 36.1127Z" fill="#455A64"/>
<path d="M8.68998 38.1736C8.6721 37.6535 8.33128 37.0254 8.04407 36.6105C7.75226 36.1935 7.35142 35.8844 6.89522 35.7245C6.86399 35.7113 6.82943 35.7113 6.7982 35.7245C6.78359 35.7349 6.77107 35.7485 6.76141 35.7644C6.75175 35.7803 6.74516 35.7982 6.74204 35.817C6.6508 36.1242 6.63501 36.4523 6.69628 36.7683C6.75755 37.0843 6.8937 37.377 7.09096 37.6167C7.28823 37.8563 7.53961 38.0346 7.81971 38.1334C8.09981 38.2321 8.3987 38.248 8.68615 38.1792" fill="#455A64"/>
<path d="M20.1479 37.6802C20.1479 37.6802 18.9072 41.7386 17.8349 42.3695C16.7627 43.0004 14.3692 43.5976 13.1553 43.5821C11.9413 43.5667 11.2099 43.5345 10.2334 42.9387L10.204 42.9204C9.01435 42.1844 8.08998 41.0233 7.58464 39.6302L6.81874 37.5274L20.1479 37.6802Z" fill="#E0E0E0"/>
<path d="M7.67904 39.9696C7.79797 40.0869 7.93386 40.1816 8.08113 40.2499C8.25262 40.3343 8.43461 40.39 8.62109 40.4154C8.86898 40.4506 9.12078 40.4305 9.36146 40.3565C9.62825 40.278 9.89759 40.1139 10.2129 40.0761C10.3754 40.0642 10.5384 40.0915 10.6903 40.156C10.8499 40.2163 11.0069 40.3046 11.1741 40.3859C11.3445 40.4759 11.5274 40.5338 11.7153 40.5569C11.9121 40.5716 12.1097 40.5473 12.2987 40.4855C12.6816 40.3733 13.0518 40.163 13.459 40.0873C13.6579 40.0493 13.8621 40.0632 14.0551 40.128C14.2429 40.2001 14.423 40.2941 14.5926 40.4083C14.7602 40.5179 14.9347 40.6144 15.1146 40.6971C15.2911 40.7786 15.4832 40.8109 15.6737 40.7911C16.0478 40.735 16.3375 40.5009 16.6452 40.4196C16.9354 40.3568 17.2345 40.3635 17.5221 40.4392C17.7637 40.4984 18.0084 40.5405 18.2548 40.5654C18.4425 40.5818 18.6313 40.5618 18.8127 40.5065C18.9271 40.4705 19.0342 40.4105 19.128 40.3298C19.1613 40.3029 19.1914 40.2713 19.2173 40.2359C19.0987 40.3508 18.9576 40.4343 18.805 40.4798C18.626 40.5284 18.4409 40.5436 18.2574 40.5247C18.0129 40.4943 17.7703 40.4475 17.5311 40.3845C17.2384 40.3047 16.9335 40.296 16.6375 40.3593C16.3171 40.442 16.0235 40.6733 15.6712 40.721C15.4909 40.7392 15.3093 40.7078 15.1427 40.6298C14.9671 40.5489 14.7965 40.4552 14.6321 40.3495C14.4586 40.2343 14.2741 40.1403 14.082 40.0691C13.8791 40.0006 13.6643 39.9857 13.4552 40.0256C13.0339 40.1055 12.6663 40.3158 12.2897 40.4266C11.9315 40.5535 11.5421 40.5202 11.206 40.334C11.0413 40.2555 10.8818 40.1672 10.7171 40.1055C10.5573 40.0385 10.386 40.0112 10.2154 40.0256C9.88482 40.0649 9.61549 40.2331 9.35636 40.313C9.1216 40.3882 8.87551 40.4111 8.63258 40.3803C8.44897 40.3586 8.26923 40.3076 8.099 40.2289C7.9877 40.1781 7.88087 40.1161 7.77988 40.0439C7.71478 39.9948 7.68031 39.9682 7.67904 39.9696Z" fill="#263238"/>
<path d="M7.67903 39.4998C7.79947 39.6177 7.93713 39.7125 8.08623 39.7802C8.25989 39.8649 8.44398 39.9211 8.63257 39.947C8.88307 39.9824 9.1375 39.9619 9.3806 39.8867C9.64994 39.8082 9.92311 39.6442 10.2422 39.6063C10.4064 39.5951 10.5709 39.6224 10.7248 39.6862C10.8869 39.7479 11.0452 39.8362 11.2149 39.9161C11.3869 40.0068 11.5716 40.0647 11.7613 40.0872C11.9605 40.1015 12.1605 40.0778 12.3523 40.0171C12.7352 39.9035 13.1182 39.6946 13.5241 39.6175C13.7256 39.5801 13.9321 39.594 14.1279 39.6582C14.3181 39.7303 14.5008 39.8242 14.673 39.9386C14.8425 40.0479 15.0186 40.1444 15.2002 40.2274C15.3788 40.3091 15.5731 40.3408 15.7656 40.3199C16.1486 40.2638 16.4371 40.0297 16.7486 39.9498C17.042 39.8859 17.3446 39.8921 17.6357 39.968C17.8794 40.0272 18.1263 40.0694 18.3748 40.0942C18.5645 40.1102 18.7553 40.0908 18.939 40.0367C19.0545 40.0003 19.1628 39.9404 19.2581 39.8601C19.2917 39.8329 19.3221 39.8013 19.3488 39.7661C19.228 39.8804 19.0853 39.9632 18.9314 40.0087C18.7504 40.058 18.563 40.0732 18.3774 40.0535C18.1308 40.0232 17.8861 39.9764 17.6447 39.9133C17.347 39.8329 17.037 39.8238 16.7358 39.8867C16.4116 39.9694 16.1141 40.2007 15.758 40.2484C15.5757 40.267 15.392 40.2362 15.2231 40.1587C15.0444 40.0756 14.8708 39.9796 14.7036 39.8713C14.5277 39.7563 14.3411 39.6623 14.147 39.5909C13.9404 39.5216 13.7217 39.5067 13.5088 39.5474C13.0837 39.6273 12.7097 39.8376 12.3293 39.9484C11.9674 40.0771 11.5738 40.0438 11.2341 39.8559C11.0669 39.7773 10.906 39.689 10.7388 39.6273C10.5759 39.5604 10.4017 39.5331 10.2282 39.5474C9.89375 39.5867 9.62186 39.7549 9.3589 39.8348C9.12159 39.9104 8.87302 39.9338 8.62747 39.9035C8.44192 39.881 8.26017 39.83 8.08751 39.7521C7.97823 39.702 7.87316 39.6415 7.77349 39.5713C7.74353 39.5451 7.71196 39.5212 7.67903 39.4998Z" fill="#263238"/>
<path d="M12.4276 43.5766C12.4276 43.5766 14.267 42.3149 14.6985 42.4677C14.8211 42.5141 14.9279 42.6003 15.0048 42.715C15.0816 42.8297 15.1249 42.9674 15.1287 43.1098C15.4611 42.7657 15.816 42.449 16.1907 42.1621C16.4052 42.0107 16.6681 41.8999 16.9068 42.0219L16.9796 42.12L16.9477 42.2953C16.9477 42.2953 18.0404 41.942 17.5438 42.6485C17.0473 43.3551 14.8836 44.8061 14.5287 44.9883C14.1739 45.1706 12.531 45.7075 11.7715 45.2056C11.3007 45.0659 10.8741 44.7865 10.5384 44.3981C10.0125 43.7616 9.23764 42.7257 9.23764 42.7257L9.2887 41.6883L11.3975 43.4098L12.4276 43.5766Z" fill="#FFBF9D"/>
<path d="M7.89851 41.0784C7.91623 40.9352 7.97069 40.8005 8.05552 40.6901C8.14615 40.5877 8.36699 40.4994 8.46656 40.5934C8.71547 40.7868 9.00651 41.3546 9.00651 41.3546C9.17373 41.4822 9.38946 41.4948 9.54137 41.642C9.6226 41.7086 9.68935 41.7943 9.73681 41.8927C9.78427 41.9911 9.81125 42.0999 9.81582 42.2111C9.80243 42.3433 9.75424 42.4684 9.67716 42.5709C9.60007 42.6735 9.49744 42.7492 9.3818 42.7887C9.14878 42.863 8.90331 42.8774 8.66441 42.8308C8.40911 42.7971 8.12956 42.7354 7.96872 42.5153C7.84706 42.3132 7.79376 42.0706 7.81809 41.8298C7.82377 41.5772 7.85069 41.3256 7.89851 41.0784Z" fill="#FFBF9D"/>
<path d="M15.6496 44.0743C15.7548 44.0096 15.8518 43.93 15.938 43.8374C16.1556 43.6252 16.3516 43.3879 16.5227 43.1295C16.6948 42.8718 16.8396 42.5933 16.9541 42.2996C16.9767 42.2457 16.9851 42.186 16.9784 42.1271C16.972 42.0813 16.9495 42.0401 16.9158 42.0122C16.8571 41.9673 16.8137 41.9939 16.8175 41.9967C16.848 41.9982 16.877 42.0117 16.8992 42.0346C16.9242 42.0602 16.9392 42.0953 16.9414 42.1327C16.9432 42.1839 16.9326 42.2347 16.9107 42.2799C16.7851 42.5622 16.6374 42.8319 16.4691 43.086C16.3001 43.3409 16.1117 43.5796 15.9061 43.7996C15.8159 43.8857 15.7302 43.9775 15.6496 44.0743Z" fill="#FF9A6C"/>
<path d="M11.8404 45.0947C11.8915 45.1027 11.9433 45.105 11.9949 45.1017C12.0554 45.1021 12.1159 45.0988 12.1761 45.0919C12.2463 45.0849 12.328 45.0807 12.4161 45.0639C12.623 45.0302 12.8271 44.9782 13.0263 44.9083C13.2705 44.8208 13.5072 44.7096 13.7335 44.576C13.959 44.4388 14.1726 44.2792 14.3717 44.0994C14.5323 43.9517 14.6818 43.79 14.8185 43.6157C14.8719 43.5499 14.9222 43.4812 14.9691 43.4096C15.007 43.3573 15.0419 43.3026 15.0738 43.2456C15.1048 43.2003 15.1305 43.1508 15.1504 43.0984C15.1402 43.0984 15.0227 43.2947 14.784 43.5821C14.644 43.7487 14.4934 43.9042 14.3334 44.0475C14.1361 44.221 13.9261 44.3762 13.7054 44.5115C13.4826 44.6425 13.2509 44.7541 13.0122 44.8452C12.8161 44.9162 12.6156 44.9719 12.4123 45.012C12.06 45.0793 11.8391 45.0793 11.8404 45.0947Z" fill="#FF9A6C"/>
<path d="M8.89679 42.8756C8.92302 42.89 8.95174 42.8981 8.98104 42.8994C9.06012 42.9109 9.1404 42.9076 9.21847 42.8896C9.33579 42.8673 9.44653 42.8144 9.54142 42.7354C9.65906 42.6342 9.74225 42.4925 9.77758 42.333C9.81517 42.1731 9.79838 42.0037 9.73035 41.8564C9.67159 41.7379 9.58294 41.6405 9.47505 41.576C9.40465 41.5325 9.32689 41.5053 9.24655 41.4961C9.19039 41.4961 9.15975 41.4961 9.15975 41.4961C9.26188 41.518 9.36015 41.5578 9.45079 41.6139C9.54431 41.6789 9.62015 41.7705 9.67035 41.8788C9.72912 42.0123 9.74269 42.1644 9.70864 42.3078C9.67559 42.4516 9.60185 42.5802 9.49802 42.6751C9.4116 42.7524 9.31102 42.8083 9.20315 42.8391C9.10224 42.8614 8.9997 42.8736 8.89679 42.8756Z" fill="#FF9A6C"/>
<g opacity="0.6">
<path d="M17.0498 41.4442C17.1422 41.1238 17.2824 40.8225 17.4647 40.5526L18.5395 38.7582C18.6042 38.6283 18.6972 38.518 18.8101 38.4371C18.9148 38.3741 19.2199 38.2185 19.2837 38.4988C19.2968 38.5652 19.2923 38.6342 19.2709 38.6979C18.918 39.8114 18.3137 40.8084 17.5145 41.5956C17.3945 41.7134 17.2081 41.8311 17.0907 41.6769C17.0678 41.6443 17.0522 41.6063 17.0451 41.5659C17.038 41.5255 17.0396 41.4838 17.0498 41.4442Z" fill="white"/>
</g>
<path d="M31.5815 19.2311C31.8189 18.8232 32.0627 18.4068 32.4086 18.1096C32.4659 18.0498 32.5334 18.003 32.6073 17.9719C32.6811 17.9409 32.7598 17.9262 32.8388 17.9288C32.9064 17.9413 32.9703 17.9712 33.0253 18.016C33.0803 18.0608 33.1249 18.1193 33.1554 18.1867C33.2153 18.3227 33.2426 18.4733 33.2345 18.6241C33.223 19.1484 32.9652 19.6293 32.6716 20.0442C32.378 20.4592 32.0333 20.8391 31.81 21.3059H30.3777L31.5815 19.2311Z" fill="#FF9A6C"/>
<path d="M22.4277 19.994C22.8655 19.6141 23.4285 19.4501 23.9837 19.387C23.9824 19.6919 23.926 19.9935 23.8176 20.2742C23.7093 20.555 23.5513 20.8093 23.3527 21.0224C23.1541 21.2356 22.919 21.4032 22.6609 21.5157C22.4029 21.6282 22.127 21.6832 21.8494 21.6777L21.8252 21.609C21.7065 21.0062 21.9911 20.3753 22.4277 19.994Z" fill="#455A64"/>
<path d="M23.3774 19.9714C23.2824 20.0264 23.194 20.0942 23.1144 20.1733C22.9587 20.3135 22.7519 20.5042 22.5349 20.7341C22.3179 20.964 22.1341 21.1897 22.0077 21.3565C21.9347 21.442 21.8705 21.536 21.8162 21.6369C21.8989 21.5622 21.975 21.4791 22.0434 21.3888C22.1775 21.2317 22.3664 21.0159 22.5808 20.7859C22.7953 20.556 22.9983 20.3542 23.1451 20.2098C23.2281 20.1372 23.3058 20.0575 23.3774 19.9714Z" fill="#263238"/>
<path d="M20.4874 19.8129C20.5257 19.2045 20.795 18.6395 21.1256 18.1475C21.3287 18.3537 21.4924 18.6021 21.6075 18.8782C21.7225 19.1544 21.7865 19.4529 21.7957 19.7564C21.805 20.06 21.7593 20.3625 21.6614 20.6465C21.5635 20.9305 21.4152 21.1904 21.2252 21.4111L21.1614 21.3844C20.6814 21.0788 20.4478 20.4227 20.4874 19.8129Z" fill="#455A64"/>
<path d="M21.0555 18.8023C21.0497 18.9203 21.0553 19.0387 21.0721 19.1555C21.0912 19.3981 21.1142 19.6854 21.1398 19.9967C21.1653 20.3079 21.1832 20.6009 21.201 20.8448C21.2031 20.9631 21.2151 21.0808 21.2368 21.1967C21.2522 21.0793 21.2557 20.9603 21.247 20.842C21.247 20.6247 21.2317 20.3219 21.2061 19.9897C21.1806 19.6574 21.1474 19.3574 21.1181 19.1415C21.1083 19.0263 21.0873 18.9126 21.0555 18.8023Z" fill="#263238"/>
<path d="M21.5724 21.7954C21.1374 21.7954 20.7848 21.4081 20.7848 20.9304C20.7848 20.4527 21.1374 20.0654 21.5724 20.0654C22.0074 20.0654 22.36 20.4527 22.36 20.9304C22.36 21.4081 22.0074 21.7954 21.5724 21.7954Z" fill="#FF6240"/>
<g opacity="0.3">
<path d="M21.5724 21.7954C21.1374 21.7954 20.7848 21.4081 20.7848 20.9304C20.7848 20.4527 21.1374 20.0654 21.5724 20.0654C22.0074 20.0654 22.36 20.4527 22.36 20.9304C22.36 21.4081 22.0074 21.7954 21.5724 21.7954Z" fill="black"/>
</g>
<path d="M24.6986 22.0715C25.4403 22.0715 26.1998 21.407 26.7129 20.8393L26.7308 20.8196C26.7505 20.7983 26.7724 20.7795 26.7959 20.7636C26.8605 20.721 26.9338 20.6974 27.0091 20.6949C30.3535 20.5224 34.7957 19.2229 34.8404 19.2103C34.8834 19.1976 34.9201 19.1667 34.9423 19.1244C34.9646 19.0821 34.9706 19.0318 34.9591 18.9846C34.9476 18.9373 34.9195 18.8971 34.8809 18.8726C34.8424 18.8482 34.7966 18.8415 34.7536 18.8542C34.7089 18.8682 30.3012 20.1565 26.9938 20.3262C26.8583 20.3311 26.7264 20.3746 26.6108 20.4523C26.5666 20.4828 26.5259 20.5191 26.4896 20.5603L26.4704 20.5813C25.79 21.3341 25.1377 21.7323 24.6386 21.7028C23.7859 21.6524 21.6376 20.9528 21.6159 20.9458C21.5948 20.9387 21.5727 20.9363 21.5508 20.9387C21.5289 20.941 21.5077 20.9482 21.4883 20.9597C21.469 20.9711 21.4519 20.9867 21.4381 21.0055C21.4242 21.0243 21.414 21.046 21.4078 21.0692C21.3951 21.116 21.3998 21.1665 21.4208 21.2096C21.4418 21.2526 21.4776 21.2848 21.5201 21.2991C21.6095 21.3285 23.7285 22.0168 24.6208 22.0701L24.6986 22.0715Z" fill="#E0E0E0"/>
<path d="M24.6986 22.0714H24.6246C24.576 22.0644 24.5033 22.0602 24.4088 22.0462C24.2186 22.0196 23.9416 21.9635 23.588 21.878C23.2344 21.7924 22.803 21.6733 22.3115 21.5247C22.0639 21.4504 21.7946 21.3677 21.5201 21.2751C21.4896 21.261 21.4643 21.2359 21.4486 21.2039C21.4328 21.1719 21.4274 21.1349 21.4334 21.0991C21.4393 21.0633 21.4562 21.0308 21.4813 21.007C21.5063 20.9832 21.5381 20.9695 21.5712 20.9681C21.6075 20.9705 21.6432 20.979 21.6771 20.9934L21.7907 21.0298L22.0218 21.1027C22.6473 21.2934 23.334 21.5008 24.0859 21.6565C24.2778 21.6964 24.4718 21.7241 24.6667 21.7392C24.8717 21.739 25.0745 21.6912 25.2615 21.599C25.6451 21.4048 25.9964 21.1413 26.3006 20.8195C26.464 20.6639 26.5942 20.4606 26.8035 20.399C26.9076 20.3683 27.0149 20.3528 27.1227 20.3527L27.4584 20.3289C27.9064 20.2952 28.3634 20.2419 28.8268 20.1803C29.7548 20.0513 30.7083 19.8747 31.681 19.6616C32.6537 19.4485 33.5958 19.2158 34.5021 18.9606L34.6719 18.913L34.7561 18.8891C34.7796 18.8829 34.8041 18.8829 34.8276 18.8891C34.8506 18.894 34.872 18.9054 34.8898 18.922C34.9075 18.9387 34.9211 18.9602 34.929 18.9844C34.937 19.0085 34.9391 19.0345 34.9352 19.0598C34.9313 19.0852 34.9215 19.1089 34.9067 19.1288C34.8787 19.1723 34.8314 19.1807 34.7727 19.1975L34.608 19.2438L34.28 19.3349C33.8434 19.4527 33.4158 19.563 32.9971 19.6658C31.5161 20.037 30.019 20.3261 28.5115 20.5321C28.1898 20.577 27.8822 20.6036 27.5911 20.6331L27.1673 20.6639C27.0971 20.6709 27.0333 20.6723 26.9631 20.6807C26.8948 20.6904 26.8298 20.7189 26.7742 20.7635C26.7241 20.8066 26.6768 20.8535 26.6325 20.9036L26.5048 21.0438C26.4168 21.1322 26.3312 21.2163 26.2495 21.2934C26.0952 21.4343 25.9323 21.5636 25.7619 21.6803C25.527 21.8453 25.2679 21.9644 24.996 22.0322C24.901 22.0514 24.8051 22.0645 24.7088 22.0714H24.7828C24.8552 22.0695 24.9273 22.0615 24.9986 22.0476C25.2733 21.9841 25.5356 21.8679 25.7734 21.7041C25.946 21.5888 26.111 21.4604 26.2674 21.32C26.3542 21.2443 26.441 21.1602 26.5291 21.0719L26.6567 20.9317C26.6992 20.8809 26.7453 20.8341 26.7946 20.7915C26.8453 20.7509 26.9046 20.7253 26.9669 20.7172C27.0295 20.7102 27.0946 20.7074 27.1686 20.7032L27.5937 20.6737C27.8847 20.6471 28.1936 20.6205 28.5153 20.5784C30.0259 20.3793 31.5261 20.0944 33.0099 19.7246C33.4286 19.6237 33.8566 19.5144 34.294 19.3966L34.6221 19.3069L34.788 19.2592C34.8174 19.2508 34.8404 19.2466 34.8736 19.234C34.9057 19.2204 34.9339 19.1977 34.9553 19.1681C34.977 19.1386 34.9915 19.1034 34.9972 19.0659C35.003 19.0284 34.9998 18.99 34.9879 18.9543C34.9761 18.9185 34.9561 18.8868 34.9298 18.8621C34.9035 18.8374 34.8718 18.8207 34.8378 18.8134C34.8046 18.8072 34.7705 18.8096 34.7383 18.8204L34.654 18.8443L34.4855 18.8919C33.5805 19.1429 32.6371 19.3756 31.6657 19.5929C30.6943 19.8102 29.7433 19.9826 28.8178 20.1116C28.3545 20.1747 27.8988 20.2279 27.452 20.263L27.1188 20.2868C27.0055 20.2873 26.8926 20.3038 26.7831 20.3359C26.7282 20.3541 26.6755 20.3795 26.6261 20.4116C26.5776 20.4438 26.5367 20.4873 26.4908 20.5251C26.4104 20.6064 26.3376 20.692 26.2572 20.7705C25.9584 21.0879 25.6132 21.3481 25.236 21.5401C25.0568 21.63 24.8624 21.6778 24.6654 21.6803C24.4731 21.6659 24.2817 21.6393 24.0923 21.6004C23.3429 21.4476 22.6562 21.2443 22.0307 21.0564L21.7997 20.985L21.6861 20.9485C21.6476 20.9326 21.6071 20.9236 21.5661 20.9219C21.5234 20.9245 21.4829 20.9428 21.4508 20.9738C21.4188 21.0048 21.3973 21.0468 21.3896 21.0929C21.3819 21.1391 21.3886 21.1867 21.4086 21.2281C21.4286 21.2696 21.4606 21.3024 21.4997 21.3214C21.7843 21.4153 22.0473 21.4924 22.2975 21.5667C22.7966 21.7069 23.2281 21.8275 23.5842 21.9088C23.9403 21.9901 24.2225 22.042 24.4075 22.063C24.5033 22.0742 24.576 22.077 24.6246 22.0812C24.6494 22.0795 24.6741 22.0762 24.6986 22.0714Z" fill="#263238"/>
<path d="M34.3835 22.4725C34.3835 22.4725 34.2201 19.5285 33.9009 19.2341C33.5818 18.9397 32.29 18.5892 32.1202 18.6733C31.9504 18.7575 30.9714 19.1752 30.9369 19.3533C30.9209 19.4116 30.9172 19.4732 30.9262 19.5333C30.9352 19.5934 30.9566 19.6505 30.9888 19.7001C31.0209 19.7498 31.063 19.7907 31.1117 19.8197C31.1605 19.8488 31.2146 19.8652 31.2701 19.8678L32.036 19.715L32.8019 20.1692L32.8925 20.9809C32.8925 20.9809 32.1126 20.2967 31.8509 20.0949C31.5892 19.893 30.9407 19.9014 30.9152 20.4285C30.9152 20.4285 29.9068 20.5617 29.8761 21.201C29.8761 21.201 28.9826 21.9117 28.9328 22.2762C28.883 22.6407 29.3247 23.3697 29.3247 23.3697C29.3247 23.3697 27.9627 24.8164 27.9997 25.3085C28.0367 25.8006 27.9001 27.3497 27.9001 27.3497L30.9982 27.7702L31.0658 26.3683C31.0658 26.3683 34.1818 23.1636 34.3835 22.4725Z" fill="#FFBF9D"/>
<path d="M29.3705 22.3547C29.3956 22.5109 29.4567 22.6574 29.5482 22.7801C29.6396 22.9028 29.7582 22.9977 29.8926 23.0556C29.9028 23.0374 29.742 22.9281 29.599 22.7332C29.4561 22.5383 29.3884 22.3477 29.3705 22.3547Z" fill="#FF9A6C"/>
<path d="M29.1537 22.6476C29.1383 22.6603 29.2136 22.75 29.3375 22.7444C29.4613 22.7388 29.5302 22.642 29.5149 22.6308C29.4996 22.6196 29.4319 22.6687 29.3349 22.6715C29.2379 22.6743 29.1651 22.6322 29.1537 22.6476Z" fill="#FF9A6C"/>
<path d="M29.9042 21.2388C29.9042 21.2514 30.0101 21.2935 30.171 21.3986C30.3792 21.5348 30.5623 21.7127 30.7109 21.9229C30.8236 22.0825 30.914 22.2597 30.979 22.4486V22.4626H30.9892C31.1366 22.5348 31.2895 22.5925 31.4462 22.6351C31.3079 22.5454 31.1627 22.4694 31.0122 22.408L31.0275 22.4262C30.9681 22.2268 30.8774 22.0403 30.7594 21.8752C30.6062 21.6572 30.412 21.4779 30.1901 21.3495C30.1017 21.294 30.0048 21.2565 29.9042 21.2388Z" fill="#FF9A6C"/>
<path d="M32.4571 22.0954C32.4571 22.0954 32.4444 22.0617 32.3997 22.0211C32.3341 21.9674 32.2601 21.9275 32.1814 21.9033C32.0707 21.8712 31.966 21.8175 31.8725 21.7449C31.7676 21.6394 31.6699 21.5255 31.5802 21.4042C31.3772 21.1505 31.1972 20.9248 31.0542 20.7636C30.9845 20.6708 30.9062 20.5863 30.8206 20.5112C30.8776 20.612 30.9439 20.7059 31.0185 20.7916C31.1462 20.9612 31.3274 21.194 31.5291 21.4463C31.6212 21.5711 31.7228 21.6869 31.8329 21.7926C31.9338 21.8673 32.047 21.9197 32.1661 21.9468C32.242 21.9656 32.3151 21.9962 32.3831 22.0379C32.4303 22.0743 32.4533 22.0996 32.4571 22.0954Z" fill="#FF9A6C"/>
<path d="M32.9065 20.971C32.9626 21.1793 33.0663 21.3684 33.2077 21.5203C33.3491 21.6722 33.5236 21.7818 33.7145 21.8387C33.5513 21.7301 33.397 21.6057 33.2537 21.4672C33.1251 21.3131 33.009 21.1471 32.9065 20.971Z" fill="#FF9A6C"/>
<path d="M29.2915 23.3892C29.2915 23.4004 29.3375 23.3892 29.4064 23.3892C29.4961 23.3879 29.5844 23.4136 29.6617 23.4635L29.7089 23.4944V23.4341V23.4159C29.7101 23.3127 29.7265 23.2104 29.7575 23.113C29.783 23.0401 29.8136 23.0023 29.8072 22.9939C29.8009 22.9855 29.7562 23.0135 29.7153 23.0892C29.6679 23.1887 29.6429 23.2993 29.6426 23.4116V23.4299L29.6936 23.4004C29.6064 23.3439 29.504 23.3221 29.4039 23.3387C29.3273 23.3458 29.2877 23.3766 29.2915 23.3892Z" fill="#FF9A6C"/>
<path d="M31.4334 27.3145C31.4334 27.3145 33.3482 39.1479 33.1937 40.3955C33.0393 41.6432 32.7125 46.6227 29.3413 46.076C25.97 45.5293 26.5547 40.3521 26.6721 39.3595C26.7895 38.367 27.5823 31.7389 27.5823 31.7389L27.8376 27.1028L31.4334 27.3145Z" fill="#FF6240"/>
<path d="M26.995 37.3632C27.0042 37.3294 27.0102 37.2947 27.0129 37.2595C27.0205 37.1838 27.0333 37.0857 27.0473 36.9623C27.0767 36.703 27.115 36.3287 27.1584 35.8646C27.2452 34.9366 27.346 33.6538 27.4482 32.2351C27.5503 30.8164 27.6447 29.5337 27.72 28.6056C27.7571 28.1472 27.7877 27.7743 27.8094 27.5065C27.8179 27.3822 27.8256 27.2827 27.8324 27.2079C27.8341 27.1729 27.8341 27.1378 27.8324 27.1028C27.8231 27.1361 27.8171 27.1704 27.8145 27.2051C27.806 27.2808 27.7945 27.3804 27.78 27.5037C27.7507 27.7617 27.7124 28.1374 27.669 28.6014C27.5822 29.5281 27.4813 30.8122 27.3779 32.2295C27.2745 33.6468 27.1826 34.931 27.1112 35.866C27.0741 36.3244 27.0435 36.6988 27.0218 36.9651C27.0129 37.0899 27.0052 37.1894 26.9988 37.2651C26.9961 37.2977 26.9948 37.3305 26.995 37.3632Z" fill="#263238"/>
</svg>
