<svg width="20" height="20" viewBox="0 0 20 20" fill="none" xmlns="http://www.w3.org/2000/svg">
<path d="M6.83057 5.19168C7.0143 5.19661 7.218 5.20654 7.4118 5.63673C7.54031 5.92312 7.7568 6.45033 7.93316 6.87981C8.07038 7.214 8.18331 7.48901 8.21157 7.54529C8.27614 7.67383 8.31589 7.82215 8.23144 7.99518C8.22148 8.01559 8.21208 8.03511 8.20302 8.0539C8.13528 8.19449 8.08707 8.29454 7.97316 8.42537C7.92631 8.47913 7.87752 8.5381 7.8289 8.59684C7.7434 8.70016 7.65845 8.80282 7.58564 8.87534C7.4565 9.0038 7.32232 9.14236 7.47134 9.39943C7.62044 9.65651 8.14205 10.502 8.91205 11.1844C9.73986 11.9214 10.4597 12.2319 10.8236 12.3889C10.8942 12.4194 10.9514 12.4441 10.9934 12.465C11.2518 12.5936 11.4058 12.5738 11.5548 12.4007C11.7039 12.2276 12.2006 11.6491 12.3745 11.392C12.5434 11.135 12.7173 11.1745 12.9558 11.2635C13.1942 11.3525 14.4659 11.9755 14.7242 12.104C14.7752 12.1294 14.823 12.1523 14.8673 12.1736C15.047 12.2598 15.1692 12.3183 15.221 12.4057C15.2855 12.5144 15.2855 13.0287 15.072 13.6319C14.8534 14.2351 13.8002 14.8136 13.3233 14.8581C13.2782 14.8624 13.2332 14.8678 13.187 14.8734C12.7499 14.9263 12.1951 14.9934 10.2185 14.2153C7.78287 13.2575 6.17509 10.8812 5.85003 10.4007C5.82437 10.3628 5.8067 10.3367 5.79725 10.324L5.79175 10.3166C5.64386 10.1187 4.73911 8.90813 4.73911 7.65906C4.73911 6.464 5.3278 5.84183 5.59632 5.55804C5.61334 5.54006 5.62907 5.52343 5.64328 5.50811C5.88169 5.25103 6.15994 5.18676 6.33378 5.18676C6.50771 5.18676 6.68155 5.18676 6.83057 5.19168Z" fill="#0B2335" fill-opacity="0.63"/>
<path fill-rule="evenodd" clip-rule="evenodd" d="M0.100497 19.4131C0.0183341 19.7113 0.289965 19.9866 0.589272 19.9084L5.21607 18.6999C6.67657 19.491 8.32089 19.9113 9.99506 19.9113H10C15.5092 19.9113 20 15.4464 20 9.95814C20 7.29804 18.9617 4.79611 17.074 2.91718C15.1863 1.03833 12.6776 0 9.99992 0C4.49085 0 6.36989e-07 4.46483 6.36989e-07 9.95321C-0.000625411 11.6992 0.460231 13.4146 1.3363 14.9273L0.100497 19.4131ZM2.78854 15.3274C2.89581 14.938 2.84222 14.5218 2.6398 14.1723C1.89652 12.889 1.5058 11.4336 1.50634 9.95321C1.50634 5.30389 5.31562 1.50633 9.99992 1.50633C12.2794 1.50633 14.406 2.38702 16.0113 3.98481C17.6148 5.58084 18.4937 7.69848 18.4937 9.95814C18.4937 14.6074 14.6844 18.4049 10 18.4049H9.99506C8.57256 18.4049 7.17469 18.0477 5.93351 17.3754C5.59757 17.1934 5.20504 17.1459 4.83539 17.2425L2.06132 17.967L2.78854 15.3274Z" fill="#0B2335" fill-opacity="0.63"/>
</svg>
