<svg width="18" height="16" viewBox="0 0 18 16" fill="none" xmlns="http://www.w3.org/2000/svg">
<path fill-rule="evenodd" clip-rule="evenodd" d="M12.8458 2.74068L15.586 0L16.996 1.41L2.41 15.996L1 14.586L3.36172 12.2258C2.03301 11.2335 0.912437 9.82487 0 8C2 4 5 2 9 2C10.4054 2 11.6873 2.24689 12.8458 2.74068ZM18 8C16 12 13 14 9 14C8.43076 14 7.88177 13.9595 7.35304 13.8785L9.235 11.996L9.30003 11.9954C11.9767 11.9128 14.0197 10.7119 15.5738 8.24319L15.722 8L15.5738 7.75681C15.2941 7.31239 14.9984 6.90906 14.6861 6.54594L16.1022 5.13005C16.812 5.93243 17.4445 6.88908 18 8ZM5.02716 5.05595L5.12699 4.99622C5.0441 5.31698 5 5.65334 5 6C5 7.25426 5.57729 8.37369 6.48066 9.10708L4.79475 10.7925C3.90066 10.1834 3.11535 9.33794 2.42617 8.24319L2.277 8L2.42617 7.75681C3.17444 6.56819 4.03605 5.67346 5.02716 5.05595Z" fill="#0B2335" fill-opacity="0.88"/>
</svg>
