<svg xmlns="http://www.w3.org/2000/svg" width="75" height="76" fill="none" viewBox="0 0 75 76"><path fill="#E0E0E0" d="M21.3166 3.96387H0.0880127V43.5882H21.3166V3.96387Z"/><path fill="#E0E0E0" d="M21.4048 43.6814H0V3.87085H21.4048V43.6814ZM0.176127 43.4952H21.2286V4.05712H0.176127V43.4952Z"/><path fill="#FAFAFA" d="M21.5245 13.5739V13.3243H17.0015V3.74416H16.6968V13.3243H11.3831V3.46289H10.203V13.3243H4.74308V3.74416H4.43133V13.3243H0.0668945V13.5739H4.43133V23.1502H0.0668945V24.4039H4.43133V34.3733H0.0668945V34.6229H4.43133V43.5827H4.73779V34.6229H10.1977V43.3033H11.3831V34.6229H16.6933V43.5827H16.998V34.6229H21.521V34.3733H17.0015V24.4039H21.5245V23.1502H17.0015V13.5739H21.5245ZM4.73779 13.5739H10.1977V23.1502H4.73779V13.5739ZM4.73779 34.3733V24.4039H10.1977V34.3733H4.73779ZM16.6968 34.3733H11.3831V24.4039H16.6933L16.6968 34.3733ZM16.6968 23.1502H11.3831V13.5739H16.6933L16.6968 23.1502Z"/><path fill="#EBEBEB" d="M52.9192 50.6927H51.6616V55.9811H52.9192V50.6927Z"/><path fill="#EBEBEB" d="M68.7903 50.6927H67.5327V55.9811H68.7903V50.6927Z"/><path fill="#E0E0E0" d="M61.2816 50.6927H60.024V55.9811H61.2816V50.6927Z"/><path fill="#E0E0E0" d="M74.7784 50.6927H73.5209V55.9811H74.7784V50.6927Z"/><path fill="#EBEBEB" d="M68.8147 38.4991H51.6616V50.6927H68.8147V38.4991Z"/><path fill="#E0E0E0" d="M75.0001 38.4991H68.8145V50.6927H75.0001V38.4991Z"/><path fill="#E0E0E0" d="M67.1944 44.596C67.193 44.5731 67.193 44.5501 67.1944 44.5271C67.1944 44.4787 67.1944 44.4135 67.1944 44.3297C67.1944 44.1527 67.1944 43.8975 67.1944 43.5678C67.1944 42.9028 67.1855 41.9379 67.1803 40.7178L67.2084 40.7476L53.4018 40.7662L53.4476 40.7178V41.2114C53.4476 41.3772 53.4476 41.5411 53.4476 41.7069V44.5923L53.4018 44.5439L63.2509 44.5662L66.1517 44.5793H66.9337H67.138H67.2102H67.1433H66.946H66.1728L63.2826 44.5942L53.4018 44.6147H53.3578V42.6886C53.3578 42.3645 53.3578 42.0385 53.3578 41.7106V40.7215L53.4053 40.6731L67.212 40.6917H67.2155V40.7215C67.2155 41.9491 67.2049 42.9196 67.2014 43.5883C67.2014 43.9161 67.2014 44.1676 67.2014 44.3446C67.2014 44.4265 67.2014 44.4899 67.2014 44.5308C67.2014 44.5718 67.1944 44.596 67.1944 44.596Z"/><path fill="#E0E0E0" d="M60.8945 42.6569C60.8945 42.7832 60.8591 42.9068 60.7927 43.0118C60.7263 43.1169 60.632 43.1988 60.5216 43.2472C60.4112 43.2955 60.2897 43.3082 60.1725 43.2835C60.0553 43.2589 59.9477 43.198 59.8632 43.1087C59.7787 43.0193 59.7212 42.9055 59.6979 42.7815C59.6746 42.6576 59.6865 42.5291 59.7323 42.4124C59.778 42.2956 59.8554 42.1958 59.9548 42.1256C60.0541 42.0554 60.1709 42.0179 60.2904 42.0179C60.4506 42.0179 60.6043 42.0853 60.7176 42.2051C60.8309 42.3249 60.8945 42.4874 60.8945 42.6569Z"/><path fill="#F5F5F5" d="M54.2314 33.8479L54.9077 34.8761C54.9077 34.8761 53.386 35.3232 53.386 36.7519C53.386 38.1806 54.3159 38.4489 55.3234 38.4489C56.3308 38.4489 57.3083 38.1359 57.2608 36.7072C57.2132 35.2785 55.9504 34.742 55.9504 34.742L56.5845 33.8479H54.2314Z"/><path fill="#E0E0E0" d="M73.3256 35.7441V38.3613H62.6822C62.3552 38.3613 62.0417 38.2239 61.8104 37.9794C61.5792 37.7349 61.4493 37.4032 61.4493 37.0574C61.4493 36.7116 61.5792 36.3799 61.8104 36.1354C62.0417 35.8908 62.3552 35.7535 62.6822 35.7535"/><path fill="#FAFAFA" d="M69.4102 36.2919H73.3272V37.8119H69.4102C69.3284 37.8119 69.25 37.7775 69.1922 37.7164C69.1344 37.6553 69.1019 37.5723 69.1019 37.4859V36.616C69.1024 36.5299 69.1351 36.4474 69.1928 36.3867C69.2506 36.326 69.3287 36.2919 69.4102 36.2919Z"/><path fill="#F5F5F5" d="M73.3256 33.2296V35.8468H62.6822C62.3552 35.8468 62.0417 35.7094 61.8104 35.4649C61.5792 35.2203 61.4493 34.8887 61.4493 34.5428C61.4493 34.197 61.5792 33.8654 61.8104 33.6208C62.0417 33.3763 62.3552 33.2389 62.6822 33.2389L73.3256 33.2296Z"/><path fill="#E0E0E0" d="M69.4097 33.7771H73.3268V35.2971H69.4097C69.3279 35.2971 69.2495 35.2628 69.1917 35.2016C69.1339 35.1405 69.1015 35.0576 69.1015 34.9711V34.1068C69.101 34.0637 69.1086 34.0209 69.1239 33.9809C69.1392 33.9409 69.1618 33.9046 69.1905 33.8739C69.2191 33.8432 69.2533 33.8189 69.2909 33.8023C69.3285 33.7857 69.3689 33.7771 69.4097 33.7771Z"/><path fill="#EBEBEB" d="M43.7362 7.43043C43.7784 7.38758 44.069 7.60739 44.4495 8.0619C44.6716 8.32898 44.8741 8.61356 45.0554 8.91317C45.2772 9.28121 45.4721 9.66669 45.6383 10.0662C45.8 10.4681 45.933 10.8821 46.0364 11.3049C46.1197 11.65 46.1785 12.0012 46.2125 12.3555C46.2654 12.9609 46.2125 13.3353 46.1597 13.3391C46.0223 13.3391 45.8972 11.8843 45.2209 10.2599C44.5446 8.63562 43.634 7.52915 43.7362 7.43043Z"/><path fill="#EBEBEB" d="M46.6088 14.548C46.5489 14.548 46.3851 13.7564 46.2319 12.4431C46.0786 11.1299 45.9501 9.30627 45.9008 7.29078C45.8514 5.27529 45.8708 3.45353 45.9008 2.13471C45.9307 0.815882 45.9976 0 46.061 0C46.1244 0 46.1808 0.815881 46.2248 2.13284C46.2689 3.4498 46.3006 5.27157 46.3516 7.27774C46.4027 9.28392 46.4767 11.0982 46.5489 12.4115C46.6211 13.7247 46.6757 14.548 46.6088 14.548Z"/><path fill="#EBEBEB" d="M49.3881 3.10148C49.448 3.13687 49.212 3.69756 48.8932 4.63266C48.5744 5.56775 48.1781 6.86795 47.7906 8.33207C47.4032 9.79618 47.1108 11.1262 46.9311 12.106C46.7515 13.0858 46.6775 13.6893 46.6088 13.6875C46.5401 13.6856 46.5032 13.056 46.6088 12.0538C46.7611 10.7523 47.0078 9.46504 47.3468 8.20354C47.6717 6.93788 48.088 5.70049 48.592 4.50226C48.9918 3.58393 49.3388 3.06981 49.3881 3.10148Z"/><path fill="#E0E0E0" d="M43.0313 12.8716V14.4754C43.0308 14.9251 43.1141 15.3704 43.2765 15.786C43.4389 16.2016 43.6772 16.5793 43.9777 16.8974C44.2781 17.2156 44.635 17.468 45.0277 17.6402C45.4205 17.8124 45.8415 17.901 46.2667 17.901C46.6917 17.9012 47.1127 17.8129 47.5054 17.6411C47.8982 17.4692 48.255 17.2172 48.5557 16.8994C48.8563 16.5816 49.0948 16.2043 49.2575 15.7891C49.4202 15.3738 49.5039 14.9287 49.5039 14.4791V12.8716H43.0313Z"/><path fill="#FAFAFA" d="M49.5621 14.2351C49.5621 14.263 48.1002 14.2835 46.2967 14.2835C44.4931 14.2835 43.0312 14.263 43.0312 14.2351C43.0312 14.2071 44.4931 14.1866 46.2967 14.1866C48.1002 14.1866 49.5621 14.209 49.5621 14.2351Z"/><path fill="#FAFAFA" d="M49.5621 14.6803C49.5621 14.7082 48.1002 14.7287 46.2967 14.7287C44.4931 14.7287 43.0312 14.7082 43.0312 14.6803C43.0312 14.6523 44.4931 14.6318 46.2967 14.6318C48.1002 14.6318 49.5621 14.6542 49.5621 14.6803Z"/><path fill="#EBEBEB" d="M68.5736 17.9047H38.7076V19.732H68.5736V17.9047Z"/><path fill="#E0E0E0" d="M45.3544 19.7321H44.3699V22.895H45.3544V19.7321Z"/><path fill="#E0E0E0" d="M61.7381 19.7321H60.7535V22.895H61.7381V19.7321Z"/><path fill="#EBEBEB" d="M55.7742 11.2212L55.0979 17.86H63.7651L64.4855 11.2212H55.7742Z"/><path fill="#fff" d="M56.13 11.698L55.4713 17.5079H63.2949L63.9289 11.698H56.13Z"/><path fill="#E0E0E0" d="M57.4473 12.6742L57.0422 16.5301H61.9791L62.2327 12.6742H57.4473Z"/><path fill="#E0E0E0" d="M64.1753 14.0804L65.9647 17.8878L63.7649 17.8599L64.2017 13.8326"/><path fill="#263238" d="M34.9895 75.9999C51.7535 75.9999 65.3433 72.1136 65.3433 67.3195C65.3433 62.5255 51.7535 58.6392 34.9895 58.6392C18.2256 58.6392 4.63574 62.5255 4.63574 67.3195C4.63574 72.1136 18.2256 75.9999 34.9895 75.9999Z"/><path fill="#fff" d="M52.137 29.0456C52.137 29.0456 50.9218 28.239 49.5286 31.3014C48.1354 34.3637 47.6211 36.1259 47.6211 36.1259C47.6211 36.1259 47.2495 36.7685 46.8286 36.3643C46.4076 35.9601 45.8176 34.7978 45.1219 35.0269C44.3998 35.2634 44.1796 36.1278 44.3469 37.3832C44.5142 38.6387 44.7802 41.4068 44.8049 41.6564C44.8295 41.906 44.7027 42.2692 44.3733 42.042C44.044 41.8147 42.1365 39.6688 41.2277 40.6877C40.3189 41.7067 41.3246 45.1267 41.4285 45.5029C41.5324 45.8792 41.4655 46.0413 41.2982 46.14C41.1308 46.2387 40.5514 45.4527 39.986 44.8659C39.4206 44.2791 38.6651 43.7035 38.1877 44.3369C37.7104 44.9702 37.6083 47.5576 40.0248 51.6966L41.2576 53.537L43.3976 53.3507C47.9505 52.6745 49.7681 50.9403 49.9249 50.1468C50.0816 49.3532 49.1816 49.1074 48.3926 49.0291C47.6035 48.9509 46.663 48.9751 46.6313 48.7758C46.5996 48.5765 46.6718 48.4181 47.0117 48.2617C47.3517 48.1052 50.4814 46.7417 50.6435 45.3502C50.8055 43.9587 48.0227 43.778 47.6493 43.6551C47.2759 43.5322 47.4609 43.1969 47.6493 43.059C47.8378 42.9212 50.0306 41.3695 51.0503 40.7027C52.0701 40.0358 52.558 39.3056 52.2709 38.5661C51.9926 37.8545 50.7703 38.1153 50.2067 38.0315C49.6431 37.9477 49.8738 37.2324 49.8738 37.2324C49.8738 37.2324 50.8266 35.69 52.1635 32.6016C53.5003 29.5131 52.1036 29.0326 52.1036 29.0326"/><path fill="#263238" d="M50.8849 31.7876C50.8785 31.8106 50.8702 31.8331 50.8603 31.8547L50.7828 32.0409C50.7106 32.2142 50.6067 32.46 50.4728 32.7749C50.2033 33.4119 49.807 34.3302 49.3104 35.4628C48.3205 37.7298 46.9256 40.848 45.3739 44.2848C43.8222 47.7215 42.4291 50.8398 41.4146 53.1067C40.9144 54.2244 40.5075 55.1446 40.2257 55.7816L39.8999 56.5081L39.8136 56.6944C39.8041 56.7161 39.7935 56.7372 39.7819 56.7577C39.7864 56.7343 39.7941 56.7117 39.8048 56.6906L39.884 56.5044L40.1922 55.7704C40.4617 55.1334 40.8598 54.215 41.3547 53.0806C42.3445 50.8155 43.7394 47.6973 45.2911 44.2587C46.8428 40.82 48.236 37.7093 49.2522 35.4516C49.7524 34.334 50.1575 33.4119 50.4411 32.7767L50.7652 32.0484L50.8532 31.8621C50.8605 31.8358 50.8712 31.8108 50.8849 31.7876Z"/><path fill="#263238" d="M45.8865 36.6886C45.9665 36.8732 46.0319 37.0644 46.082 37.2605C46.1877 37.6181 46.3215 38.1173 46.4589 38.6706C46.5963 39.2238 46.7072 39.6988 46.8006 40.09C46.8566 40.2836 46.9007 40.4808 46.9327 40.6805C46.8501 40.4972 46.7852 40.3056 46.7389 40.1086C46.635 39.7491 46.5064 39.248 46.3708 38.6948L46.0186 37.2791C45.9602 37.0862 45.9161 36.8887 45.8865 36.6886Z"/><path fill="#263238" d="M47.1372 40.7159C47.1372 40.6917 48.0883 40.3434 49.2807 39.9578C50.4731 39.5722 51.4418 39.2648 51.4506 39.2891C51.4594 39.3133 50.4977 39.6616 49.3071 40.0491C48.1165 40.4365 47.1372 40.742 47.1372 40.7159Z"/><path fill="#263238" d="M44.5211 45.8812C44.7158 45.8572 44.9117 45.8473 45.1076 45.8514C45.4599 45.8421 45.9671 45.8272 46.5166 45.7899C47.0662 45.7527 47.5646 45.7061 47.9257 45.6707C48.1194 45.6415 48.3147 45.6259 48.5104 45.6241C48.3215 45.6804 48.1281 45.7184 47.9327 45.7378C47.5805 45.7918 47.0767 45.8514 46.5237 45.8868C45.9706 45.9222 45.4669 45.9278 45.1147 45.9203C44.9161 45.9266 44.7174 45.9135 44.5211 45.8812Z"/><path fill="#263238" d="M42.6389 42.5002C42.7539 42.6479 42.857 42.8056 42.9471 42.9715C43.1233 43.2696 43.3716 43.6849 43.6358 44.1469C43.9 44.6089 44.136 45.028 44.3016 45.3353C44.3993 45.4965 44.4841 45.6659 44.5552 45.842C44.4394 45.6949 44.3363 45.5372 44.247 45.3707C44.0708 45.0727 43.8225 44.6573 43.5565 44.1972C43.2906 43.7371 43.0581 43.3143 42.8908 43.0069C42.7926 42.8463 42.7083 42.6768 42.6389 42.5002Z"/><path fill="#263238" d="M39.7874 46.7512C39.8314 46.7978 39.8693 46.8504 39.9001 46.9077C39.9688 47.012 40.0639 47.1666 40.1801 47.3566C40.4144 47.7292 40.7296 48.2675 41.0748 48.8468C41.4201 49.4261 41.7265 49.9645 41.9449 50.3612C42.0541 50.5568 42.1422 50.7151 42.2003 50.825C42.2341 50.8805 42.2619 50.9399 42.2831 51.002C42.239 50.9554 42.2011 50.9028 42.1704 50.8455C42.1017 50.7412 42.0066 50.5866 41.8903 50.3966C41.6578 50.0241 41.3408 49.4876 40.9956 48.9064C40.6504 48.3252 40.3439 47.7888 40.1255 47.392C40.0163 47.2057 39.9283 47.0381 39.8701 46.9282C39.8359 46.8729 39.8081 46.8135 39.7874 46.7512Z"/><path fill="#263238" d="M42.2512 50.8902C42.3159 50.8744 42.3821 50.8663 42.4485 50.866L42.9927 50.8287C43.4506 50.7989 44.0829 50.7561 44.7804 50.6909C45.4779 50.6257 46.1066 50.5512 46.5628 50.5046L47.1035 50.4413C47.1691 50.4279 47.236 50.4235 47.3026 50.4283C47.2403 50.4537 47.1752 50.4706 47.1088 50.4785C46.982 50.5028 46.7988 50.5363 46.5804 50.5735C46.126 50.6462 45.4955 50.7319 44.7963 50.7971C44.097 50.8623 43.463 50.8939 43.0033 50.907C42.7743 50.907 42.5876 50.907 42.459 50.907C42.3894 50.9113 42.3195 50.9057 42.2512 50.8902Z"/><path fill="#000" d="M52.137 29.0456C52.137 29.0456 50.9218 28.239 49.5286 31.3014C48.1354 34.3637 47.6211 36.1259 47.6211 36.1259C47.6211 36.1259 47.2495 36.7685 46.8286 36.3643C46.4076 35.9601 45.8176 34.7978 45.1219 35.0269C44.3998 35.2634 44.1796 36.1278 44.3469 37.3832C44.5142 38.6387 44.7802 41.4068 44.8049 41.6564C44.8295 41.906 44.7027 42.2692 44.3733 42.042C44.044 41.8147 42.1365 39.6688 41.2277 40.6877C40.3189 41.7067 41.3246 45.1267 41.4285 45.5029C41.5324 45.8792 41.4655 46.0413 41.2982 46.14C41.1308 46.2387 40.5514 45.4527 39.986 44.8659C39.4206 44.2791 38.6651 43.7035 38.1877 44.3369C37.7104 44.9702 37.6083 47.5576 40.0248 51.6966L41.2576 53.537L43.3976 53.3507C47.9505 52.6745 49.7681 50.9403 49.9249 50.1468C50.0816 49.3532 49.1816 49.1074 48.3926 49.0291C47.6035 48.9509 46.663 48.9751 46.6313 48.7758C46.5996 48.5765 46.6718 48.4181 47.0117 48.2617C47.3517 48.1052 50.4814 46.7417 50.6435 45.3502C50.8055 43.9587 48.0227 43.778 47.6493 43.6551C47.2759 43.5322 47.4609 43.1969 47.6493 43.059C47.8378 42.9212 50.0306 41.3695 51.0503 40.7027C52.0701 40.0358 52.558 39.3056 52.2709 38.5661C51.9926 37.8545 50.7703 38.1153 50.2067 38.0315C49.6431 37.9477 49.8738 37.2324 49.8738 37.2324C49.8738 37.2324 50.8266 35.69 52.1635 32.6016C53.5003 29.5131 52.1036 29.0326 52.1036 29.0326" opacity=".2"/><path fill="#263238" d="M24.5488 22.0754C24.5812 22.0633 24.615 22.0558 24.6492 22.053C24.7499 22.0439 24.8512 22.0599 24.9451 22.0996C25.0984 22.1649 25.2357 22.2662 25.3467 22.3958C25.4978 22.5739 25.6241 22.774 25.7218 22.99C25.9652 23.5997 26.1498 24.2337 26.2731 24.8825C26.4492 25.6407 26.6254 26.5124 26.7557 27.5034C26.812 27.6468 26.916 27.8108 27.0674 27.8182C27.1456 27.813 27.2203 27.7817 27.2805 27.7288C27.3475 27.6785 27.4144 27.6226 27.4796 27.5649C27.6135 27.4448 27.7547 27.334 27.9023 27.2333C27.9777 27.1754 28.0632 27.1339 28.1539 27.1112C28.2446 27.0885 28.3387 27.085 28.4307 27.1011C28.5231 27.134 28.6083 27.1863 28.6812 27.2548C28.7541 27.3233 28.8132 27.4065 28.8551 27.4997C28.9352 27.6909 28.9673 27.9007 28.9485 28.1088C28.9273 28.5279 28.7723 28.9265 28.6579 29.3364C28.5434 29.7462 28.413 30.169 28.2845 30.5993C28.2211 30.8154 28.1577 31.0333 28.0925 31.2531C28.0608 31.363 28.0273 31.4729 27.9956 31.5847C27.9767 31.6369 27.9637 31.6913 27.9569 31.7467C27.953 31.7981 27.9602 31.8497 27.978 31.8976C28.015 31.9908 28.1277 31.9703 28.2193 31.9144L28.5152 31.7412C28.7172 31.6221 28.9254 31.5151 29.1387 31.4208C29.3568 31.3185 29.5896 31.2556 29.8273 31.2345C29.9516 31.2248 30.0763 31.2452 30.1919 31.2941C30.3106 31.3464 30.4101 31.4379 30.4755 31.5549C30.5917 31.792 30.6331 32.0623 30.5935 32.3261C30.5671 32.5879 30.5158 32.8463 30.4403 33.0972C30.2869 33.6055 30.0931 34.099 29.8608 34.5725C29.7993 34.6879 29.7463 34.8081 29.7023 34.932C29.6837 34.9855 29.6837 35.0443 29.7023 35.0978C29.715 35.123 29.7317 35.1456 29.7516 35.1649C29.7622 35.1649 29.771 35.1649 29.8009 35.1649C29.9157 35.1123 30.0244 35.046 30.125 34.9674L30.4438 34.7309C30.6579 34.5634 30.8868 34.418 31.1272 34.2968C31.2514 34.235 31.3839 34.1935 31.5199 34.1739C31.5919 34.1617 31.6655 34.1656 31.7359 34.1855C31.8063 34.2054 31.872 34.2408 31.9285 34.2894C32.0384 34.3914 32.1086 34.5327 32.1258 34.6862C32.1366 34.7595 32.1431 34.8336 32.1452 34.9078C32.1452 34.9805 32.1452 35.0531 32.1346 35.1258C32.1031 35.4158 32.0374 35.7005 31.9391 35.9733C31.7449 36.5251 31.4869 37.0494 31.1712 37.5343C30.8525 38.0296 30.4993 38.4991 30.1144 38.9388C29.9225 39.1616 29.7197 39.3737 29.5068 39.574L28.878 40.198L28.8586 40.2166H28.834L28.7177 40.1794L27.8864 39.913L27.4743 39.7808C27.3387 39.7323 27.2066 39.6709 27.071 39.6168C26.5431 39.3933 26.03 39.1326 25.5351 38.8364C25.0465 38.5458 24.5914 38.1964 24.1789 37.7951C23.9751 37.5948 23.7936 37.3705 23.6382 37.1264C23.5624 37.0014 23.5031 36.866 23.4621 36.724C23.4156 36.5754 23.4263 36.4134 23.492 36.2732C23.5312 36.207 23.5826 36.1498 23.6431 36.105C23.7037 36.0602 23.7721 36.0287 23.8443 36.0124C23.9784 35.9764 24.1164 35.9595 24.2547 35.9621C24.5219 35.9692 24.7881 35.9991 25.0508 36.0515L25.4383 36.1186C25.5034 36.1279 25.5668 36.1372 25.6302 36.141C25.6882 36.1546 25.7484 36.1546 25.8064 36.141C25.8187 36.141 25.8064 36.141 25.8169 36.1316C25.8224 36.1185 25.8265 36.1047 25.8293 36.0907C25.8355 36.0637 25.8355 36.0356 25.8293 36.0087C25.808 35.9525 25.7742 35.9027 25.7306 35.8634C25.6408 35.7796 25.5263 35.7051 25.4259 35.6231C25.0136 35.3076 24.6255 34.9582 24.2652 34.5781C24.0888 34.3914 23.9301 34.1867 23.7915 33.9671C23.6397 33.7518 23.557 33.4907 23.5555 33.222C23.5639 33.0831 23.6174 32.9516 23.7069 32.8495C23.7949 32.7545 23.9021 32.6819 24.0204 32.6371C24.2473 32.5539 24.4849 32.508 24.7249 32.5012C24.9598 32.4915 25.195 32.4952 25.4294 32.5123C25.5439 32.5123 25.6584 32.5291 25.7694 32.531C25.8179 32.5354 25.8666 32.5236 25.9085 32.4974C25.9248 32.4838 25.9368 32.4654 25.9431 32.4445C25.9494 32.4235 25.9496 32.4011 25.9437 32.3801C25.9131 32.2733 25.8515 32.1795 25.7676 32.1118L25.5334 31.8641L25.0754 31.3742L24.1948 30.4298C23.8962 30.1433 23.6265 29.825 23.3899 29.4798C23.2802 29.3052 23.2119 29.1052 23.1909 28.8967C23.1856 28.7943 23.2004 28.6917 23.2343 28.5955C23.2683 28.4994 23.3206 28.4117 23.3881 28.3379C23.4658 28.2798 23.5536 28.2387 23.6464 28.217C23.7393 28.1952 23.8353 28.1933 23.9288 28.2113C24.107 28.2342 24.2835 28.2697 24.4572 28.3174C24.54 28.3379 24.6245 28.3584 24.7056 28.3715C24.7817 28.3921 24.8619 28.3888 24.9363 28.3621C25.0754 28.2951 25.0966 28.092 25.0825 27.9393C24.7531 27.0079 24.5294 26.1511 24.341 25.4041C24.1611 24.7741 24.039 24.1272 23.9764 23.4724C23.9465 22.936 24.0645 22.5113 24.2459 22.3026C24.3106 22.2197 24.3943 22.1556 24.4889 22.1164C24.5196 22.1021 24.5524 22.0932 24.5858 22.0903C24.553 22.0977 24.5211 22.1089 24.4907 22.1238C24.4002 22.1653 24.3204 22.2292 24.2582 22.3101C24.0821 22.5168 23.9711 22.936 24.0063 23.4668C24.0733 24.1183 24.1995 24.7615 24.3832 25.3873C24.5752 26.1324 24.8042 26.9893 25.1336 27.9151C25.1438 28.0047 25.139 28.0955 25.1195 28.1833C25.1094 28.2303 25.0896 28.2743 25.0616 28.3123C25.0336 28.3503 24.998 28.3813 24.9574 28.4031C24.8725 28.4348 24.7808 28.44 24.6932 28.418C24.6087 28.4031 24.5171 28.3826 24.4396 28.364C24.271 28.3184 24.0998 28.2842 23.9271 28.2615C23.8423 28.2448 23.7551 28.2461 23.6708 28.2653C23.5864 28.2845 23.5065 28.3212 23.4357 28.3733C23.3741 28.441 23.3267 28.5215 23.2963 28.6097C23.266 28.6979 23.2535 28.7919 23.2596 28.8856C23.2807 29.0824 23.3465 29.271 23.4515 29.4351C23.6849 29.7739 23.9512 30.0861 24.2459 30.3665L25.1371 31.3109L25.5968 31.7989L25.831 32.0466C25.9249 32.1258 25.9932 32.2339 26.0265 32.3559C26.0358 32.3923 26.0343 32.4309 26.0224 32.4665C26.0104 32.5021 25.9885 32.533 25.9596 32.5552C25.9042 32.5913 25.8396 32.6083 25.7747 32.6036C25.6584 32.6036 25.5475 32.5906 25.433 32.585C25.2058 32.5719 24.975 32.5645 24.7443 32.5757C24.5132 32.583 24.2846 32.6276 24.0662 32.7079C23.9598 32.7469 23.8629 32.8106 23.7827 32.8942C23.7066 32.9817 23.6612 33.0941 23.6541 33.2127C23.6566 33.4622 23.7343 33.7043 23.876 33.9038C24.0127 34.1188 24.169 34.3191 24.3427 34.5017C24.6992 34.8785 25.0838 35.2242 25.4929 35.5356C25.595 35.6175 25.7007 35.6865 25.8046 35.7815C25.861 35.8305 25.9036 35.8949 25.9279 35.9677C25.9366 36.0082 25.9366 36.0502 25.9279 36.0907C25.9242 36.1102 25.9195 36.1295 25.9138 36.1484C25.9029 36.175 25.8836 36.1967 25.8592 36.2099C25.7898 36.2329 25.7164 36.2393 25.6443 36.2285C25.5756 36.2285 25.5105 36.2136 25.4453 36.2043L25.0561 36.1391C24.7981 36.0871 24.5366 36.0571 24.2741 36.0497C24.1441 36.0482 24.0146 36.0638 23.8883 36.0963C23.7673 36.1246 23.6616 36.2022 23.5942 36.3123C23.4762 36.5508 23.6048 36.8376 23.7404 37.0686C23.8911 37.307 24.0685 37.5253 24.2688 37.7187C24.6761 38.1155 25.1259 38.4606 25.6091 38.7469C26.0997 39.0411 26.6087 39.2993 27.1326 39.52C27.2665 39.574 27.3968 39.6355 27.5324 39.6839L27.9428 39.8143L28.7723 40.0807L28.8886 40.1179L28.8446 40.1291L29.4698 39.5069C29.6826 39.3077 29.8848 39.0963 30.0757 38.8736C30.454 38.4375 30.8013 37.9724 31.1148 37.4821C31.4272 37.0045 31.6822 36.4877 31.8739 35.9435C31.9699 35.678 32.0338 35.4007 32.0642 35.1183C32.0642 35.0494 32.0642 34.9786 32.0747 34.9097C32.0725 34.8411 32.0666 34.7727 32.0571 34.7048C32.0432 34.5732 31.9836 34.4517 31.8898 34.3639C31.8424 34.3235 31.7875 34.2941 31.7286 34.2777C31.6697 34.2614 31.6082 34.2583 31.5481 34.2689C31.4214 34.2876 31.2979 34.3258 31.1818 34.3825C30.9473 34.5027 30.7238 34.6455 30.5142 34.8091L30.1831 35.0382C30.0745 35.1232 29.9562 35.1933 29.8309 35.2468C29.8105 35.251 29.7896 35.251 29.7692 35.2468C29.7516 35.2468 29.7076 35.2282 29.6988 35.217C29.6708 35.1906 29.6475 35.1591 29.6301 35.1239C29.6001 35.0508 29.5969 34.9684 29.6213 34.8929C29.6667 34.7641 29.7221 34.6395 29.7868 34.5204C30.016 34.0512 30.2081 33.5627 30.361 33.06C30.4349 32.8176 30.4856 32.568 30.5125 32.3149C30.5498 32.0696 30.5134 31.8182 30.4086 31.5959C30.347 31.4968 30.2604 31.418 30.1586 31.3682C30.0568 31.3185 29.9439 31.2999 29.8326 31.3146C29.6032 31.3383 29.379 31.4012 29.1686 31.5009C28.959 31.5937 28.7544 31.6988 28.5557 31.8157L28.2563 31.9889C28.2028 32.0226 28.1423 32.0418 28.0802 32.0448C28.0436 32.0481 28.007 32.0393 27.9755 32.0196C27.9439 31.9999 27.9189 31.9703 27.904 31.9349C27.8621 31.8137 27.8666 31.6801 27.9164 31.5623C27.9498 31.4506 27.9833 31.3407 28.015 31.2308C28.0807 31.0097 28.1459 30.7918 28.2105 30.5769C28.3373 30.1448 28.4624 29.7232 28.5856 29.3121C28.7001 28.9005 28.8551 28.5093 28.8763 28.1032C28.8951 27.9075 28.866 27.7099 28.7917 27.5295C28.7547 27.4436 28.7018 27.3664 28.6362 27.3024C28.5706 27.2384 28.4935 27.1889 28.4095 27.1569C28.3246 27.1425 28.2377 27.146 28.154 27.1671C28.0703 27.1882 27.9914 27.2265 27.9216 27.2799C27.7765 27.3789 27.6377 27.4877 27.506 27.6059C27.4391 27.6617 27.3721 27.7176 27.3017 27.7716C27.2307 27.8312 27.1438 27.8657 27.0533 27.8704C27.0084 27.8665 26.9647 27.8531 26.9248 27.8311C26.8848 27.809 26.8495 27.7786 26.8209 27.7418C26.7652 27.6747 26.7211 27.5978 26.6905 27.5146C26.5672 26.5273 26.3858 25.6518 26.2203 24.8974C26.1019 24.2503 25.9219 23.6175 25.6831 23.0086C25.5901 22.7935 25.4679 22.5939 25.3202 22.4163C25.2125 22.2874 25.0789 22.1856 24.9292 22.1182C24.8095 22.0635 24.6768 22.0486 24.5488 22.0754Z"/><path fill="#263238" d="M25.0311 24.1113C25.0385 24.1259 25.0439 24.1416 25.0469 24.1579L25.0857 24.2957C25.1209 24.4261 25.1667 24.6031 25.2266 24.8303C25.3463 25.2942 25.5154 25.9666 25.7197 26.7993C26.1266 28.4646 26.6708 30.7725 27.2591 33.3189L28.7755 39.8478C28.9693 40.6786 29.1278 41.351 29.2388 41.826C29.2916 42.0533 29.3321 42.234 29.3621 42.3644C29.3744 42.4221 29.3849 42.4668 29.392 42.5041C29.3948 42.5207 29.3948 42.5377 29.392 42.5544C29.385 42.5396 29.3797 42.5239 29.3761 42.5078L29.3374 42.37C29.3039 42.2396 29.2564 42.0607 29.1965 41.8353C29.0767 41.3715 28.9094 40.6991 28.7051 39.8664C28.2965 38.19 27.754 35.8932 27.164 33.3468C26.574 30.8004 26.0385 28.5037 25.6493 26.8272C25.4538 25.9983 25.297 25.3258 25.1843 24.8508C25.1332 24.6217 25.091 24.4429 25.061 24.3125C25.0487 24.2548 25.0399 24.2082 25.0311 24.1709C25.0287 24.1511 25.0287 24.1311 25.0311 24.1113Z"/><path fill="#263238" d="M24.4166 28.9805C24.5387 29.0362 24.6535 29.1081 24.7583 29.1947C24.9626 29.3381 25.2391 29.5486 25.5368 29.7889C25.8345 30.0292 26.1004 30.249 26.2924 30.4092C26.4016 30.4898 26.5036 30.5808 26.5971 30.6812C26.4708 30.6267 26.3522 30.554 26.2448 30.4651C26.0423 30.3179 25.7693 30.1056 25.4716 29.8653L24.7125 29.2506C24.6048 29.1723 24.5055 29.0818 24.4166 28.9805Z"/><path fill="#263238" d="M26.7064 30.6123C26.9473 30.1399 27.2149 29.6833 27.5078 29.245C27.776 28.7889 28.0701 28.3503 28.3884 27.9318C28.1466 28.4036 27.879 28.8601 27.5871 29.299C27.3183 29.7548 27.0242 30.1933 26.7064 30.6123Z"/><path fill="#263238" d="M27.4473 34.5669C27.4314 34.5427 27.9017 34.1478 28.4495 33.6225C28.9972 33.0972 29.4164 32.6427 29.4375 32.6613C29.3678 32.7804 29.2837 32.8893 29.1874 32.9854C29.0236 33.1717 28.7876 33.4306 28.5111 33.6933C28.2346 33.9559 27.9721 34.1813 27.7766 34.3359C27.6764 34.4271 27.5658 34.5047 27.4473 34.5669Z"/><path fill="#263238" d="M25.0787 33.5667C25.1998 33.5885 25.3181 33.6254 25.431 33.6766C25.6494 33.7548 25.947 33.8628 26.2746 34.0044C26.6022 34.146 26.8964 34.2615 27.1095 34.3583C27.2277 34.4004 27.3402 34.4586 27.4441 34.5316C27.3233 34.5084 27.2052 34.4715 27.0919 34.4216C26.8752 34.3434 26.5758 34.2354 26.2482 34.0938C25.9206 33.9522 25.6265 33.8349 25.4151 33.7399C25.2963 33.698 25.1832 33.6397 25.0787 33.5667Z"/><path fill="#263238" d="M25.3186 37.132C25.4752 37.1652 25.6285 37.2138 25.7765 37.2773C26.0548 37.3778 26.4388 37.5231 26.8597 37.6889C27.2807 37.8547 27.6593 38.0112 27.9323 38.1285C28.0836 38.1825 28.2293 38.2524 28.3674 38.3372C28.211 38.3028 28.0578 38.2542 27.9094 38.1919C27.6312 38.0913 27.249 37.946 26.8263 37.7802C26.4035 37.6144 26.0266 37.4579 25.7536 37.3406C25.6024 37.2866 25.4567 37.2167 25.3186 37.132Z"/><path fill="#263238" d="M28.3018 38.2868C28.4087 38.152 28.5266 38.0274 28.654 37.9143C28.8812 37.6945 29.1947 37.3908 29.5346 37.0462C29.8746 36.7016 30.1758 36.385 30.3942 36.154C30.5055 36.0232 30.6268 35.9023 30.757 35.7926C30.6657 35.941 30.5594 36.0784 30.4399 36.2024C30.2339 36.4446 29.938 36.7705 29.5981 37.117C29.2581 37.4635 28.9358 37.7578 28.698 37.9664C28.5761 38.0866 28.4434 38.1939 28.3018 38.2868Z"/><path fill="#455A64" d="M29.8764 53.5017C32.4496 50.8715 32.4972 46.7735 31.8349 43.2138C31.724 42.6196 31.6905 41.9788 31.3418 41.5019C30.9931 41.025 30.3114 40.7736 29.8447 41.1107C29.4572 41.392 29.3533 41.9396 29.1842 42.4053C28.9583 43.0279 28.5706 43.5703 28.0658 43.97C27.7365 44.229 27.3102 44.4264 26.9228 44.2793C26.3944 44.0781 26.227 43.3777 26.139 42.7891C25.9746 41.6801 25.8114 40.5724 25.6494 39.4659C25.5613 38.8717 25.4732 38.2645 25.209 37.7298C24.9448 37.1952 24.4834 36.7389 23.9251 36.6737C23.3667 36.6085 22.7556 37.0462 22.7327 37.646C22.7483 37.8965 22.7807 38.1455 22.8296 38.3911C22.8507 38.6407 22.7838 38.9313 22.5742 39.0394C22.3646 39.1474 22.1092 39.017 21.9154 38.8717C21.2444 38.3725 20.7319 37.6665 20.2475 36.9624C19.7632 36.2583 19.2841 35.5318 18.6624 34.9674C18.0406 34.403 17.2305 34.0099 16.4185 34.0994C15.6066 34.1888 14.8334 34.8612 14.7559 35.7311C14.6784 36.601 15.2719 37.3741 15.8778 37.9664C16.7777 38.8438 17.7927 39.5791 18.8913 40.1496C19.0997 40.2296 19.279 40.3768 19.4039 40.5705C19.58 40.9431 19.2911 41.3995 18.9424 41.5932C18.5461 41.813 18.0847 41.8446 17.6549 41.975C17.2252 42.1054 16.7743 42.3886 16.6845 42.8561C16.5471 43.5025 17.1248 44.0557 17.6602 44.391C18.7345 45.0631 19.9099 45.535 21.1352 45.7862C21.5738 45.8756 22.0299 45.9408 22.4086 46.1904C22.7873 46.44 23.0726 46.9355 22.937 47.3919C22.8014 47.8483 22.3029 48.0681 21.8573 48.0569C21.4117 48.0457 20.9873 47.8706 20.5505 47.77C19.7315 47.5949 18.7434 47.8222 18.3577 48.612C18.2438 48.8803 18.1904 49.1729 18.2017 49.4667C18.213 49.7606 18.2887 50.0476 18.4228 50.3052C18.6939 50.818 19.0599 51.2678 19.499 51.6278C20.9596 52.9714 22.7313 53.881 24.6331 54.2636C26.5229 54.6138 28.2085 54.5057 29.8817 53.5185"/><path fill="#263238" d="M15.4338 34.7681C15.4535 34.7857 15.4747 34.8013 15.4972 34.8146L15.6892 34.9432C15.8565 35.0568 16.1049 35.2226 16.4184 35.4442C17.3057 36.0705 18.1476 36.766 18.937 37.5249C19.439 38.0037 19.9691 38.5513 20.5222 39.1511C21.0752 39.7509 21.6723 40.3991 22.2711 41.1033C22.901 41.8358 23.493 42.6038 24.0447 43.4038C24.33 43.821 24.596 44.2625 24.8672 44.7077C25.1385 45.1529 25.4115 45.6148 25.688 46.0786C26.7413 47.8106 27.7021 49.6035 28.5659 51.4489C29.2637 52.9606 29.8268 54.5377 30.2479 56.1598C30.5281 57.258 30.7173 58.3799 30.8133 59.5128C30.845 59.9133 30.8644 60.2243 30.8696 60.4441C30.8696 60.5447 30.8696 60.6304 30.8785 60.6844C30.8766 60.7117 30.8766 60.7391 30.8785 60.7664C30.8807 60.7391 30.8807 60.7117 30.8785 60.6844C30.8785 60.6248 30.8785 60.5447 30.8785 60.4441C30.8785 60.2318 30.8679 59.9188 30.8415 59.5128C30.7626 58.3804 30.5857 57.2581 30.3131 56.1598C29.902 54.5282 29.3441 52.942 28.6469 51.4229C27.7913 49.5682 26.8357 47.7671 25.7848 46.0284C25.5077 45.5639 25.2342 45.1069 24.9641 44.6574C24.6929 44.2066 24.4234 43.7614 24.1363 43.3441C23.5814 42.5414 22.9852 41.7716 22.3504 41.0381C21.748 40.3339 21.1527 39.6894 20.5891 39.0896C20.0255 38.4898 19.4936 37.9459 18.9863 37.469C18.1902 36.7156 17.3386 36.0304 16.4395 35.42C16.1225 35.2021 15.8706 35.0475 15.6998 34.9357L15.5025 34.8165C15.4814 34.7976 15.4584 34.7814 15.4338 34.7681Z"/><path fill="#263238" d="M24.1062 43.3404C24.1204 43.2537 24.1257 43.1657 24.122 43.0778C24.122 42.9083 24.122 42.6643 24.122 42.3606C24.1115 41.7571 24.0692 40.9226 24.0181 40.0024C23.9671 39.0822 23.9371 38.2477 23.9354 37.6442C23.9354 37.3443 23.9354 37.0984 23.9354 36.9307C23.944 36.8434 23.944 36.7554 23.9354 36.6681C23.9146 36.7533 23.9034 36.8409 23.9019 36.9289C23.8878 37.0965 23.8755 37.3424 23.8684 37.6442C23.8508 38.2496 23.8684 39.0859 23.9213 40.008C23.9741 40.93 24.0199 41.7366 24.0551 42.3644C24.0692 42.6475 24.0815 42.8859 24.0921 43.0778C24.0866 43.1656 24.0913 43.2538 24.1062 43.3404Z"/><path fill="#263238" d="M16.6667 43.1504C16.765 43.1564 16.8635 43.152 16.9609 43.1374C17.1493 43.1243 17.4206 43.102 17.757 43.0852C18.4298 43.048 19.3597 43.0293 20.3883 43.0573C21.4169 43.0852 22.3451 43.156 23.0161 43.2268C23.3525 43.2585 23.6238 43.2939 23.8105 43.3162C23.9076 43.3336 24.0061 43.3417 24.1046 43.3404C24.011 43.3085 23.915 43.2855 23.8175 43.2715C23.6308 43.2361 23.3596 43.1914 23.0249 43.1486C22.3539 43.0573 21.4222 42.9753 20.383 42.9455C19.502 42.9174 18.6202 42.938 17.7411 43.007C17.4047 43.0331 17.1335 43.0666 16.945 43.0945C16.851 43.1051 16.7579 43.1238 16.6667 43.1504Z"/><path fill="#263238" d="M28.5503 51.285C28.5665 51.2528 28.5784 51.2183 28.5855 51.1826C28.6067 51.1025 28.6348 50.9963 28.6665 50.8864C28.7352 50.6275 28.8268 50.2493 28.9342 49.7836C29.1474 48.8523 29.4063 47.5483 29.6722 46.1103C29.9382 44.6723 30.183 43.3683 30.3767 42.4314C30.4736 41.975 30.5529 41.6006 30.611 41.3137C30.6356 41.1927 30.6568 41.0939 30.6744 41.012C30.6836 40.9768 30.6883 40.9404 30.6885 40.9039C30.6723 40.9362 30.6604 40.9707 30.6533 41.0064C30.6321 41.0865 30.6039 41.1833 30.5722 41.3026C30.5035 41.5615 30.412 41.9378 30.3045 42.4053C30.0914 43.3367 29.8325 44.6406 29.5665 46.0805C29.3006 47.5204 29.0558 48.8206 28.862 49.7576C28.7652 50.2139 28.6859 50.5883 28.6278 50.8752C28.6031 50.9963 28.582 51.095 28.5644 51.177C28.5552 51.2122 28.5505 51.2485 28.5503 51.285Z"/><path fill="#263238" d="M18.4579 49.6589C18.49 49.6728 18.5238 49.6816 18.5583 49.685L18.8524 49.7353L19.9338 49.9216C20.8462 50.0706 22.1055 50.2941 23.4951 50.5363C24.8848 50.7784 26.1476 50.9908 27.0635 51.1193C27.5214 51.1845 27.893 51.2329 28.1502 51.2609L28.4461 51.2907C28.4806 51.2952 28.5155 51.2952 28.55 51.2907C28.5172 51.2773 28.4828 51.2685 28.4478 51.2646L28.1555 51.2143L27.074 51.0374C26.1617 50.8902 24.9024 50.6648 23.511 50.4226C22.1196 50.1805 20.8603 49.9681 19.9444 49.8396C19.4865 49.7744 19.1148 49.726 18.8577 49.698L18.5618 49.6682C18.5277 49.6606 18.4928 49.6575 18.4579 49.6589Z"/><path fill="#455A64" d="M52.4558 64.4864C52.3527 64.455 52.2472 64.4332 52.1406 64.4212L40.6201 59.3098H29.1577L17.8609 64.03C16.7143 64.4342 15.0781 66.7999 16.0063 69.6276C16.0309 69.7077 16.0591 69.784 16.0873 69.8585C16.8288 71.8256 18.8895 72.852 20.8234 72.2931C22.3838 71.8535 24.6259 71.2072 26.935 70.5384H27.1939L34.3799 68.3814L40.5003 70.164C43.697 71.0954 47.2795 72.1292 49.4916 72.7551C51.429 73.3009 53.4879 72.2782 54.2294 70.3112C54.2576 70.2367 54.284 70.1603 54.3105 70.0821C55.2387 67.2637 53.6024 64.8887 52.4558 64.4864Z"/><path fill="#263238" d="M34.2917 68.4095C34.2917 68.4095 34.304 68.4095 34.3304 68.3927L34.4467 68.3554L34.9029 68.2139L36.6236 67.696L36.6042 67.7314C36.3083 66.5784 35.9121 65.0453 35.4559 63.2739L35.4964 63.3055H34.3163C33.9095 63.3055 33.4956 63.3447 33.0694 63.3633L30.4169 63.5179C27.1409 63.7191 24.1785 63.9519 22.035 64.1363L19.497 64.358L18.8066 64.4176L18.6304 64.4306H18.5706C18.59 64.4242 18.6101 64.4204 18.6304 64.4195L18.8066 64.3971L19.4952 64.3189C20.0941 64.2555 20.9606 64.1661 22.0315 64.0655C24.1732 63.8644 27.1392 63.6203 30.4134 63.4192L33.0676 63.2683C33.4921 63.2497 33.9095 63.218 34.3163 63.2124H35.5299V63.2459C35.9755 65.0193 36.3612 66.556 36.65 67.7165V67.7445H36.6236L34.8958 68.2362L34.4361 68.3629L34.3181 68.3946L34.2917 68.4095Z"/><path fill="#263238" d="M30.5584 63.419C30.3098 63.3011 30.0813 63.1406 29.8821 62.944C29.6624 62.7724 29.4719 62.5627 29.3185 62.3237C29.5356 62.4927 29.7432 62.675 29.9402 62.8695C30.1569 63.0389 30.3634 63.2224 30.5584 63.419Z"/><path fill="#263238" d="M51.0982 64.926C51.0454 64.9306 50.9924 64.9306 50.9397 64.926L50.4888 64.8981L48.8279 64.777L43.3504 64.3877L37.871 64.0375L36.2172 63.9295L35.7645 63.8978C35.7119 63.8958 35.6595 63.8896 35.6078 63.8792C35.6606 63.8759 35.7135 63.8759 35.7663 63.8792L36.2172 63.8941L37.8816 63.9667C39.2906 64.0356 41.228 64.153 43.3644 64.289C45.5009 64.4249 47.44 64.587 48.8402 64.7081L50.4976 64.859L50.9485 64.9055C50.9988 64.908 51.0489 64.9149 51.0982 64.926Z"/><path fill="#263238" d="M51.4028 66.135C51.3706 65.9411 51.3271 65.7494 51.2725 65.5612C51.195 65.3847 51.1079 65.2131 51.0118 65.0471C51.1814 65.1557 51.3069 65.3269 51.3641 65.5277C51.4487 65.7178 51.4625 65.9346 51.4028 66.135Z"/><path fill="#263238" d="M34.4823 64.6932C34.6136 64.557 34.7765 64.4599 34.9547 64.4118C35.1329 64.3637 35.3199 64.3663 35.4968 64.4193C35.4968 64.4473 35.2555 64.4193 34.9772 64.5069C34.6989 64.5944 34.4982 64.7174 34.4823 64.6932Z"/><path fill="#263238" d="M34.7942 65.4625C34.942 65.3962 35.1004 65.3602 35.2609 65.3563C35.4184 65.3195 35.5811 65.3157 35.74 65.3451C35.5922 65.4114 35.4338 65.4474 35.2733 65.4513C35.1158 65.4881 34.953 65.4919 34.7942 65.4625Z"/><path fill="#263238" d="M34.935 66.3567C34.935 66.3287 35.1904 66.3213 35.488 66.2281C35.7857 66.135 36.0076 66.0009 36.0164 66.0232C35.8707 66.1617 35.6973 66.2636 35.5091 66.3214C35.3209 66.3791 35.1229 66.3912 34.9297 66.3567H34.935Z"/><path fill="#263238" d="M35.2153 67.3196C35.2153 67.2917 35.4601 67.2693 35.7437 67.1576C36.0273 67.0458 36.2228 66.8931 36.2386 66.9154C36.1231 67.0766 35.9611 67.1936 35.7772 67.2488C35.602 67.3358 35.4049 67.3607 35.2153 67.3196Z"/><path fill="#263238" d="M40.4673 62.957C40.3527 63.1542 40.2231 63.341 40.0798 63.5159C39.9608 63.7126 39.8278 63.8994 39.6818 64.0747C39.848 63.6367 40.1186 63.2516 40.4673 62.957Z"/><path fill="#FFBE9D" d="M63.0469 51.3951C62.7722 51.4119 60.6639 51.7845 60.6639 51.7845C63.2829 51.0394 63.3728 50.7227 63.3058 50.5215C63.2389 50.3203 60.8594 51.0151 60.8594 51.0151C61.0163 50.7257 61.1135 50.4045 61.1448 50.0726C61.2064 49.2623 60.3046 48.5246 60.0211 48.6345C59.7375 48.7445 59.8537 49.1356 59.8537 49.1356C60.6904 49.592 60.5583 50.6631 59.8537 50.9853C59.1492 51.3076 58.7706 50.3744 59.1774 49.9813C60.0704 49.1189 59.5297 48.9494 59.5297 48.9494L57.5482 50.8121C57.5289 50.8214 55.9437 51.2443 55.9437 51.2443L49.1646 52.673L46.3958 48.3887L43.4897 51.1511C43.4897 51.1511 44.0181 51.8124 46.3184 55.102C46.7633 55.7426 47.3846 56.222 48.0971 56.4748C48.8097 56.7275 49.5787 56.7412 50.2988 56.514L57.0427 54.3681L57.0551 54.4016V54.3774L60.8066 53.3603C60.8066 53.3603 62.0148 52.9878 62.2984 52.9077C62.6735 52.7959 62.6506 52.4904 62.3442 52.4811C62.2297 52.4811 60.8224 52.5295 60.8224 52.5295L62.9236 51.9167C63.5771 51.723 63.3129 51.3821 63.0469 51.3951Z"/><path fill="#FFBE9D" d="M25.0894 46.5743L22.3224 50.8587L15.5433 49.4281C15.5433 49.4281 13.9581 49.0127 13.9229 48.9996L11.9415 47.1369C11.9415 47.1369 11.4131 47.3064 12.2937 48.1688C12.7006 48.5619 12.3149 49.4951 11.6174 49.1729C10.9199 48.8506 10.7896 47.7814 11.6174 47.3232C11.6174 47.3232 11.7336 46.9338 11.4413 46.8239C11.1489 46.714 10.2559 47.4498 10.3176 48.2601C10.3486 48.5927 10.4458 48.9146 10.6029 49.2045C10.6029 49.2045 8.21814 48.5079 8.15649 48.709C8.09485 48.9102 8.18467 49.2343 10.7984 49.972C10.7984 49.972 8.68487 49.5994 8.4154 49.5845C8.14592 49.5696 7.88702 49.9105 8.54573 50.1042L10.6786 50.7264C10.6786 50.7264 9.26962 50.6761 9.15689 50.6798C8.85748 50.6798 8.82754 50.9928 9.20269 51.1045L10.6945 51.5572L14.446 52.5761V52.6003L14.4583 52.5649L21.2022 54.7127C21.9219 54.9365 22.6894 54.9203 23.4 54.6663C24.1107 54.4123 24.7301 53.9329 25.1739 53.2933C27.4777 50.0037 28.0025 49.3424 28.0025 49.3424L25.0894 46.5743Z"/><path fill="#fff" d="M41.3372 59.5874L40.1977 54.1854C40.2558 53.431 41.0783 48.6624 41.1805 48.3792L44.8897 54.0923L49.2225 52.1643C49.2225 52.1643 45.5414 45.6447 43.9386 43.2027C41.9695 40.213 38.1264 39.8926 38.1264 39.8926L33.1737 39.9634C33.1737 39.9634 29.7146 39.1512 26.2431 44.0819L22.2609 50.7263L25.6813 52.5667C25.8391 52.6579 26.0222 52.6879 26.1987 52.6515C26.3753 52.6151 26.5343 52.5146 26.6482 52.3674L29.4574 48.7462L30.3099 53.852L29.1245 58.1847C29.1245 58.1847 28.0431 58.3356 28.2439 59.7289C28.2439 59.7289 31.7665 61.4799 35.0882 61.2638C38.41 61.0478 41.3372 59.5874 41.3372 59.5874Z"/><path fill="#263238" d="M39.4895 50.7897C39.4874 50.8205 39.4802 50.8508 39.4684 50.8791C39.4507 50.935 39.4261 51.0188 39.3856 51.125C39.2748 51.4229 39.1423 51.7112 38.9893 51.9874C38.4853 52.9076 37.781 53.6874 36.935 54.2622C36.089 54.8369 35.1255 55.1899 34.1247 55.2919C33.8233 55.3248 33.52 55.3323 33.2176 55.3143C33.1102 55.3143 33.0274 55.2957 32.9728 55.2901C32.9434 55.2901 32.9143 55.2851 32.8865 55.2752C32.9974 55.2691 33.1085 55.2691 33.2194 55.2752C33.5195 55.2785 33.8196 55.2611 34.1176 55.223C35.1037 55.104 36.0507 54.7472 36.8859 54.1801C37.721 53.613 38.422 52.8507 38.9347 51.952C39.0914 51.6815 39.2309 51.4002 39.3521 51.1101C39.3924 51.0007 39.4382 50.8938 39.4895 50.7897Z"/><path fill="#263238" d="M45.4038 53.9377C45.3845 53.9545 45.2471 53.8054 45.1344 53.5801C45.0523 53.4503 45.0071 53.2984 45.004 53.1423C45.0287 53.133 45.1062 53.3174 45.2154 53.5335C45.2946 53.659 45.3579 53.7949 45.4038 53.9377Z"/><path fill="#263238" d="M46.2831 53.5074C46.2602 53.5186 46.1722 53.3491 46.0665 53.1442C45.9865 53.0251 45.9269 52.8921 45.8904 52.7511C45.9098 52.7362 46.033 52.8853 46.1422 53.0976C46.2234 53.2182 46.2721 53.3599 46.2831 53.5074Z"/><path fill="#263238" d="M47.299 52.9392C47.2796 52.9541 47.1545 52.7976 47.0224 52.5908C46.9294 52.4732 46.861 52.3361 46.8217 52.1885C46.8428 52.1736 46.9678 52.33 47.0982 52.5368C47.1912 52.6545 47.2596 52.7916 47.299 52.9392Z"/><path fill="#263238" d="M48.2998 52.4158C48.2752 52.4158 48.203 52.2649 48.1096 52.0712C48.0163 51.8774 47.9335 51.7247 47.9546 51.7079C47.9758 51.6912 48.0938 51.8272 48.1906 52.0283C48.2632 52.1428 48.3013 52.2779 48.2998 52.4158Z"/><path fill="#263238" d="M22.9231 50.9014C22.902 50.8865 22.9742 50.7338 23.0851 50.5587C23.1961 50.3836 23.3 50.2551 23.3212 50.27C23.3423 50.2849 23.2701 50.4376 23.1609 50.6127C23.0517 50.7878 22.9442 50.9163 22.9231 50.9014Z"/><path fill="#263238" d="M24.3128 50.7041C24.266 50.8562 24.1898 50.9964 24.0891 51.1158C23.9429 51.3263 23.809 51.4883 23.7897 51.4697C23.8372 51.3179 23.9133 51.1779 24.0134 51.058C24.1595 50.8475 24.2934 50.6855 24.3128 50.7041Z"/><path fill="#263238" d="M25.2249 51.3504C25.2106 51.4902 25.166 51.6247 25.0946 51.7434C24.9995 51.9502 24.9044 52.1159 24.8815 52.0955C24.8958 51.9556 24.9404 51.8211 25.0118 51.7024C25.1069 51.4957 25.202 51.3373 25.2249 51.3504Z"/><path fill="#263238" d="M26.1323 51.9595C26.1516 51.9762 26.0495 52.1458 25.9068 52.3171C25.7641 52.4885 25.6303 52.6301 25.6109 52.6133C25.5915 52.5965 25.6919 52.427 25.8364 52.2557C25.9808 52.0843 26.1129 51.9427 26.1323 51.9595Z"/><path fill="#263238" d="M28.9957 59.9618C28.8952 59.7426 28.862 59.4958 28.9005 59.2557C28.939 59.0156 29.0474 58.7943 29.2106 58.6224C29.1174 58.8305 29.0453 59.0484 28.9957 59.2725C28.9721 59.5016 28.9721 59.7327 28.9957 59.9618Z"/><path fill="#263238" d="M29.9617 60.3512C29.9511 60.3512 29.9053 60.299 29.8648 60.1872C29.8126 60.0393 29.7945 59.8803 29.812 59.7234C29.828 59.566 29.8786 59.4148 29.9599 59.2819C30.0233 59.1814 30.0797 59.1367 30.0885 59.1441C30.0047 59.3309 29.9454 59.5289 29.9124 59.7327C29.901 59.9403 29.9176 60.1485 29.9617 60.3512Z"/><path fill="#263238" d="M31.0669 59.5986C31.1029 59.7825 31.1088 59.9715 31.0845 60.1575C31.092 60.3469 31.0669 60.5363 31.0105 60.7163C30.9756 60.5323 30.9697 60.3435 30.9929 60.1575C30.9873 59.9681 31.0123 59.7791 31.0669 59.5986Z"/><path fill="#263238" d="M32.5782 59.9227C32.6029 59.9358 32.4919 60.1835 32.4655 60.5095C32.4391 60.8355 32.4972 61.1018 32.4655 61.1093C32.3832 60.919 32.3498 60.7091 32.3687 60.5008C32.3875 60.2924 32.458 60.0931 32.5729 59.9227H32.5782Z"/><path fill="#263238" d="M33.7518 60.1127C33.7574 60.3102 33.7532 60.5079 33.7394 60.705C33.7544 60.9039 33.7585 61.1036 33.7518 61.303C33.6109 60.9221 33.6109 60.4991 33.7518 60.1183V60.1127Z"/><path fill="#263238" d="M35.2008 61.262C35.165 61.0562 35.1403 60.8485 35.1268 60.6398C35.0838 60.4354 35.0538 60.2282 35.037 60.0195C35.1404 60.2043 35.2008 60.4125 35.2131 60.6268C35.2586 60.8364 35.2544 61.0546 35.2008 61.262Z"/><path fill="#263238" d="M36.7349 61.1465C36.7085 61.1465 36.7349 60.882 36.6944 60.5672C36.6539 60.2524 36.55 60.0083 36.5747 59.999C36.6992 60.157 36.7732 60.3526 36.786 60.5578C36.8285 60.7548 36.8106 60.961 36.7349 61.1465Z"/><path fill="#263238" d="M38.2485 60.8037C38.222 60.8037 38.215 60.5374 38.1428 60.2226C38.0706 59.9078 37.9667 59.6637 37.9896 59.6544C38.1178 59.8084 38.2021 59.9976 38.2326 60.2002C38.2929 60.3955 38.2984 60.6052 38.2485 60.8037Z"/><path fill="#263238" d="M39.5214 60.4406C39.4997 60.2435 39.4685 60.0476 39.428 59.8538C39.34 59.5409 39.1762 59.3304 39.1973 59.3118C39.347 59.448 39.457 59.6265 39.5144 59.8264C39.5718 60.0263 39.5742 60.2393 39.5214 60.4406Z"/><path fill="#263238" d="M40.6452 59.9991C40.6188 59.9991 40.6452 59.716 40.5677 59.39C40.4902 59.064 40.3511 58.8312 40.374 58.8107C40.5122 58.9672 40.6098 59.1589 40.6574 59.3672C40.7049 59.5754 40.7007 59.7931 40.6452 59.9991Z"/><path fill="#263238" d="M44.9867 45.4008L44.9391 45.4101L44.7965 45.4287L44.2522 45.4939C44.0145 45.5219 43.7238 45.5535 43.3874 45.5815C43.051 45.6094 42.6653 45.6485 42.2409 45.6746C41.3902 45.738 40.3774 45.7845 39.2467 45.8106C38.116 45.8367 36.8813 45.8218 35.5815 45.7678C34.2817 45.7137 33.0452 45.6131 31.9233 45.4995C30.8014 45.3859 29.7957 45.2462 28.9538 45.1102C28.5311 45.0506 28.1524 44.978 27.8178 44.9239C27.4831 44.8699 27.1961 44.8122 26.9636 44.7637L26.4246 44.6538L26.2855 44.6222L26.2379 44.6091H26.2872L26.4281 44.6315L26.9688 44.7228C27.2031 44.7656 27.4972 44.8159 27.8266 44.868C28.1559 44.9202 28.5399 44.9854 28.9626 45.0431C29.8045 45.1698 30.8119 45.2946 31.9321 45.4157C33.0523 45.5368 34.2869 45.6187 35.585 45.6765C36.8831 45.7342 38.1195 45.7398 39.2449 45.7268C40.3704 45.7137 41.3831 45.6653 42.2391 45.6113C42.6636 45.5908 43.0475 45.5573 43.3857 45.5331C43.7238 45.5088 44.0127 45.4846 44.2505 45.4623L44.7965 45.4157L44.9391 45.4064L44.9867 45.4008Z"/><g opacity=".2"><path fill="#000" d="M33.0994 55.3125C32.7428 55.2048 32.4135 55.0138 32.136 54.7536C31.8788 54.4705 31.7626 54.0085 31.9704 53.6807C32.0677 53.5542 32.1942 53.4564 32.3376 53.3966C32.4811 53.3369 32.6367 53.3174 32.7894 53.3398C33.0933 53.3884 33.3935 53.46 33.6877 53.554C34.1344 53.6552 34.597 53.6494 35.0413 53.5369C35.4857 53.4244 35.9006 53.2081 36.2556 52.9039C36.7734 52.455 37.1362 51.8347 37.6171 51.3429C37.7565 51.1728 37.9478 51.0595 38.1578 51.0226C38.5241 50.9928 38.8165 51.3951 38.8147 51.7881C38.813 52.1812 38.6069 52.5332 38.3797 52.8313C37.727 53.6946 36.886 54.3774 35.9289 54.8213C34.9718 55.2651 33.9271 55.4567 32.8845 55.3795"/></g><g opacity=".2"><path fill="#000" d="M29.7127 58.453C31.1639 59.4105 32.9199 59.757 34.6284 59.7216C36.3368 59.6862 38.0259 59.3192 39.6991 58.9485C39.8539 58.9305 40.0006 58.8659 40.1218 58.7623C40.1505 58.7353 40.1737 58.7024 40.19 58.6657C40.2063 58.6289 40.2154 58.589 40.2167 58.5484C40.2181 58.5079 40.2116 58.4674 40.1977 58.4296C40.1838 58.3917 40.1627 58.3572 40.1359 58.3282C38.5895 59.0301 36.9198 59.3764 35.2373 59.3443C33.5549 59.3122 31.8981 58.9024 30.3767 58.142C30.2142 58.0302 30.0192 57.984 29.8271 58.0116C29.6404 58.0656 29.5242 58.3562 29.6809 58.4773"/></g><path fill="#FFBE9D" d="M44.5427 64.8515L36.3721 66.7049L35.6377 63.7394L38.6618 63.5829C38.6618 63.5829 39.0246 62.9589 39.4456 63.0036C39.8665 63.0483 40.1695 63.6109 40.4777 63.6388C40.7859 63.6668 44.636 63.0744 44.5427 64.8515Z"/><path fill="#FFBE9D" d="M26.2906 43.8919C26.2431 43.9701 45.0376 45.2405 45.0376 45.2405C45.0376 45.2405 43.4877 40.2111 37.5681 39.8907C31.6484 39.5703 28.7317 39.8181 26.2906 43.8919Z"/><path fill="#FFBE9D" d="M37.6439 40.4403C37.6809 39.1215 37.7425 37.7356 37.7425 37.7356C37.7425 37.7356 39.3382 37.5065 39.7239 35.3029C40.092 33.1998 39.8912 28.3138 39.8912 28.3138C38.7791 27.7918 37.5416 27.6459 36.348 27.8959C35.1545 28.146 34.0631 28.7799 33.2231 29.7109L33.0839 40.4161C33.0681 41.6585 34.0544 42.6663 35.3014 42.6793C36.5695 42.6924 37.6086 41.6865 37.6439 40.4403Z"/><path fill="#263238" d="M37.639 34.107C37.7912 34.0627 37.9479 34.0377 38.1057 34.0325C38.1779 34.0325 38.2484 34.0139 38.2625 33.9617C38.2698 33.8812 38.2545 33.8002 38.2184 33.7289L38.0176 33.1272C37.7394 32.2722 37.5403 31.5681 37.572 31.5569C37.6037 31.5457 37.8574 32.2293 38.1357 33.0862C38.2026 33.2967 38.266 33.4979 38.3276 33.6897C38.37 33.7857 38.3805 33.894 38.3576 33.9971C38.3463 34.0243 38.3294 34.0485 38.308 34.0679C38.2867 34.0872 38.2615 34.1012 38.2343 34.1089C38.1933 34.1191 38.1513 34.1235 38.1092 34.1219C37.9526 34.1393 37.7944 34.1343 37.639 34.107Z"/><path fill="#EB996E" d="M37.7428 37.7262C36.7635 37.7115 35.8078 37.4062 34.9846 36.8451C34.9846 36.8451 35.6187 38.3893 37.6987 38.2496L37.7428 37.7262Z"/><path fill="#EB996E" d="M37.4974 34.8372C37.4456 34.7623 37.3764 34.7027 37.2965 34.6643C37.2166 34.6258 37.1287 34.6096 37.0413 34.6174C36.978 34.6213 36.9161 34.6388 36.8595 34.6689C36.8029 34.699 36.7526 34.7411 36.7119 34.7925C36.6719 34.8422 36.6473 34.9037 36.6416 34.9688C36.636 35.0338 36.6494 35.0991 36.6802 35.1557C36.7241 35.2121 36.783 35.2532 36.8494 35.2735C36.9157 35.2938 36.9863 35.2923 37.0518 35.2693C37.1885 35.2225 37.3149 35.1472 37.4235 35.0477C37.457 35.0249 37.4858 34.9951 37.508 34.9601C37.5184 34.9432 37.5239 34.9235 37.5239 34.9033C37.5239 34.8831 37.5184 34.8634 37.508 34.8465"/><path fill="#263238" d="M36.7919 34.2932C36.8377 34.2932 36.8306 34.6248 37.0895 34.8688C37.3484 35.1128 37.6813 35.0867 37.6831 35.1333C37.6848 35.1799 37.6073 35.1948 37.4664 35.1948C37.2841 35.1902 37.109 35.1184 36.9715 34.9917C36.8394 34.8688 36.7573 34.6966 36.7425 34.5112C36.7337 34.3659 36.7707 34.2932 36.7919 34.2932Z"/><path fill="#263238" d="M36.7299 32.1846C36.7299 32.1846 36.6982 32.2572 36.6031 32.3243C36.4784 32.4118 36.3318 32.4578 36.1822 32.4565C36.0321 32.4556 35.8856 32.4076 35.7612 32.3187C35.6679 32.2498 35.6291 32.1864 35.6362 32.1771C35.8034 32.2801 35.9896 32.3437 36.1822 32.3634C36.375 32.347 36.562 32.286 36.7299 32.1846Z"/><path fill="#263238" d="M39.6461 32.1976C39.6461 32.1976 39.6162 32.2573 39.5334 32.3094C39.4215 32.3733 39.2957 32.4054 39.1685 32.4025C39.0413 32.3995 38.917 32.3617 38.8078 32.2926C38.725 32.2368 38.6898 32.1827 38.6986 32.1753C38.8488 32.2437 39.0079 32.2876 39.1706 32.3057C39.3334 32.2955 39.4938 32.259 39.6461 32.1976Z"/><path fill="#263238" d="M36.8428 31.0017C36.8217 31.0818 36.5593 31.0706 36.251 31.1098C35.9428 31.1489 35.6909 31.2197 35.6522 31.147C35.6134 31.0744 35.8512 30.8657 36.2193 30.821C36.5874 30.7763 36.8657 30.9291 36.8428 31.0017Z"/><path fill="#263238" d="M39.6588 31.2885C39.613 31.3556 39.3893 31.2624 39.1163 31.1954C38.8434 31.1283 38.6056 31.0967 38.588 31.0091C38.5704 30.9216 38.8433 30.8228 39.1762 30.9067C39.5091 30.9905 39.7046 31.2271 39.6588 31.2885Z"/><path fill="#263238" d="M40.3139 28.135C39.9757 27.5761 39.3311 27.3116 38.7287 27.1328C38.0965 26.9467 37.4535 26.8048 36.8037 26.7081C36.4088 26.6249 36.0014 26.6364 35.6113 26.7416C35.5655 26.7584 35.5232 26.777 35.4809 26.7956C34.7184 26.7591 33.9648 26.9817 33.3304 27.4308C33.0539 27.5959 32.8208 27.8316 32.6523 28.1163C32.4369 28.408 32.2592 28.7287 32.1239 29.0701C31.5057 30.2138 30.6885 31.8083 30.5775 32.6428C30.4032 33.9614 30.6512 35.3037 31.2821 36.4558C31.44 36.7343 31.6235 36.9958 31.8298 37.2363C31.6446 37.4074 31.4931 37.6155 31.3839 37.8486C31.2748 38.0817 31.2102 38.3352 31.1939 38.5947C31.1775 38.8543 31.2097 39.1147 31.2886 39.361C31.3675 39.6074 31.4916 39.8349 31.6537 40.0304C31.4068 40.2411 31.2323 40.5317 31.157 40.8575C31.0952 41.1689 31.1245 41.4929 31.2409 41.7863C31.3572 42.0798 31.5553 42.3288 31.8087 42.5004L31.9038 42.5545C31.8746 42.5813 31.8475 42.6106 31.8228 42.642C31.7237 42.7744 31.6511 42.9267 31.6093 43.0897C31.5675 43.2527 31.5575 43.4229 31.5797 43.5901C31.6262 43.9256 31.7469 44.2447 31.932 44.5215C32.0993 44.7916 32.3371 45.0524 32.6365 45.0803C32.6786 45.085 32.7211 45.085 32.7633 45.0803C32.6334 45.1391 32.524 45.2391 32.45 45.3664C32.3761 45.4937 32.3412 45.6421 32.3503 45.7912C32.3594 45.9403 32.4119 46.0827 32.5007 46.199C32.5895 46.3152 32.7101 46.3994 32.8461 46.4401C32.9515 46.4553 33.0529 46.4933 33.1437 46.5519C33.1814 46.5911 33.2094 46.6394 33.2254 46.6926C33.2413 46.7459 33.2447 46.8024 33.2353 46.8574C33.2153 46.9673 33.1784 47.073 33.1261 47.1703C33.2037 47.1601 33.2767 47.1261 33.3362 47.0725C33.3957 47.0189 33.439 46.948 33.4608 46.8686C33.4608 46.9729 33.4608 47.0772 33.4608 47.1815C33.6869 47.0169 33.8524 46.7747 33.9293 46.496C34.0252 46.2222 34.0477 45.9257 33.9944 45.6392C33.9669 45.4965 33.9117 45.3614 33.8322 45.2424C33.7528 45.1235 33.6509 45.0232 33.533 44.9481C33.4193 44.8811 33.2915 44.8452 33.1613 44.8438C33.2756 44.7194 33.3564 44.5651 33.3956 44.3967C33.4476 43.7821 33.3392 43.1642 33.0821 42.6103C33.0452 42.5429 33.0008 42.4804 32.95 42.4241C33.1016 42.2377 33.207 42.0142 33.2564 41.774C33.3174 41.5481 33.3351 41.3116 33.3085 41.0785C33.2818 40.8453 33.2115 40.6201 33.1015 40.416C33.0776 40.3779 33.0517 40.3412 33.024 40.3061C33.1768 40.0827 33.271 39.8205 33.297 39.5461C33.373 39.1628 33.4073 38.7716 33.3991 38.38C33.6764 38.1404 33.8915 37.8302 34.0244 37.4785C34.6672 36.0013 33.9169 33.9095 33.9169 33.9095C35.0107 32.762 35.2203 30.577 35.2414 29.2861C35.4297 29.5676 35.6641 29.8111 35.9336 30.0051C36.1224 30.1631 36.3589 30.2432 36.5993 30.2305C36.7181 30.2187 36.8277 30.1576 36.9039 30.0605C36.9802 29.9635 37.017 29.8384 37.0062 29.7127C37.1345 30.0032 37.3037 30.2714 37.5082 30.5081C37.6112 30.6256 37.7377 30.7173 37.8785 30.7766C38.0192 30.8358 38.1707 30.8612 38.3219 30.8508C38.4724 30.8332 38.6116 30.7583 38.7137 30.64C38.8158 30.5218 38.8737 30.3683 38.8767 30.2082C39.0342 30.4773 39.2543 30.6992 39.516 30.8527C39.6484 30.9264 39.7993 30.9544 39.9474 30.9327C40.0956 30.911 40.2336 30.8407 40.3421 30.7316C40.4754 30.5333 40.5452 30.295 40.5411 30.0517C40.6027 29.3904 40.645 28.6863 40.3139 28.135Z"/><path fill="#455A64" d="M31.8702 36.1933C31.8558 36.1715 31.8445 36.1477 31.8368 36.1225C31.8102 36.051 31.7913 35.9767 31.7804 35.9008C31.7471 35.618 31.7866 35.331 31.8949 35.07C32.061 34.6876 32.301 34.3462 32.5994 34.0679C32.9567 33.7349 33.2877 33.3717 33.5892 32.9819C34.0898 32.2357 34.4777 31.4119 34.7393 30.5398C34.8415 30.2176 34.9278 29.9512 34.9912 29.7482C35.0182 29.6501 35.0517 29.5543 35.0916 29.4613C35.0782 29.5625 35.0564 29.6622 35.0264 29.7593C34.9771 29.9456 34.9031 30.225 34.801 30.5622C34.5552 31.4503 34.17 32.2884 33.6614 33.0415C33.357 33.4345 33.0211 33.7991 32.6575 34.1312C32.364 34.3998 32.1244 34.7279 31.953 35.0961C31.8435 35.3458 31.7956 35.6207 31.8139 35.8952C31.8368 36.089 31.8808 36.1895 31.8702 36.1933Z"/><path fill="#455A64" d="M32.9269 40.1962C32.8845 40.1893 32.8437 40.1734 32.8071 40.1496C32.7017 40.0995 32.6018 40.037 32.5095 39.9633C32.1989 39.7154 31.9591 39.3816 31.8164 38.9987C31.6738 38.6157 31.6339 38.1986 31.7011 37.7932C31.721 37.6713 31.7517 37.5515 31.7927 37.4356C31.8226 37.3555 31.8455 37.3127 31.8508 37.3164C31.8561 37.3201 31.7997 37.5027 31.7645 37.8026C31.7163 38.1956 31.763 38.5952 31.9004 38.9639C32.0378 39.3326 32.2613 39.6586 32.55 39.9112C32.7702 40.0993 32.934 40.1813 32.9269 40.1962Z"/><path fill="#455A64" d="M32.8198 40.5222C32.8198 40.5334 32.7423 40.5707 32.6014 40.5781C32.416 40.583 32.2327 40.5347 32.0711 40.4383C31.9096 40.3418 31.7757 40.2009 31.6838 40.0305C31.6401 39.9636 31.6162 39.8845 31.6151 39.8032C31.6292 39.8032 31.6627 39.8815 31.7384 39.9895C31.8388 40.1361 31.968 40.2581 32.1171 40.3471C32.2658 40.436 32.4311 40.4894 32.6014 40.5036C32.7335 40.5204 32.8181 40.5073 32.8198 40.5222Z"/><path fill="#455A64" d="M32.0884 42.2322C32.0884 42.2173 32.1712 42.1633 32.2909 42.0459C32.4446 41.8943 32.5649 41.7086 32.6431 41.5023C32.7213 41.2959 32.7556 41.0739 32.7436 40.8519C32.7293 40.7595 32.7205 40.6661 32.7172 40.5725C32.7713 40.6522 32.803 40.7465 32.8087 40.8445C32.8404 41.0794 32.8131 41.319 32.7295 41.5393C32.6463 41.7598 32.5089 41.9527 32.3314 42.0981C32.2638 42.1658 32.1796 42.2122 32.0884 42.2322Z"/><path fill="#455A64" d="M32.9288 42.3608C32.9393 42.3608 32.9288 42.4334 32.8618 42.5191C32.7763 42.6317 32.6559 42.7089 32.5219 42.737C32.3876 42.7634 32.2488 42.7397 32.1292 42.67C32.0393 42.616 32.0023 42.5582 32.0112 42.5508C32.02 42.5433 32.0693 42.575 32.1573 42.6066C32.2694 42.6528 32.3915 42.6645 32.5096 42.6402C32.6253 42.6147 32.7323 42.5568 32.8196 42.4725C32.883 42.4073 32.9164 42.3552 32.9288 42.3608Z"/><path fill="#455A64" d="M33.0766 44.7636C32.9153 44.3948 32.7312 44.0376 32.5253 43.6944C32.2956 43.3674 32.0461 43.0563 31.7786 42.7631C31.8815 42.8167 31.975 42.8885 32.0551 42.9754C32.2607 43.1713 32.4439 43.392 32.6011 43.633C32.7584 43.8734 32.8879 44.133 32.9868 44.406C33.037 44.5185 33.0674 44.6397 33.0766 44.7636Z"/><path fill="#455A64" d="M33.346 44.8307C33.3584 44.8531 33.2439 44.9462 33.0766 45.017C32.9092 45.0878 32.7648 45.0878 32.7613 45.0617C32.7578 45.0356 32.8881 44.9872 33.0466 44.9276C33.2051 44.868 33.3337 44.8065 33.346 44.8307Z"/><path fill="#455A64" d="M30.9335 35.9081C30.9223 35.8802 30.9151 35.8507 30.9123 35.8206C30.9018 35.761 30.8859 35.6753 30.8701 35.5635C30.8187 35.2477 30.7898 34.9283 30.7838 34.6079C30.7681 34.1265 30.8636 33.6482 31.062 33.2146C31.1852 32.9593 31.3602 32.7361 31.5746 32.5608C31.8045 32.3783 32.0533 32.224 32.3161 32.1007C32.5743 31.9804 32.8265 31.8461 33.0717 31.6983C33.2962 31.5577 33.5069 31.3936 33.7004 31.2084C34.0294 30.8931 34.3083 30.5239 34.5265 30.115C34.7206 29.7332 34.8719 29.3287 34.9774 28.9098C34.9774 28.9399 34.9739 28.97 34.9668 28.9992C34.9545 29.0853 34.9375 29.1705 34.9157 29.2544C34.8389 29.5654 34.7272 29.8656 34.5828 30.1485C34.3673 30.5708 34.0863 30.9517 33.7515 31.2755C33.5548 31.4658 33.3406 31.635 33.1122 31.7803C32.8626 31.9306 32.6057 32.0667 32.3425 32.1882C32.0862 32.3083 31.8434 32.4583 31.6186 32.6353C31.413 32.8018 31.2446 33.0142 31.1254 33.2574C30.9282 33.6766 30.8291 34.1398 30.8366 34.6079C30.8375 34.9255 30.8563 35.2427 30.893 35.5579L30.9176 35.8168C30.9272 35.8463 30.9326 35.877 30.9335 35.9081Z"/><path fill="#455A64" d="M37.2036 28.828C37.2036 28.828 37.1755 28.8596 37.1103 28.8913C37.0171 28.9356 36.9165 28.9596 36.8144 28.9621C36.6453 28.9622 36.4779 28.926 36.3223 28.8559C36.1668 28.7858 36.0262 28.6832 35.9091 28.5541C35.685 28.2947 35.514 27.989 35.4071 27.6563C35.3515 27.5251 35.3124 27.3866 35.2909 27.2446C35.361 27.367 35.42 27.4961 35.467 27.6302C35.5873 27.9445 35.759 28.234 35.9743 28.4852C36.1953 28.7279 36.4946 28.8735 36.8126 28.8932C36.9451 28.89 37.0766 28.8681 37.2036 28.828Z"/><path fill="#455A64" d="M38.428 29.344C38.3463 29.3801 38.2567 29.3917 38.1691 29.3775C37.9548 29.3592 37.7492 29.2804 37.5735 29.1493C37.3978 29.0183 37.2587 28.8397 37.1705 28.6324C37.1273 28.5501 37.1077 28.4562 37.1141 28.3623C37.1571 28.4391 37.1954 28.5187 37.2286 28.6007C37.3257 28.7893 37.4617 28.9523 37.6266 29.0776C37.7903 29.2003 37.9782 29.2818 38.1762 29.316C38.2607 29.3182 38.3449 29.3276 38.428 29.344Z"/></svg>