<svg width="42" height="46" viewBox="0 0 42 46" fill="none" xmlns="http://www.w3.org/2000/svg">
<path d="M32.5004 43.0085L42 45.2885L31.4527 45.9999L23.5407 43.469H24.3268L32.5004 43.0085Z" fill="#E0E0E0"/>
<path d="M32.6196 42.4399L41.2806 44.6907V45.1525L30.891 45.4784L24.4665 43.6326L24.446 42.9004L32.6196 42.4399Z" fill="#FAFAFA"/>
<path d="M41.2806 45.1527V44.6909L30.9962 44.9211L30.891 45.4786L41.2806 45.1527Z" fill="#EBEBEB"/>
<path d="M30.9962 44.921L24.446 42.9004L24.4665 43.6326L30.8911 45.4785L30.9962 44.921Z" fill="#E0E0E0"/>
<path d="M32.6197 42.4399C32.6197 42.4399 32.5697 42.4399 32.4709 42.4399L32.0375 42.4594L30.3807 42.544L24.4409 42.8657H24.4127V42.8962C24.4191 43.1209 24.4255 43.3733 24.4332 43.6284V43.6534L24.455 43.6603L30.8783 45.5103H30.8937L33.0018 45.4438L41.2806 45.1789H41.3088V44.6658H41.2858L35.0023 43.0474L33.2416 42.598L32.7761 42.4829L32.6569 42.4538L32.6171 42.4455L32.6569 42.4594L32.7761 42.4926L33.2391 42.6175L34.9971 43.0779L41.2742 44.7212L41.2511 44.6907V45.1525L41.2793 45.1206L32.998 45.3758L30.8911 45.4424H30.8937L24.4678 43.6007L24.4896 43.6298C24.4819 43.3746 24.4743 43.1236 24.4678 42.8976L24.4409 42.9295L30.3807 42.5842L32.0349 42.4829L32.4697 42.4538C32.5684 42.4469 32.6197 42.4399 32.6197 42.4399Z" fill="#263238"/>
<path d="M31.2644 44.5051C31.2882 44.5078 31.3123 44.5078 31.3362 44.5051H31.5426L32.3043 44.4926L34.8152 44.4468C35.7962 44.4288 36.6835 44.4066 37.326 44.3816C37.6479 44.3692 37.9082 44.3567 38.0877 44.3456L38.2942 44.3317C38.3184 44.3316 38.3425 44.3283 38.366 44.322C38.3417 44.3184 38.3171 44.3184 38.2929 44.322H38.0864L37.3247 44.3345L34.8139 44.3789C33.8329 44.3969 32.9455 44.4205 32.3031 44.4454C31.9812 44.4579 31.7222 44.469 31.5426 44.4801L31.3362 44.4954C31.3119 44.4942 31.2876 44.4975 31.2644 44.5051Z" fill="#263238"/>
<path d="M29.8549 44.2082C29.8787 44.2118 29.9029 44.2118 29.9267 44.2082H30.1345H30.8936L33.4045 44.1638C34.3854 44.1458 35.2741 44.1222 35.9166 44.0973C36.2372 44.0848 36.4975 44.0737 36.677 44.0626L36.8835 44.0487C36.9076 44.0479 36.9316 44.0446 36.9553 44.039C36.9314 44.0358 36.9073 44.0358 36.8835 44.039H36.6757L35.9153 44.0515L33.4032 44.0959C32.4235 44.1139 31.5348 44.1361 30.8923 44.1611C30.5718 44.1735 30.3114 44.186 30.1319 44.1971L29.9255 44.211C29.9021 44.2069 29.8785 44.206 29.8549 44.2082Z" fill="#263238"/>
<path d="M28.8291 43.8879C28.8529 43.8912 28.877 43.8912 28.9009 43.8879H29.1086L29.869 43.8754L32.3799 43.8311C33.3608 43.813 34.2495 43.7908 34.892 43.7659C35.2126 43.7534 35.4729 43.7409 35.6524 43.7298L35.8589 43.716C35.8831 43.716 35.9072 43.7127 35.9307 43.7063C35.9068 43.7027 35.8827 43.7027 35.8589 43.7063H35.6511L34.8907 43.7187L32.3786 43.7631C31.3989 43.7811 30.5102 43.8033 29.8677 43.8297C29.5472 43.8422 29.2868 43.8533 29.1073 43.8643L28.9009 43.8782C28.8767 43.8791 28.8527 43.8823 28.8291 43.8879Z" fill="#263238"/>
<path d="M27.775 43.6314C27.7993 43.635 27.8239 43.635 27.8481 43.6314H28.0546L28.8163 43.6189L31.3271 43.5746C32.3081 43.5565 33.1955 43.533 33.8379 43.508C34.1598 43.4955 34.4189 43.4844 34.5984 43.4733L34.8048 43.4595C34.829 43.4586 34.853 43.4553 34.8766 43.4497C34.8528 43.4464 34.8287 43.4464 34.8048 43.4497H34.5984L33.8367 43.4608L31.3258 43.5066C30.3448 43.5246 29.4575 43.5468 28.815 43.5718C28.4931 43.5843 28.2328 43.5968 28.0533 43.6078L27.8468 43.6217C27.8226 43.6217 27.7985 43.6249 27.775 43.6314Z" fill="#263238"/>
<path d="M16.5391 18.4734C16.5391 18.4734 11.529 17.149 9.1708 19.1141C7.2896 20.6825 5.92904 23.2578 5.92904 23.2578L10.0261 28.9091L7.74099 41.4347H25.4489L28.329 33.057L32.8403 27.428C32.8403 27.428 28.6893 22.2968 27.4544 21.6686C26.2195 21.0403 16.5391 18.4734 16.5391 18.4734Z" fill="#FFCB00"/>
<path d="M13.3037 32.3358L13.2832 32.3539L13.2255 32.4079L13.0062 32.6104L12.1984 33.3621H12.1907V33.3732C12.2368 33.8114 12.2933 34.3439 12.3574 34.9389L12.3971 34.9097L11.1456 34.104L11.1315 34.0957L11.1173 34.1026L9.79397 34.7627L9.84014 34.803L10.1582 33.2664C10.1582 33.2511 10.1671 33.2983 10.1505 33.2331L10.1428 33.2234L10.1274 33.2054L10.0953 33.1679L10.0312 33.0944L9.90297 32.9474L9.65291 32.6562L9.16434 32.0876L9.14383 32.1458L10.5942 31.9961H10.6095L10.6172 31.9808L11.3238 30.6023H11.2751L11.8598 32.046V32.0557H11.8701L12.9178 32.2651L13.2012 32.3206L13.2755 32.3344H13.3025H13.2807L13.2114 32.3178L12.937 32.254L11.8778 32.0141L11.8919 32.0266L11.32 30.5787L11.2982 30.5247L11.2712 30.576C11.0532 30.992 10.8147 31.458 10.5583 31.9503L10.5826 31.9323L9.13228 32.0793H9.0656L9.11177 32.132L9.59906 32.7019L9.84912 32.9932L9.97735 33.1402L10.0415 33.2137L10.0722 33.2511L10.0889 33.2691L10.0966 33.2789C10.0799 33.2151 10.0966 33.2622 10.0889 33.247L9.77089 34.7849L9.75679 34.8543L9.81706 34.8251L11.1379 34.1595H11.1097L12.3651 34.9583L12.4125 34.9888L12.4048 34.9305C12.3369 34.3342 12.2766 33.8045 12.224 33.3662V33.3856L13.0268 32.6021L13.2358 32.3968L13.2884 32.3442C13.2995 32.3386 13.3046 32.3358 13.3037 32.3358Z" fill="#FAFAFA"/>
<path d="M32.2978 26.7551C32.2978 26.7551 37.6837 33.4548 39.8201 35.3686C41.9565 37.2824 41.5589 41.017 40.3766 41.5121C39.915 41.7049 33.1429 41.4303 33.1429 41.4303L28.329 33.0568L32.2978 26.7551Z" fill="#FFCB00"/>
<g opacity="0.2">
<path d="M13.1203 37.313C13.1819 36.0024 11.3956 35.0774 10.5159 35.3146C10.6839 33.3342 10.9006 29.9476 10.3877 28.0366C9.82472 30.8643 9.54773 33.8612 8.56674 36.5502" fill="black"/>
</g>
<path d="M10.2967 29.0103L8.59761 36.7348C8.59761 36.7348 11.4341 34.839 13.1063 37.3589L11.824 41.4693L0.345737 41.5123C0.345737 41.5123 -0.53139 37.7943 0.508589 34.8113C0.945868 33.5632 5.9252 23.2578 5.9252 23.2578L9.50679 24.603L10.2967 29.0103Z" fill="#FFCB00"/>
<path d="M11.8277 41.4691C11.8394 41.4434 11.8497 41.417 11.8585 41.3901L11.9355 41.1598L12.2137 40.2959C12.4484 39.5525 12.7754 38.5166 13.1511 37.3239V37.3087L13.1421 37.2948C13.0232 37.0825 12.8778 36.8888 12.71 36.7193C12.5284 36.5462 12.3223 36.4058 12.0996 36.3033C11.7565 36.1434 11.3902 36.0496 11.0173 36.0259C10.8423 36.0128 10.6668 36.01 10.4915 36.0176C10.3225 36.021 10.1541 36.0423 9.98887 36.0814C9.3477 36.2381 8.80013 36.5557 8.47185 36.962C8.17689 37.2391 7.92643 37.5671 7.73066 37.9328C7.6616 38.0698 7.61599 38.2192 7.59601 38.3738C7.63499 38.2259 7.68784 38.0828 7.75374 37.9466C7.95519 37.5874 8.20894 37.2657 8.5052 36.9939C8.83476 36.5959 9.37077 36.2922 10.0017 36.141C10.1631 36.1034 10.3277 36.0834 10.4928 36.0814C10.666 36.0742 10.8394 36.0775 11.0122 36.0911C11.3749 36.1127 11.7315 36.2018 12.0663 36.3546C12.283 36.4546 12.4831 36.5923 12.6587 36.7623C12.8241 36.9249 12.9679 37.1116 13.0857 37.317V37.2879C12.719 38.4833 12.3997 39.522 12.1714 40.2681C12.0611 40.6342 11.9739 40.9283 11.9149 41.139L11.847 41.372C11.8379 41.4037 11.8315 41.4362 11.8277 41.4691Z" fill="#263238"/>
<path d="M6.47916 37.0163C6.48814 37.026 6.58303 36.9081 6.76769 36.7625C7.00839 36.5736 7.28618 36.4474 7.57941 36.3936C7.74024 36.3666 7.90368 36.3629 8.06542 36.3825C8.19708 36.401 8.32623 36.4364 8.45012 36.4879C8.66299 36.5781 8.77712 36.6738 8.78481 36.6613C8.79251 36.6488 8.76045 36.6322 8.70916 36.5892C8.63412 36.5302 8.55327 36.4804 8.46807 36.4408C8.34212 36.3807 8.20928 36.3392 8.07312 36.3174C7.83701 36.2816 7.59662 36.2991 7.36708 36.3688C7.13755 36.4385 6.92386 36.5589 6.73948 36.7223C6.66676 36.7835 6.59975 36.8522 6.53943 36.9276C6.49711 36.9816 6.47531 37.0135 6.47916 37.0163Z" fill="#263238"/>
<path d="M8.5719 36.5503C8.58336 36.5223 8.59321 36.4936 8.6014 36.4643C8.61935 36.4005 8.64372 36.3187 8.67449 36.2174C8.73605 36.0011 8.82196 35.6891 8.93096 35.3008C9.13614 34.5241 9.40543 33.448 9.67216 32.2498C9.93888 31.0516 10.153 29.9602 10.2954 29.1669C10.3672 28.7717 10.4236 28.4499 10.4582 28.228C10.4736 28.1227 10.4864 28.0367 10.4967 27.9715C10.5024 27.9418 10.5058 27.9116 10.507 27.8813C10.4959 27.9093 10.4882 27.9387 10.4839 27.9687C10.4711 28.0339 10.4531 28.1185 10.4326 28.2225C10.3877 28.4513 10.3249 28.7689 10.2492 29.1572C10.094 29.9463 9.87348 31.0349 9.60804 32.2331C9.34259 33.4313 9.081 34.5075 8.88608 35.2841C8.7899 35.6669 8.71168 35.9775 8.65526 36.2063C8.63089 36.3104 8.61037 36.3936 8.59499 36.4587C8.58311 36.4878 8.57534 36.5187 8.5719 36.5503Z" fill="#263238"/>
<path d="M10.1056 26.8953C10.1455 27.0973 10.208 27.2933 10.2915 27.4791C10.3537 27.6738 10.4367 27.86 10.539 28.0338C10.4979 27.8317 10.4355 27.6353 10.3531 27.4486C10.2908 27.2543 10.2077 27.0686 10.1056 26.8953Z" fill="#263238"/>
<g opacity="0.2">
<path d="M29.5742 29.0103C29.8204 31.3678 30.0679 34.1581 30.3154 36.517L28.3239 33.05" fill="black"/>
</g>
<path d="M29.6755 28.7801C29.6575 28.7731 29.092 30.4512 28.4124 32.5244C27.7327 34.5977 27.1941 36.2896 27.2121 36.2965C27.23 36.3035 27.7943 34.6324 28.4752 32.5522C29.1561 30.472 29.6921 28.787 29.6755 28.7801Z" fill="#263238"/>
<path d="M28.2303 24.377V24.4879C28.2303 24.5637 28.2303 24.6677 28.2303 24.7999C28.2303 25.0773 28.2405 25.4628 28.2482 25.9524V25.9635H28.2572C28.5983 26.2062 29.0112 26.4974 29.4767 26.8261V26.7747L28.1033 27.3003H28.0879V27.317L27.7109 28.8425L27.7686 28.83L26.88 27.5819L26.8518 27.5666H26.8056H26.7581H26.6658L26.4799 27.5777L26.1131 27.5999L25.3976 27.6415L25.4258 27.697L26.2465 26.3948L26.2555 26.3809V26.3642C26.0657 25.8386 25.8887 25.3463 25.7271 24.897L25.6951 24.9344L27.0941 25.3713H27.1044L27.1121 25.3644L27.9315 24.6543L28.1521 24.4546L28.2098 24.4019L28.2303 24.3825L28.2123 24.3964L28.1559 24.4435L27.9353 24.6321L27.0877 25.3588H27.1057L25.7092 24.9081L25.6579 24.8915L25.6771 24.9469C25.8361 25.3976 26.0118 25.89 26.1978 26.4183V26.3864L25.3732 27.6859L25.336 27.7455H25.4014L26.1183 27.7039L26.485 27.6831L26.6709 27.672H26.7633H26.8107H26.8569L26.8287 27.6581L27.7186 28.9063L27.7584 28.9631L27.7763 28.8938C27.9046 28.3599 28.0328 27.8467 28.1482 27.3683L28.129 27.3919L29.4998 26.858L29.5511 26.8385L29.5062 26.8066L28.279 25.9565L28.288 25.9746C28.27 25.4781 28.2546 25.0828 28.2444 24.8055C28.2444 24.6765 28.2354 24.5753 28.2316 24.5018V24.4241C28.2331 24.4084 28.2327 24.3925 28.2303 24.377Z" fill="#FAFAFA"/>
<path d="M30.8307 30.1045C30.8351 30.1132 30.8408 30.1211 30.8474 30.1281L30.8986 30.1891L31.091 30.4207L31.8065 31.2736L31.8142 31.2819H31.8245L33.2671 31.0614L33.2389 31.0184L32.5272 32.3927L32.5195 32.408L32.5259 32.4232C32.7285 32.8656 32.9453 33.3413 33.1671 33.8364L33.203 33.7851L31.7732 33.4814L31.7437 33.4911L31.7347 33.4994L31.7181 33.5174L31.6847 33.5535L31.618 33.6228L31.4898 33.7615L31.2333 34.0389L30.7204 34.5811L30.7755 34.6019C30.714 34.0569 30.655 33.5341 30.5986 33.039V33.0209H30.5845L29.2919 32.2929V32.3442L30.6114 31.6744H30.6204V31.6633C30.6922 31.1779 30.7486 30.7937 30.7871 30.5247C30.805 30.3929 30.8204 30.2917 30.8307 30.2168C30.8307 30.1835 30.8397 30.1572 30.8422 30.1364V30.1059C30.8422 30.1059 30.8422 30.1128 30.8422 30.1295C30.8422 30.1461 30.8332 30.1752 30.8281 30.2057C30.8166 30.2778 30.7986 30.3777 30.7768 30.5053C30.7307 30.7826 30.6653 31.1654 30.5832 31.6563L30.5934 31.6397L29.2701 32.2956L29.2201 32.3206L29.2688 32.3483L30.5575 33.0834L30.5409 33.0584C30.596 33.5535 30.6537 34.0763 30.7127 34.6227L30.7217 34.6934L30.7691 34.6435L31.2821 34.1013L31.5449 33.8239L31.6732 33.6852L31.7399 33.6145L31.7745 33.5784L31.7912 33.5618L31.7988 33.5521L31.7694 33.5618L33.1992 33.8655L33.2646 33.8794L33.2351 33.8142L32.5862 32.4038V32.4205L33.2915 31.042L33.3171 30.9907L33.2646 30.999L31.8232 31.2361H31.8412L31.0961 30.3888L30.9012 30.1683L30.8512 30.1142C30.8358 30.11 30.8294 30.1045 30.8307 30.1045Z" fill="#FAFAFA"/>
<path d="M22.7598 30.4082L22.738 30.4277L22.6803 30.4804L22.461 30.6828L21.6532 31.4345L21.6455 31.4414V31.4497C21.6929 31.888 21.7493 32.4205 21.8135 33.0154L21.8532 32.9863C21.4685 32.7436 21.0517 32.4704 20.6016 32.1806L20.5875 32.1723H20.5722L19.2513 32.8365L19.2975 32.8768L19.6091 31.3457C19.6091 31.3305 19.6168 31.3776 19.6014 31.3124L19.5924 31.3027L19.5771 31.2847L19.545 31.2473L19.4809 31.1724L19.3526 31.0254L19.1026 30.7341L18.6153 30.1656L18.5935 30.2238L20.0451 30.0629H20.0618L20.0695 30.0477C20.3259 29.554 20.5593 29.0922 20.7748 28.6692H20.7273C20.9517 29.2239 21.1466 29.7065 21.3121 30.1129V30.1226H21.3223L22.3751 30.3403L22.6585 30.3958L22.7329 30.4096H22.7598H22.738L22.6688 30.393L22.3931 30.3292L21.3339 30.0893L21.348 30.1032C21.1877 29.694 20.9953 29.2087 20.776 28.6539L20.7555 28.5999L20.7286 28.6512L20.0156 30.0255L20.04 30.0088L18.5832 30.1475H18.5178L18.5627 30.2002L19.05 30.7702C19.1355 30.8627 19.2189 30.9597 19.3001 31.0614L19.4283 31.2084L19.4911 31.2819L19.5232 31.3194L19.5386 31.3374L19.5463 31.3471L19.5386 31.3138C19.4296 31.8408 19.3244 32.3553 19.2218 32.8518L19.2065 32.9211L19.2667 32.892L20.5875 32.2277H20.5593L21.816 33.0265L21.8622 33.057L21.8558 32.9988C21.7865 32.4025 21.7275 31.8727 21.675 31.4359L21.6686 31.4539L22.4713 30.6704L22.6867 30.479L22.7393 30.4263L22.7598 30.4082Z" fill="#FAFAFA"/>
<path d="M17.6855 25.2091L17.665 25.2271L17.6073 25.2812L17.3906 25.4865L16.5827 26.2381L16.575 26.2451V26.2562C16.6212 26.6944 16.6776 27.2269 16.7417 27.8219L16.7815 27.7927L15.5299 26.987L15.5158 26.9787L15.5017 26.9856L14.1783 27.6457L14.2245 27.686L14.5425 26.1494C14.5425 26.1341 14.5515 26.1813 14.5348 26.1161L14.5271 26.1064L14.5117 26.087L14.4797 26.0509L14.4156 25.976L14.2873 25.829L14.0309 25.5392L13.5423 24.9706L13.5218 25.0288L14.9721 24.8791H14.9926L15.0003 24.8638C15.2568 24.3701 15.4902 23.9069 15.7069 23.4853H15.6594L16.2429 24.929V24.9387H16.2532L17.3008 25.1384L17.5842 25.1939L17.6586 25.2077H17.6855H17.6637L17.5945 25.1911L17.3201 25.1273L16.2609 24.8874L16.275 24.8999L15.703 23.452L15.6812 23.3979L15.6543 23.4493L14.9426 24.8236L14.9657 24.8056L13.5154 24.9526H13.4487L13.4949 25.0053L13.9821 25.5752C14.0655 25.6709 14.1476 25.768 14.2322 25.8665L14.3604 26.0135L14.4246 26.087L14.4553 26.1244L14.472 26.1424L14.4797 26.1521C14.463 26.0884 14.4797 26.1355 14.472 26.1202L14.154 27.6582L14.1399 27.7276L14.2001 27.6984L15.521 27.0328H15.5056L16.7558 27.844L16.8033 27.8732L16.7956 27.8163C16.7276 27.22 16.6674 26.6902 16.6161 26.252L16.6084 26.2714L17.4111 25.4865L17.6201 25.2812L17.6727 25.2285C17.6813 25.2156 17.6855 25.2091 17.6855 25.2091Z" fill="#FAFAFA"/>
<path d="M17.6855 37.9885L17.665 38.0065L17.6073 38.0592L17.388 38.2617L16.5802 39.0134H16.5725V39.0258C16.6186 39.4641 16.6751 39.9966 16.7392 40.5901L16.7789 40.5624L15.5312 39.7705L15.5171 39.7608L15.503 39.7692L14.1796 40.4293L14.2232 40.464L14.5438 38.9246C14.5438 38.9107 14.5528 38.9565 14.5361 38.8927L14.5284 38.883L14.513 38.865L14.481 38.8275L14.4169 38.754L14.2886 38.607L14.0322 38.3158L13.5436 37.7472L13.5231 37.8068L14.9734 37.6557H14.9926L15.0003 37.6404L15.7069 36.2633H15.6594L16.2403 37.6903V37.7014H16.2506L17.3008 37.9136L17.5842 37.9691L17.6586 37.9843H17.6855C17.6855 37.9843 17.6855 37.9843 17.6637 37.9843L17.5945 37.9691L17.3201 37.9053L16.2609 37.6654L16.275 37.6779C16.1134 37.2701 15.9223 36.7834 15.703 36.2286L15.6812 36.1746L15.6543 36.2259L14.9426 37.6002L14.9657 37.5836L13.5154 37.7292L13.4487 37.7361L13.4949 37.7888L13.9821 38.3574C14.0655 38.4545 14.1476 38.5515 14.2322 38.6486L14.3604 38.7956L14.4246 38.8705L14.4553 38.9066L14.472 38.926L14.4797 38.9385C14.463 38.8733 14.4797 38.9204 14.472 38.9066L14.154 40.4431L14.1399 40.5139L14.2001 40.4834L15.521 39.8191H15.5056L16.761 40.6179L16.8084 40.647L16.8007 40.5888C16.7328 39.9924 16.6725 39.4641 16.6212 39.0258L16.6135 39.0439L17.4163 38.2603L17.6253 38.0551L17.6779 38.0038C17.6807 37.9989 17.6833 37.9938 17.6855 37.9885Z" fill="#FAFAFA"/>
<path d="M26.4362 37.3893L26.4144 37.4074L26.3567 37.4601L26.1374 37.6626L25.3296 38.4142L25.3219 38.4225V38.4336C25.3693 38.8718 25.4257 39.4044 25.4898 39.9979L25.5296 39.9702L24.278 39.1645L24.2639 39.1561L24.2498 39.1631L22.9264 39.8232L22.9726 39.8634L23.2906 38.3254C23.2906 38.3116 23.2983 38.3587 23.2829 38.2936L23.2752 38.2852L23.2586 38.2658L23.2265 38.2298L23.1637 38.1549L23.0354 38.0079C22.95 37.9108 22.8666 37.8137 22.7854 37.7166C22.62 37.5239 22.4558 37.3353 22.2968 37.148L22.275 37.2077L23.7253 37.0579H23.742L23.7497 37.044L24.455 35.6656H24.4076C24.632 36.2203 24.8282 36.7015 24.9923 37.1078V37.1189H25.0026L26.0515 37.3269L26.3349 37.3824L26.4093 37.3977H26.4362H26.4144L26.3452 37.381L26.0695 37.3172L25.0103 37.0773L25.0256 37.0898C24.8641 36.6821 24.6717 36.1967 24.4524 35.6406L24.4319 35.5879L24.405 35.6392L23.692 37.0121L23.7164 36.9955L22.266 37.1411L22.1994 37.148L22.2442 37.2007L22.7328 37.7707L22.9816 38.062L23.1098 38.209L23.1727 38.2825L23.2047 38.3199L23.2201 38.3379L23.2291 38.3476C23.2124 38.2838 23.2291 38.3296 23.2201 38.3157C23.1124 38.8427 23.006 39.3572 22.9034 39.8537L22.8893 39.923L22.9495 39.8925L24.2703 39.2283H24.2408L25.5078 40.0201L25.554 40.0492L25.5476 39.991C25.4783 39.3961 25.4193 38.8663 25.3667 38.4281L25.3603 38.4475L26.1631 37.6639L26.3721 37.4587L26.4234 37.406L26.4362 37.3893Z" fill="#FAFAFA"/>
<path d="M7.81145 20.4937C7.80866 20.5172 7.80866 20.541 7.81145 20.5645L7.8371 20.7711V20.7628L6.81123 21.8806L6.77789 21.9166L6.82533 21.9235L8.27053 22.1149L8.24873 22.0983C8.45519 22.5254 8.68473 22.9969 8.92453 23.4948L8.9553 23.5572L8.98223 23.492C9.17587 23.0399 9.38232 22.5587 9.59391 22.0622L9.56954 22.083L9.63751 22.0705L11.0045 21.814L11.0699 21.8029L11.0212 21.7544L9.94912 20.6865L9.95938 20.7143C10.0338 20.1387 10.1017 19.6131 10.162 19.1541L10.1684 19.1028L10.1261 19.1277L8.86169 19.9099H8.87323L8.61676 19.7518C8.58818 19.7333 8.55864 19.7167 8.52828 19.7019C8.55425 19.725 8.58215 19.7454 8.61163 19.7629L8.8681 19.9307L10.1504 19.1735L10.1158 19.1472C10.053 19.6048 9.98117 20.129 9.90167 20.7059V20.7226L9.91321 20.7337L10.9814 21.8057L10.9981 21.7446L9.6311 21.9984L9.56185 22.0123H9.5439V22.0289C9.33231 22.5254 9.12714 23.0066 8.93479 23.4601H8.99249L8.31029 22.0733L8.30387 22.0581H8.28848L6.83687 21.8806L6.85098 21.9222L7.85762 20.7836C7.84223 20.6976 7.83069 20.6297 7.82299 20.5783C7.82139 20.5498 7.81753 20.5215 7.81145 20.4937Z" fill="#FAFAFA"/>
<path d="M8.05901 26.8467C8.05807 26.8564 8.05807 26.8661 8.05901 26.8758C8.05901 26.898 8.05132 26.9243 8.04619 26.9576C8.03593 27.0311 8.02055 27.1337 8.00131 27.2655C7.96156 27.5345 7.90642 27.9187 7.83589 28.4027V28.4138L7.84358 28.4221L8.90792 29.4969L8.92203 29.4483L7.48581 29.7104H7.47042L7.46273 29.7271L6.85105 31.1569H6.91004L6.23168 29.7617L6.20603 29.7423H6.18295H6.15986H6.1137L6.02009 29.7299L5.83671 29.7063L5.47125 29.6605L4.75955 29.569L4.77878 29.6286L5.79312 28.4984L5.80465 28.4859V28.4692C5.70207 27.9145 5.60589 27.3972 5.51741 26.9243L5.47894 26.9562L6.7895 27.6496H6.79847H6.80745L7.73202 27.0741L7.98079 26.9174L8.04619 26.8772L8.06927 26.8605L8.04876 26.8716L7.98592 26.9077L7.73843 27.0464L6.78821 27.6011H6.80617L5.50331 26.8994L5.45458 26.873L5.46484 26.9299C5.55075 27.4042 5.64437 27.9228 5.74567 28.4762L5.75336 28.4471C5.43021 28.8035 5.09039 29.1821 4.73518 29.5745L4.68902 29.6258L4.7557 29.6342L5.4674 29.7257L5.83287 29.7728L6.01624 29.7964L6.10857 29.8089H6.15602H6.1791H6.20218L6.17654 29.7909C6.40864 30.2679 6.63561 30.7339 6.85618 31.1777L6.88695 31.2415L6.91388 31.1763L7.523 29.7451L7.49991 29.7631L8.92459 29.508L8.97845 29.4969L8.9387 29.458L7.8641 28.393V28.4124C7.92437 27.9187 7.97182 27.5276 8.00516 27.253C8.02055 27.124 8.03337 27.0242 8.04234 26.9507C8.04234 26.9202 8.04234 26.8952 8.05004 26.8744C8.05376 26.8655 8.05676 26.8562 8.05901 26.8467Z" fill="#FAFAFA"/>
<path d="M4.34274 34.57L4.35684 34.595L4.39659 34.6657L4.54791 34.9306L5.11214 35.9014V35.9111H5.1224L6.57914 35.9707L6.55862 35.9235L5.63149 37.1384L5.62251 37.1523V37.1689C5.75075 37.6432 5.87898 38.1535 6.02517 38.6833L6.06749 38.6403L4.71205 38.0662C4.69795 38.0662 4.74283 38.0662 4.67999 38.0662L4.67102 38.0745L4.65049 38.0883L4.61203 38.1161L4.53509 38.1729L4.38121 38.2853L4.07729 38.5085L3.48357 38.944L3.53486 38.9759C3.56436 38.4212 3.59128 37.9011 3.61821 37.4019V37.3852L3.60539 37.3741L2.45128 36.4103L2.4423 36.4602L3.85288 36.0553H3.86314V36.0442C4.01318 35.581 4.13115 35.2121 4.2145 34.9556C4.25426 34.8307 4.28503 34.7323 4.30811 34.6616L4.33248 34.5839L4.34017 34.5562L4.33119 34.5783C4.33119 34.5978 4.3158 34.6213 4.30554 34.6491L4.20681 34.9348C4.11576 35.1927 3.98753 35.563 3.82211 36.0303L3.83621 36.0262L2.42563 36.4172L2.37306 36.4325L2.41666 36.4686L3.56307 37.4393L3.55153 37.4116C3.5246 37.9094 3.4951 38.435 3.46433 38.9842V39.055L3.51948 39.0147L4.11319 38.5807L4.41839 38.3574L4.57099 38.2451L4.64922 38.1882L4.68769 38.1605L4.70692 38.1466L4.7159 38.1397H4.68512L6.04184 38.7138L6.10339 38.7388L6.08544 38.6708L5.67894 37.1578L5.67253 37.1869C6.00465 36.7487 6.3137 36.3354 6.59325 35.9665L6.62787 35.9208H6.57401L5.11727 35.8764L5.13394 35.8861C4.87747 35.4701 4.67999 35.14 4.54022 34.9084L4.38377 34.6546L4.34402 34.5908C4.34915 34.5756 4.34274 34.5686 4.34274 34.57Z" fill="#FAFAFA"/>
<path d="M39.493 35.979C39.493 35.979 39.493 35.9901 39.493 36.0081C39.493 36.0262 39.493 36.0567 39.5032 36.0899L39.5455 36.3978C39.584 36.6682 39.6379 37.0524 39.7058 37.5378V37.5516H39.7161L41.0318 38.2284V38.1771L39.7366 38.8968L39.7212 38.9052V38.9232C39.6635 39.4114 39.6007 39.9383 39.5366 40.4847L39.5917 40.4639L38.5568 39.3545L38.5261 39.3448H38.5158H38.5043H38.4812L38.435 39.3545L38.344 39.3739L38.1606 39.4113L37.8003 39.4862L37.0963 39.6249L37.1309 39.6762L37.7823 38.2672L37.79 38.2506L37.7823 38.2353C37.5258 37.7416 37.2925 37.2798 37.077 36.8569L37.0488 36.8998L38.4902 37.1301H38.5004L38.5081 37.1217L39.2288 36.2924L39.4224 36.0622L39.4724 36.0012L39.4904 35.979C39.4904 35.979 39.4904 35.979 39.4737 35.9956L39.425 36.0511L39.2288 36.2688L38.4786 37.1134H38.4966L37.0603 36.8582L37.0065 36.8485L37.0321 36.9012L37.731 38.288V38.2575L37.0745 39.6651L37.045 39.7289L37.1104 39.7151L37.8156 39.5764L38.176 39.5015L38.3581 39.464L38.4504 39.4446L38.4953 39.4363H38.5184H38.5299H38.5415L38.512 39.4266L39.5481 40.536L39.5955 40.586L39.6045 40.5152L39.784 38.9384L39.7674 38.9648L41.06 38.2367L41.1087 38.2104L41.0587 38.1854L39.7379 37.5211L39.7494 37.5378C39.6686 37.0468 39.6058 36.6585 39.5609 36.3853C39.5387 36.2578 39.522 36.1579 39.5109 36.0858L39.4981 36.0095C39.4979 35.9991 39.4962 35.9888 39.493 35.979Z" fill="#FAFAFA"/>
<path d="M14.3899 15.0646C13.9268 14.7962 13.5601 14.3678 13.3484 13.8478C13.1366 13.3277 13.092 12.746 13.2217 12.1953C13.3499 11.7044 13.6179 11.2592 13.6974 10.7558C13.8256 9.97365 13.4768 9.20952 13.2524 8.45371C13.028 7.6979 12.9652 6.75765 13.5089 6.22373C13.8616 5.87841 14.3758 5.80769 14.7733 5.53033C15.1708 5.25296 15.4145 4.8078 15.6709 4.39176C15.9274 3.97571 16.2493 3.55967 16.6968 3.40574C17.1443 3.2518 17.7227 3.5042 17.7932 4.00206" fill="#263238"/>
<path d="M21.1709 3.50133C20.563 2.8523 20.6156 1.68877 21.158 0.974568C21.7005 0.260363 22.6097 -0.0378007 23.4663 0.00380347C24.0859 0.044383 24.6878 0.24311 25.2228 0.583712C25.7577 0.924313 26.2104 1.3971 26.5439 1.96336C26.8978 2.57633 27.135 3.32382 27.7057 3.69964C28.2071 4.0297 28.8444 3.98532 29.3984 4.19889C30.1409 4.47625 30.6807 5.22374 30.9269 6.03225C31.1731 6.84076 31.1706 7.71444 31.0962 8.56178C31.0282 9.33978 30.9167 10.1857 31.2924 10.8528C31.6681 11.5198 32.3875 11.793 32.9005 12.3159C33.8673 13.2977 33.8712 15.1727 32.9069 16.1587C32.6004 16.4721 32.1977 16.7328 32.081 17.1725C31.9746 17.5732 32.1464 17.9934 32.1823 18.4081C32.276 19.4787 31.2847 20.4883 30.2986 20.3261C29.8023 20.2428 29.3189 19.91 28.8329 20.0487C28.3469 20.1874 28.075 20.713 27.7095 21.0805C27.3401 21.4315 26.8705 21.6348 26.3792 21.6562C25.8878 21.6777 25.4046 21.516 25.0102 21.1984C24.6871 20.921 24.4101 20.5285 24.0048 20.4633C23.5996 20.3982 23.2111 20.6949 22.8007 20.6866C22.2647 20.6741 21.8582 20.1499 21.6466 19.6188C21.435 19.0876 21.3273 18.4941 21.0055 18.0267C20.5913 17.4138 19.8949 17.1239 19.2935 16.7315C18.629 16.2959 18.0586 15.7112 17.6208 15.0168C17.1831 14.3224 16.8882 13.5346 16.7561 12.7064C16.624 11.8783 16.6577 11.0291 16.8549 10.2163C17.0522 9.40343 17.4085 8.64581 17.8996 7.99458" fill="#263238"/>
<path d="M19.4218 4.14206C19.1347 4.10965 18.8468 4.19478 18.6149 4.38064C18.3829 4.56651 18.2238 4.83962 18.1689 5.1461L15.5594 21.7711C15.199 23.7224 17.6111 25.4281 19.5449 25.8289C21.4992 26.2325 21.7672 25.216 22.1609 23.3715C22.8174 20.29 23.0457 19.1279 23.0431 19.1459C23.0406 19.1639 25.5886 19.2721 26.7824 15.9202C27.3749 14.256 27.8532 11.4075 28.1738 9.06522C28.4636 6.95589 27.6916 4.10877 25.7309 3.8855L19.4218 4.14206Z" fill="#B78876"/>
<path d="M27.0209 11.144C26.9992 11.2602 26.9364 11.3626 26.8458 11.4294C26.7553 11.4963 26.6442 11.5222 26.5362 11.5018C26.4829 11.4944 26.4315 11.4754 26.3851 11.4461C26.3387 11.4168 26.2982 11.3777 26.266 11.3311C26.2339 11.2846 26.2107 11.2315 26.1978 11.175C26.185 11.1186 26.1828 11.0599 26.1913 11.0025C26.213 10.8864 26.2759 10.7839 26.3664 10.7171C26.4569 10.6503 26.568 10.6243 26.676 10.6447C26.7292 10.6524 26.7805 10.6714 26.8268 10.7008C26.8732 10.7302 26.9136 10.7693 26.9457 10.8158C26.9779 10.8623 27.0011 10.9153 27.014 10.9717C27.0269 11.028 27.0293 11.0866 27.0209 11.144Z" fill="#263238"/>
<path d="M27.3172 10.6961C27.2543 10.7432 26.9915 10.4187 26.5478 10.3203C26.1041 10.2218 25.7335 10.3841 25.6963 10.3203C25.6783 10.2884 25.7514 10.1968 25.9143 10.1178C26.1341 10.0186 26.3768 9.99534 26.6093 10.0512C26.8397 10.1031 27.049 10.2328 27.2069 10.4215C27.321 10.5616 27.3467 10.6767 27.3172 10.6961Z" fill="#263238"/>
<path d="M22.611 10.1164C22.5892 10.2326 22.5264 10.335 22.4358 10.4018C22.3453 10.4687 22.2342 10.4946 22.1262 10.4742C22.073 10.4666 22.0217 10.4475 21.9754 10.4182C21.9291 10.3888 21.8887 10.3497 21.8565 10.3032C21.8244 10.2566 21.8012 10.2036 21.7882 10.1473C21.7753 10.0909 21.773 10.0323 21.7813 9.97495C21.803 9.85876 21.8659 9.75635 21.9564 9.68952C22.047 9.62269 22.158 9.59673 22.266 9.61716C22.3193 9.6246 22.3707 9.64354 22.4171 9.67285C22.4635 9.70217 22.504 9.74127 22.5362 9.78784C22.5684 9.8344 22.5915 9.88748 22.6044 9.94392C22.6172 10.0004 22.6195 10.059 22.611 10.1164Z" fill="#263238"/>
<path d="M22.9432 9.6255C22.8803 9.67265 22.6174 9.34814 22.1738 9.24967C21.7301 9.15121 21.3595 9.31347 21.3236 9.24967C21.3043 9.21916 21.3774 9.12625 21.5403 9.0472C21.7604 8.9477 22.0037 8.92444 22.2366 8.98063C22.4669 9.03274 22.6758 9.16294 22.8329 9.3523C22.9534 9.49098 22.9791 9.60608 22.9432 9.6255Z" fill="#263238"/>
<path d="M23.8549 13.4114C23.8549 13.3836 24.1434 13.3961 24.6012 13.4363C24.7166 13.4502 24.8282 13.4502 24.8641 13.3712C24.8997 13.2474 24.8997 13.1149 24.8641 12.9912C24.8154 12.6722 24.7654 12.3352 24.7128 11.9844C24.5102 10.5518 24.3896 9.3841 24.4422 9.37578C24.4948 9.36746 24.6987 10.5227 24.9064 11.9538C24.9539 12.3075 24.9988 12.6473 25.0424 12.9648C25.0577 13.1132 25.1001 13.288 25.0064 13.4571C24.9818 13.4971 24.9489 13.5304 24.9105 13.5544C24.872 13.5785 24.8289 13.5926 24.7846 13.5958C24.7184 13.6006 24.652 13.5954 24.5871 13.5806C24.1293 13.5015 23.8511 13.4391 23.8549 13.4114Z" fill="#263238"/>
<path d="M23.0432 19.146C21.5279 18.8229 20.1255 18.0509 18.9923 16.916C18.9923 16.916 19.5937 19.6147 22.8675 20.0308L23.0432 19.146Z" fill="#AA6550"/>
<path d="M23.4394 14.5223C23.3781 14.388 23.286 14.2729 23.172 14.1879C23.058 14.103 22.9258 14.051 22.7879 14.0369C22.6885 14.0238 22.5876 14.0326 22.4913 14.0626C22.395 14.0926 22.3053 14.1433 22.2276 14.2116C22.1527 14.2779 22.0984 14.3674 22.0721 14.4681C22.0457 14.5688 22.0485 14.6758 22.0801 14.7747C22.1634 14.9841 22.4045 15.0839 22.6289 15.0673C22.8549 15.0359 23.0729 14.9562 23.2701 14.8329C23.3279 14.8064 23.3805 14.7682 23.4253 14.7206C23.4465 14.6977 23.4612 14.6685 23.4673 14.6367C23.4735 14.6049 23.4709 14.5719 23.4599 14.5417" fill="#AA6550"/>
<path d="M22.4866 13.4419C22.5597 13.4544 22.4584 13.973 22.7969 14.4376C23.1355 14.9022 23.6574 14.9618 23.6471 15.0353C23.6471 15.07 23.5189 15.1102 23.2958 15.0658C23.0135 15.0059 22.76 14.8399 22.5802 14.5971C22.4064 14.3626 22.3241 14.0641 22.3507 13.765C22.375 13.5473 22.4546 13.4308 22.4866 13.4419Z" fill="#263238"/>
<path d="M23.3124 8.70617C23.2432 8.82544 22.8136 8.66179 22.2866 8.61048C21.7595 8.55917 21.303 8.61048 21.2607 8.48151C21.2414 8.4191 21.3389 8.3137 21.5325 8.22634C21.7889 8.12365 22.0636 8.08564 22.3356 8.1152C22.6076 8.14476 22.8698 8.24112 23.1021 8.39691C23.2675 8.51757 23.3432 8.64099 23.3124 8.70617Z" fill="#263238"/>
<path d="M27.4313 9.83346C27.3313 9.92499 27.0466 9.74194 26.6837 9.65179C26.3208 9.56165 25.9925 9.56858 25.9425 9.43822C25.922 9.37582 25.9925 9.27736 26.1489 9.20663C26.3555 9.1255 26.5798 9.11251 26.7932 9.16929C27.0066 9.22607 27.1997 9.35007 27.3479 9.52559C27.4518 9.66705 27.4723 9.78909 27.4313 9.83346Z" fill="#263238"/>
<path d="M21.7518 3.50416C21.1234 2.79966 20.2207 2.33092 19.3153 2.39471C18.41 2.45851 17.5329 3.12972 17.3162 4.05888C17.1751 4.66769 17.2892 5.37496 16.9315 5.86173C16.5878 6.33185 15.9556 6.40813 15.4619 6.69381C15.0801 6.92298 14.7801 7.28356 14.6096 7.71826C14.439 8.15296 14.4078 8.63684 14.5207 9.09298C14.7322 9.8696 15.367 10.5505 15.2721 11.3493C15.1823 12.101 14.4835 12.5891 14.1988 13.2825C13.8846 14.048 14.1295 14.9717 14.6104 15.6401C15.0913 16.3085 15.7761 16.7745 16.4455 17.2252C16.9674 17.5775 17.529 17.9436 18.1446 17.9353C18.8781 17.9269 19.541 17.3473 19.7872 16.6178C20.0335 15.8883 19.9001 15.0479 19.5372 14.3684C19.223 13.7832 18.728 13.2312 18.7588 12.5655C18.805 11.5213 20.0809 10.9513 20.2155 9.91675C20.2861 9.38283 20.0296 8.86832 19.8308 8.37046C19.6321 7.8726 19.491 7.27072 19.7642 6.81862C20.1194 6.23062 20.9324 6.24448 21.4966 5.88391C21.73 5.73159 21.9197 5.51224 22.0446 5.25027C22.1696 4.9883 22.2249 4.69398 22.2045 4.40003C22.1735 4.10417 22.0688 3.82294 21.9017 3.58629C21.7346 3.34965 21.5113 3.16645 21.2555 3.05622" fill="#263238"/>
<path d="M21.562 2.64292C21.4917 2.991 21.493 3.35156 21.5659 3.69901C21.6389 4.04647 21.7816 4.37231 21.984 4.65343C22.1864 4.93454 22.4436 5.16404 22.7372 5.32564C23.0308 5.48724 23.3537 5.57698 23.683 5.5885C24.1959 5.60514 24.782 5.4623 25.15 5.84367C25.5347 6.24446 25.4065 6.97531 25.7322 7.4385C26.1913 8.10139 27.1889 7.81293 27.8609 8.21095C28.3738 8.51743 28.6111 9.17062 28.8868 9.73643C29.1625 10.3023 29.619 10.8916 30.2089 10.8459C30.2998 10.3017 30.333 9.74795 30.3076 9.19558C30.2793 8.63912 30.0746 8.11018 29.728 7.69783C29.5305 7.48288 29.283 7.32201 29.1073 7.08625C28.7226 6.57729 28.7611 5.85338 28.588 5.22654C28.4733 4.82251 28.2712 4.45387 27.9985 4.15118C27.7257 3.8485 27.3902 3.6205 27.0197 3.4861C26.4029 3.26976 25.7117 3.32246 25.1308 3.01181C24.7012 2.78161 24.3678 2.37111 23.9267 2.16864C23.0662 1.77478 22.0942 2.27681 21.3055 2.81766" fill="#263238"/>
<path d="M21.7133 13.9011C21.7261 13.9149 21.7646 13.901 21.7992 13.8594C21.8338 13.8178 21.8505 13.7818 21.8377 13.7665C21.8248 13.7513 21.7864 13.7665 21.7518 13.8081C21.7171 13.8497 21.7005 13.8872 21.7133 13.9011Z" fill="#263238"/>
<path d="M32.5031 17.7299H32.4505L32.294 17.741C32.0949 17.7479 31.8956 17.7391 31.6977 17.7146C31.3847 17.6723 31.0779 17.587 30.7847 17.4609C30.3962 17.2954 30.0373 17.058 29.7242 16.7591C29.3462 16.3951 29.0453 15.9471 28.842 15.4458C28.6078 14.8713 28.5036 14.2448 28.5381 13.618C28.5778 12.9551 28.8061 12.295 29.0164 11.6085C29.1302 11.2589 29.216 10.8993 29.2728 10.5338C29.3262 10.1531 29.3166 9.76528 29.2446 9.38826C29.1756 9.00588 29.0008 8.65523 28.7432 8.38283C28.6139 8.25418 28.4657 8.14968 28.3047 8.07357C28.1471 8.00154 27.9841 7.94447 27.8174 7.903C27.4904 7.81701 27.1634 7.76431 26.862 7.65476C26.7135 7.60049 26.5718 7.52642 26.4401 7.43425C26.3145 7.33969 26.204 7.22351 26.1131 7.09033C25.9457 6.82521 25.8225 6.53046 25.749 6.21941C25.6656 5.91848 25.5989 5.61893 25.5092 5.3374C25.3487 4.80634 25.0445 4.33962 24.6359 3.99775C24.2997 3.71555 23.9024 3.53083 23.4818 3.46105C23.1659 3.41081 22.8443 3.42397 22.5328 3.49989C22.3366 3.54764 22.1466 3.62171 21.9673 3.72039C21.9045 3.75285 21.8441 3.7904 21.7865 3.83272C21.7865 3.83272 21.8494 3.79528 21.9737 3.73287C22.154 3.6415 22.3433 3.57264 22.538 3.52762C22.8464 3.45733 23.164 3.4484 23.4754 3.50127C23.8878 3.57372 24.2762 3.75894 24.6038 4.03935C25.0034 4.37618 25.3001 4.83522 25.4553 5.35682C25.5425 5.63418 25.6066 5.93373 25.69 6.23744C25.765 6.55625 25.8908 6.85848 26.0618 7.13054C26.156 7.26976 26.2708 7.39113 26.4017 7.48973C26.5378 7.58616 26.6848 7.66352 26.8389 7.71994C27.148 7.83365 27.4801 7.88635 27.7994 7.97234C27.9622 8.01247 28.1215 8.06816 28.2752 8.13875C28.4297 8.2117 28.5718 8.312 28.6958 8.43553C28.9435 8.69877 29.1113 9.03738 29.1767 9.40629C29.2474 9.7741 29.257 10.1526 29.2049 10.5241C29.1462 10.8856 29.0605 11.2413 28.9484 11.5877C28.7394 12.2728 28.5086 12.9399 28.4701 13.6152C28.4366 14.2526 28.5448 14.8893 28.7855 15.4722C28.9927 15.9799 29.2989 16.4331 29.6832 16.8007C30.0377 17.1374 30.4501 17.3951 30.8967 17.5593C31.3434 17.7235 31.8156 17.7909 32.2863 17.7576L32.4415 17.7396C32.4623 17.7388 32.4829 17.7355 32.5031 17.7299Z" fill="#455A64"/>
<path d="M26.249 1.36969C26.236 1.35231 26.2209 1.33691 26.2041 1.32393C26.1607 1.28115 26.1148 1.24132 26.0669 1.20466C25.8913 1.06586 25.7005 0.951263 25.4988 0.863506C24.8286 0.561213 24.078 0.542117 23.3954 0.809998C22.7129 1.07788 22.1482 1.6132 21.8133 2.30995C21.7111 2.51735 21.6332 2.73769 21.5812 2.9659C21.5659 3.02703 21.5539 3.08908 21.5453 3.15174C21.5401 3.17344 21.5379 3.19589 21.5389 3.2183C21.6132 2.91138 21.7195 2.61456 21.8557 2.33352C22.0082 2.03266 22.2043 1.76017 22.4366 1.5264C22.7168 1.23523 23.0503 1.01076 23.4156 0.86745C23.7809 0.724138 24.1699 0.665161 24.5576 0.694315C24.8744 0.712899 25.1865 0.785927 25.4821 0.910657C25.7532 1.03139 26.0105 1.18541 26.249 1.36969Z" fill="#455A64"/>
<path d="M17.0059 17.4276L16.9674 17.4054L16.8507 17.3458C16.7043 17.2673 16.563 17.1783 16.4275 17.0795C15.9257 16.7145 15.5197 16.2152 15.249 15.6303C15.1623 15.4376 15.0899 15.2377 15.0323 15.0326C14.974 14.8087 14.9354 14.5793 14.9169 14.3475C14.8788 13.8346 14.9386 13.3187 15.0926 12.8318C15.2608 12.2932 15.5437 11.8048 15.9184 11.4061C16.1121 11.1981 16.3275 11.004 16.5339 10.7918C16.7503 10.5802 16.935 10.3337 17.0815 10.0609C17.37 9.49511 17.4265 8.85579 17.4572 8.2664C17.4726 7.96823 17.4778 7.677 17.4957 7.39271C17.5123 7.11519 17.5479 6.83939 17.6021 6.56756C17.6547 6.31011 17.7369 6.06083 17.8471 5.82562C17.952 5.60535 18.0958 5.40938 18.2702 5.24871C18.6101 4.93668 19.0294 4.82296 19.3949 4.72449C19.734 4.65552 20.0663 4.55197 20.3874 4.41524C20.6295 4.3049 20.8478 4.14152 21.0286 3.9354C21.1415 3.80345 21.2245 3.64486 21.2709 3.47221C21.2833 3.42692 21.2919 3.3805 21.2966 3.33353C21.2983 3.31787 21.2983 3.30204 21.2966 3.28638C21.2966 3.28638 21.2889 3.35017 21.2542 3.46528C21.2031 3.63313 21.1182 3.78661 21.0055 3.9146C20.8228 4.11343 20.6046 4.27007 20.3643 4.37502C20.044 4.50702 19.713 4.60638 19.3756 4.6718C19.0076 4.76749 18.5806 4.87982 18.2215 5.20017C18.0472 5.36682 17.9044 5.56838 17.8009 5.79372C17.6866 6.03308 17.6004 6.287 17.5444 6.54953C17.489 6.82357 17.4525 7.1017 17.4354 7.38161C17.4162 7.66868 17.4098 7.95991 17.3944 8.25669C17.3636 8.84469 17.3059 9.47153 17.0264 10.0207C16.7468 10.5699 16.2634 10.9291 15.8723 11.3507C15.491 11.7574 15.204 12.2559 15.0349 12.8054C14.8806 13.3032 14.8226 13.83 14.8643 14.3531C14.8876 14.5879 14.9305 14.82 14.9926 15.0465C15.0522 15.2547 15.1273 15.4574 15.217 15.6525C15.4931 16.2408 15.9069 16.7404 16.4173 17.1017C16.555 17.1992 16.6995 17.2849 16.8494 17.3583L16.9674 17.411C16.9796 17.4181 16.9925 17.4237 17.0059 17.4276Z" fill="#455A64"/>
<path d="M13.5268 8.86254C13.5268 8.86254 13.5345 8.86254 13.5512 8.87502C13.5678 8.8875 13.5922 8.89166 13.6255 8.90137C13.7235 8.92824 13.8247 8.93853 13.9256 8.93188C14.1113 8.91208 14.2916 8.85289 14.4562 8.75771C14.6208 8.66253 14.7664 8.53322 14.8848 8.37716C15.0473 8.16274 15.1772 7.92164 15.2695 7.66295C15.3739 7.36836 15.4621 7.06736 15.5337 6.76153C15.6117 6.42638 15.7155 6.09888 15.844 5.78244C15.9847 5.44612 16.2017 5.1537 16.4749 4.93233C16.7527 4.71699 17.0642 4.55773 17.3943 4.4622C17.7029 4.371 18.0176 4.30609 18.3356 4.26805C18.8787 4.22345 19.4193 4.14847 19.9552 4.04339C20.3169 3.97015 20.664 3.82937 20.9811 3.62735C21.0966 3.5516 21.2037 3.4618 21.3004 3.35969C21.3004 3.35276 21.1901 3.46093 20.9669 3.60238C20.6479 3.7958 20.3012 3.92987 19.9411 3.99901C19.4884 4.10302 18.937 4.13769 18.324 4.20703C18.0027 4.24425 17.6846 4.3087 17.3725 4.3998C17.0345 4.49673 16.7156 4.65932 16.4313 4.87963C16.1498 5.10847 15.9262 5.41039 15.7812 5.75748C15.6513 6.07762 15.5474 6.4094 15.4708 6.74904C15.4009 7.05309 15.3153 7.35265 15.2144 7.64631C15.1253 7.90006 15.0003 8.13727 14.8438 8.34942C14.6134 8.65728 14.2814 8.85621 13.9179 8.90414C13.7863 8.91415 13.6541 8.90009 13.5268 8.86254Z" fill="#455A64"/>
<path d="M13.1205 37.313L16.0288 38.4751C16.0288 38.4751 17.1316 38.005 17.356 37.9731C17.6458 37.9315 19.8194 38.7178 21.3864 39.3044C22.4123 39.6886 23.2099 40.3945 23.5408 41.5122L11.8279 41.4692L13.1205 37.313Z" fill="#B78876"/>
<path d="M38.3903 33.0985L37.4593 32.3967L32.5377 41.6717L32.2094 43.236L33.6379 42.4608L38.3903 33.0985Z" fill="#455A64"/>
<path d="M32.6696 42.9865L32.3221 42.6953L32.2093 43.2362L32.6696 42.9865Z" fill="#263238"/>
<path d="M32.5375 41.6718C32.5375 41.6815 32.5888 41.6594 32.6658 41.658C32.6879 41.6566 32.7101 41.6608 32.7306 41.6701C32.751 41.6795 32.7692 41.6939 32.7837 41.7121C32.8172 41.7639 32.8339 41.8264 32.8312 41.8896V41.9339L32.8709 41.9228C32.9119 41.9083 32.9553 41.9038 32.9981 41.9095C33.0409 41.9153 33.082 41.9312 33.1184 41.9561C33.1833 42.0139 33.2284 42.0935 33.2467 42.1822L33.2531 42.2113H33.2787C33.3405 42.2041 33.403 42.2131 33.4608 42.2377C33.5055 42.2571 33.5438 42.2904 33.5711 42.3333C33.6173 42.4068 33.6237 42.472 33.6314 42.4637C33.6391 42.4554 33.6468 42.4027 33.6032 42.3112C33.5761 42.257 33.5345 42.2131 33.4839 42.185C33.4185 42.1527 33.3466 42.1389 33.2749 42.1447L33.3082 42.1725C33.2908 42.0625 33.2359 41.9635 33.1543 41.8951C33.11 41.864 33.0597 41.8443 33.0072 41.8376C32.9547 41.8309 32.9015 41.8373 32.8517 41.8563L32.8902 41.8882C32.8917 41.8092 32.8666 41.7323 32.8196 41.6718C32.7995 41.6493 32.7747 41.6323 32.7473 41.6222C32.7198 41.6121 32.6906 41.6091 32.6619 41.6136C32.6158 41.6181 32.5722 41.6385 32.5375 41.6718Z" fill="#263238"/>
<path d="M38.3902 33.0986C38.442 32.9721 38.4516 32.8302 38.4175 32.6969C38.3834 32.5636 38.3076 32.4473 38.203 32.3677C37.7593 32.0224 37.4592 32.3968 37.4592 32.3968L38.3902 33.0986Z" fill="#263238"/>
<path d="M38.194 32.6602L33.2839 42.1751C33.2839 42.1751 33.2698 41.7507 32.8658 41.8977L37.9465 32.3967L38.194 32.6602Z" fill="#263238"/>
<path d="M33.8199 36.911C34.0338 36.7835 34.2685 36.702 34.5111 36.6711C34.6325 36.6577 34.7548 36.682 34.8639 36.7412C34.9729 36.8004 35.0641 36.892 35.1266 37.0053C35.1591 37.0863 35.1763 37.1735 35.1774 37.2618C35.1785 37.3502 35.1634 37.4378 35.133 37.5198C35.0721 37.6837 34.9877 37.8363 34.883 37.9719C34.7481 38.1832 34.5765 38.3641 34.3777 38.5044C34.2697 38.5895 34.1404 38.6372 34.0069 38.6413C33.8733 38.6454 33.7417 38.6056 33.6294 38.5273C33.5172 38.4489 33.4294 38.3356 33.3778 38.2024C33.3262 38.0691 33.3132 37.922 33.3403 37.7805C33.3931 37.4357 33.5644 37.1251 33.8199 36.911Z" fill="#B78876"/>
<path d="M37.1348 35.6405C37.1348 35.6405 37.9042 35.4103 38.1735 36.1592C38.1735 36.1592 39.2917 36.8526 39.2917 37.944C39.5725 38.3528 39.7297 38.8454 39.7418 39.3544V39.7705C39.7415 40.0127 39.6878 40.2514 39.5852 40.4667C39.4827 40.6821 39.3341 40.8679 39.1519 41.0089C38.8644 41.2487 38.5443 41.4391 38.203 41.5733C37.9888 41.6332 37.7675 41.6585 37.5465 41.6482C37.4912 41.6463 37.4374 41.6287 37.3904 41.5972C37.3434 41.5656 37.305 41.5212 37.279 41.4685C37.253 41.4157 37.2403 41.3565 37.2422 41.2967C37.2441 41.237 37.2606 41.1788 37.29 41.1281L37.3951 40.9811C37.3951 40.9811 36.7873 41.4346 36.3359 41.3972C36.3359 41.3972 35.7178 41.375 35.5409 40.9659C35.4755 40.8133 34.3162 41.3112 34.1841 40.6483C34.1841 40.6483 33.5186 40.7066 33.3852 40.3612C33.2519 40.0159 33.4122 39.4973 33.6776 39.1797C33.9431 38.8621 37.1348 35.6405 37.1348 35.6405Z" fill="#B78876"/>
<path d="M37.4476 37.3518C37.4015 37.3902 37.3586 37.4329 37.3194 37.4794C37.2309 37.5751 37.1168 37.6971 36.9821 37.8441C36.6962 38.1506 36.2974 38.5694 35.8447 39.0174C35.392 39.4653 34.9676 39.8564 34.6598 40.1351L34.2944 40.4666C34.2476 40.5041 34.2046 40.5469 34.1661 40.5942C34.218 40.5645 34.267 40.5292 34.3123 40.4888C34.4034 40.4166 34.5329 40.3099 34.697 40.1753C35.0137 39.9049 35.442 39.5194 35.8973 39.0659C36.3525 38.6124 36.7462 38.1922 37.0232 37.8746C37.1617 37.7165 37.272 37.5862 37.3463 37.4946C37.3843 37.4507 37.4182 37.4028 37.4476 37.3518Z" fill="#AA6550"/>
<path d="M35.5409 40.9368C35.5511 40.9521 36.1179 40.5028 36.8053 39.9342C37.4926 39.3656 38.0427 38.8899 38.0312 38.8746C38.0197 38.8594 37.4529 39.3073 36.7655 39.8773C36.0782 40.4473 35.5293 40.9202 35.5409 40.9368Z" fill="#AA6550"/>
<path d="M37.2194 41.0949C37.3066 41.0466 37.3891 40.989 37.4656 40.923C37.6144 40.8106 37.817 40.6525 38.0337 40.4681C38.2208 40.3116 38.3989 40.143 38.5672 39.9633C38.6416 39.8933 38.7067 39.8126 38.7608 39.7234C38.6801 39.7835 38.6046 39.8512 38.5351 39.9259C38.4069 40.0548 38.2094 40.2282 37.9927 40.4112C37.7218 40.6212 37.4635 40.8496 37.2194 41.0949Z" fill="#AA6550"/>
<path d="M23.5111 21.4313C22.8533 22.6794 21.4299 23.3215 20.1001 23.2244C18.7546 23.1009 17.4908 22.4753 16.5249 21.4548C15.953 20.8599 15.7696 19.5272 15.2644 19.652C14.7938 19.7657 14.4296 21.4548 14.3796 21.9777C14.3039 22.7626 14.5783 23.5531 15.013 24.1869C15.4478 24.8206 16.0389 25.3143 16.6403 25.7512C17.788 26.5763 19.0845 27.2392 20.4617 27.3086C21.8389 27.3779 23.3008 26.7538 24.0266 25.4932C24.7524 24.2326 24.5024 22.3188 23.3226 21.5491" fill="#FFCB00"/>
<path d="M20.0193 26.1799C19.9938 26.1559 19.9663 26.1346 19.9372 26.1161L19.6936 25.9456L18.7959 25.3326V25.3811L20.159 24.8264H20.1744V24.8098C20.2796 24.3355 20.3963 23.8182 20.5168 23.2843L20.4591 23.2981L20.4668 23.3079L20.4822 23.3287L20.5117 23.3689L20.572 23.4479L20.6912 23.6074L20.9246 23.918L21.3709 24.5116L21.3811 24.5255H21.4042L22.8558 24.3951L22.8327 24.3549L22.2621 25.3257L22.1095 25.5919C22.0906 25.6229 22.0739 25.6553 22.0595 25.689C22.0825 25.662 22.1031 25.6328 22.121 25.6016C22.1621 25.5351 22.2172 25.4491 22.2852 25.3423L22.8686 24.3771L22.8969 24.3313H22.8468L21.3939 24.4464L21.4209 24.4589L20.9772 23.864L20.7438 23.5519L20.6258 23.3938L20.5655 23.3134L20.5348 23.2732L20.5207 23.2524L20.513 23.2427C20.5258 23.2427 20.4027 23.2704 20.454 23.2565C20.3347 23.7974 20.2206 24.3147 20.1154 24.789L20.1347 24.7654L18.7767 25.3368L18.7292 25.3562L18.7728 25.3839L19.6871 25.9775L19.9372 26.1356C19.9633 26.153 19.9907 26.1678 20.0193 26.1799Z" fill="#FAFAFA"/>
<path d="M22.5123 26.8634C22.5211 26.773 22.5365 26.6835 22.5584 26.5957C22.6377 26.3595 22.773 26.1501 22.9508 25.9883C23.1676 25.7706 23.483 25.6 23.828 25.3961C24.0109 25.2905 24.1828 25.1641 24.3409 25.0189C24.5877 24.7812 24.7724 24.4774 24.8763 24.1381C24.9803 23.7988 25 23.4358 24.9333 23.0857C24.8535 22.7155 24.7156 22.3627 24.5256 22.0428C24.4043 21.8247 24.251 21.6293 24.0716 21.4645C24.0211 21.4209 23.967 21.3824 23.91 21.3494C23.8913 21.3367 23.871 21.3269 23.8498 21.3203C23.8498 21.3272 23.9293 21.3702 24.0549 21.4867C24.2265 21.6566 24.3734 21.8535 24.4909 22.0706C24.6706 22.3884 24.8006 22.7361 24.8756 23.0996C24.9581 23.5474 24.8951 24.0122 24.6974 24.4157C24.5963 24.6242 24.4622 24.812 24.3011 24.9704C24.1462 25.1124 23.9782 25.237 23.7997 25.342C23.4586 25.5473 23.1381 25.7276 22.9201 25.955C22.7395 26.1243 22.6062 26.3448 22.5354 26.5916C22.5111 26.6796 22.5032 26.772 22.5123 26.8634Z" fill="#263238"/>
<path d="M15.7414 18.6479C15.7305 18.6486 15.7197 18.6509 15.7094 18.6549L15.617 18.6854C15.4981 18.725 15.383 18.777 15.2734 18.8407C15.1011 18.9436 14.942 19.0704 14.8002 19.2179C14.6098 19.4115 14.4492 19.6367 14.3244 19.885C13.9888 20.5334 13.8675 21.2863 13.9808 22.0193C14.0553 22.4468 14.1962 22.8575 14.3975 23.2341C14.6133 23.6373 14.881 24.0052 15.1926 24.3269C15.5044 24.648 15.8485 24.9304 16.2185 25.1687C16.5622 25.3898 16.923 25.5782 17.2969 25.7318C17.9299 25.9915 18.5941 26.1517 19.2691 26.2074C19.7234 26.2455 20.1801 26.2343 20.6323 26.1741C20.7926 26.1533 20.9157 26.1298 20.999 26.1117L21.0926 26.0909C21.1037 26.09 21.1145 26.0872 21.1247 26.0826C21.1137 26.0805 21.1024 26.0805 21.0914 26.0826L20.9965 26.0965C20.9131 26.1104 20.7887 26.1284 20.6297 26.145C20.1787 26.1936 19.7246 26.1973 19.273 26.1561C18.6038 26.0923 17.946 25.928 17.3187 25.668C16.5477 25.3569 15.8415 24.8831 15.2413 24.2742C14.9346 23.9568 14.6704 23.5946 14.4565 23.1981C14.2577 22.8291 14.1185 22.4263 14.0449 22.0068C13.9316 21.2893 14.0455 20.5515 14.368 19.9127C14.4872 19.6657 14.6417 19.4405 14.8258 19.2457C14.964 19.0979 15.1186 18.9693 15.2862 18.8629C15.3932 18.7977 15.5052 18.7424 15.6209 18.6979L15.7106 18.6604L15.7414 18.6479Z" fill="#263238"/>
<path d="M19.8014 26.9869C19.769 26.8638 19.753 26.7363 19.754 26.6083C19.7751 26.4821 19.8135 26.3601 19.8681 26.2463C19.8681 26.2463 19.8245 26.2658 19.7822 26.3268C19.7296 26.408 19.6974 26.5025 19.6886 26.6012C19.6799 26.6998 19.6949 26.7993 19.7322 26.8898C19.7617 26.9592 19.7937 26.9911 19.8014 26.9869Z" fill="#263238"/>
<path d="M15.249 25.9648C15.321 25.9748 15.3941 25.9618 15.4593 25.9273C15.6249 25.8616 15.7654 25.7378 15.8583 25.5757C15.9513 25.4136 15.9914 25.2225 15.9723 25.0328C15.9707 24.9549 15.949 24.8789 15.9094 24.8137C15.8992 24.8137 15.9235 24.9011 15.9248 25.037C15.9305 25.2133 15.8877 25.3875 15.8019 25.5376C15.7161 25.6876 15.5911 25.8069 15.4427 25.8802C15.3221 25.9398 15.2426 25.9537 15.249 25.9648Z" fill="#263238"/>
<path d="M15.7414 20.2915C15.752 20.3201 15.7645 20.348 15.7786 20.3747C15.8068 20.4274 15.8415 20.5134 15.8992 20.6063C16.0561 20.8852 16.2364 21.148 16.4378 21.3912C17.1049 22.2031 17.974 22.7902 18.9413 23.0823C19.9086 23.3745 20.9333 23.3593 21.8928 23.0388C22.182 22.9437 22.4623 22.8198 22.7302 22.6685C22.8264 22.6172 22.8956 22.5672 22.9444 22.5381C22.9698 22.5236 22.9939 22.5065 23.0162 22.4868C22.989 22.4971 22.9628 22.5101 22.9379 22.5256C22.8867 22.5506 22.8161 22.5964 22.7187 22.6435C22.4483 22.7831 22.1678 22.8986 21.88 22.9888C20.7802 23.3301 19.6082 23.2814 18.5358 22.8499C17.4635 22.4184 16.5471 21.6268 15.921 20.5911C15.8607 20.4968 15.8222 20.4177 15.7927 20.3678C15.7787 20.3401 15.7615 20.3144 15.7414 20.2915Z" fill="#263238"/>
<g opacity="0.2">
<path d="M20.2592 26.256C20.3085 26.3015 20.3393 26.3661 20.3448 26.436C20.3503 26.5058 20.3302 26.5752 20.2887 26.6291C20.2005 26.733 20.0858 26.8064 19.9591 26.8398C18.7695 27.2693 17.4797 27.2454 16.3043 26.7721C15.129 26.2988 14.1389 25.4046 13.4987 24.2382C13.005 23.3354 12.7395 22.2079 13.0973 21.233C13.1884 20.982 13.4064 20.7088 13.641 20.8003C13.8757 20.8918 13.8834 21.2233 13.886 21.4854C13.8962 22.9956 14.8477 24.3644 16.0518 25.1313C17.2559 25.8982 18.6793 26.152 20.0733 26.2532" fill="black"/>
</g>
</svg>
