<svg width="320" height="209" viewBox="0 0 320 209" fill="none" xmlns="http://www.w3.org/2000/svg">
<path d="M36.4484 154.381C33.9654 152.829 31.1606 151.865 28.248 151.562C26.904 151.425 25.4284 151.463 24.3663 152.276C24.2426 152.348 24.1403 152.452 24.0701 152.576C23.9998 152.701 23.9642 152.842 23.9669 152.985C24.0323 153.183 24.1676 153.35 24.3475 153.455C27.6841 155.998 32.7312 156.322 36.4484 154.372" fill="#E0E0E0"/>
<path d="M36.237 154.141C34.3368 152.749 32.5644 151.191 30.9408 149.484C29.3082 147.764 28.1616 145.641 27.6183 143.333C27.4773 142.633 27.4303 141.834 27.8815 141.279C32.1109 144.569 35.4005 148.841 36.237 154.132" fill="#E0E0E0"/>
<path d="M36.4062 154.348C36.0157 152.043 36.0491 149.686 36.5048 147.393C37.0359 145.123 38.2718 142.952 40.208 141.655C40.9411 143.361 40.6262 145.325 40.114 147.107C39.3138 149.866 38.0728 152.478 36.4391 154.842" fill="#E0E0E0"/>
<path d="M40.5416 161.764C38.0275 162.069 35.8422 163.395 33.9625 165.091C32.0769 166.809 30.7645 169.065 30.203 171.553C32.6655 171.398 34.7567 169.673 36.2746 167.713C37.7925 165.754 38.8404 163.625 40.504 161.802" fill="#E0E0E0"/>
<path d="M41.4392 162.953C40.4521 160.441 40.107 157.722 40.4353 155.043C40.7635 152.364 41.7546 149.809 43.3189 147.609C44.7288 152.699 44.2259 158.451 41.4392 162.953Z" fill="#E0E0E0"/>
<path d="M46.9093 169.462C44.6129 169.318 42.3251 169.854 40.3311 171.002C38.3372 172.151 36.7254 173.86 35.6965 175.918C35.5556 176.196 35.4334 176.548 35.6167 176.797C35.7144 176.891 35.8334 176.96 35.9636 176.997C36.0938 177.035 36.2311 177.041 36.3639 177.013C38.5726 176.872 40.5322 175.543 42.1488 174.029C43.7654 172.516 45.1705 170.763 46.9563 169.457" fill="#E0E0E0"/>
<path d="M46.7448 169.109C45.5666 165.319 45.4933 161.271 46.5333 157.44C46.9469 155.937 47.6377 154.358 49.024 153.653C49.0792 153.615 49.1416 153.59 49.2072 153.579C49.2729 153.568 49.3402 153.57 49.4046 153.587C49.5181 153.645 49.6053 153.744 49.649 153.864C50.113 154.915 50.3131 156.064 50.2317 157.21C50.1517 158.354 49.9773 159.488 49.7101 160.603C49.2731 162.671 49.0381 164.898 47.9055 166.684C47.6369 167.114 47.3952 167.559 47.1818 168.019C46.9657 168.489 46.9657 168.634 46.7683 168.996" fill="#E0E0E0"/>
<path d="M61.2095 171.266C60.138 167.187 61.2753 162.239 63.8459 158.897C64.0338 158.648 64.2876 158.385 64.5978 158.427C65.0677 158.47 65.1899 159.104 65.1711 159.579C64.9739 163.774 63.6011 167.828 61.2095 171.28" fill="#E0E0E0"/>
<path d="M62.5159 172.154C67.4691 173.447 73.1553 172.192 77.2767 169.151C74.8068 167.912 71.9836 167.566 69.2877 168.174C66.6185 168.785 64.1748 169.978 62.5159 172.154Z" fill="#E0E0E0"/>
<path d="M63.6156 169.438C66.3929 164.912 71.7126 161.961 77.0136 161.693C76.4026 163.85 74.631 165.523 72.6337 166.538C70.6365 167.554 68.4043 167.991 66.2003 168.418C65.345 168.583 64.1701 168.766 63.6156 169.438Z" fill="#E0E0E0"/>
<path d="M61.4868 156.261C62.2387 153.686 62.9906 151.092 63.1974 148.413C63.4041 145.734 63.0235 142.948 61.6372 140.65C59.0431 145.669 58.7799 151.529 61.4069 156.529" fill="#E0E0E0"/>
<path d="M70.2135 151.848C73.2446 146.336 79.4337 141.937 85.6933 141.317C83.2778 147.332 76.694 151.975 70.2135 151.848Z" fill="#E0E0E0"/>
<path d="M68.3056 152.929C72.8311 153.615 76.6799 156.505 80.9093 158.253C81.7944 158.682 82.7762 158.871 83.7572 158.803C84.2144 158.799 84.6594 158.655 85.032 158.39C85.4047 158.125 85.687 157.752 85.8408 157.322C85.9945 156.891 86.0124 156.424 85.8919 155.983C85.7714 155.542 85.5183 155.148 85.167 154.856C84.5682 154.304 83.8652 153.877 83.0993 153.601C78.4939 151.684 73.5595 151.637 68.7097 152.797" fill="#E0E0E0"/>
<path d="M65.6927 156.101C66.7125 156.393 67.065 156.924 67.8732 157.614C70.6399 159.963 73.9108 161.642 77.4318 162.52C77.7937 162.614 78.273 162.647 78.4563 162.318C78.6395 161.989 78.414 161.684 78.2072 161.426C76.6712 159.624 74.6775 158.27 72.4363 157.506C70.2323 156.689 68.3244 155.697 65.6927 155.908" fill="#E0E0E0"/>
<path d="M62.7227 136.942C64.5778 138.649 66.7696 139.949 69.1571 140.758C71.5447 141.567 74.0752 141.868 76.5859 141.641C76.818 141.647 77.044 141.567 77.2203 141.416C77.5681 141.035 77.1498 140.476 76.7504 140.133C72.676 136.956 67.737 135.635 62.7321 136.923" fill="#E0E0E0"/>
<path d="M66.2379 135.663C68.6914 133.856 71.5377 132.656 74.5442 132.159C77.5507 131.662 80.632 131.884 83.5363 132.806C81.3605 134.954 78.3388 136.096 75.2936 136.429C72.2534 136.704 69.1887 136.445 66.2379 135.663Z" fill="#E0E0E0"/>
<path d="M64.8468 126.885C64.4474 122.815 64.7058 119.606 64.4239 115.517C64.4004 115.188 64.3299 114.798 64.0244 114.681C63.6015 114.516 63.2443 115.038 63.0846 115.47C62.492 117.365 62.3401 119.371 62.6406 121.334C62.9412 123.297 63.6861 125.165 64.8186 126.796" fill="#E0E0E0"/>
<path d="M64.5555 127.308C67.314 125.607 69.3818 123.379 71.2944 120.762C72.6243 118.938 73.7475 116.758 73.442 114.521C71.5623 114.483 69.8 115.513 68.5829 116.936C67.4208 118.409 66.5775 120.107 66.1063 121.922C65.5659 123.713 65.1664 125.55 64.5555 127.308Z" fill="#E0E0E0"/>
<path d="M71.1816 125.475C77.2472 123.228 82.8632 119.916 87.7657 115.696C85.7826 114.897 83.5363 115.376 81.5344 116.166C77.0088 117.994 73.3151 121.077 71.0923 125.424" fill="#E0E0E0"/>
<path d="M66.4164 129.536C69.4757 129.869 72.5867 130.09 75.6272 129.582C78.6677 129.075 81.431 127.9 84.2224 126.725C84.4699 126.649 84.6786 126.481 84.8051 126.255C84.8503 126.127 84.8546 125.987 84.8176 125.856C84.7806 125.725 84.704 125.608 84.5984 125.522C84.3846 125.351 84.1333 125.234 83.8653 125.179C80.8294 124.329 77.5587 124.709 74.5746 125.734C71.7313 126.698 68.997 127.958 66.4164 129.493" fill="#E0E0E0"/>
<path d="M48.9347 137.083C46.8435 132.853 46.9798 127.947 48.7843 123.6C50.0532 125.536 50.1941 127.999 49.978 130.306C49.7618 132.614 49.0381 134.977 49.0005 137.294" fill="#E0E0E0"/>
<path d="M40.5886 132.872C37.9738 132.838 35.3806 133.35 32.9749 134.375C30.5692 135.401 28.4038 136.917 26.6173 138.826C29.2208 139.235 31.8994 138.563 34.2679 137.416C36.6364 136.27 38.737 134.639 40.8471 133.027" fill="#E0E0E0"/>
<path d="M34.9963 130.997C32.4446 130.79 29.9915 130.475 27.5384 131.227C25.0853 131.979 22.839 133.685 21.8521 136.049C24.2592 136.243 26.6743 135.787 28.8448 134.728C31.0036 133.673 33.0624 132.424 34.9963 130.997Z" fill="#E0E0E0"/>
<path d="M43.286 131.082C40.9927 129.578 38.6337 128.05 35.9597 127.425C33.2858 126.8 30.1936 127.261 28.3279 129.277C30.4896 130.546 33.1166 130.687 35.626 130.687C38.1355 130.687 41.2089 130.654 43.5727 131.49" fill="#E0E0E0"/>
<path d="M43.3002 131.204C39.3762 127.35 37.8865 120.433 39.4655 115.165C42.5657 119.904 43.9214 125.574 43.3002 131.204Z" fill="#E0E0E0"/>
<path d="M54.0899 120.306C54.8277 118.586 55.3494 116.781 56.012 115.028C56.6198 113.252 57.5502 111.603 58.7564 110.165C59.9784 108.71 61.7241 107.795 63.6156 107.618C63.0125 110.272 61.8622 112.772 60.2382 114.957C58.6142 117.141 56.5521 118.963 54.1839 120.306" fill="#E0E0E0"/>
<path d="M52.135 122.562C50.9131 120.879 49.4986 118.591 47.8351 117.331C46.1715 116.072 44.0144 115.31 41.9843 115.794C43.0342 117.634 44.4982 119.203 46.2602 120.377C48.0221 121.552 50.0336 122.3 52.135 122.562Z" fill="#E0E0E0"/>
<path d="M52.525 120.428C51.7261 118.389 50.9178 116.326 50.5889 114.159C50.2599 111.993 50.462 109.676 51.5711 107.787C53.7281 111.856 54.4189 116.246 52.6378 120.475" fill="#E0E0E0"/>
<path d="M54.1087 107.787C55.3306 103.75 59.0243 100.775 63.0376 99.4124C63.5318 99.2121 64.0664 99.1316 64.5978 99.1775C64.8631 99.2071 65.1139 99.3143 65.3186 99.4856C65.5234 99.6569 65.6732 99.8849 65.7491 100.141C65.8948 100.827 65.3309 101.443 64.8092 101.898C61.689 104.561 58.0618 106.564 54.1463 107.787" fill="#E0E0E0"/>
<path d="M54.151 104.483C54.3061 101.884 54.4706 99.2433 55.3165 96.7761C56.1624 94.3089 57.793 91.9968 60.1662 90.9207C60.5704 93.5476 59.4096 96.1605 58.0139 98.4397C56.6182 100.719 54.9311 102.834 54.0899 105.357" fill="#E0E0E0"/>
<path d="M54.0899 106.278C53.0796 103.336 52.9762 99.6004 51.2139 97.0346C49.9827 95.2441 48.0136 94.0223 46.9516 92.1284C46.3112 93.947 46.4005 95.943 47.2006 97.6972C48.0009 99.4335 49.1036 101.014 50.4573 102.364C51.759 103.774 52.8775 104.803 54.0899 106.278Z" fill="#E0E0E0"/>
<path d="M54.1087 192.902C54.0288 192.902 53.9631 173.277 53.9584 149.08C53.9537 124.883 54.0101 105.249 54.0899 105.249C54.1698 105.249 54.2356 124.869 54.2403 149.08C54.245 173.292 54.1886 192.902 54.1087 192.902Z" fill="#E0E0E0"/>
<path d="M71.2568 134.122C71.0201 134.238 70.7731 134.33 70.519 134.399L68.4889 135.085C66.7783 135.668 64.4239 136.495 61.8721 137.557C59.3204 138.619 56.9613 139.522 55.6031 140.697C55.0626 141.15 54.632 141.721 54.3437 142.365C54.151 142.835 54.1134 143.107 54.0899 143.103C54.0664 143.098 54.0899 143.032 54.0899 142.896C54.1184 142.701 54.1656 142.509 54.2309 142.323C54.489 141.638 54.9119 141.028 55.4622 140.546C56.2819 139.854 57.1986 139.285 58.1831 138.859C59.2687 138.352 60.4764 137.82 61.7546 137.294C64.3158 136.246 66.6843 135.414 68.4184 134.893C69.2831 134.625 69.988 134.423 70.4767 134.291C70.7308 134.21 70.992 134.154 71.2568 134.122Z" fill="#E0E0E0"/>
<path d="M76.8773 120.306C76.8179 120.388 76.7484 120.462 76.6705 120.527L76.0408 121.119L73.6911 123.252L65.8666 130.222C62.812 132.938 60.1709 135.537 58.3476 137.492C57.4077 138.469 56.7122 139.277 56.2188 139.841L55.6454 140.513C55.5138 140.664 55.4434 140.739 55.434 140.729C55.4804 140.64 55.5372 140.556 55.6031 140.48C55.7206 140.321 55.8945 140.086 56.1295 139.794C56.5994 139.207 57.2949 138.384 58.1972 137.379C60.5598 134.8 63.0571 132.348 65.6786 130.034C68.7426 127.322 71.5294 124.864 73.5595 123.126L75.9656 121.058L76.6329 120.508C76.7079 120.433 76.7897 120.366 76.8773 120.306Z" fill="#E0E0E0"/>
<path d="M62.5676 132.994C62.4877 132.957 63.1269 131.486 63.7613 129.62C64.3957 127.754 64.7012 126.185 64.7858 126.199C64.8703 126.213 64.6824 127.825 64.0338 129.714C63.7631 130.514 63.4493 131.298 63.094 132.064C62.9664 132.399 62.7889 132.712 62.5676 132.994Z" fill="#E0E0E0"/>
<path d="M54.1275 144.87C53.9505 144.707 53.7928 144.524 53.6576 144.324L52.4499 142.778C51.4442 141.453 50.0344 139.663 48.4695 137.694C46.9046 135.725 45.4572 133.934 44.4092 132.661L43.178 131.115C43.0169 130.936 42.8751 130.74 42.755 130.532C42.9397 130.686 43.1096 130.858 43.2626 131.044C43.5774 131.382 44.0239 131.885 44.5643 132.51C45.6498 133.765 47.116 135.518 48.6903 137.501C50.2646 139.484 51.6369 141.307 52.6096 142.647C53.0796 143.319 53.4837 143.869 53.7469 144.249C53.892 144.444 54.0194 144.652 54.1275 144.87Z" fill="#E0E0E0"/>
<path d="M50.368 140.043C50.321 140.095 49.3154 138.901 48.7937 137.097C48.4951 136.135 48.3741 135.127 48.4366 134.122H48.5588C48.5024 134.352 48.4601 134.47 48.4413 134.465C48.4225 134.46 48.4178 134.338 48.4413 134.103H48.5635C48.6266 135.082 48.7952 136.051 49.0663 136.993C49.5644 138.765 50.4432 139.996 50.368 140.043Z" fill="#E0E0E0"/>
<path d="M45.5136 133.934C45.1747 133.677 44.8054 133.462 44.4139 133.295C43.4243 132.999 42.3833 132.916 41.3593 133.051C40.3227 133.131 39.2947 133.297 38.2859 133.549C37.8728 133.681 37.4502 133.782 37.0218 133.85C37.3978 133.626 37.8048 133.46 38.2295 133.356C39.2391 133.042 40.2813 132.845 41.3358 132.769C42.3988 132.627 43.4803 132.743 44.4891 133.107C44.9161 133.256 45.2783 133.548 45.5136 133.934Z" fill="#E0E0E0"/>
<path d="M44.3622 132.459C44.3387 132.501 43.7231 132.2 42.6751 131.843C39.9472 130.909 37.0257 130.687 34.188 131.199C33.0978 131.392 32.4446 131.594 32.4258 131.547C32.5718 131.46 32.7303 131.397 32.8957 131.359C33.3124 131.214 33.7377 131.094 34.1692 131.002C37.0379 130.372 40.0284 130.599 42.7691 131.655C43.1806 131.813 43.5823 131.995 43.9722 132.2C44.2259 132.35 44.3951 132.44 44.3622 132.459Z" fill="#E0E0E0"/>
<path d="M54.0899 126.199C54.0148 126.199 53.4649 124.319 52.8587 121.932C52.2525 119.545 51.8295 117.613 51.9188 117.594C52.0081 117.576 52.5485 119.474 53.1501 121.861C53.7516 124.249 54.1651 126.18 54.0899 126.199Z" fill="#E0E0E0"/>
<path d="M54.1651 126.199C54.0805 126.227 53.7281 124.949 52.807 123.647C52.2287 122.874 51.5544 122.178 50.8004 121.575C51.0859 121.647 51.351 121.784 51.5758 121.974C52.1446 122.391 52.6388 122.901 53.0373 123.483C53.9959 124.841 54.2356 126.194 54.1651 126.199Z" fill="#E0E0E0"/>
<path d="M54.1087 182.441C54.0758 182.441 54.0194 181.971 53.7986 181.135C53.4749 179.962 53.0357 178.824 52.4874 177.737C51.134 174.969 48.6668 171.454 45.5323 167.939C43.9769 166.163 42.4683 164.49 41.1901 162.887C40.0451 161.474 39.0083 159.977 38.0885 158.409C37.4733 157.349 36.9497 156.239 36.5236 155.091C36.3779 154.682 36.2746 154.362 36.2135 154.151C36.1745 154.04 36.1477 153.925 36.1336 153.808C36.1336 153.808 36.3028 154.278 36.6035 155.058C37.0639 156.186 37.6106 157.276 38.2389 158.319C39.1757 159.864 40.2233 161.339 41.3734 162.732C42.6563 164.316 44.1648 165.984 45.7203 167.76C48.8642 171.29 51.3267 174.847 52.6472 177.662C53.183 178.767 53.5974 179.927 53.8832 181.121C53.9724 181.544 54.0335 181.877 54.057 182.103C54.0863 182.213 54.1036 182.327 54.1087 182.441Z" fill="#E0E0E0"/>
<path d="M69.6026 164.95C69.3425 165.122 69.0726 165.279 68.7943 165.42C68.0577 165.838 67.3525 166.309 66.6843 166.83C65.6995 167.599 64.7757 168.442 63.9211 169.353C62.9483 170.378 61.9473 171.572 60.9275 172.845C58.888 175.406 56.9754 177.671 55.8334 179.481C55.2554 180.378 54.8324 181.135 54.5552 181.666C54.4173 181.949 54.2603 182.222 54.0852 182.484C54.0986 182.403 54.1239 182.326 54.1604 182.253C54.2215 182.108 54.3014 181.887 54.433 181.619C54.7987 180.831 55.2131 180.067 55.6736 179.33C56.7827 177.479 58.6765 175.181 60.7161 172.624C61.7405 171.346 62.7509 170.152 63.7378 169.128C64.606 168.217 65.5492 167.381 66.5574 166.628C67.2415 166.12 67.9697 165.675 68.7332 165.298C69.0011 165.162 69.2032 165.077 69.3629 165.016C69.4381 164.979 69.5194 164.957 69.6026 164.95Z" fill="#E0E0E0"/>
<path d="M69.9081 170.618C69.3434 170.744 68.77 170.827 68.1928 170.867C66.8177 171.01 65.4586 171.279 64.1325 171.67C62.8182 172.095 61.5864 172.742 60.4905 173.583C59.6493 174.231 59.2546 174.767 59.2123 174.734C59.2645 174.595 59.3391 174.464 59.4331 174.349C59.7004 174.007 60.0011 173.692 60.3307 173.409C61.417 172.503 62.668 171.815 64.015 171.384C65.3615 170.984 66.7488 170.738 68.1505 170.65C68.7341 170.585 69.3225 170.574 69.9081 170.618Z" fill="#E0E0E0"/>
<path d="M59.701 174.114C59.6117 174.062 60.3824 172.878 60.9839 171.294C61.5855 169.711 61.6795 168.287 61.7781 168.301C61.8254 168.613 61.8159 168.932 61.7499 169.241C61.666 169.981 61.4989 170.709 61.2518 171.412C60.9901 172.107 60.6562 172.774 60.2555 173.4C60.1109 173.666 59.9236 173.908 59.701 174.114Z" fill="#E0E0E0"/>
<path d="M74.6216 149.696C74.538 149.757 74.4463 149.806 74.349 149.842L73.5407 150.208C73.1882 150.358 72.7606 150.551 72.2766 150.805C71.7925 151.059 71.2239 151.312 70.6365 151.67L69.6966 152.201C69.3676 152.389 69.0481 152.609 68.705 152.821C68.0142 153.244 67.3234 153.761 66.5856 154.282C65.0185 155.471 63.5405 156.773 62.1635 158.178C60.7977 159.6 59.541 161.122 58.404 162.732C57.9011 163.489 57.4124 164.198 56.9942 164.903C56.7921 165.251 56.5853 165.58 56.4067 165.909C56.2282 166.238 56.0684 166.562 55.9086 166.849C55.5749 167.45 55.3353 168.028 55.105 168.517C54.8747 169.006 54.6868 169.457 54.5458 169.805L54.2638 170.636C54.2292 170.735 54.1835 170.83 54.1275 170.918C54.1421 170.815 54.1706 170.714 54.2121 170.618L54.5035 169.776C54.6523 169.333 54.8233 168.897 55.0157 168.47C55.2366 167.967 55.4857 167.384 55.7864 166.773L56.2564 165.805C56.4302 165.472 56.637 165.138 56.8344 164.781C57.2244 164.067 57.7132 163.371 58.2113 162.586C60.45 159.303 63.231 156.426 66.4352 154.076C67.1824 153.549 67.8873 153.037 68.5875 152.624C68.9306 152.412 69.2596 152.196 69.5885 152.013L70.5284 151.491C71.1299 151.148 71.7032 150.899 72.1967 150.664C72.6178 150.456 73.0491 150.269 73.489 150.105L74.3161 149.79C74.4136 149.746 74.5162 149.714 74.6216 149.696Z" fill="#E0E0E0"/>
<path d="M62.3609 157.901C62.4708 157.503 62.7066 157.152 63.0329 156.9C63.7864 156.242 64.7488 155.872 65.7491 155.857C66.7307 155.852 67.7034 156.042 68.611 156.416C68.9945 156.537 69.3585 156.713 69.6919 156.938C69.2996 156.864 68.9155 156.753 68.5452 156.604C67.6479 156.298 66.7067 156.139 65.7585 156.134C64.8188 156.154 63.91 156.473 63.1645 157.046C62.874 157.309 62.6052 157.595 62.3609 157.901Z" fill="#E0E0E0"/>
<path d="M60.5281 159.804C60.4482 159.762 61.139 158.747 61.2988 157.295C61.4586 155.843 61.0403 154.696 61.1249 154.673C61.2095 154.649 61.3082 154.926 61.4445 155.406C61.6082 156.032 61.6544 156.684 61.5808 157.328C61.5049 157.971 61.3088 158.594 61.0027 159.165C60.7631 159.598 60.5516 159.823 60.5281 159.804Z" fill="#E0E0E0"/>
<path d="M40.5557 185.251C40.9787 192.77 43.2391 200.379 46.7166 208.09H61.8298C65.1429 200.454 67.2482 192.841 67.6242 185.251H40.5557Z" fill="#E0E0E0"/>
<path d="M65.1711 197.376C65.1711 197.456 60.1944 197.522 54.057 197.522C47.9196 197.522 42.943 197.456 42.943 197.376C42.943 197.296 47.9196 197.235 54.057 197.235C60.1944 197.235 65.1711 197.31 65.1711 197.376Z" fill="#FAFAFA"/>
<path d="M64.8327 200.106C64.8327 200.181 60.1709 200.247 54.4142 200.247C48.6574 200.247 43.9957 200.181 43.9957 200.106C43.9957 200.031 48.6574 199.961 54.4142 199.961C60.1709 199.961 64.8327 200.026 64.8327 200.106Z" fill="#FAFAFA"/>
<path d="M46.9563 190.176C47.0362 190.176 47.102 191.737 47.102 193.659C47.102 195.581 47.0362 197.141 46.9563 197.141C46.7683 194.823 46.7683 192.494 46.9563 190.176Z" fill="#FAFAFA"/>
<path d="M55.058 190.176C55.246 192.576 55.246 194.986 55.058 197.385C54.9781 197.385 54.917 195.773 54.917 193.781C54.917 191.788 54.9781 190.176 55.058 190.176Z" fill="#FAFAFA"/>
<path d="M62.6616 190.115C62.8496 192.563 62.8496 195.022 62.6616 197.47C62.5817 197.47 62.5159 195.825 62.5159 193.79C62.5159 191.755 62.5817 190.115 62.6616 190.115Z" fill="#FAFAFA"/>
<path d="M67.1401 190.176C67.1401 190.256 61.3035 190.317 54.104 190.317C46.9046 190.317 41.0679 190.256 41.0679 190.176C41.0679 190.096 46.9046 190.035 54.104 190.035C61.3035 190.035 67.1401 190.096 67.1401 190.176Z" fill="#FAFAFA"/>
<path d="M295.502 2.6991H184.479V104.436H295.502V2.6991Z" fill="#EBEBEB"/>
<path d="M290.718 6.51965H189.202V100.479H290.718V6.51965Z" fill="#FAFAFA"/>
<path d="M242.578 4.76678H239.951V100.498H242.578V4.76678Z" fill="#EBEBEB"/>
<path d="M288.11 42.047L288.726 42.3854L288.105 42.719C287.785 42.8973 287.519 43.1607 287.339 43.4803L287.001 44.096L286.667 43.4803C286.493 43.1553 286.229 42.8876 285.906 42.7096L285.29 42.3713L285.911 42.0376C286.233 41.8621 286.499 41.5979 286.677 41.2763L287.015 40.6654L287.349 41.281C287.524 41.6037 287.788 41.8695 288.11 42.047Z" fill="#FAFAFA"/>
<path d="M242.347 40.6654L242.592 40.8017L242.347 40.9333C242.22 41.0033 242.114 41.1074 242.042 41.2341L241.91 41.4784L241.779 41.2341C241.709 41.1063 241.605 41.0005 241.478 40.9286L241.234 40.797L241.478 40.6654C241.606 40.5955 241.712 40.4913 241.783 40.3647L241.915 40.1203L242.047 40.3647C242.117 40.4911 242.221 40.5954 242.347 40.6654Z" fill="#FAFAFA"/>
<path d="M299.708 27.8126H180.01V31.3607H299.708V27.8126Z" fill="#F5F5F5"/>
<path d="M299.708 21.0878H180.01V24.6358H299.708V21.0878Z" fill="#F5F5F5"/>
<path d="M299.708 14.3677H180.01V17.9157H299.708V14.3677Z" fill="#F5F5F5"/>
<path d="M299.708 7.64752H180.01V11.1956H299.708V7.64752Z" fill="#F5F5F5"/>
<path d="M299.708 0.927368H180.01V4.4754H299.708V0.927368Z" fill="#F5F5F5"/>
<path d="M299.708 60.5203H180.01V64.0684H299.708V60.5203Z" fill="#F5F5F5"/>
<path d="M299.708 53.8002H180.01V57.3483H299.708V53.8002Z" fill="#F5F5F5"/>
<path d="M299.708 47.0801H180.01V50.6281H299.708V47.0801Z" fill="#F5F5F5"/>
<path d="M299.708 40.3553H180.01V43.9033H299.708V40.3553Z" fill="#F5F5F5"/>
<path d="M299.708 33.6351H180.01V37.1832H299.708V33.6351Z" fill="#F5F5F5"/>
<path d="M138.765 7.86094L134.53 7.88385L134.645 28.9603L138.879 28.9374L138.765 7.86094Z" fill="#E0E0E0"/>
<path d="M108.807 7.91032L97.8386 7.96967L97.9015 19.6052L108.87 19.5458L108.807 7.91032Z" fill="#EBEBEB"/>
<path d="M119.723 7.856L108.755 7.91534L108.818 19.5509L119.786 19.4915L119.723 7.856Z" fill="#F5F5F5"/>
<path d="M97.8553 11.1909C105.144 11.2519 112.452 11.1909 119.74 11.0922C119.772 11.0922 119.801 11.0798 119.823 11.0578C119.845 11.0357 119.858 11.0058 119.858 10.9747C119.858 10.9435 119.845 10.9136 119.823 10.8916C119.801 10.8696 119.772 10.8572 119.74 10.8572C112.452 10.8196 105.149 10.8572 97.86 10.9935C97.8339 10.9935 97.8088 11.0039 97.7902 11.0224C97.7717 11.0409 97.7613 11.066 97.7613 11.0922C97.7613 11.1183 97.7717 11.1434 97.7902 11.1619C97.8088 11.1805 97.8339 11.1909 97.86 11.1909H97.8553Z" fill="#E0E0E0"/>
<path d="M110.927 19.3558L91.002 19.4636L91.0533 28.9468L110.978 28.839L110.927 19.3558Z" fill="#EBEBEB"/>
<path d="M130.762 19.2438L110.837 19.3516L110.889 28.8348L130.814 28.727L130.762 19.2438Z" fill="#F5F5F5"/>
<path d="M91.013 22.0887C104.251 22.2391 117.536 22.0887 130.775 21.8961C130.806 21.8961 130.836 21.8837 130.858 21.8616C130.88 21.8396 130.892 21.8097 130.892 21.7786C130.892 21.7474 130.88 21.7175 130.858 21.6955C130.836 21.6735 130.806 21.6611 130.775 21.6611C117.536 21.5906 104.251 21.6 91.0177 21.8914C90.9916 21.8914 90.9664 21.9018 90.9479 21.9203C90.9294 21.9388 90.919 21.9639 90.919 21.99C90.919 22.0162 90.9294 22.0413 90.9479 22.0598C90.9664 22.0783 90.9916 22.0887 91.0177 22.0887H91.013Z" fill="#E0E0E0"/>
<path d="M160.766 28.9498H83.5645V32.3475H160.766V28.9498Z" fill="#E0E0E0"/>
<path d="M99.3356 30.5806H96.2011V42.1693H99.3356V30.5806Z" fill="#E0E0E0"/>
<path d="M146.123 30.5806H142.988V42.1693H146.123V30.5806Z" fill="#E0E0E0"/>
<path d="M142.895 -2.05933e-05L138.661 0.0228882L138.818 29.0083L143.052 28.9854L142.895 -2.05933e-05Z" fill="#EBEBEB"/>
<path d="M149.513 5.39665L142.934 5.43225L143.061 28.9194L149.64 28.8838L149.513 5.39665Z" fill="#F5F5F5"/>
<path d="M149.473 9.92669C148.381 10.0443 147.282 10.0835 146.184 10.0442C145.086 10.0835 143.987 10.0443 142.894 9.92669C143.987 9.81495 145.086 9.77727 146.184 9.8139C147.282 9.7774 148.381 9.81508 149.473 9.92669Z" fill="#E0E0E0"/>
<path d="M149.473 8.93047C148.381 9.04806 147.282 9.08732 146.184 9.04796C145.086 9.08732 143.987 9.04806 142.894 8.93047C143.987 8.81873 145.086 8.78105 146.184 8.81769C147.282 8.78118 148.381 8.81886 149.473 8.93047Z" fill="#E0E0E0"/>
<path d="M149.473 25.3783C148.381 25.4899 147.282 25.5276 146.184 25.4911C145.086 25.5277 143.987 25.49 142.894 25.3783C143.987 25.2607 145.086 25.2215 146.184 25.2608C147.282 25.2215 148.381 25.2607 149.473 25.3783Z" fill="#E0E0E0"/>
<path d="M149.473 24.3726C148.381 24.4842 147.282 24.5219 146.184 24.4854C145.086 24.522 143.987 24.4844 142.894 24.3726C143.987 24.255 145.086 24.2158 146.184 24.2551C147.282 24.2158 148.381 24.255 149.473 24.3726Z" fill="#E0E0E0"/>
<path d="M146.287 22.2156C146.221 22.2156 146.174 19.866 146.174 16.9241C146.174 13.9823 146.221 11.6326 146.287 11.6326C146.353 11.6326 146.4 13.9823 146.4 16.9241C146.4 19.866 146.372 22.2156 146.287 22.2156Z" fill="#E0E0E0"/>
<path d="M156.706 11.1721H149.544V28.9028H156.706V11.1721Z" fill="#EBEBEB"/>
<path d="M141.936 4.95477C141.94 5.19704 141.872 5.43519 141.741 5.63872C141.609 5.84225 141.42 6.00189 141.197 6.09721C140.975 6.19253 140.728 6.21918 140.49 6.17375C140.252 6.12832 140.033 6.01288 139.861 5.84221C139.689 5.67154 139.572 5.45341 139.525 5.21575C139.478 4.97809 139.502 4.73173 139.596 4.50821C139.689 4.28469 139.848 4.09418 140.05 3.96108C140.253 3.82799 140.49 3.75836 140.733 3.76113C141.049 3.76473 141.351 3.89136 141.576 4.11417C141.8 4.33699 141.929 4.63848 141.936 4.95477Z" fill="#E0E0E0"/>
<path d="M141.094 8.30548H140.342V25.5475H141.094V8.30548Z" fill="#E0E0E0"/>
<path d="M320 207.437C320 207.503 248.358 207.559 160.009 207.559C71.6609 207.559 0 207.503 0 207.437C0 207.371 71.6233 207.315 160.009 207.315C248.395 207.315 320 207.371 320 207.437Z" fill="#263238"/>
<path d="M309.751 139.597H250.943V184.33H309.751V139.597Z" fill="#B56D50"/>
<g opacity="0.3">
<path d="M309.751 139.597H277.362V184.33H309.751V139.597Z" fill="black"/>
</g>
<path d="M268.706 184.33L261.286 207.437H263.457L273.819 184.33H268.706Z" fill="#B56D50"/>
<path d="M295.465 184.33L302.885 207.437H300.709L290.352 184.33H295.465Z" fill="#B56D50"/>
<path d="M310.244 184.547C310.244 184.617 296.997 184.669 280.666 184.669C264.336 184.669 251.084 184.617 251.084 184.547C251.084 184.476 264.326 184.424 280.666 184.424C297.006 184.424 310.244 184.481 310.244 184.547Z" fill="#263238"/>
<path d="M276.075 151.453C276.068 151.394 276.068 151.334 276.075 151.275C276.075 151.153 276.075 150.984 276.075 150.772C276.075 150.302 276.075 149.677 276.051 148.855C276.051 147.186 276.023 144.799 276.004 141.843L276.094 141.928L252.127 141.965C252.014 142.073 252.272 141.815 252.244 141.843V146.778C252.244 148.389 252.244 149.95 252.244 151.449L252.108 151.322L269.261 151.378L274.256 151.411H275.6H275.948H276.075C276.037 151.415 276 151.415 275.962 151.411H275.628H274.308L269.341 151.444L252.108 151.5H251.991V146.782C251.991 145.979 251.991 145.166 251.991 144.339V141.848C251.962 141.871 252.225 141.613 252.117 141.726L276.084 141.759H276.169V141.848C276.169 144.823 276.131 147.233 276.122 148.897C276.122 149.71 276.122 150.349 276.098 150.777C276.098 150.984 276.098 151.143 276.098 151.247C276.098 151.35 276.075 151.458 276.075 151.453Z" fill="#263238"/>
<path d="M265.539 146.467C265.515 146.467 265.511 146.336 265.445 146.124C265.354 145.829 265.17 145.571 264.919 145.391C264.737 145.262 264.526 145.178 264.305 145.149C264.084 145.12 263.859 145.145 263.65 145.222C263.47 145.289 263.307 145.394 263.172 145.529C263.037 145.664 262.932 145.827 262.865 146.007C262.798 146.186 262.771 146.378 262.785 146.569C262.798 146.76 262.853 146.946 262.945 147.114C263.037 147.282 263.164 147.428 263.318 147.542C263.471 147.657 263.647 147.737 263.835 147.777C264.022 147.818 264.216 147.817 264.403 147.776C264.59 147.735 264.766 147.654 264.919 147.539C265.17 147.359 265.354 147.101 265.445 146.806C265.511 146.594 265.515 146.467 265.539 146.467C265.573 146.586 265.573 146.711 265.539 146.829C265.475 147.164 265.291 147.465 265.022 147.675C264.822 147.837 264.584 147.944 264.33 147.987C264.077 148.029 263.816 148.006 263.575 147.919C263.273 147.814 263.012 147.617 262.827 147.356C262.643 147.096 262.543 146.784 262.543 146.465C262.543 146.146 262.643 145.834 262.827 145.574C263.012 145.313 263.273 145.116 263.575 145.011C263.817 144.925 264.077 144.902 264.33 144.945C264.583 144.988 264.821 145.094 265.022 145.255C265.292 145.466 265.476 145.769 265.539 146.106C265.572 146.224 265.572 146.349 265.539 146.467Z" fill="#263238"/>
<path d="M274.825 167.77C274.825 167.77 274.801 167.643 274.736 167.431C274.642 167.136 274.456 166.879 274.205 166.698C274.006 166.551 273.77 166.462 273.524 166.441C273.278 166.42 273.031 166.468 272.81 166.579C272.59 166.69 272.404 166.86 272.274 167.07C272.145 167.281 272.076 167.523 272.076 167.77C272.075 168.04 272.158 168.304 272.311 168.527C272.465 168.749 272.683 168.92 272.936 169.015C273.145 169.093 273.37 169.118 273.591 169.088C273.812 169.059 274.023 168.975 274.205 168.846C274.456 168.663 274.642 168.405 274.736 168.108C274.801 167.897 274.806 167.77 274.825 167.77C274.861 167.888 274.861 168.014 274.825 168.132C274.763 168.468 274.581 168.77 274.313 168.982C274.111 169.142 273.872 169.248 273.618 169.291C273.364 169.334 273.103 169.311 272.86 169.227C272.557 169.122 272.295 168.925 272.109 168.664C271.923 168.403 271.823 168.09 271.823 167.77C271.823 167.449 271.923 167.137 272.109 166.875C272.295 166.614 272.557 166.418 272.86 166.313C273.103 166.228 273.364 166.206 273.618 166.249C273.872 166.291 274.111 166.397 274.313 166.557C274.581 166.769 274.763 167.072 274.825 167.408C274.867 167.629 274.839 167.77 274.825 167.77Z" fill="#263238"/>
<path d="M275.873 181.186C275.873 181.186 275.873 181.139 275.873 181.055C275.873 180.97 275.873 180.829 275.873 180.665C275.873 180.317 275.873 179.819 275.873 179.175C275.873 177.864 275.873 175.961 275.845 173.536C275.845 168.705 275.812 161.839 275.788 153.648L275.896 153.756H252.146L252.268 153.634C252.268 163.789 252.268 173.254 252.268 181.163L252.164 181.064L269.378 181.116L274.2 181.144H275.473H275.943H275.52H274.266L269.468 181.172L252.188 181.224H252.084V181.121C252.084 173.212 252.084 163.733 252.084 153.592V153.469H252.108H275.859H275.967V153.672C275.967 161.891 275.924 168.78 275.915 173.63C275.915 176.031 275.892 177.93 275.887 179.232C275.887 179.871 275.887 180.364 275.887 180.707C275.887 180.862 275.887 180.989 275.887 181.078C275.887 181.115 275.882 181.151 275.873 181.186Z" fill="#263238"/>
<path d="M69.0575 7.67108H12.2137V81.0849H69.0575V7.67108Z" fill="#455A64"/>
<path d="M69.0575 7.67105C69.0128 7.74207 68.9608 7.80822 68.9024 7.86842L68.4325 8.41825L66.4822 10.5189L66.4587 10.5471H66.4258C61.4821 10.5988 51.7731 10.6317 40.6262 10.6317C29.4792 10.6317 19.7656 10.5988 14.8266 10.5471H14.789V10.5189L12.8716 8.41825L12.4017 7.86842C12.3432 7.80822 12.2913 7.74207 12.2466 7.67105C12.314 7.7202 12.3769 7.77525 12.4346 7.83553L12.9092 8.35716L14.883 10.4108H14.8266C19.7656 10.3591 29.4746 10.3262 40.6262 10.3262C51.7778 10.3262 61.4821 10.3591 66.4258 10.4108H66.3647L68.362 8.35716L68.8789 7.83553C68.987 7.72274 69.0481 7.66635 69.0575 7.67105Z" fill="#263238"/>
<path d="M12.2137 81.0848C12.2584 81.0138 12.3103 80.9476 12.3688 80.8874L12.8387 80.3376L14.789 78.2323V78.2088H14.8266C19.7656 78.1571 29.4792 78.1242 40.6262 78.1242C51.7731 78.1242 61.4821 78.1571 66.4258 78.2088H66.4822L66.5057 78.2323L68.4278 80.3376L68.8977 80.8874C68.9561 80.9476 69.0081 81.0138 69.0528 81.0848C69.0528 81.0848 68.9823 81.0331 68.8648 80.9156L68.3479 80.394L66.3694 78.3451H66.4305C61.4868 78.3968 51.7778 78.4297 40.6309 78.4297C29.4839 78.4297 19.7703 78.3968 14.8313 78.3451H14.8876L12.9092 80.394L12.3923 80.9156C12.3395 80.9788 12.2796 81.0356 12.2137 81.0848Z" fill="#263238"/>
<path d="M66.4352 10.4672H14.836V78.2887H66.4352V10.4672Z" fill="white"/>
<path d="M22.9095 58.8097C24.4462 57.3482 26.7113 56.93 28.8307 56.9864C30.9502 57.0428 33.0602 57.4845 35.1655 57.4563C38.5585 57.414 41.9326 56.1593 45.2739 56.7373C46.3406 56.9206 47.4215 57.2918 48.4836 57.0663C49.4234 56.8689 50.1894 56.2345 51.1011 55.9666C53.4508 55.2664 56.1013 57.1039 58.3617 56.1452V71.2819H22.9095V58.8097Z" fill="white"/>
<path d="M23.6238 59.0635C23.5298 59.0635 23.4593 50.0971 23.4593 39.0347C23.4593 27.9723 23.5298 19.0059 23.6238 19.0059C23.7178 19.0059 23.7883 27.9723 23.7883 39.0347C23.7883 50.0971 23.7178 59.0635 23.6238 59.0635Z" fill="#263238"/>
<path d="M25.2357 59.0635C25.1464 59.0635 25.0712 50.0971 25.0712 39.0347C25.0712 27.9723 25.1464 19.0059 25.2357 19.0059C25.325 19.0059 25.4002 27.9723 25.4002 39.0347C25.4002 50.0971 25.3297 59.0635 25.2357 59.0635Z" fill="#263238"/>
<path d="M26.8523 59.0635C26.7583 59.0635 26.6878 50.0971 26.6878 39.0347C26.6878 27.9723 26.7583 19.0059 26.8523 19.0059C26.9463 19.0059 27.0074 27.9723 27.0074 39.0347C27.0074 50.0971 26.9416 59.0635 26.8523 59.0635Z" fill="#263238"/>
<path d="M28.4642 59.0635C28.3749 59.0635 28.2997 50.0971 28.2997 39.0347C28.2997 27.9723 28.3749 19.0059 28.4642 19.0059C28.5535 19.0059 28.6287 27.9723 28.6287 39.0347C28.6287 50.0971 28.5582 59.0635 28.4642 59.0635Z" fill="#263238"/>
<path d="M30.0808 59.0635C29.9868 59.0635 29.9163 50.0971 29.9163 39.0347C29.9163 27.9723 29.9868 19.0059 30.0808 19.0059C30.1748 19.0059 30.2452 27.9723 30.2452 39.0347C30.2452 50.0971 30.1701 59.0635 30.0808 59.0635Z" fill="#263238"/>
<path d="M31.7068 59.0635C31.6175 59.0635 31.5423 50.0971 31.5423 39.0347C31.5423 27.9723 31.6175 19.0059 31.7068 19.0059C31.796 19.0059 31.8712 27.9723 31.8712 39.0347C31.8712 50.0971 31.782 59.0635 31.7068 59.0635Z" fill="#263238"/>
<path d="M33.3093 59.0635C33.2153 59.0635 33.1448 50.0971 33.1448 39.0347C33.1448 27.9723 33.2153 19.0059 33.3093 19.0059C33.4032 19.0059 33.4737 27.9723 33.4737 39.0347C33.4737 50.0971 33.3985 59.0635 33.3093 59.0635Z" fill="#263238"/>
<path d="M34.9211 59.0635C34.8319 59.0635 34.7567 50.0971 34.7567 39.0347C34.7567 27.9723 34.8319 19.0059 34.9211 19.0059C35.0104 19.0059 35.0856 27.9723 35.0856 39.0347C35.0856 50.0971 34.9963 59.0635 34.9211 59.0635Z" fill="#263238"/>
<path d="M36.5377 59.0635C36.4437 59.0635 36.3685 50.0971 36.3685 39.0347C36.3685 27.9723 36.4437 19.0059 36.5377 19.0059C36.6317 19.0059 36.7022 27.9723 36.7022 39.0347C36.7022 50.0971 36.627 59.0635 36.5377 59.0635Z" fill="#263238"/>
<path d="M38.1496 59.0635C38.0603 59.0635 37.9851 50.0971 37.9851 39.0347C37.9851 27.9723 38.0603 19.0059 38.1496 19.0059C38.2389 19.0059 38.3141 27.9723 38.3141 39.0347C38.3141 50.0971 38.2389 59.0635 38.1496 59.0635Z" fill="#263238"/>
<path d="M39.7615 59.0635C39.6722 59.0635 39.597 50.0971 39.597 39.0347C39.597 27.9723 39.6722 19.0059 39.7615 19.0059C39.8508 19.0059 39.926 27.9723 39.926 39.0347C39.926 50.0971 39.8555 59.0635 39.7615 59.0635Z" fill="#263238"/>
<path d="M41.3781 59.0635C41.2888 59.0635 41.2136 50.0971 41.2136 39.0347C41.2136 27.9723 41.2888 19.0059 41.3781 19.0059C41.4674 19.0059 41.5426 27.9723 41.5426 39.0347C41.5426 50.0971 41.4674 59.0635 41.3781 59.0635Z" fill="#263238"/>
<path d="M42.9853 59.0635C42.896 59.0635 42.8208 50.0971 42.8208 39.0347C42.8208 27.9723 42.896 19.0059 42.9853 19.0059C43.0746 19.0059 43.1498 27.9723 43.1498 39.0347C43.1498 50.0971 43.084 59.0635 42.9853 59.0635Z" fill="#263238"/>
<path d="M44.6066 59.0635C44.5126 59.0635 44.4421 50.0971 44.4421 39.0347C44.4421 27.9723 44.5126 19.0059 44.6066 19.0059C44.7006 19.0059 44.771 27.9723 44.771 39.0347C44.771 50.0971 44.6959 59.0635 44.6066 59.0635Z" fill="#263238"/>
<path d="M46.2185 59.0635C46.1292 59.0635 46.054 50.0971 46.054 39.0347C46.054 27.9723 46.1292 19.0059 46.2185 19.0059C46.3078 19.0059 46.3829 27.9723 46.3829 39.0347C46.3829 50.0971 46.3125 59.0635 46.2185 59.0635Z" fill="#263238"/>
<path d="M47.8351 59.0635C47.7411 59.0635 47.6706 50.0971 47.6706 39.0347C47.6706 27.9723 47.7411 19.0059 47.8351 19.0059C47.929 19.0059 47.9995 27.9723 47.9995 39.0347C47.9995 50.0971 47.9243 59.0635 47.8351 59.0635Z" fill="#263238"/>
<path d="M49.4469 59.0635C49.3576 59.0635 49.2825 50.0971 49.2825 39.0347C49.2825 27.9723 49.3576 19.0059 49.4469 19.0059C49.5362 19.0059 49.6114 27.9723 49.6114 39.0347C49.6114 50.0971 49.5644 59.0635 49.4469 59.0635Z" fill="#263238"/>
<path d="M51.0635 59.0635C50.9695 59.0635 50.899 50.0971 50.899 39.0347C50.899 27.9723 50.9695 19.0059 51.0635 19.0059C51.1575 19.0059 51.228 27.9723 51.228 39.0347C51.228 50.0971 51.1528 59.0635 51.0635 59.0635Z" fill="#263238"/>
<path d="M52.6754 59.0635C52.5861 59.0635 52.511 50.0971 52.511 39.0347C52.511 27.9723 52.5861 19.0059 52.6754 19.0059C52.7647 19.0059 52.8399 27.9723 52.8399 39.0347C52.8399 50.0971 52.7647 59.0635 52.6754 59.0635Z" fill="#263238"/>
<path d="M54.292 59.0635C54.198 59.0635 54.1275 50.0971 54.1275 39.0347C54.1275 27.9723 54.198 19.0059 54.292 19.0059C54.386 19.0059 54.4565 27.9723 54.4565 39.0347C54.4565 50.0971 54.3813 59.0635 54.292 59.0635Z" fill="#263238"/>
<path d="M55.9039 59.0635C55.8146 59.0635 55.7394 50.0971 55.7394 39.0347C55.7394 27.9723 55.8146 19.0059 55.9039 19.0059C55.9932 19.0059 56.0684 27.9723 56.0684 39.0347C56.0684 50.0971 55.9932 59.0635 55.9039 59.0635Z" fill="#263238"/>
<path d="M57.5205 59.0635C57.4265 59.0635 57.3513 50.0971 57.3513 39.0347C57.3513 27.9723 57.4265 19.0059 57.5205 19.0059C57.6145 19.0059 57.685 27.9723 57.685 39.0347C57.685 50.0971 57.6098 59.0635 57.5205 59.0635Z" fill="#263238"/>
<path d="M264.462 118.187L262.985 118.412L263.084 119.062L264.561 118.838L264.462 118.187Z" fill="#E0E0E0"/>
<path d="M263.951 118.724L263.63 118.773L263.935 120.78L264.256 120.731L263.951 118.724Z" fill="#E0E0E0"/>
<path d="M260.299 134.794L259.853 136.82L260.417 137.12L261.732 135.617L260.299 134.794Z" fill="#E0E0E0"/>
<path d="M269.566 134.371L271.328 135.461L271.798 135.029L270.816 133.29L269.566 134.371Z" fill="#E0E0E0"/>
<path d="M257.95 118.542L257.114 119.093L257.515 119.701L258.351 119.15L257.95 118.542Z" fill="white"/>
<path d="M258.837 120.166L258.347 120.49L259.583 122.365L260.074 122.041L258.837 120.166Z" fill="white"/>
<path d="M270.733 117.824L269.854 117.345L269.506 117.985L270.385 118.463L270.733 117.824Z" fill="white"/>
<path d="M269.878 119.428L269.362 119.147L268.287 121.12L268.803 121.401L269.878 119.428Z" fill="white"/>
<path d="M271.896 132.04C274.095 128.096 272.68 123.116 268.735 120.917C264.791 118.718 259.811 120.133 257.612 124.077C255.413 128.021 256.828 133.002 260.772 135.201C264.716 137.4 269.697 135.985 271.896 132.04Z" fill="white"/>
<path d="M272.846 126.843C272.696 126.19 272.496 125.549 272.25 124.925C271.942 124.202 271.529 123.529 271.023 122.928C270.357 122.132 269.547 121.469 268.636 120.973C267.45 120.326 266.121 119.987 264.77 119.987C263.42 119.987 262.091 120.326 260.905 120.973C260.221 121.348 259.597 121.823 259.054 122.383C258.773 122.668 258.51 122.971 258.269 123.29C258.032 123.623 257.819 123.971 257.63 124.333C256.835 125.846 256.543 127.573 256.796 129.263C257.05 130.954 257.836 132.519 259.04 133.732C259.335 134.021 259.649 134.289 259.979 134.536C260.305 134.77 260.645 134.982 260.999 135.17C261.684 135.538 262.421 135.801 263.184 135.95C264.595 136.23 266.053 136.133 267.414 135.668C268.498 135.293 269.49 134.694 270.327 133.909C271.163 133.124 271.825 132.172 272.268 131.115C272.573 130.391 272.768 129.626 272.846 128.845C272.898 128.177 272.898 127.506 272.846 126.838C272.853 126.88 272.853 126.923 272.846 126.965C272.846 127.068 272.879 127.195 272.898 127.355C272.931 127.563 272.947 127.774 272.945 127.985C272.956 128.275 272.946 128.565 272.917 128.854C272.856 129.648 272.672 130.428 272.372 131.166C271.657 132.952 270.341 134.432 268.65 135.35C266.959 136.267 265.001 136.564 263.114 136.19C262.329 136.041 261.572 135.773 260.868 135.396C260.503 135.203 260.151 134.986 259.815 134.747C259.484 134.492 259.17 134.215 258.875 133.92C257.623 132.674 256.804 131.059 256.54 129.313C256.275 127.567 256.578 125.781 257.404 124.221C257.599 123.849 257.819 123.491 258.062 123.149C258.31 122.817 258.582 122.502 258.875 122.209C259.436 121.645 260.079 121.17 260.783 120.799C262.08 120.099 263.539 119.756 265.013 119.803C266.184 119.85 267.331 120.145 268.379 120.67C269.427 121.195 270.351 121.938 271.089 122.848C271.597 123.462 272.006 124.152 272.301 124.893C272.416 125.158 272.51 125.431 272.583 125.71C272.646 125.913 272.695 126.121 272.729 126.331L272.795 126.716C272.818 126.755 272.835 126.798 272.846 126.843Z" fill="#263238"/>
<path d="M269.815 133.351C272.733 130.533 272.814 125.883 269.996 122.965C267.178 120.046 262.528 119.965 259.61 122.783C256.692 125.601 256.611 130.251 259.429 133.169C262.247 136.087 266.897 136.169 269.815 133.351Z" fill="white"/>
<path d="M264.702 135.659C263.253 135.654 261.835 135.234 260.618 134.448C259.4 133.662 258.433 132.543 257.831 131.225C257.23 129.906 257.019 128.443 257.224 127.008C257.428 125.573 258.04 124.227 258.987 123.129C259.933 122.032 261.174 121.228 262.563 120.814C263.952 120.4 265.431 120.393 266.823 120.794C268.216 121.195 269.465 121.986 270.422 123.075C271.378 124.164 272.003 125.504 272.221 126.937C272.371 127.921 272.325 128.925 272.086 129.892C271.848 130.859 271.421 131.769 270.831 132.57C270.24 133.372 269.497 134.049 268.645 134.564C267.793 135.079 266.847 135.42 265.863 135.57C265.479 135.63 265.091 135.66 264.702 135.659ZM264.702 120.964C264.344 120.964 263.985 120.992 263.631 121.048C261.767 121.334 260.093 122.346 258.975 123.864C257.857 125.382 257.387 127.281 257.667 129.145C257.951 131.01 258.964 132.686 260.482 133.804C262.001 134.921 263.902 135.39 265.767 135.107C267.631 134.823 269.307 133.81 270.425 132.292C271.543 130.773 272.011 128.872 271.728 127.007C271.471 125.331 270.624 123.801 269.339 122.693C268.055 121.585 266.417 120.972 264.721 120.964H264.702Z" fill="white"/>
<path d="M264.552 128.45C264.552 128.539 264.655 130.513 264.655 130.513L265.088 132.167L265.2 130.386L264.9 128.398L264.552 128.45Z" fill="#263238"/>
<path d="M265.172 127.327L267.954 125.447L269.148 124.225L267.564 125.043L264.947 127.059L265.172 127.327Z" fill="#263238"/>
<path d="M265.591 127.505C265.618 127.683 265.593 127.865 265.517 128.028C265.442 128.191 265.319 128.328 265.166 128.421C265.012 128.514 264.834 128.56 264.655 128.552C264.475 128.544 264.302 128.483 264.157 128.377C264.013 128.27 263.903 128.123 263.842 127.954C263.78 127.785 263.771 127.602 263.814 127.427C263.858 127.253 263.952 127.095 264.085 126.975C264.218 126.854 264.384 126.775 264.561 126.749C264.798 126.714 265.039 126.773 265.232 126.915C265.425 127.057 265.553 127.269 265.591 127.505Z" fill="#263238"/>
<path d="M256.3 123.036C256.3 123.036 255.111 121.025 257.71 119.216C260.308 117.406 261.906 119.079 261.906 119.079L256.3 123.036Z" fill="white"/>
<path d="M256.3 123.036C256.436 122.911 256.58 122.794 256.732 122.689C257.047 122.458 257.437 122.162 257.902 121.814C258.894 121.086 260.252 120.085 261.812 118.995V119.178C261.557 118.947 261.256 118.771 260.929 118.661C260.45 118.523 259.946 118.493 259.454 118.574C258.962 118.656 258.495 118.846 258.086 119.131C257.361 119.529 256.767 120.128 256.375 120.856C256.13 121.354 256.053 121.917 256.154 122.463C256.225 122.853 256.337 123.05 256.319 123.06C256.184 122.895 256.095 122.697 256.06 122.486C255.915 121.917 255.969 121.315 256.215 120.781C256.606 120.007 257.215 119.367 257.968 118.938C258.399 118.659 258.876 118.46 259.378 118.351C259.922 118.228 260.49 118.259 261.018 118.44C261.382 118.56 261.716 118.757 261.995 119.018L262.099 119.117L261.981 119.202C260.379 120.334 258.946 121.312 257.935 122.021L256.746 122.82C256.603 122.903 256.454 122.976 256.3 123.036Z" fill="#263238"/>
<path d="M266.018 118.426C266.018 118.426 267.235 116.434 270.046 117.858C272.856 119.281 272.132 121.495 272.132 121.495L266.018 118.426Z" fill="white"/>
<path d="M266.018 118.426C266.193 118.49 266.364 118.564 266.53 118.647L267.851 119.272C268.96 119.798 270.483 120.532 272.188 121.387L272.019 121.457C272.103 121.124 272.116 120.776 272.057 120.438C271.957 119.948 271.749 119.488 271.447 119.09C271.145 118.692 270.758 118.367 270.313 118.14C269.623 117.689 268.817 117.445 267.992 117.439C267.435 117.457 266.899 117.655 266.465 118.003C266.309 118.137 266.16 118.278 266.018 118.426C266.103 118.232 266.236 118.062 266.404 117.933C266.837 117.535 267.395 117.299 267.983 117.265C268.667 117.273 269.342 117.422 269.966 117.703C270.59 117.984 271.15 118.39 271.61 118.896C271.972 119.323 272.21 119.839 272.301 120.391C272.364 120.767 272.347 121.153 272.25 121.523L272.212 121.659L272.08 121.594C270.328 120.71 268.791 119.911 267.71 119.338L266.446 118.666C266.296 118.6 266.153 118.52 266.018 118.426Z" fill="#263238"/>
<path d="M256.873 119.451C256.873 119.451 256.572 118.943 257.226 118.483C257.368 118.348 257.555 118.27 257.75 118.264C257.946 118.258 258.137 118.324 258.288 118.45L256.873 119.451Z" fill="#E0E0E0"/>
<path d="M256.873 119.451C257.292 119.05 257.741 118.682 258.217 118.351V118.534C258.162 118.487 258.098 118.45 258.029 118.426C257.92 118.396 257.806 118.39 257.694 118.408C257.582 118.426 257.475 118.467 257.381 118.53C257.209 118.619 257.066 118.754 256.967 118.92C256.897 119.087 256.871 119.27 256.892 119.451C256.892 119.451 256.831 119.418 256.793 119.314C256.736 119.163 256.736 118.996 256.793 118.844C256.894 118.629 257.058 118.451 257.263 118.332C257.382 118.244 257.521 118.185 257.667 118.161C257.813 118.136 257.963 118.147 258.104 118.191C258.21 118.225 258.307 118.283 258.386 118.36L258.49 118.459L258.368 118.544C257.904 118.899 257.403 119.203 256.873 119.451Z" fill="#263238"/>
<path d="M269.444 117.294C269.444 117.294 269.749 116.786 270.459 117.148C271.169 117.51 270.99 118.088 270.99 118.088L269.444 117.294Z" fill="#E0E0E0"/>
<path d="M269.444 117.294C269.994 117.471 270.529 117.694 271.042 117.961L270.873 118.031C270.885 117.96 270.885 117.887 270.873 117.815C270.848 117.705 270.8 117.601 270.732 117.511C270.664 117.421 270.577 117.347 270.478 117.294C270.318 117.184 270.131 117.119 269.937 117.106C269.756 117.122 269.582 117.187 269.435 117.294C269.435 117.294 269.435 117.223 269.51 117.139C269.619 117.021 269.768 116.947 269.928 116.932C270.16 116.919 270.391 116.976 270.591 117.096C270.724 117.162 270.84 117.258 270.931 117.376C271.021 117.495 271.083 117.632 271.112 117.778C271.138 117.886 271.138 117.999 271.112 118.107L271.075 118.243L270.943 118.177C270.413 117.937 269.911 117.641 269.444 117.294Z" fill="#263238"/>
<path d="M265.219 127.604C265.239 127.735 265.206 127.868 265.128 127.975C265.05 128.082 264.932 128.153 264.801 128.173C264.67 128.193 264.537 128.16 264.43 128.081C264.323 128.003 264.252 127.885 264.232 127.754C264.223 127.69 264.226 127.624 264.241 127.56C264.257 127.496 264.285 127.436 264.324 127.384C264.363 127.331 264.411 127.286 264.468 127.252C264.524 127.218 264.586 127.196 264.651 127.186C264.715 127.176 264.782 127.179 264.845 127.195C264.909 127.21 264.969 127.238 265.022 127.277C265.074 127.316 265.119 127.365 265.153 127.421C265.187 127.477 265.209 127.539 265.219 127.604Z" fill="#E0E0E0"/>
<path d="M252.493 121.824C252.431 121.536 252.431 121.238 252.493 120.95C252.591 120.245 252.819 119.565 253.165 118.943C253.508 118.321 253.96 117.765 254.5 117.303C254.712 117.098 254.963 116.938 255.238 116.833C254.505 117.481 253.872 118.233 253.358 119.065C252.935 119.937 252.644 120.867 252.493 121.824Z" fill="#263238"/>
<path d="M250.158 121.716C250.081 121.448 250.065 121.168 250.111 120.893C250.223 119.555 250.833 118.307 251.821 117.397C252.008 117.193 252.237 117.032 252.493 116.927C251.114 118.153 250.271 119.87 250.144 121.711L250.158 121.716Z" fill="#263238"/>
<path d="M274.618 117.82C274.02 117.044 273.294 116.376 272.47 115.846C271.61 115.38 270.678 115.063 269.712 114.906C270.002 114.844 270.301 114.844 270.591 114.906C272.02 115.121 273.31 115.885 274.186 117.035C274.384 117.263 274.532 117.53 274.618 117.82Z" fill="#263238"/>
<path d="M275.088 115.785C274.502 115.145 273.841 114.579 273.119 114.098C272.355 113.687 271.544 113.371 270.703 113.158C271.599 113.175 272.475 113.426 273.245 113.886C274.014 114.346 274.649 114.999 275.088 115.78V115.785Z" fill="#263238"/>
<path d="M304.849 128.441C303.909 123.624 301.273 122.308 297.697 120.64C294.121 118.971 295.667 115.137 295.667 115.137H293.58C293.58 115.137 295.131 118.953 291.555 120.621C287.978 122.289 285.351 123.605 284.398 128.422C283.444 133.239 285.948 139.7 285.948 139.7L294.623 139.597L303.303 139.7C303.303 139.7 305.803 133.257 304.849 128.441Z" fill="#455A64"/>
<path d="M278.594 116.217H311.269L303.007 97.2178H285.732L278.594 116.217Z" fill="#FAFAFA"/>
<path d="M278.594 116.217L278.711 115.884L279.078 114.883L280.488 111.053C281.728 107.716 283.495 102.946 285.657 97.1849V97.1144H285.727H303.002H303.082L303.115 97.1896L306.268 104.441L311.372 116.189L311.447 116.354H311.264L287.767 116.293L280.99 116.264H279.186H278.716H278.566H279.209H281.042L287.856 116.232L311.24 116.17L311.137 116.335L306.019 104.586C304.943 102.1 303.886 99.6662 302.871 97.3306L302.979 97.4058H285.704L285.798 97.34C283.627 103.059 281.827 107.787 280.572 111.095C279.938 112.745 279.444 114.042 279.101 114.935C278.932 115.372 278.801 115.71 278.711 115.95C278.622 116.189 278.594 116.217 278.594 116.217Z" fill="#263238"/>
<path d="M110.91 32.1924C110.783 32.8597 112.926 47.0848 114.67 53.7485C116.413 60.4122 122.522 78.862 123.636 81.63L131.804 73.312C131.804 73.312 125.173 60.1021 124.543 55.8585C123.913 51.615 121.014 44.58 118.876 40.0169C116.737 35.4538 115.093 30.7591 115.093 30.7591L110.91 32.1924Z" fill="#FFBF9D"/>
<path d="M112.344 18.9543C112.344 18.9543 110.816 20.834 110.487 21.8444C110.158 22.8548 109.505 26.5438 109.547 28.01C109.59 29.4762 111.004 33.4848 111.004 33.4848L116.009 33.3062L115.459 31.3231C115.459 31.3231 120.074 28.6115 119.966 27.4649C119.858 26.3182 116.206 20.8857 115.873 20.5897C115.539 20.2936 114.726 20.5897 114.294 20.9186C113.861 21.2476 112.602 23.2072 112.602 23.2072C112.602 23.2072 113.194 21.3275 113.363 20.6461C113.814 18.9543 112.344 18.9543 112.344 18.9543Z" fill="#FFBF9D"/>
<path d="M161.88 48.7061C164.422 49.2888 166.579 51.2767 167.195 53.5888C167.483 54.7403 167.406 55.9529 166.974 57.0585C166.542 58.1641 165.776 59.1079 164.784 59.7591C165.042 59.9558 165.252 60.2078 165.399 60.4964C165.547 60.7851 165.628 61.1031 165.637 61.4271C165.645 61.7512 165.581 62.0731 165.449 62.3691C165.317 62.6651 165.12 62.9278 164.873 63.1379C164.286 63.5076 163.582 63.6441 162.899 63.5206C162.216 63.3971 161.605 63.0225 161.184 62.4706C161.476 63.7488 160.437 65.0224 159.079 65.3372C158.377 65.4644 157.655 65.4329 156.966 65.2451C156.277 65.0573 155.639 64.7179 155.099 64.2517C154.072 63.3469 153.316 62.1759 152.913 60.8681L155.037 50.8161C156.541 48.9881 159.328 48.1281 161.88 48.7061Z" fill="#263238"/>
<path d="M158.816 63.7535C159.498 63.2369 159.978 62.497 160.17 61.663C160.362 60.8289 160.256 59.9538 159.868 59.1904C160.752 58.5842 160.902 57.2731 160.493 56.2815C160.085 55.2899 159.262 54.5427 158.463 53.8284C158.517 52.5719 158.088 51.3424 157.264 50.3923C156.44 49.4423 155.283 48.844 154.032 48.7202C153.36 46.5585 150.855 45.487 148.595 45.4588C148.043 45.4918 147.489 45.4459 146.95 45.3226C146.571 45.1785 146.202 45.0089 145.845 44.815C143.82 43.8751 141.268 44.7304 139.844 46.4457C139.637 46.7363 139.392 46.9986 139.116 47.2258C138.707 47.4502 138.271 47.6223 137.819 47.738C137.346 47.9201 136.918 48.202 136.563 48.5645C136.209 48.927 135.937 49.3616 135.765 49.8387C135.479 50.647 135.474 51.6009 134.905 52.2401C134.577 52.5145 134.263 52.8062 133.965 53.1141C133.232 54.1198 134.13 55.6518 133.542 56.7515C133.42 56.977 133.246 57.165 133.105 57.3812C132.823 57.8246 132.711 58.3557 132.791 58.8756C132.912 59.2579 132.958 59.66 132.927 60.0598C132.82 60.3453 132.676 60.6154 132.499 60.8634C132.142 61.5166 132.823 64.6699 133.312 65.2339L151.301 70.906C152.03 70.9595 152.757 70.7857 153.382 70.4086C154.007 70.0315 154.5 69.4697 154.793 68.8007C154.858 68.5652 154.986 68.3521 155.164 68.1851C155.349 68.0901 155.55 68.0326 155.756 68.0159C157.105 67.748 157.735 66.1972 158.012 64.8485C158.039 64.6563 158.1 64.4702 158.191 64.2987C158.361 64.0772 158.573 63.8919 158.816 63.7535Z" fill="#263238"/>
<path d="M153.637 62.2027C154.666 59.0259 153.783 54.7448 151.09 52.2165C149.394 50.6234 147.833 50.1394 146.823 49.6977C145.389 49.1044 143.809 48.9618 142.293 49.2888C141.231 49.2183 136.569 51.4411 135.272 55.0033C133.834 58.9601 132.236 63.8522 131.827 67.0008C131.014 73.3309 135.422 75.4597 135.422 75.4597L131.935 85.3284L145.766 84.2475L153.637 62.2027Z" fill="#FFBF9D"/>
<path d="M140.657 68.7114C140.74 68.2848 140.718 67.8443 140.592 67.4285C140.305 66.9303 139.652 67.1042 139.092 67.2546C138.533 67.405 138.153 67.56 138.153 67.56L138.204 68.4999C138.331 68.9229 138.486 69.4915 138.89 69.6748L139.083 69.75C139.232 69.8133 139.391 69.8459 139.553 69.8459C139.714 69.8459 139.874 69.8133 140.023 69.75C140.362 69.4996 140.589 69.127 140.657 68.7114Z" fill="#FF9A6C"/>
<path d="M135.117 59.7544C135.173 59.886 135.906 59.6745 136.719 59.9752C137.532 60.276 137.983 60.9151 138.129 60.8399C138.275 60.7647 138.157 60.5956 137.969 60.3089C137.704 59.9362 137.332 59.6527 136.903 59.4959C136.478 59.338 136.013 59.3199 135.577 59.4442C135.239 59.5429 135.093 59.6839 135.117 59.7544Z" fill="#263238"/>
<path d="M138.928 65.7602C138.529 65.494 138.098 65.2792 137.645 65.1211C137.438 65.0365 137.25 64.9331 137.255 64.778C137.301 64.5514 137.416 64.3445 137.584 64.1859L138.688 62.7479C140.244 60.6942 141.437 58.9883 141.353 58.9179C141.268 58.8474 139.943 60.4734 138.388 62.527L137.307 63.9791C137.097 64.1968 136.971 64.4812 136.95 64.7827C136.958 64.8675 136.986 64.9493 137.03 65.0217C137.075 65.0942 137.136 65.1555 137.208 65.2009C137.317 65.2666 137.434 65.3187 137.556 65.356C137.993 65.5505 138.455 65.6864 138.928 65.7602Z" fill="#263238"/>
<path d="M135.422 75.4597C138.266 76.3467 141.3 76.4264 144.187 75.6899C144.187 75.6899 140.78 79.3179 134.891 76.9776L135.422 75.4597Z" fill="#FF9A6C"/>
<path d="M137.509 54.5568C137.589 54.8012 138.27 54.8529 138.998 55.1349C139.727 55.4168 140.286 55.7975 140.507 55.6612C140.606 55.5907 140.582 55.3698 140.385 55.0879C140.105 54.7286 139.728 54.4564 139.299 54.3031C138.875 54.1409 138.413 54.1049 137.969 54.1997C137.636 54.2843 137.476 54.4393 137.509 54.5568Z" fill="#263238"/>
<path d="M146.09 63.4434C145.963 63.5139 145.526 62.8889 144.68 62.6163C143.834 62.3437 143.11 62.5505 143.054 62.4189C143.026 62.3625 143.186 62.2122 143.524 62.1088C143.965 61.9817 144.434 61.9931 144.868 62.1417C145.298 62.2832 145.672 62.5581 145.935 62.9265C146.127 63.1943 146.151 63.4011 146.09 63.4434Z" fill="#263238"/>
<path d="M148.303 58.1565C148.078 58.2881 147.504 57.8793 146.743 57.6161C145.982 57.3529 145.286 57.2683 145.206 57.0193C145.169 56.9065 145.338 56.7514 145.676 56.6668C146.138 56.5781 146.615 56.6204 147.053 56.789C147.496 56.9403 147.886 57.216 148.176 57.5832C148.378 57.8652 148.407 58.086 148.303 58.1565Z" fill="#263238"/>
<path d="M150.982 67.6728C151.113 67.2029 151.945 66.31 152.392 66.3758C153.637 66.5356 155.747 67.2593 154.882 70.2857C153.698 74.4165 149.793 72.3769 149.821 72.2547C149.849 72.1326 150.521 69.2048 150.982 67.6728Z" fill="#FFBF9D"/>
<path d="M151.414 71.047C151.414 71.047 151.471 71.1175 151.574 71.2114C151.725 71.3337 151.917 71.3927 152.11 71.3759C152.58 71.3383 153.158 70.7509 153.393 70.0131C153.504 69.6611 153.536 69.2888 153.487 68.9228C153.484 68.7829 153.448 68.6457 153.381 68.5229C153.314 68.4001 153.218 68.2955 153.101 68.2179C153.026 68.1743 152.939 68.158 152.853 68.1717C152.767 68.1854 152.689 68.2283 152.631 68.2931C152.542 68.3918 152.547 68.4811 152.523 68.4811C152.5 68.4811 152.453 68.3871 152.523 68.2273C152.576 68.131 152.661 68.0562 152.763 68.0159C152.9 67.9597 153.054 67.9597 153.191 68.0159C153.351 68.098 153.487 68.2197 153.586 68.3695C153.686 68.5192 153.745 68.6919 153.759 68.8712C153.832 69.2789 153.805 69.6983 153.679 70.093C153.411 70.9201 152.763 71.578 152.114 71.578C151.995 71.5776 151.877 71.5509 151.769 71.4997C151.661 71.4486 151.565 71.3742 151.489 71.2819C151.391 71.1504 151.395 71.0517 151.414 71.047Z" fill="#FF9A6C"/>
<path d="M134.341 54.7918C134.808 54.7057 135.241 54.4885 135.589 54.1656C135.936 53.8427 136.185 53.4275 136.306 52.9685C136.809 53.2974 137.579 52.7523 138.04 52.3669C138.5 51.9816 138.98 51.8594 139.116 51.2767C139.132 51.1577 139.181 51.0455 139.257 50.9524C139.409 50.8427 139.598 50.7971 139.783 50.8255C140.267 50.8091 140.738 50.6714 141.155 50.425C141.571 50.1787 141.919 49.8316 142.166 49.4157C142.94 50.0657 143.864 50.5116 144.854 50.7127C144.983 51.083 145.202 51.4152 145.492 51.6791C145.782 51.943 146.133 52.1302 146.513 52.2236C146.894 52.317 147.292 52.3137 147.671 52.214C148.05 52.1143 148.398 51.9213 148.684 51.6526C148.75 51.9442 148.878 52.2184 149.059 52.4566C149.239 52.6949 149.469 52.8918 149.732 53.0342C150.26 53.3145 150.827 53.5156 151.414 53.6311C151.144 54.1597 151.074 54.7677 151.215 55.3441C151.357 55.9205 151.701 56.4267 152.185 56.7703C152.317 56.8548 152.476 56.9535 152.5 57.1086C152.523 57.2637 152.401 57.4188 152.302 57.5504C152.154 57.7644 152.05 58.0062 151.998 58.2613C151.945 58.5164 151.944 58.7795 151.996 59.0348C152.047 59.2902 152.149 59.5326 152.296 59.7474C152.444 59.9623 152.633 60.1453 152.852 60.2854C152.654 60.3783 152.48 60.5148 152.342 60.6848C152.204 60.8548 152.107 61.0537 152.057 61.2668C152.007 61.4798 152.007 61.7013 152.055 61.9147C152.103 62.1281 152.199 62.3278 152.335 62.4988C152.458 62.6351 152.622 62.7996 152.547 62.9687C152.512 63.0281 152.464 63.0782 152.406 63.1144C151.951 63.3966 151.586 63.8025 151.353 64.2846C151.246 64.5263 151.234 64.8 151.322 65.0498C151.409 65.2996 151.588 65.5066 151.823 65.6286C151.647 65.6938 151.487 65.7941 151.351 65.9234C151.215 66.0526 151.107 66.2082 151.034 66.3805C150.921 66.7377 151.175 67.2076 151.551 67.1747C152.368 67.2477 153.188 67.2791 154.008 67.2687C155.639 66.028 154.685 63.8475 155.15 61.8503C155.576 59.8303 155.528 57.7393 155.009 55.7411C154.824 54.8993 154.528 54.0856 154.13 53.3209C153.629 52.4728 153.033 51.6845 152.354 50.9712C151.558 49.9741 150.606 49.1124 149.534 48.4194C147.462 47.2399 144.91 47.3668 142.556 47.7145C141.653 47.8161 140.768 48.039 139.924 48.3772C138.947 48.8536 138.063 49.4996 137.311 50.2851C136.152 51.3382 135.222 52.6177 134.576 54.0446" fill="#263238"/>
<path d="M133.956 53.1047C134.053 52.962 134.172 52.8352 134.308 52.7288C134.44 52.616 134.609 52.4938 134.778 52.3199C134.983 52.1224 135.143 51.8837 135.248 51.6197C135.373 51.2873 135.467 50.9445 135.53 50.5953C135.608 50.1755 135.741 49.7679 135.925 49.3828C136.157 48.9418 136.477 48.5531 136.865 48.2409C137.076 48.0725 137.304 47.9276 137.546 47.8085C137.803 47.6912 138.069 47.5938 138.341 47.5172C138.62 47.4431 138.886 47.3223 139.125 47.16C139.362 46.9713 139.571 46.7497 139.746 46.5021C140.61 45.4313 141.828 44.7033 143.181 44.4485C143.543 44.3817 143.912 44.3549 144.281 44.3686C144.662 44.3877 145.039 44.454 145.404 44.566C145.587 44.6224 145.766 44.7022 145.944 44.7774C146.123 44.8526 146.292 44.9513 146.461 45.0359C146.802 45.2226 147.178 45.3347 147.565 45.3649C147.955 45.4024 148.355 45.3649 148.764 45.393C149.177 45.4052 149.589 45.4523 149.995 45.534C150.408 45.6143 150.814 45.729 151.207 45.8771C151.606 46.0335 151.989 46.2286 152.349 46.4598C153.099 46.93 153.683 47.6236 154.018 48.443L154.112 48.692L154.055 48.645C155.322 48.77 156.493 49.3753 157.328 50.3366C158.163 51.298 158.597 52.5424 158.543 53.8143V53.7627C158.973 54.1337 159.379 54.5308 159.76 54.9516C160.133 55.3653 160.427 55.8429 160.63 56.3614C160.809 56.8695 160.848 57.4167 160.743 57.9451C160.648 58.4582 160.358 58.9147 159.934 59.2186V59.1482C160.318 59.8866 160.433 60.7357 160.258 61.5495C160.115 62.2792 159.753 62.9479 159.22 63.4669C159.097 63.5868 158.965 63.6968 158.825 63.7958C158.689 63.8898 158.553 63.9791 158.435 64.0778C158.317 64.1741 158.225 64.2985 158.167 64.4397C158.115 64.5797 158.078 64.7245 158.054 64.872C157.944 65.4064 157.774 65.9267 157.547 66.4228C157.364 66.8251 157.105 67.1887 156.786 67.4943C156.545 67.7111 156.259 67.8716 155.949 67.9642C155.695 68.0394 155.479 68.0394 155.362 68.0817C155.297 68.1044 155.235 68.1311 155.174 68.1616C155.227 68.1171 155.29 68.085 155.357 68.0676C155.484 68.0159 155.691 68.0112 155.94 67.9313C156.243 67.8382 156.521 67.6775 156.753 67.4614C157.066 67.1592 157.317 66.7983 157.491 66.3993C157.704 65.9062 157.862 65.3908 157.96 64.8626C157.984 64.7101 158.024 64.5605 158.078 64.4162C158.139 64.2638 158.236 64.1284 158.36 64.0214C158.488 63.9175 158.621 63.8203 158.759 63.7301C158.895 63.6341 159.022 63.5272 159.14 63.4105C159.658 62.901 160.007 62.2449 160.141 61.5307C160.308 60.7418 160.195 59.9193 159.821 59.2045L159.798 59.1623L159.836 59.1341C160.234 58.8435 160.507 58.4113 160.597 57.9263C160.696 57.4191 160.656 56.8943 160.479 56.4084C160.285 55.9038 159.998 55.44 159.633 55.0409C159.254 54.6247 158.849 54.2324 158.421 53.866H158.398V53.8378C158.448 52.5986 158.023 51.3869 157.21 50.4505C156.397 49.5141 155.256 48.9237 154.022 48.8001H153.98V48.7578L153.886 48.5181C153.563 47.7232 152.997 47.0506 152.27 46.5961C151.916 46.3713 151.541 46.1809 151.151 46.0275C150.765 45.8795 150.367 45.7648 149.962 45.6844C149.563 45.6043 149.157 45.5587 148.75 45.5481C148.35 45.5481 147.946 45.5481 147.542 45.5152C147.341 45.4986 147.143 45.4608 146.95 45.4024C146.76 45.3432 146.576 45.2661 146.4 45.1722C146.226 45.0876 146.057 44.9936 145.883 44.9137C145.711 44.8359 145.536 44.7669 145.357 44.7069C145.002 44.5988 144.636 44.5341 144.266 44.5143C143.906 44.5013 143.545 44.5265 143.19 44.5895C141.856 44.8212 140.65 45.5251 139.793 46.5726C139.609 46.8258 139.393 47.0533 139.149 47.2493C138.899 47.4138 138.625 47.5376 138.336 47.6159C138.067 47.6878 137.804 47.7821 137.551 47.8978C136.873 48.2221 136.319 48.7582 135.972 49.4251C135.787 49.8038 135.653 50.2051 135.573 50.6188C135.505 50.97 135.406 51.3144 135.277 51.6479C135.173 51.9157 135.013 52.1578 134.807 52.3575C134.623 52.5314 134.454 52.6489 134.337 52.757C134.235 52.8342 134.14 52.9208 134.055 53.0155C133.984 53.0765 133.961 53.1047 133.956 53.1047Z" fill="#455A64"/>
<path d="M152.364 47.2399C152.364 47.2399 152.274 47.1459 152.105 46.9861C151.862 46.7658 151.584 46.5879 151.283 46.4598C150.84 46.2655 150.353 46.1941 149.873 46.253C149.286 46.3346 148.739 46.5975 148.308 47.0049C148.181 47.1282 148.066 47.2636 147.965 47.409C147.914 47.4748 147.879 47.5513 147.862 47.6327C147.844 47.7141 147.846 47.7983 147.866 47.879L147.927 48.0482L147.782 47.9354C147.387 47.6931 146.914 47.6123 146.461 47.7098C146.096 47.788 145.766 47.9826 145.521 48.2643C145.359 48.4495 145.236 48.6652 145.159 48.8988C145.103 49.0585 145.089 49.1525 145.079 49.1525C145.07 49.1525 145.079 49.1525 145.079 49.082C145.086 49.0153 145.099 48.9492 145.117 48.8847C145.181 48.6382 145.298 48.4088 145.46 48.2126C145.706 47.9089 146.044 47.6942 146.423 47.6017C146.905 47.49 147.412 47.5727 147.833 47.832L147.739 47.9025C147.715 47.8085 147.713 47.7105 147.731 47.6154C147.75 47.5203 147.79 47.4305 147.847 47.3526C147.951 47.1951 148.072 47.05 148.209 46.9203C148.659 46.4925 149.234 46.2206 149.849 46.1449C150.351 46.089 150.858 46.1719 151.316 46.3846C151.623 46.5228 151.9 46.7191 152.133 46.9626C152.197 47.028 152.256 47.097 152.312 47.1694C152.349 47.2117 152.368 47.2352 152.364 47.2399Z" fill="#455A64"/>
<path d="M157.65 53.9553C157.594 53.9999 157.53 54.0349 157.462 54.0587C157.282 54.1393 157.095 54.2022 156.903 54.2466C156.608 54.3128 156.301 54.3128 156.006 54.2466C155.626 54.1695 155.29 53.9511 155.066 53.6357H155.16L154.99 53.7673L154.802 53.8895C154.428 54.0985 154.009 54.2131 153.581 54.2232C153.233 54.2339 152.887 54.1764 152.561 54.054C152.345 53.9714 152.142 53.8574 151.959 53.7156C151.89 53.6647 151.829 53.6046 151.776 53.537C152.031 53.7123 152.305 53.8574 152.594 53.9694C152.911 54.0725 153.243 54.1186 153.576 54.1057C153.983 54.0889 154.381 53.9762 154.737 53.7767L154.915 53.6639L155.075 53.537L155.136 53.4901L155.174 53.5511C155.378 53.839 155.681 54.0428 156.024 54.1245C156.303 54.1901 156.593 54.1981 156.875 54.148C157.364 54.0728 157.65 53.9318 157.65 53.9553Z" fill="#455A64"/>
<path d="M158.689 58.4244C158.689 58.4244 158.689 58.4479 158.656 58.4949C158.615 58.5605 158.565 58.6192 158.506 58.6688C158.281 58.8463 157.997 58.9334 157.711 58.9132C157.295 58.8687 156.9 58.7056 156.574 58.4432C156.375 58.2972 156.183 58.1403 156.001 57.9733C155.785 57.7986 155.638 57.5544 155.583 57.2825V57.212L155.672 57.2684C155.213 57.4658 154.726 57.591 154.229 57.6396C153.818 57.6777 153.404 57.5996 153.036 57.4141C152.787 57.2922 152.575 57.1075 152.42 56.8783C152.379 56.8175 152.345 56.753 152.317 56.6857C152.317 56.634 152.293 56.6105 152.317 56.6105C152.34 56.6105 152.368 56.6998 152.481 56.8501C152.646 57.0534 152.857 57.2145 153.097 57.3201C153.453 57.4849 153.848 57.5499 154.239 57.5081C154.724 57.4516 155.199 57.325 155.648 57.1321L155.728 57.1039V57.1932V57.2543C155.775 57.4956 155.907 57.7122 156.1 57.8652C156.278 58.0237 156.465 58.1727 156.659 58.3116C156.965 58.5659 157.336 58.7288 157.73 58.7816C157.999 58.8098 158.269 58.7415 158.492 58.5889C158.562 58.5402 158.628 58.4852 158.689 58.4244Z" fill="#455A64"/>
<path d="M139.685 69.7969C139.933 69.7386 140.154 69.5958 140.31 69.3928C140.606 68.8465 140.683 68.2081 140.526 67.607C140.511 67.535 140.478 67.468 140.429 67.4128C140.38 67.3576 140.318 67.316 140.249 67.2922C140.093 67.2633 139.934 67.2633 139.779 67.2922C139.454 67.3345 139.163 67.3814 138.919 67.4237C138.656 67.495 138.387 67.5359 138.115 67.5459C138.35 67.4021 138.61 67.3033 138.881 67.2546C139.166 67.1776 139.454 67.1164 139.746 67.0713C139.931 67.0307 140.124 67.0307 140.31 67.0713C140.418 67.1056 140.515 67.1667 140.593 67.2489C140.671 67.331 140.727 67.4316 140.756 67.5412C140.848 67.872 140.867 68.2188 140.813 68.5578C140.759 68.8968 140.632 69.22 140.441 69.5056C140.308 69.6758 140.118 69.7912 139.905 69.8298C139.764 69.8439 139.685 69.811 139.685 69.7969Z" fill="#263238"/>
<path d="M168.041 50.7033C167.981 50.4203 167.892 50.1446 167.773 49.8809C167.603 49.5301 167.365 49.2164 167.073 48.9583C166.781 48.7001 166.441 48.5026 166.072 48.3771C165.563 48.2103 165.015 48.2103 164.507 48.3771C163.926 48.5763 163.423 48.9528 163.069 49.4533C162.863 49.7104 162.726 50.0162 162.673 50.3414C162.619 50.6665 162.65 51 162.763 51.3095C162.817 51.4585 162.924 51.5821 163.064 51.656C163.204 51.7299 163.367 51.7488 163.52 51.709C163.683 51.6493 163.832 51.5574 163.959 51.4387C164.086 51.32 164.187 51.177 164.258 51.0182C164.418 50.6969 164.508 50.3457 164.525 49.9872C164.541 49.6287 164.482 49.2708 164.352 48.9364C164.127 48.2978 163.673 47.7653 163.078 47.4419C162.567 47.1737 162.001 47.0288 161.424 47.019C160.847 47.0092 160.275 47.1348 159.756 47.3856C159.045 47.7282 158.425 48.2338 157.946 48.8612C157.603 49.3029 157.476 49.5849 157.444 49.5708C157.462 49.4983 157.491 49.4287 157.528 49.364C157.63 49.1702 157.745 48.9833 157.871 48.8048C158.332 48.1348 158.954 47.5918 159.68 47.2258C160.223 46.9493 160.824 46.8052 161.433 46.8052C162.043 46.8052 162.643 46.9493 163.186 47.2258C163.84 47.5676 164.342 48.1406 164.596 48.833C164.739 49.1991 164.803 49.591 164.785 49.9835C164.767 50.376 164.668 50.7604 164.493 51.1122C164.408 51.3011 164.285 51.4707 164.133 51.6105C163.98 51.7503 163.8 51.8574 163.604 51.9252C163.391 51.9835 163.164 51.9565 162.97 51.85C162.787 51.7419 162.645 51.5767 162.566 51.38C162.409 51.0272 162.373 50.6325 162.462 50.2569C162.546 49.9086 162.696 49.5798 162.904 49.2888C163.29 48.7529 163.836 48.3544 164.464 48.1516C165.009 47.9696 165.598 47.9696 166.142 48.1516C166.528 48.2875 166.882 48.5023 167.18 48.7822C167.479 49.0622 167.716 49.4011 167.876 49.7775C168.011 50.0665 168.068 50.3857 168.041 50.7033Z" fill="#263238"/>
<path d="M131.804 48.5275C131.804 48.5275 131.804 48.4758 131.865 48.4006C131.941 48.2874 132.04 48.1913 132.156 48.1186C132.334 48.0103 132.536 47.9473 132.744 47.9354C133.04 47.9075 133.337 47.9913 133.575 48.1703C134.116 48.5792 134.346 49.3546 134.515 50.1347C134.562 50.3321 134.609 50.5388 134.661 50.7456C134.725 50.9683 134.747 51.2009 134.727 51.4317C134.703 51.5674 134.637 51.6923 134.539 51.7889C134.43 51.8823 134.292 51.934 134.149 51.9345C134.014 51.9355 133.88 51.906 133.758 51.8483C133.636 51.7905 133.529 51.7059 133.444 51.6009C133.296 51.3985 133.21 51.1575 133.197 50.9072C133.183 50.6568 133.243 50.408 133.369 50.1911C133.491 49.9936 133.66 49.8294 133.861 49.713C134.061 49.5966 134.288 49.5316 134.52 49.5238C134.934 49.5006 135.341 49.6368 135.657 49.9044C135.927 50.1337 136.131 50.4304 136.249 50.7644C136.401 51.243 136.401 51.7567 136.249 52.2353C136.21 52.405 136.136 52.5649 136.033 52.7052C136.033 52.7052 136.09 52.522 136.155 52.193C136.264 51.7241 136.232 51.2334 136.061 50.7832C135.944 50.4865 135.753 50.2245 135.507 50.0219C135.227 49.7932 134.871 49.6805 134.511 49.707C134.32 49.7172 134.134 49.7738 133.97 49.8722C133.807 49.9705 133.669 50.1074 133.571 50.271C133.468 50.4473 133.419 50.6497 133.43 50.8534C133.441 51.0571 133.511 51.2532 133.632 51.4176C133.692 51.4935 133.768 51.5549 133.855 51.5972C133.942 51.6395 134.038 51.6617 134.135 51.662C134.22 51.666 134.304 51.637 134.369 51.5811C134.433 51.5251 134.474 51.4464 134.482 51.3612C134.502 51.1589 134.483 50.9547 134.426 50.7597C134.379 50.5576 134.337 50.3555 134.29 50.1582C134.144 49.3734 133.933 48.645 133.472 48.2784C133.289 48.1395 133.07 48.057 132.842 48.0411C132.613 48.0252 132.384 48.0767 132.184 48.1891C132.043 48.285 131.915 48.3987 131.804 48.5275Z" fill="#263238"/>
<path d="M151.771 46.8028C151.874 46.6042 151.942 46.3897 151.973 46.1684C151.996 45.8662 151.949 45.5627 151.836 45.2815C151.723 45.0004 151.546 44.7491 151.32 44.5471C150.958 44.273 150.536 44.0877 150.088 44.0061C149.641 43.9245 149.181 43.9488 148.745 44.0772C148.209 44.1804 147.7 44.3897 147.246 44.6928C147.002 44.8359 146.797 45.0376 146.65 45.2796C146.503 45.5216 146.419 45.7964 146.405 46.0791L146.189 46.0039C146.297 45.8632 146.376 45.7019 146.42 45.5299C146.465 45.3579 146.474 45.1786 146.447 45.003C146.405 44.6881 146.284 44.3887 146.097 44.1319C145.91 43.8751 145.662 43.669 145.376 43.5321C144.818 43.2949 144.199 43.2406 143.609 43.377C142.581 43.5774 141.643 44.0952 140.925 44.8573C140.448 45.379 140.178 46.058 140.169 46.7652C140.179 47.0251 140.215 47.2833 140.277 47.5359C140.238 47.4781 140.208 47.4148 140.187 47.348C140.121 47.162 140.083 46.9672 140.075 46.7699C140.048 46.0279 140.305 45.3036 140.794 44.7445C141.523 43.933 142.493 43.3764 143.562 43.1561C144.202 43.0064 144.873 43.0623 145.479 43.3159C145.804 43.4687 146.085 43.7007 146.297 43.9905C146.509 44.2804 146.644 44.6188 146.691 44.9748C146.721 45.1832 146.708 45.3954 146.654 45.5988C146.6 45.8022 146.505 45.9927 146.377 46.159L146.17 46.4128V46.0838C146.183 45.7627 146.276 45.4498 146.44 45.1734C146.604 44.897 146.834 44.6656 147.11 44.5001C147.596 44.1731 148.145 43.9506 148.721 43.8469C149.19 43.7194 149.682 43.7054 150.157 43.8059C150.631 43.9064 151.075 44.1186 151.452 44.4249C151.688 44.6468 151.867 44.9213 151.977 45.2259C152.086 45.5305 152.122 45.8567 152.082 46.1778C152.053 46.3444 151.992 46.5039 151.903 46.6477C151.825 46.7574 151.781 46.8091 151.771 46.8028Z" fill="#263238"/>
<path d="M148.994 66.9679C148.994 66.9679 148.947 66.9444 148.867 66.8833C148.757 66.7884 148.656 66.683 148.566 66.5684C148.246 66.1292 148.066 65.6034 148.049 65.0599C148.04 64.6526 148.13 64.2492 148.311 63.8841C148.492 63.5191 148.758 63.2033 149.088 62.964C149.477 62.6765 149.937 62.498 150.418 62.4471C150.687 62.3967 150.966 62.4346 151.212 62.5552C151.28 62.6061 151.333 62.6744 151.365 62.7531C151.398 62.8317 151.408 62.9176 151.395 63.0016C151.383 63.081 151.355 63.1571 151.312 63.225C151.269 63.2929 151.213 63.3513 151.146 63.3963C151.02 63.4659 150.88 63.5063 150.736 63.5144C150.592 63.5225 150.448 63.4983 150.315 63.4433C150.064 63.3534 149.84 63.2034 149.661 63.0063C149.494 62.8245 149.365 62.61 149.285 62.3763C149.204 62.1426 149.172 61.8947 149.191 61.6482C149.243 61.2059 149.441 60.7937 149.755 60.478C150.025 60.2071 150.36 60.0111 150.728 59.9094C151.256 59.7754 151.812 59.8133 152.317 60.0175C152.503 60.08 152.674 60.1809 152.819 60.3136C152.819 60.3136 152.631 60.2243 152.284 60.1115C151.796 59.9451 151.27 59.932 150.775 60.0739C150.419 60.1806 150.101 60.3875 149.859 60.67C149.618 60.9525 149.463 61.2986 149.412 61.667C149.399 61.8816 149.43 62.0966 149.502 62.2993C149.573 62.5019 149.685 62.688 149.831 62.8465C149.982 63.0105 150.171 63.1362 150.38 63.2131C150.477 63.2587 150.583 63.2824 150.691 63.2824C150.798 63.2824 150.904 63.2587 151.001 63.2131C151.156 63.1144 151.203 62.8606 151.062 62.7807C150.863 62.6962 150.645 62.6701 150.432 62.7055C149.992 62.7536 149.573 62.9156 149.215 63.1755C148.907 63.3911 148.656 63.6773 148.482 64.0101C148.308 64.3428 148.216 64.7125 148.214 65.0881C148.215 65.6024 148.361 66.106 148.637 66.5402C148.848 66.8175 149.008 66.9538 148.994 66.9679Z" fill="#263238"/>
<path d="M172.458 54.538C172.458 54.538 172.247 54.4488 171.861 54.3313C171.321 54.1702 170.752 54.1254 170.193 54.1997C169.81 54.249 169.437 54.3585 169.089 54.5239C168.693 54.6794 168.362 54.9643 168.149 55.3322C168.104 55.4277 168.08 55.5321 168.08 55.6377C168.08 55.7433 168.104 55.8477 168.149 55.9432C168.207 56.035 168.288 56.1107 168.383 56.1632C168.478 56.2158 168.585 56.2435 168.694 56.2439C168.938 56.2154 169.173 56.1288 169.377 55.9915C169.581 55.8542 169.75 55.6701 169.869 55.4544C170.205 55.0561 170.439 54.5819 170.55 54.0728C170.598 53.8426 170.595 53.6048 170.541 53.376C170.488 53.1471 170.385 52.9326 170.24 52.7476C169.936 52.4398 169.533 52.2485 169.103 52.2071C168.717 52.1508 168.327 52.1225 167.937 52.1226C167.375 52.0858 166.818 52.2526 166.368 52.5925C166.215 52.7329 166.079 52.8906 165.964 53.0624C165.969 53.0076 165.987 52.9546 166.015 52.9074C166.087 52.764 166.184 52.6349 166.302 52.5267C166.755 52.139 167.337 51.9345 167.933 51.9534C168.333 51.9424 168.734 51.9628 169.131 52.0145C169.614 52.0517 170.068 52.2619 170.409 52.6066C170.579 52.815 170.701 53.0581 170.767 53.3187C170.832 53.5793 170.84 53.8511 170.79 54.1151C170.674 54.6655 170.423 55.1788 170.061 55.6095C169.892 55.8386 169.691 56.0427 169.465 56.2157C169.23 56.3963 168.938 56.4879 168.642 56.4742C168.494 56.4702 168.349 56.4289 168.221 56.3542C168.093 56.2794 167.986 56.1736 167.909 56.0465C167.848 55.9197 167.817 55.7808 167.817 55.6401C167.817 55.4993 167.848 55.3604 167.909 55.2336C168.154 54.8145 168.538 54.495 168.995 54.3313C169.365 54.1639 169.76 54.0591 170.165 54.0211C170.747 53.9576 171.336 54.03 171.885 54.2326C172.032 54.287 172.175 54.353 172.312 54.43C172.416 54.5145 172.463 54.5145 172.458 54.538Z" fill="#263238"/>
<path d="M182.848 46.0557C182.848 46.0557 171.199 58.3681 168.144 61.0937C165.245 63.6784 153.27 74.0687 153.27 74.0687L157.5 86.1931C157.5 86.1931 169.389 72.7106 171.636 69.6748L181.683 56.3332C183.051 54.2984 187.322 48.6027 187.322 48.6027L182.848 46.0557Z" fill="#FFBF9D"/>
<path d="M182.844 45.957C182.844 45.957 182.571 43.3018 182.43 42.6956C182.289 42.0894 181.542 40.172 181.73 39.1899C181.918 38.2077 183.455 36.3702 184.08 35.7828C184.705 35.1954 185.762 34.9886 186.133 35.7828C186.133 35.7828 187.44 35.8768 187.722 36.389C187.887 36.6848 188.013 37.0007 188.098 37.3289L189.775 37C189.775 37 190.151 37.9821 189.498 38.5414C189.498 38.5414 190.339 38.5884 190.476 39.2886C190.571 40.0667 190.459 40.8562 190.151 41.5772C189.963 41.7651 188.981 42.6063 188.981 42.6063C188.981 42.6063 189.545 46.2953 189.122 47.0426C188.699 47.7898 185.71 49.7964 185.71 49.7964L182.844 45.957Z" fill="#FFBF9D"/>
<path d="M187.256 41.9907C187.468 42.3431 188.069 42.7802 188.45 42.6345C188.637 42.5517 188.805 42.4313 188.943 42.281C189.081 42.1306 189.187 41.9534 189.254 41.7604C189.383 41.373 189.459 40.9699 189.479 40.562L189.597 39.3167" fill="#FFBF9D"/>
<path d="M189.606 39.3167C189.647 39.5673 189.647 39.8228 189.606 40.0733C189.606 40.3036 189.583 40.5808 189.554 40.8863C189.533 41.2318 189.455 41.5715 189.324 41.892C189.184 42.2281 188.934 42.5066 188.615 42.6815C188.465 42.7658 188.288 42.7893 188.121 42.7473C187.989 42.7119 187.863 42.6547 187.75 42.5781C187.341 42.3008 187.224 42.0048 187.252 41.9907C187.435 42.1538 187.632 42.3016 187.839 42.4324C187.936 42.502 188.05 42.5433 188.168 42.5516C188.287 42.5599 188.406 42.5349 188.511 42.4794C188.777 42.3213 188.983 42.0802 189.099 41.7933C189.28 41.2292 189.394 40.6455 189.437 40.0545C189.453 39.8011 189.51 39.5519 189.606 39.3167Z" fill="#FF9A6C"/>
<path d="M183.798 38.7622C184.031 38.7133 184.242 38.5903 184.399 38.4116C184.557 38.2329 184.653 38.008 184.672 37.7706C184.612 38.0515 184.596 38.3401 184.625 38.6259C184.638 38.7698 184.685 38.9087 184.76 39.0318C184.836 39.1548 184.939 39.2588 185.062 39.3355C185.271 39.4218 185.504 39.434 185.721 39.3698C185.938 39.3057 186.127 39.1692 186.255 38.983C186.683 38.4285 186.664 37.6625 186.622 36.9623C186.594 36.4548 186.622 35.5525 185.645 35.2564" fill="#FFBF9D"/>
<path d="M185.645 35.2471C185.645 35.2471 185.776 35.2471 185.983 35.3411C186.132 35.4134 186.264 35.516 186.37 35.6422C186.477 35.7684 186.557 35.9155 186.603 36.0742C186.671 36.2872 186.709 36.5086 186.716 36.7321C186.716 36.9623 186.754 37.202 186.754 37.4793C186.814 38.08 186.637 38.6804 186.26 39.1523C186.045 39.3803 185.751 39.5166 185.438 39.5329C185.288 39.537 185.139 39.5007 185.008 39.428C184.876 39.3553 184.767 39.2487 184.691 39.1194C184.556 38.8974 184.491 38.6407 184.503 38.3816C184.512 38.1683 184.539 37.9562 184.583 37.7471H184.761C184.743 37.9319 184.681 38.1096 184.579 38.2651C184.478 38.4206 184.34 38.5492 184.178 38.64C183.948 38.7575 183.798 38.7481 183.798 38.734C183.798 38.7199 183.929 38.687 184.122 38.5554C184.257 38.4635 184.369 38.3422 184.451 38.2006C184.532 38.0589 184.58 37.9007 184.592 37.7377H184.77C184.664 38.1461 184.706 38.5789 184.888 38.9596C184.946 39.0539 185.027 39.131 185.125 39.1831C185.222 39.2351 185.332 39.2602 185.442 39.2556C185.691 39.2368 185.924 39.1263 186.096 38.9455C186.424 38.5161 186.581 37.9803 186.537 37.4417C186.553 36.9887 186.523 36.5353 186.448 36.0883C186.375 35.7984 186.196 35.5468 185.945 35.3834C185.843 35.343 185.742 35.2975 185.645 35.2471Z" fill="#FF9A6C"/>
<path d="M183.276 41.5677C184.06 40.4352 184.979 39.4016 186.011 38.4897C187.054 37.5827 188.389 37.0821 189.771 37.0798C189.825 37.3295 189.818 37.5889 189.748 37.8349C189.678 38.0809 189.549 38.3058 189.371 38.4897C189.014 38.8575 188.62 39.1881 188.196 39.4765C187.762 39.7627 187.424 40.174 187.228 40.6561C187.021 41.2999 187.256 41.9907 187.388 42.6533C187.668 44.1024 187.453 45.6036 186.777 46.9157" fill="#FFBF9D"/>
<path d="M186.787 46.9203C186.787 46.9203 186.89 46.6665 187.05 46.2107C187.272 45.5639 187.397 44.8876 187.421 44.204C187.438 43.7317 187.404 43.2589 187.318 42.7942C187.174 42.2592 187.083 41.7115 187.045 41.1588C187.049 40.8417 187.135 40.531 187.294 40.2566C187.464 39.982 187.681 39.7388 187.933 39.5375C188.464 39.1825 188.955 38.7696 189.395 38.3063C189.535 38.1434 189.635 37.9493 189.686 37.74C189.737 37.5308 189.737 37.3125 189.686 37.1033L189.799 37.1878C188.729 37.1692 187.679 37.4756 186.787 38.0666C186.06 38.5381 185.401 39.1056 184.827 39.7537C184.333 40.2988 183.967 40.7641 183.704 41.0789C183.579 41.2465 183.44 41.4036 183.29 41.5489C183.387 41.36 183.503 41.1819 183.638 41.0178C183.873 40.6842 184.225 40.2049 184.709 39.6362C185.274 38.9576 185.934 38.364 186.669 37.874C187.597 37.2471 188.694 36.9192 189.813 36.9341H189.898L189.921 37.014C189.981 37.258 189.982 37.5125 189.926 37.7573C189.87 38.0021 189.757 38.2303 189.597 38.4238C189.146 38.9017 188.641 39.3259 188.093 39.6879C187.849 39.8532 187.646 40.0729 187.501 40.3297C187.356 40.5866 187.272 40.8736 187.256 41.1682C187.288 41.7076 187.372 42.2426 187.506 42.766C187.583 43.2428 187.608 43.7265 187.581 44.2087C187.536 44.9081 187.378 45.5955 187.111 46.2436C187.038 46.4184 186.957 46.5893 186.866 46.7558C186.845 46.8132 186.819 46.8683 186.787 46.9203Z" fill="#FF9A6C"/>
<path d="M125.624 87.8849L121.207 77.9692L131.174 71.2068L135.089 79.0501L125.624 87.8849Z" fill="white"/>
<path d="M165.418 129.286C162.514 126.542 155.423 119.136 153.27 112.322C153.12 111.852 153.642 97.0111 154.126 94.4311C154.61 91.8511 158.266 87.2692 158.266 87.2692L153.27 74.0781L147.721 78.519C147.721 78.519 145.023 79.5481 142.236 80.6666C137.481 81.6065 134.543 77.9598 134.543 77.9598C134.891 77.7624 131.987 79.097 131.165 79.8912C131.165 79.8912 120.356 90.1171 120.511 96.4142C120.666 102.711 122.302 103.318 122.95 108.111C123.58 112.749 125.497 118.45 126.061 122.961C126.399 125.547 127.394 128.003 128.951 130.095C128.951 130.095 130.197 132.444 134.229 132.299C138.261 132.153 151.269 129.479 158.369 131.547C165.47 133.615 168.844 137.849 168.844 137.849C168.844 137.849 168.327 132.054 165.418 129.286Z" fill="white"/>
<path d="M141.64 107.796C141.419 107.83 141.195 107.841 140.972 107.829C140.366 107.816 139.762 107.75 139.168 107.632C137.184 107.252 135.34 106.346 133.828 105.008C132.315 103.67 131.191 101.95 130.572 100.028C130.383 99.4524 130.244 98.8611 130.159 98.2611C130.117 98.0428 130.101 97.8204 130.112 97.5984C130.272 98.3936 130.481 99.1783 130.737 99.9481C131.387 101.817 132.506 103.487 133.988 104.799C135.469 106.111 137.262 107.02 139.196 107.439C140.003 107.605 140.819 107.724 141.64 107.796Z" fill="#263238"/>
<path d="M151.17 92.8098C151.17 92.8098 151.057 92.7111 150.883 92.5044C150.647 92.2142 150.429 91.9097 150.23 91.5927C148.906 89.4675 148.28 86.9813 148.44 84.4825C148.462 84.1068 148.511 83.733 148.585 83.3641C148.601 83.2267 148.636 83.0923 148.689 82.9646C148.731 82.9646 148.637 83.552 148.613 84.4872C148.547 86.9439 149.158 89.3714 150.38 91.5034C150.846 92.3164 151.203 92.7816 151.17 92.8098Z" fill="#263238"/>
<path d="M121.423 92.9696C121.461 92.7816 121.521 92.5986 121.601 92.4245C121.724 92.0767 121.935 91.588 122.217 91.0146C122.967 89.472 123.869 88.0079 124.91 86.6442C126.127 85.0417 127.335 83.6883 128.199 82.6967L129.228 81.5313C129.346 81.3808 129.48 81.2437 129.628 81.1224C129.539 81.2917 129.43 81.4495 129.304 81.5924C129.078 81.8884 128.749 82.302 128.336 82.8095C127.508 83.8293 126.32 85.2015 125.116 86.7899C124.085 88.1453 123.17 89.5853 122.381 91.0945C121.771 92.2318 121.465 92.9837 121.423 92.9696Z" fill="#263238"/>
<path d="M158.252 126.359C157.973 126.365 157.693 126.354 157.415 126.326C156.66 126.303 155.905 126.355 155.16 126.481C154.054 126.667 152.969 126.957 151.917 127.346C150.723 127.773 149.445 128.328 148.096 128.911C146.833 129.474 145.535 129.957 144.21 130.358C143.124 130.689 142.002 130.889 140.869 130.955C140.104 130.995 139.336 130.94 138.585 130.79C138.317 130.743 138.115 130.668 137.983 130.635C137.911 130.62 137.842 130.594 137.777 130.56C138.791 130.761 139.827 130.835 140.859 130.781C141.976 130.692 143.08 130.478 144.149 130.142C145.462 129.731 146.75 129.244 148.007 128.685C149.351 128.102 150.644 127.552 151.851 127.134C152.918 126.75 154.02 126.473 155.141 126.307C155.897 126.198 156.663 126.173 157.425 126.232C157.633 126.248 157.84 126.274 158.045 126.312C158.116 126.317 158.186 126.333 158.252 126.359Z" fill="#263238"/>
<g opacity="0.3">
<path d="M134.073 104.958C132.194 103.36 130.525 101.33 130.314 98.8815H130.178C129.891 100.272 129.973 101.714 130.416 103.064C130.859 104.413 131.646 105.623 132.701 106.574C134.825 108.454 137.64 108.76 140.31 107.81C137.913 107.237 135.944 106.556 134.073 104.958Z" fill="black"/>
</g>
<path d="M128.462 129.235C124.042 128.151 119.553 127.366 115.027 126.885C109.858 126.462 97.6391 126.631 95.3834 129.832C93.1277 133.032 93.3674 135.983 94.1569 138.173C94.9464 140.363 101.963 144.409 105.116 146.345C108.269 148.281 126.686 148.958 126.686 148.958L134.229 130.842L128.462 129.235Z" fill="white"/>
<path d="M138.637 131.467C138.195 131.505 130.544 131.866 128.444 135.081C126.343 138.295 124.214 142.233 124.144 144.564C124.073 146.895 125.375 148.422 127.828 149.226C130.281 150.03 139.05 150.166 142.396 149.696C145.742 149.226 161.983 146.312 165.494 144.785C169.004 143.258 169.944 139.987 168.111 135.32C166.668 131.65 159.652 130.884 155.728 129.761C151.804 128.638 138.637 131.467 138.637 131.467Z" fill="white"/>
<path d="M104.947 133.145C105.225 133.142 105.503 133.162 105.778 133.206C106.046 133.229 106.375 133.272 106.751 133.333C107.127 133.394 107.56 133.45 108.034 133.539C108.974 133.699 110.097 133.958 111.324 134.268C112.55 134.578 113.894 134.996 115.276 135.48C116.658 135.964 117.955 136.509 119.115 137.036C120.276 137.562 121.291 138.088 122.123 138.572C122.546 138.803 122.917 139.042 123.241 139.235C123.566 139.428 123.843 139.611 124.064 139.766C124.299 139.906 124.524 140.063 124.736 140.236C124.484 140.118 124.241 139.98 124.012 139.822C123.787 139.681 123.505 139.517 123.171 139.329C122.837 139.141 122.466 138.92 122.038 138.699C121.202 138.229 120.159 137.759 119.021 137.214C117.884 136.669 116.573 136.18 115.196 135.687C113.819 135.194 112.485 134.799 111.263 134.46C110.041 134.122 108.913 133.868 107.973 133.685C107.503 133.586 107.076 133.506 106.7 133.441C106.324 133.375 106.004 133.314 105.76 133.276C105.486 133.25 105.214 133.207 104.947 133.145Z" fill="#263238"/>
<path d="M164.201 139.282C164.008 139.141 163.827 138.984 163.661 138.812C163.327 138.497 162.829 138.06 162.199 137.543C161.57 137.026 160.79 136.439 159.887 135.837C158.909 135.194 157.894 134.608 156.847 134.085C155.795 133.57 154.713 133.116 153.609 132.726C152.705 132.412 151.786 132.143 150.855 131.923C150.056 131.73 149.408 131.599 148.975 131.528C148.738 131.5 148.503 131.45 148.275 131.378C148.514 131.377 148.753 131.396 148.989 131.434C149.635 131.507 150.277 131.613 150.911 131.754C151.854 131.954 152.784 132.206 153.698 132.51C155.932 133.267 158.052 134.325 160 135.654C160.798 136.195 161.564 136.782 162.293 137.412C162.787 137.832 163.258 138.28 163.703 138.751C163.887 138.911 164.053 139.089 164.201 139.282Z" fill="#263238"/>
<path d="M167.947 137.487L167.853 137.421L167.599 137.219L166.626 136.425C165.45 135.437 164.213 134.523 162.923 133.69C162.026 133.127 161.083 132.641 160.103 132.238C158.973 131.796 157.797 131.481 156.598 131.298C154.065 130.889 151.222 130.941 148.256 131.011C145.291 131.082 142.457 131.317 139.901 131.599C138.623 131.744 137.405 131.895 136.278 132.069C135.231 132.304 134.157 132.393 133.087 132.332C132.199 132.238 131.346 131.937 130.596 131.453C130.026 131.104 129.499 130.689 129.026 130.217C128.727 129.919 128.469 129.583 128.26 129.216C128.185 129.09 128.124 128.956 128.077 128.817C128.077 128.817 128.148 128.953 128.303 129.192C128.528 129.537 128.794 129.853 129.097 130.132C129.573 130.586 130.1 130.983 130.666 131.317C131.404 131.774 132.237 132.056 133.101 132.139C134.157 132.188 135.215 132.092 136.245 131.852C137.377 131.669 138.594 131.509 139.873 131.382C142.438 131.086 145.267 130.865 148.247 130.771C151.226 130.677 154.074 130.654 156.635 131.082C157.85 131.274 159.039 131.603 160.179 132.064C161.161 132.478 162.104 132.978 162.998 133.558C164.287 134.412 165.515 135.354 166.673 136.378C167.073 136.73 167.383 137.008 167.613 137.21L167.853 137.431C167.886 137.446 167.918 137.465 167.947 137.487Z" fill="#263238"/>
<path d="M140.507 131.505C140.413 131.539 140.315 131.563 140.216 131.575C140.023 131.613 139.746 131.65 139.374 131.725C138.346 131.922 137.329 132.176 136.329 132.487C133.028 133.509 129.955 135.157 127.278 137.341C125.723 138.61 124.402 140.081 123.777 141.702C123.236 143.153 123.196 144.743 123.664 146.218C123.968 147.218 124.416 148.168 124.994 149.038C125.403 149.654 125.666 149.978 125.647 149.978C125.572 149.91 125.503 149.837 125.441 149.757C125.314 149.611 125.135 149.386 124.914 149.08C124.3 148.22 123.824 147.269 123.505 146.261C123.283 145.56 123.16 144.833 123.138 144.099C123.123 143.252 123.27 142.41 123.57 141.618C124.205 139.935 125.554 138.431 127.128 137.149C129.826 134.94 132.941 133.297 136.287 132.318C137.295 132.019 138.322 131.789 139.36 131.627C139.727 131.566 140.018 131.542 140.211 131.519C140.309 131.507 140.408 131.502 140.507 131.505Z" fill="#263238"/>
<g opacity="0.3">
<path d="M159.76 128.699C158.778 127.994 157.458 128.022 156.255 128.154C152.449 128.536 148.698 129.34 145.07 130.551C150.066 129.709 155.066 129 159.671 129.31C159.724 129.316 159.777 129.31 159.827 129.292C159.876 129.274 159.921 129.245 159.958 129.207C160.094 129.052 159.93 128.821 159.76 128.699Z" fill="black"/>
</g>
<path d="M239.725 135.875C239.316 133.821 238.113 132.003 236.722 130.438C231.778 124.878 224.297 122.007 216.872 121.509C209.447 121.011 202.036 122.712 194.987 125.099C191.002 126.448 186.937 128.126 184.127 131.255C181.316 134.385 180.132 139.357 182.449 142.872L185.565 143.455L184.07 143.521C200.072 144.283 216.103 144.216 232.098 143.319C234.194 143.201 236.454 143.004 238.033 141.627C239.612 140.25 240.129 137.933 239.725 135.875Z" fill="#E0E0E0"/>
<path d="M219.682 128.558C219.747 128.69 219.798 128.829 219.833 128.972C219.917 129.24 220.021 129.634 220.138 130.128C220.72 132.696 220.91 135.337 220.702 137.962C220.66 138.464 220.613 138.873 220.566 139.151C220.558 139.297 220.527 139.442 220.472 139.578C220.462 139.036 220.481 138.493 220.528 137.952C220.637 135.347 220.448 132.737 219.964 130.175C219.841 129.641 219.746 129.102 219.682 128.558Z" fill="#263238"/>
<path d="M215.974 128.765C215.879 128.775 215.783 128.775 215.688 128.765L214.875 128.661C214.165 128.563 213.141 128.445 211.872 128.318C210.603 128.192 209.09 128.079 207.407 128.004C205.725 127.928 203.869 127.924 201.928 128.004C199.987 128.083 198.136 128.21 196.458 128.384C194.78 128.558 193.281 128.77 192.022 128.981C190.762 129.192 189.752 129.376 189.052 129.521L188.243 129.672C188.15 129.696 188.053 129.709 187.957 129.709C188.046 129.673 188.139 129.645 188.234 129.625L189.033 129.427C189.724 129.254 190.739 129.042 191.993 128.812C193.248 128.582 194.757 128.342 196.434 128.159C198.112 127.975 199.968 127.83 201.919 127.759C203.869 127.689 205.73 127.731 207.417 127.801C209.104 127.872 210.622 128.018 211.891 128.168C213.159 128.318 214.184 128.464 214.889 128.591L215.697 128.737C215.79 128.734 215.884 128.744 215.974 128.765Z" fill="#263238"/>
<path d="M231.393 128.591C230.907 128.595 230.422 128.563 229.941 128.497C229.048 128.422 227.812 128.342 226.445 128.314C225.077 128.285 223.836 128.314 222.944 128.361C222.459 128.407 221.973 128.418 221.487 128.394C221.96 128.279 222.443 128.21 222.93 128.187C225.277 127.982 227.641 128.029 229.979 128.328C230.458 128.367 230.932 128.455 231.393 128.591Z" fill="#263238"/>
<path d="M26.1897 207.437H22.6557L21.2976 184.058H27.2423L26.1897 207.437Z" fill="#B56D50"/>
<path d="M95.8816 207.437H92.3524L90.9895 181.031H96.9343L95.8816 207.437Z" fill="#B56D50"/>
<path d="M239.974 207.437H236.44L235.082 177.474H241.027L239.974 207.437Z" fill="#B56D50"/>
<path d="M20.6444 142.558H241.257C242.743 142.558 244.168 143.148 245.218 144.198C246.269 145.249 246.859 146.674 246.859 148.159V170.82C246.859 172.586 246.157 174.28 244.908 175.528C243.66 176.777 241.966 177.479 240.2 177.479H11.2644V151.938C11.2644 149.445 12.2547 147.054 14.0173 145.292C15.7799 143.529 18.1705 142.539 20.6632 142.539L20.6444 142.558Z" fill="#E0E0E0"/>
<g opacity="0.3">
<path d="M176.316 177.563L180.273 177.474L177.308 142.807L172.143 142.539L176.316 177.563Z" fill="black"/>
</g>
<path d="M11.0812 179.645V148.446C11.0849 146.417 11.8918 144.472 13.3255 143.037C14.7592 141.601 16.703 140.792 18.7318 140.786L68.0095 140.565C68.0095 140.565 74.0905 134.456 78.4375 134.493C82.7844 134.531 86.2572 123.939 100.266 123.91C116.108 123.877 112.16 128.436 120.817 131.382C129.473 134.329 142.171 128.093 150.122 134.493C158.073 140.894 170.522 137.219 173.149 142.807C175.776 148.394 176.335 181.031 176.335 181.031L11.0812 179.645Z" fill="#455A64"/>
<path d="M11.0812 173.277V179.645C10.8791 185.284 12.0821 185.529 14.648 186.534C17.2139 187.54 20.0899 186.845 22.6839 185.914C25.278 184.984 27.8815 183.809 30.6212 183.875C36.1195 184.006 40.7014 189.044 46.1997 189.119C53.2487 189.199 58.7846 181.13 65.7914 181.811C71.1205 182.324 75.4205 187.869 80.7496 187.352C84.4668 186.995 87.4321 183.724 91.1164 183.123C95.8769 182.328 100.224 186.079 104.994 186.788C111.451 187.728 117.706 183.029 124.195 183.705C129.778 184.269 134.534 188.715 140.112 189.18C147.133 189.763 153.59 183.969 160.602 184.608C166.438 185.139 171.452 190.068 177.308 189.89L176.189 176.008L11.0812 173.277Z" fill="#455A64"/>
<path d="M100.266 180.839C100.2 180.839 100.144 172.775 100.144 162.826C100.144 152.877 100.2 144.809 100.266 144.809C100.332 144.809 100.388 152.873 100.388 162.826C100.388 172.779 100.318 180.839 100.266 180.839Z" fill="#263238"/>
<path d="M103.293 141.279C103.293 141.279 103.222 141.279 103.076 141.279H102.447L100.017 141.303L91.0882 141.34L61.6137 141.373L32.1344 141.34L23.2056 141.303L20.776 141.279H20.1416H19.9301H20.1416H20.776L23.2056 141.256L32.1344 141.218L61.6137 141.181L91.0882 141.218L100.017 141.256L102.447 141.279H103.076H103.293Z" fill="#263238"/>
<path d="M118.514 132.294C118.514 132.341 117.574 132.242 116.033 132.332C115.139 132.388 114.251 132.504 113.373 132.679C111.218 133.11 109.152 133.905 107.264 135.029C106.496 135.489 105.76 136 105.059 136.556C103.866 137.496 103.227 138.225 103.18 138.192C103.305 138.006 103.45 137.835 103.612 137.68C103.785 137.484 103.969 137.297 104.162 137.12C104.383 136.914 104.632 136.65 104.933 136.425C105.623 135.839 106.358 135.308 107.132 134.836C109.03 133.681 111.12 132.876 113.302 132.459C114.191 132.29 115.091 132.189 115.995 132.158C116.38 132.134 116.733 132.158 117.038 132.158C117.3 132.159 117.562 132.175 117.823 132.205C118.056 132.208 118.288 132.238 118.514 132.294Z" fill="#263238"/>
<path d="M168.327 142.539C168.327 142.605 159.535 142.562 148.693 142.445C137.852 142.327 129.059 142.177 129.059 142.111C129.059 142.045 137.852 142.083 148.698 142.2C159.544 142.318 168.327 142.468 168.327 142.539Z" fill="#263238"/>
<path d="M172.143 184.274C172.077 184.274 171.396 176.041 170.63 165.876C169.864 155.711 169.286 147.459 169.357 147.454C169.427 147.45 170.104 155.688 170.87 165.857C171.636 176.027 172.218 184.269 172.143 184.274Z" fill="#263238"/>
<path d="M42.1253 164.795C42.1958 164.795 42.0971 168.949 41.9138 174.067C41.7306 179.185 41.5191 183.339 41.4439 183.334C41.3687 183.329 41.4721 179.18 41.6601 174.062C41.848 168.945 42.0454 164.79 42.1253 164.795Z" fill="#263238"/>
<path d="M49.8182 182.281C49.7524 182.281 49.696 175.862 49.696 167.953C49.696 160.044 49.7524 153.625 49.8182 153.625C49.884 153.625 49.9404 160.039 49.9404 167.953C49.9404 175.867 49.8887 182.281 49.8182 182.281Z" fill="#263238"/>
<path d="M71.6891 179.335C71.6574 179.263 71.6368 179.187 71.628 179.109C71.5999 178.931 71.5576 178.715 71.5106 178.456C71.4119 177.883 71.2803 177.046 71.1346 176.031C70.8386 173.982 70.4908 171.144 70.1947 167.995C69.8987 164.847 69.7718 161.989 69.7248 159.922C69.6919 158.888 69.6778 158.042 69.6731 157.473V156.806C69.662 156.728 69.662 156.649 69.6731 156.571C69.6947 156.646 69.7058 156.723 69.706 156.801C69.706 156.985 69.7295 157.206 69.7483 157.469C69.7812 158.084 69.8235 158.911 69.8752 159.917C69.9833 161.98 70.1571 164.833 70.4344 167.977C70.7117 171.12 71.0312 173.959 71.2803 176.008L71.5811 178.442C71.6093 178.705 71.6374 178.912 71.6562 179.105C71.6787 179.179 71.6897 179.257 71.6891 179.335Z" fill="#263238"/>
<path d="M79.1142 182.488C79.1142 182.488 79.0672 182.418 79.0014 182.272L78.7194 181.633C78.4798 181.078 78.1649 180.261 77.8078 179.236C77.4506 178.212 77.0747 176.981 76.7128 175.594C76.351 174.208 76.0314 172.662 75.7729 171.031C75.5145 169.4 75.3688 167.826 75.303 166.398C75.2372 164.969 75.209 163.672 75.2372 162.591C75.2654 161.51 75.3171 160.636 75.3829 160.03L75.4534 159.339C75.4554 159.257 75.4697 159.177 75.4957 159.099C75.5039 159.181 75.5039 159.262 75.4957 159.344C75.4957 159.527 75.4957 159.757 75.4722 160.039C75.4393 160.641 75.4158 161.515 75.4064 162.596C75.397 163.677 75.4346 164.945 75.5192 166.383C75.6038 167.821 75.7823 169.363 76.0314 170.994C76.2805 172.624 76.6094 174.152 76.9431 175.538C77.2767 176.924 77.648 178.155 77.9863 179.18C78.3247 180.204 78.6114 181.031 78.8228 181.6L79.0578 182.253C79.084 182.33 79.1029 182.408 79.1142 182.488Z" fill="#263238"/>
<path d="M117.287 158.474C117.358 158.474 116.93 163.912 116.347 170.608C115.765 177.305 115.22 182.728 115.154 182.719C115.088 182.709 115.511 177.281 116.094 170.585C116.676 163.888 117.236 158.47 117.287 158.474Z" fill="#263238"/>
<path d="M129.247 180.594C129.203 180.52 129.172 180.439 129.153 180.355C129.087 180.167 129.012 179.937 128.918 179.655C128.716 179.039 128.448 178.146 128.162 177.037C127.406 174.135 126.838 171.187 126.46 168.212C126.087 165.236 125.91 162.239 125.929 159.24C125.929 158.089 125.972 157.159 126.014 156.515C126.014 156.219 126.052 155.974 126.066 155.777C126.066 155.69 126.077 155.603 126.099 155.518C126.11 155.606 126.11 155.694 126.099 155.782C126.099 155.974 126.099 156.219 126.099 156.519C126.099 157.163 126.099 158.089 126.099 159.24C126.129 162.226 126.33 165.207 126.7 168.169C127.077 171.136 127.62 174.079 128.326 176.985C128.599 178.099 128.834 178.997 129.008 179.617C129.083 179.904 129.144 180.143 129.196 180.331C129.224 180.416 129.241 180.505 129.247 180.594Z" fill="#263238"/>
<path d="M154.77 182.277C154.704 182.277 154.351 177.615 153.989 171.858C153.628 166.102 153.383 161.426 153.449 161.421C153.515 161.416 153.867 166.083 154.234 171.844C154.6 177.606 154.831 182.272 154.77 182.277Z" fill="#263238"/>
<path d="M241.577 142.558C241.577 142.623 226.407 142.68 207.703 142.68C189 142.68 173.83 142.623 173.83 142.558C173.83 142.492 188.995 142.435 207.703 142.435C226.412 142.435 241.577 142.487 241.577 142.558Z" fill="#263238"/>
<g opacity="0.3">
<path d="M116.831 132.266C116.755 132.063 116.628 131.882 116.464 131.74C116.3 131.599 116.103 131.5 115.892 131.453C113.045 130.819 110.099 130.776 107.235 131.326C104.127 131.925 101.279 133.465 99.0772 135.739C98.532 136.321 98.0057 137.036 98.2736 137.896C98.4159 138.295 98.6826 138.639 99.0344 138.876C99.3863 139.112 99.8048 139.23 100.229 139.212C101.39 139.159 102.504 138.734 103.405 137.999L106.023 135.57C109.477 132.872 115.732 131.993 116.831 132.28V132.266Z" fill="black"/>
</g>
</svg>
