<svg xmlns="http://www.w3.org/2000/svg" width="19" height="19" fill="none" viewBox="0 0 19 19"><path fill="#0B2335" fill-opacity=".63" d="M13.5024 4.47757C13.5024 3.9228 13.9521 3.47308 14.5069 3.47308C15.0616 3.47308 15.5114 3.9228 15.5114 4.47757C15.5114 5.03233 15.0616 5.48205 14.5069 5.48205C13.9521 5.48205 13.5024 5.03233 13.5024 4.47757Z"/><path fill="#0B2335" fill-opacity=".63" fill-rule="evenodd" d="M9.48444 4.72869C6.84932 4.72869 4.71313 6.86488 4.71313 9.5C4.71313 12.1351 6.84932 14.2713 9.48444 14.2713C12.1196 14.2713 14.2558 12.1351 14.2558 9.5C14.2558 6.86488 12.1196 4.72869 9.48444 4.72869ZM6.21986 9.5C6.21986 7.69702 7.68146 6.23542 9.48444 6.23542C11.2874 6.23542 12.749 7.69702 12.749 9.5C12.749 11.303 11.2874 12.7646 9.48444 12.7646C7.68146 12.7646 6.21986 11.303 6.21986 9.5Z" clip-rule="evenodd"/><path fill="#0B2335" fill-opacity=".63" fill-rule="evenodd" d="M14.7663 0.291884C11.2842 -0.0972948 7.68475 -0.0972948 4.20262 0.291884C2.18154 0.51777 0.549913 2.10989 0.312298 4.1415C-0.104099 7.7017 -0.104099 11.2983 0.312298 14.8585C0.549913 16.8901 2.18154 18.4822 4.20262 18.7081C7.68475 19.0973 11.2842 19.0973 14.7663 18.7081C16.7874 18.4822 18.419 16.8901 18.6566 14.8585C19.073 11.2983 19.073 7.7017 18.6566 4.1415C18.419 2.10989 16.7874 0.51777 14.7663 0.291884ZM4.36998 1.78929C7.74088 1.41254 11.228 1.41254 14.5989 1.78929C15.935 1.93862 17.0053 2.99294 17.1601 4.31653C17.5629 7.76044 17.5629 11.2396 17.1601 14.6835C17.0053 16.0071 15.935 17.0614 14.5989 17.2107C11.228 17.5875 7.74088 17.5875 4.36998 17.2107C3.0339 17.0614 1.96363 16.0071 1.80883 14.6835C1.40603 11.2396 1.40603 7.76044 1.80883 4.31653C1.96363 2.99294 3.0339 1.93862 4.36998 1.78929Z" clip-rule="evenodd"/></svg>