<svg width="56" height="31" viewBox="0 0 56 31" fill="none" xmlns="http://www.w3.org/2000/svg">
<path d="M41.1682 12.239C41.9772 11.1835 42.9903 10.9469 43.9437 10.5162C45.3693 9.87405 46.7272 8.746 48.1537 8.10546C49.5802 7.46492 51.1511 7.35764 52.4431 8.67974C53.735 10.0018 54.6038 13.0878 54.0807 15.7052C54.8221 16.2763 55.3593 17.7104 55.4021 19.236L40.0455 19.0025C39.5795 16.6155 40.0669 13.6763 41.1682 12.239Z" fill="#F5F5F5"/>
<path d="M47.0212 15.7193C47.0681 15.6754 47.1131 15.6253 47.1558 15.5695L47.2261 15.4874L47.3153 15.3991C47.3776 15.336 47.4489 15.2634 47.5318 15.1971L47.6601 15.0867L47.8026 14.9841C47.9006 14.9068 48.0102 14.85 48.1234 14.7775C48.3725 14.6448 48.6261 14.5394 48.8825 14.4619C49.1396 14.3861 49.3986 14.3334 49.6586 14.3042C49.8992 14.2868 50.1157 14.2821 50.2975 14.3042C50.3866 14.3042 50.4703 14.3184 50.5425 14.3294C50.6147 14.3404 50.677 14.3468 50.7269 14.3594C50.7795 14.3729 50.8324 14.3803 50.8855 14.3815C50.8345 14.3558 50.7823 14.3378 50.7296 14.3278C50.6788 14.3105 50.6173 14.2978 50.5452 14.2836C50.473 14.2695 50.3901 14.2553 50.2992 14.2458C50.0854 14.2226 49.8709 14.2189 49.6568 14.2347C49.3947 14.2571 49.1335 14.3061 48.8745 14.3815C48.6157 14.461 48.3603 14.5717 48.11 14.7128C47.996 14.7869 47.8864 14.8469 47.7884 14.9273L47.6449 15.0362L47.5166 15.1514C47.4425 15.2152 47.3708 15.2874 47.3019 15.3675L47.2128 15.4606L47.1442 15.5505C47.101 15.6016 47.0599 15.658 47.0212 15.7193Z" fill="#263238"/>
<path d="M47.0685 9.32505C47.6055 8.72587 47.9954 7.79053 48.1605 6.70527C48.3256 5.62001 48.2539 4.46445 47.9595 3.46868L47.8989 3.262C47.1718 1.11792 45.7373 1.01222 44.546 2.35641L39.6642 7.38765L40.0455 13.4807L42.2731 11.3871C42.2731 11.3871 43.0883 13.3418 44.2974 12.2548C44.8802 11.7342 46.0331 10.4831 47.0685 9.32505Z" fill="#FFBE9D"/>
<path d="M42.2811 11.4061C41.989 10.4184 41.8631 9.30301 41.9184 8.19238C41.9184 8.19238 41.2475 9.64859 41.9826 11.6633L42.2811 11.4061Z" fill="#EB996E"/>
<path d="M46.0295 9.60273C45.985 9.64493 45.9328 9.65469 45.8843 9.62995C45.8357 9.6052 45.7945 9.5479 45.7694 9.4702C45.7563 9.43315 45.7475 9.39185 45.7436 9.34871C45.7396 9.30557 45.7406 9.26147 45.7464 9.219C45.7522 9.17653 45.7627 9.13655 45.7774 9.10139C45.7921 9.06623 45.8105 9.0366 45.8317 9.01426C45.8763 8.97206 45.9284 8.96229 45.977 8.98704C46.0256 9.01178 46.0668 9.06909 46.0919 9.14678C46.105 9.18383 46.1138 9.22514 46.1177 9.26828C46.1216 9.31142 46.1207 9.35551 46.1149 9.39798C46.1091 9.44045 46.0985 9.48044 46.0839 9.5156C46.0692 9.55076 46.0507 9.58039 46.0295 9.60273Z" fill="#263238"/>
<path d="M46.3993 9.36922C46.3663 9.35344 46.394 9.03317 46.2969 8.70659C46.1997 8.38001 46.0367 8.23329 46.0491 8.17018C46.0545 8.14336 46.1062 8.14494 46.1792 8.20962C46.2765 8.29938 46.3556 8.44054 46.4056 8.61351C46.4563 8.78329 46.475 8.97732 46.459 9.16728C46.4456 9.30769 46.4154 9.37869 46.3993 9.36922Z" fill="#263238"/>
<path d="M45.0905 6.71566C45.0461 6.75778 44.9941 6.7675 44.9457 6.74274C44.8972 6.71799 44.8562 6.66072 44.8313 6.58314C44.8182 6.54608 44.8094 6.50477 44.8055 6.46164C44.8015 6.4185 44.8025 6.3744 44.8083 6.33193C44.8141 6.28946 44.8246 6.24947 44.8393 6.21431C44.8539 6.17915 44.8724 6.14953 44.8936 6.12719C44.9381 6.08507 44.9901 6.07534 45.0385 6.1001C45.0869 6.12485 45.128 6.18213 45.1529 6.25971C45.166 6.29677 45.1748 6.33807 45.1787 6.38121C45.1827 6.42434 45.1817 6.46844 45.1759 6.51091C45.1701 6.55339 45.1595 6.59337 45.1449 6.62853C45.1302 6.66369 45.1117 6.69331 45.0905 6.71566Z" fill="#263238"/>
<path d="M45.4443 6.16653C45.4113 6.14917 45.4389 5.83048 45.3418 5.5039C45.2447 5.17732 45.0816 5.03059 45.0941 4.96749C45.0995 4.94067 45.1502 4.94067 45.2242 5.00693C45.3215 5.09669 45.4006 5.23785 45.4505 5.41082C45.5012 5.58003 45.5199 5.77356 45.504 5.96301C45.4888 6.10342 45.4603 6.17599 45.4443 6.16653Z" fill="#263238"/>
<path d="M44.3437 8.68439C44.3544 8.67335 44.4328 8.85794 44.5549 9.1577C44.5843 9.23658 44.6173 9.306 44.6538 9.29022C44.6903 9.27444 44.734 9.19714 44.7767 9.10563L45.0628 8.52662C45.4726 7.71096 45.8192 7.07357 45.8379 7.1067C45.8567 7.13984 45.5395 7.82139 45.1296 8.63706L44.8382 9.2208C44.7966 9.32525 44.7358 9.40103 44.6663 9.43537C44.646 9.43835 44.6257 9.43323 44.6067 9.4204C44.5877 9.40756 44.5706 9.38734 44.5567 9.36122C44.536 9.32142 44.5181 9.27747 44.5032 9.23027C44.4373 9.06092 44.3837 8.87751 44.3437 8.68439Z" fill="#263238"/>
<path d="M45.4558 4.23702C45.5066 4.18496 45.6286 4.44212 45.8122 4.66299C45.9957 4.88387 46.173 5.00535 46.1615 5.1079C46.1543 5.15523 46.0964 5.18836 46.0064 5.17574C45.8915 5.15588 45.7815 5.08299 45.6874 4.96433C45.5927 4.85136 45.5167 4.69558 45.4674 4.51312C45.4326 4.37112 45.4317 4.26384 45.4558 4.23702Z" fill="#263238"/>
<path d="M46.7361 7.42719C46.7896 7.48715 46.7673 7.78375 46.7967 8.12611C46.8261 8.46847 46.8858 8.74772 46.843 8.82818C46.8216 8.86289 46.7709 8.82818 46.7147 8.71774C46.6451 8.56025 46.6002 8.373 46.5846 8.17492C46.5689 7.97684 46.5831 7.77497 46.6256 7.5897C46.6657 7.45559 46.7103 7.40195 46.7361 7.42719Z" fill="#263238"/>
<path d="M48.3516 9.13251C48.4019 9.06541 48.4366 8.96799 48.449 8.85867C48.4615 8.74936 48.4509 8.63574 48.4193 8.5393C48.4669 8.63188 48.524 8.7074 48.5877 8.76176C48.6197 8.78794 48.6553 8.79754 48.6903 8.78945C48.7253 8.78135 48.7583 8.75589 48.7855 8.716C48.8639 8.57874 48.8247 8.3484 48.8042 8.15593C48.7787 7.90341 48.7984 7.64311 48.8603 7.41126C48.9494 7.07837 49.1178 6.83541 49.2265 6.52145C49.2969 6.31754 49.3405 6.08823 49.3541 5.85047C49.3678 5.61271 49.351 5.37257 49.3052 5.14781C49.2593 4.92304 49.1855 4.71939 49.0893 4.5519C48.993 4.38441 48.8767 4.25737 48.749 4.18016C48.7992 3.9316 48.8152 3.66539 48.7956 3.40369C48.776 3.14198 48.7214 2.89234 48.6364 2.67552C48.5513 2.4587 48.4382 2.28099 48.3066 2.15714C48.1749 2.0333 48.0284 1.96692 47.8793 1.96351C47.8671 1.61724 47.8026 1.28315 47.6925 0.996137C47.5824 0.709123 47.4308 0.47972 47.2535 0.33189C47.0763 0.18406 46.8798 0.123226 46.6848 0.155748C46.4897 0.18827 46.3031 0.312952 46.1445 0.51677L46.0554 2.26169C46.116 2.22282 46.1806 2.20712 46.2449 2.21564C46.3091 2.22415 46.3717 2.25669 46.4283 2.31109C46.485 2.3655 46.5345 2.44055 46.5736 2.53129C46.6127 2.62203 46.6404 2.72641 46.6551 2.83755C46.7014 3.29981 46.5081 3.78416 46.607 4.22433C46.6836 4.56353 46.9037 4.71815 47.0391 4.99424C47.204 5.32714 47.2298 5.80991 47.2173 6.25639C47.2048 6.70288 47.1576 7.14778 47.2093 7.58165C47.2852 8.08818 47.4499 8.53897 47.6798 8.86904C47.7689 9.02382 47.8755 9.14369 47.9925 9.22087C48.052 9.25814 48.1156 9.26957 48.1781 9.2542C48.2406 9.23882 48.3001 9.19709 48.3516 9.13251Z" fill="#263238"/>
<path d="M46.4742 2.18453L48.1965 8.31226C48.3683 7.88989 48.4774 7.39783 48.5137 6.8813C48.6239 5.77354 48.5341 4.63242 48.2571 3.62022C47.9737 2.62313 46.6969 1.24423 46.0999 0.886097C45.6223 0.600535 45.3568 0.851387 45.3568 0.851387C44.8864 1.16692 44.513 2.08198 44.129 2.66257C43.9312 2.96233 43.303 3.76695 43.303 3.76695C43.4019 4.09984 43.5891 4.08248 43.7601 3.86003L44.4729 3.11694C44.4729 3.11694 45.2659 3.82848 45.9395 2.51426C45.9814 2.36754 46.2309 1.90055 46.4742 2.18453Z" fill="#263238"/>
<path d="M44.497 2.97966C45.0245 2.13402 45.6036 1.27418 46.3066 1.07539C46.2915 1.01386 46.2763 0.950759 46.2603 0.889229L46.2077 0.840321C46.1925 0.638629 46.1414 0.450763 46.0618 0.303971C45.9822 0.157179 45.8783 0.0590903 45.7651 0.0239281C45.6519 -0.011234 45.5354 0.0183604 45.4323 0.108417C45.3292 0.198473 45.2451 0.344312 45.192 0.524784C45.1428 0.341027 45.0571 0.19583 44.9512 0.116953C44.8453 0.0380761 44.7268 0.0310548 44.6182 0.0972322C44.475 0.220585 44.3536 0.411003 44.2671 0.647843C44.1813 0.884125 44.0665 1.08311 43.9312 1.23001C43.7895 1.35465 43.5908 1.32783 43.5044 1.09275C43.4484 1.21438 43.4178 1.36651 43.4178 1.52346C43.4178 1.6804 43.4484 1.83253 43.5044 1.95417C43.3597 1.97347 43.215 1.9187 43.0874 1.7964C43.0438 2.33123 43.2487 2.83451 43.4893 3.16583C43.6247 3.38289 43.8011 3.50272 43.9838 3.50188C44.1851 3.47032 44.3482 3.22578 44.497 2.97966Z" fill="#263238"/>
<path d="M43.7531 3.50184C43.7531 3.45766 43.5651 1.8153 42.7578 2.62149C41.9506 3.42769 42.5743 4.69773 42.5983 4.67249C42.6224 4.64724 43.7531 3.50184 43.7531 3.50184Z" fill="#FFBE9D"/>
<path d="M42.8033 4.06177C42.8033 4.05388 42.7855 4.04758 42.7606 4.01602C42.7276 3.97052 42.7056 3.90454 42.6991 3.83143C42.683 3.65 42.7775 3.38652 42.9209 3.23507C42.989 3.16196 43.0654 3.11669 43.1446 3.10254C43.1741 3.091 43.2048 3.09229 43.2339 3.1063C43.2631 3.12031 43.2899 3.14663 43.3121 3.183C43.3255 3.20715 43.3337 3.23892 43.3351 3.2727C43.3366 3.30648 43.3313 3.34009 43.3201 3.36759C43.3041 3.41019 43.2854 3.4165 43.2863 3.42596C43.2871 3.43543 43.3094 3.44332 43.3388 3.39757C43.3562 3.36987 43.3678 3.33265 43.3718 3.29186C43.3754 3.236 43.3672 3.17974 43.3486 3.1341C43.3232 3.08218 43.2907 3.04261 43.2542 3.01914C43.2177 2.99567 43.1785 2.98908 43.1401 2.99999C43.051 3.00877 42.9645 3.05588 42.888 3.13725C42.7276 3.30922 42.6207 3.61055 42.6545 3.85036C42.6608 3.89491 42.6725 3.93648 42.6889 3.97217C42.7052 4.00787 42.7257 4.03683 42.749 4.05704C42.7828 4.07913 42.8033 4.06808 42.8033 4.06177Z" fill="#EB996E"/>
<path d="M44.0187 1.37517C44.0187 1.37517 44.0383 1.30733 44.1078 1.26473C44.1572 1.23957 44.2092 1.23431 44.2599 1.24932C44.3106 1.26434 44.3588 1.29925 44.4009 1.3515C44.5159 1.51385 44.6108 1.7163 44.6798 1.94629C44.7635 2.17979 44.8812 2.42748 45.0585 2.44957C45.2265 2.45507 45.3909 2.36248 45.5262 2.1861C45.6563 2.02833 45.765 1.85478 45.8648 1.72699C46.0635 1.45879 46.2212 1.41146 46.2212 1.42723C46.1042 1.52872 45.9939 1.65308 45.8925 1.79799C45.798 1.93209 45.6955 2.11352 45.5601 2.28391C45.4131 2.48188 45.2324 2.58537 45.0478 2.57737C44.9485 2.562 44.8547 2.49003 44.7805 2.37226C44.7167 2.2656 44.6618 2.14342 44.6174 2.0094C44.5552 1.78813 44.4696 1.58999 44.3653 1.42565C44.3291 1.37687 44.2877 1.34165 44.2436 1.32212C44.1994 1.30259 44.1535 1.29916 44.1087 1.31206C44.078 1.33013 44.048 1.3512 44.0187 1.37517Z" fill="#455A64"/>
<path d="M44.2823 0.701325C44.2823 0.701325 44.2975 0.64926 44.3456 0.590885C44.4151 0.511984 44.4966 0.472874 44.579 0.478871C44.637 0.482264 44.694 0.506417 44.7465 0.549869C44.8052 0.603185 44.8571 0.677293 44.8989 0.76759C44.9381 0.8574 44.9864 0.93339 45.0415 0.991619C45.0709 1.01233 45.1026 1.0211 45.1342 1.01728C45.1658 1.01345 45.1965 0.997142 45.2241 0.969534C45.2892 0.919048 45.3506 0.844894 45.4184 0.789675C45.4819 0.735381 45.5485 0.693079 45.6171 0.663462C45.7332 0.609387 45.854 0.593344 45.9735 0.616129C46.0158 0.620171 46.057 0.642753 46.0932 0.68185C46.1294 0.720947 46.1596 0.775341 46.1811 0.840162C46.2078 0.937979 46.1944 0.997931 46.1909 0.997931C46.1873 0.997931 46.1864 0.939557 46.157 0.865406C46.1346 0.815037 46.1058 0.774575 46.073 0.7472C46.0403 0.719825 46.0043 0.706282 45.9681 0.707637C45.8556 0.699771 45.7431 0.723734 45.6349 0.77863C45.5711 0.810267 45.5091 0.851981 45.4495 0.903269C45.3881 0.955332 45.3284 1.02949 45.2544 1.08786C45.2174 1.1228 45.1764 1.14264 45.1344 1.14591C45.0925 1.14919 45.0507 1.13582 45.0121 1.10679C44.9489 1.04037 44.8938 0.952422 44.8499 0.848049C44.8183 0.770023 44.7776 0.704882 44.7305 0.656991C44.6835 0.6091 44.6312 0.57957 44.5772 0.570379C44.4738 0.562012 44.3713 0.607538 44.2823 0.701325Z" fill="#455A64"/>
<path d="M48.8603 7.41287C48.8603 7.42233 48.7836 7.3403 48.7819 7.09733C48.7848 6.96018 48.8043 6.82571 48.8389 6.70291C48.8818 6.54958 48.9075 6.38294 48.9146 6.21225C48.9216 5.99286 48.8923 5.77464 48.8305 5.58415C48.7686 5.39367 48.6768 5.23915 48.5662 5.13942C48.4406 5.0211 48.2927 4.95168 48.1466 4.81442C48.0695 4.74624 48.0018 4.64936 47.9479 4.53043C47.8971 4.4005 47.8663 4.2493 47.8588 4.09184C47.8392 3.7763 47.873 3.49074 47.8588 3.22096C47.8455 2.95934 47.8044 2.70454 47.7376 2.46998C47.6251 2.0664 47.4402 1.74018 47.2119 1.5423C47.0573 1.40933 46.8891 1.33363 46.7174 1.31985C46.5962 1.31985 46.5276 1.32931 46.5267 1.31985C46.5258 1.31038 46.5436 1.30722 46.5757 1.29618C46.6228 1.28185 46.6705 1.27341 46.7183 1.27093C46.8959 1.26683 47.0718 1.33257 47.2333 1.46341C47.4769 1.65866 47.6756 1.99542 47.7964 2.41791C47.8691 2.66312 47.9142 2.93105 47.9292 3.20676C47.947 3.49705 47.914 3.79208 47.9292 4.07291C47.936 4.2094 47.9634 4.34015 48.0085 4.45155C48.0572 4.55657 48.1179 4.64208 48.1867 4.7024C48.3212 4.83019 48.4709 4.90435 48.6037 5.03214C48.7332 5.14958 48.8376 5.3384 48.9013 5.57013C48.9542 5.77429 48.9757 5.99964 48.9636 6.22329C48.9534 6.40347 48.9231 6.57828 48.8745 6.73762C48.8391 6.85001 48.8169 6.97402 48.8095 7.10206C48.8053 7.21301 48.8232 7.32305 48.8603 7.41287Z" fill="#455A64"/>
<path d="M43.5285 7.94762C43.5035 7.95866 43.5204 8.22529 43.5668 8.54241C43.6131 8.85952 43.6701 9.10564 43.6951 9.0946C43.72 9.08356 43.7022 8.81693 43.6568 8.50139C43.6113 8.18585 43.5543 7.93658 43.5285 7.94762Z" fill="#263238"/>
<path d="M45.3729 9.104C45.3675 9.104 45.3559 9.15449 45.3568 9.24442C45.3585 9.36253 45.3775 9.47784 45.4121 9.57888C45.4465 9.67973 45.4946 9.76378 45.552 9.82343C45.5965 9.86603 45.6286 9.87391 45.6304 9.86444C45.5622 9.77111 45.5022 9.66054 45.4522 9.53629C45.4141 9.39973 45.3874 9.25412 45.3729 9.104Z" fill="#EB996E"/>
<path d="M45.3265 9.45286C45.3141 9.45286 45.3265 9.61063 45.3907 9.75578C45.4548 9.90092 45.5439 9.94352 45.5475 9.92301C45.5511 9.9025 45.486 9.8315 45.4263 9.70371C45.3666 9.57592 45.339 9.44655 45.3265 9.45286Z" fill="#EB996E"/>
<path d="M44.3661 5.93311C44.3608 5.93311 44.3421 5.9899 44.3331 6.10034C44.3227 6.24519 44.3357 6.39231 44.3705 6.52466C44.4054 6.657 44.4607 6.76917 44.5301 6.84816C44.5835 6.90654 44.6192 6.91916 44.6245 6.90969C44.5376 6.79843 44.4653 6.65529 44.4124 6.49003C44.3753 6.31212 44.3595 6.12243 44.3661 5.93311Z" fill="#EB996E"/>
<path d="M44.3064 5.84151C44.2948 5.83204 44.2529 5.97561 44.2573 6.16809C44.2618 6.36057 44.3099 6.4994 44.3206 6.48363C44.3313 6.46785 44.3072 6.33533 44.3037 6.1602C44.3084 6.05418 44.3093 5.94773 44.3064 5.84151Z" fill="#EB996E"/>
<path d="M40.2406 6.79431L39.665 6.44406C39.665 6.44406 38.0612 1.59741 37.671 1.1462C37.2807 0.694978 36.9626 0.830659 36.9626 0.830659C36.9626 0.830659 31.0632 6.24054 31.1434 6.41409C31.2236 6.58763 32.1431 18.5623 32.1431 18.5623L40.4785 18.4045L42.8058 14.4871C42.8058 14.4871 41.2911 12.6349 40.9757 12.4961C40.6603 12.3572 40.4661 11.8271 40.4037 11.5258C40.1328 10.2132 39.8192 7.92867 40.2406 6.79431Z" fill="#407BFF"/>
<path d="M39.9289 12.2186C39.9194 12.144 39.9059 12.0711 39.8888 12.0009C39.8594 11.8636 39.8202 11.6632 39.7765 11.414C39.7329 11.1647 39.6874 10.8618 39.6482 10.5241C39.562 9.78927 39.5258 9.03871 39.5404 8.28857C39.5476 7.94305 39.5627 7.63225 39.5823 7.37351C39.6019 7.11477 39.6197 6.9002 39.6358 6.75979C39.6458 6.68574 39.6521 6.61023 39.6545 6.53418C39.6382 6.60491 39.6259 6.67838 39.6179 6.75348C39.5966 6.89547 39.5725 7.1053 39.5493 7.36562C39.5226 7.6703 39.5053 7.97736 39.4977 8.28541C39.4785 9.04172 39.5157 9.7992 39.6081 10.5383C39.6454 10.8397 39.6918 11.1372 39.7471 11.4297C39.7953 11.679 39.8362 11.8778 39.8737 12.0119C39.8881 12.0839 39.9066 12.1531 39.9289 12.2186Z" fill="#263238"/>
<path d="M40.0999 12.4787C40.289 12.4609 40.4784 12.4609 40.6675 12.4787C40.8002 12.4985 40.9316 12.5386 41.0604 12.5986C41.113 12.6315 41.1665 12.6594 41.2208 12.6823C41.1768 12.6174 41.1255 12.57 41.0702 12.5434C40.9411 12.4654 40.807 12.4161 40.671 12.3967C40.4795 12.3515 40.2848 12.3795 40.0999 12.4787Z" fill="#263238"/>
<path d="M37.6746 1.1936C37.7176 1.39846 37.7504 1.60963 37.7726 1.82468C37.8082 2.34309 37.7668 2.869 37.6523 3.3503C37.5352 3.83022 37.3856 4.28317 37.2068 4.69922L37.0473 5.08418C37.0255 5.12908 37.0072 5.17896 36.9929 5.23248C37.0185 5.19473 37.0415 5.15184 37.0615 5.10469C37.1034 5.01949 37.1622 4.89328 37.2335 4.73393C37.4225 4.3221 37.5789 3.86672 37.6986 3.38028C37.8162 2.88658 37.8539 2.34465 37.8073 1.81521C37.7919 1.656 37.7646 1.5011 37.7262 1.35453C37.7132 1.29698 37.6958 1.24283 37.6746 1.1936Z" fill="#263238"/>
<path d="M39.9253 17.5983C39.91 17.275 39.9142 16.9498 39.9377 16.628C39.968 16.2805 40.0281 15.9432 40.1159 15.6278C40.2214 15.2408 40.3678 14.8933 40.5472 14.6039C40.7277 14.3203 40.9403 14.1084 41.1709 13.9823C41.36 13.8768 41.5571 13.8236 41.7554 13.8245C41.9388 13.8314 42.1216 13.8668 42.3016 13.9302C42.2902 13.9189 42.2779 13.9109 42.265 13.9065C42.2302 13.886 42.1948 13.8687 42.159 13.8545C41.8284 13.7196 41.4838 13.7381 41.1584 13.9081C40.9196 14.0323 40.6991 14.2478 40.5124 14.5392C40.3286 14.8354 40.1796 15.193 40.074 15.5915C39.9873 15.9153 39.9302 16.2615 39.9048 16.617C39.8871 16.8556 39.8853 17.0971 39.8994 17.3364C39.8994 17.42 39.9119 17.4847 39.9154 17.5289C39.9161 17.553 39.9194 17.5765 39.9253 17.5983Z" fill="#263238"/>
<path d="M34.7521 15.4195C34.7604 15.4369 34.77 15.4523 34.7806 15.4653C34.8011 15.4921 34.8296 15.5363 34.8697 15.582C34.9838 15.7156 35.1057 15.8272 35.2332 15.9149C35.4218 16.0472 35.6177 16.144 35.8177 16.2037C36.0637 16.2732 36.314 16.2785 36.5608 16.2194C37.0093 16.1397 37.4502 15.9578 37.8724 15.6783C37.9998 15.5935 38.1245 15.4961 38.2457 15.3864C38.2894 15.3485 38.3215 15.3123 38.3428 15.2902C38.3642 15.2681 38.3758 15.2539 38.3749 15.2507C38.3282 15.2818 38.2824 15.3171 38.2377 15.3564C38.1486 15.4274 38.0221 15.5221 37.8608 15.6246C37.4389 15.8857 37.0011 16.0578 36.5564 16.1374C36.3137 16.1976 36.0675 16.1976 35.8249 16.1374C35.627 16.082 35.4327 15.9922 35.2448 15.8692C35.1179 15.7865 34.9953 15.6841 34.8786 15.5631C34.8382 15.5104 34.796 15.4624 34.7521 15.4195Z" fill="#263238"/>
<g opacity="0.3">
<path d="M33.8808 8.19528C34.2476 8.23102 34.614 8.11307 34.9503 7.85101C35.2866 7.58894 35.5832 7.19015 35.8161 6.68701L33.8808 8.19528Z" fill="black"/>
</g>
<g opacity="0.3">
<path d="M39.9138 12.1192C39.5433 11.5367 39.3123 10.7259 39.2679 9.85205C39.2251 8.8802 39.3641 7.57703 39.5788 6.90967C39.5788 6.90967 39.3409 9.85205 39.9138 12.1192Z" fill="black"/>
</g>
<path d="M34.5212 18.9629L35.2126 15.847C35.462 13.6257 35.2227 11.3197 34.5435 9.40058C34.3047 8.73164 34.0089 8.11161 33.8592 7.36852C33.4974 5.61729 33.967 3.48426 33.4137 1.89553C33.076 0.918942 32.4336 0.418816 31.8099 0.106435C31.8099 0.106435 30.6302 -0.25959 30.0679 1.4948L29.961 2.49032L28.2476 4.10271C28.2476 4.10271 27.4983 2.159 26.748 2.20949C25.9978 2.25997 25.7848 2.82478 25.7848 2.82478C25.7848 2.82478 24.3922 0.975737 22.7554 1.59261C21.1186 2.20949 18.0705 6.42822 18.0705 6.42822L12.6558 8.10373C3.84549 10.8363 0.602211 18.9645 0.602211 18.9645" fill="#455A64"/>
<g opacity="0.3">
<path d="M34.0046 18.2135C33.4352 18.2514 32.8961 17.7986 32.3838 17.3553C31.246 16.3724 30.1028 15.3848 29.0675 14.0942C28.6549 13.5799 28.2549 13.0072 27.976 12.2625C27.6971 11.5178 27.5536 10.5775 27.6909 9.7177C27.7094 9.5641 27.7451 9.41863 27.7959 9.28991C27.8467 9.16118 27.9116 9.05182 27.9867 8.9683C28.2112 8.76005 28.4856 8.93675 28.7075 9.15131C29.202 9.63251 29.6279 10.2999 30.0494 10.9625C31.0669 12.5633 32.0803 14.172 33.0895 15.7886C33.4976 16.4418 33.9253 17.1565 34.0518 18.1047" fill="black"/>
</g>
<path d="M23.1421 18.5591C23.1421 18.5591 23.1502 18.5512 23.1635 18.5307L23.2223 18.4392L23.446 18.0874C23.642 17.7845 23.9262 17.349 24.296 16.8505C24.7288 16.2681 25.1821 15.7348 25.653 15.2538C26.2404 14.6957 26.8897 14.3726 27.5553 14.3072C27.8987 14.271 28.2432 14.3022 28.5827 14.4003C28.8982 14.4948 29.2053 14.6629 29.4959 14.9004C29.9878 15.3104 30.4443 15.8416 30.8521 16.4781C31.204 17.0145 31.4695 17.4863 31.654 17.8081L31.8669 18.182L31.923 18.2767L31.9435 18.3082C31.9435 18.3082 31.9382 18.294 31.9266 18.272L31.874 18.1694L31.6673 17.786C31.4891 17.4563 31.2218 16.9783 30.8725 16.434C30.4649 15.7868 30.0071 15.2465 29.5129 14.8294C29.2191 14.5874 28.9083 14.416 28.5889 14.3199C27.5766 14.0238 26.5373 14.3259 25.6316 15.1797C25.1596 15.665 24.7062 16.2052 24.2746 16.7968C23.9066 17.3017 23.6251 17.7434 23.4335 18.059C23.3373 18.2167 23.2642 18.3382 23.2152 18.4234L23.1591 18.5197C23.1475 18.5465 23.1413 18.5575 23.1421 18.5591Z" fill="#263238"/>
<path d="M27.1508 14.2822C27.1591 14.2433 27.1654 14.2032 27.1695 14.1623C27.1811 14.0755 27.1963 13.9587 27.215 13.8152L27.2471 13.5627C27.2551 13.4697 27.2649 13.3687 27.2747 13.2598C27.2961 13.0421 27.3192 12.796 27.3335 12.5199C27.3424 12.3811 27.3513 12.2359 27.3602 12.086C27.3691 11.9361 27.3709 11.7705 27.3763 11.6127C27.3914 11.2877 27.3869 10.939 27.3896 10.5714C27.3825 9.77575 27.342 8.98209 27.2684 8.19703C27.1921 7.41209 27.0754 6.64109 26.9201 5.89361C26.8835 5.72164 26.8408 5.55914 26.8024 5.39821C26.7837 5.31933 26.7641 5.24045 26.7454 5.16314C26.7267 5.08583 26.7018 5.01326 26.6813 4.94069L26.5556 4.52418C26.5146 4.39165 26.4665 4.27333 26.4247 4.155C26.3828 4.03667 26.3427 3.92623 26.3008 3.82526C26.2589 3.72429 26.2117 3.63594 26.1752 3.54917L26.0665 3.31094C26.0308 3.23994 25.9952 3.18157 25.964 3.12635L25.8205 2.87707C25.8042 2.84706 25.7866 2.81912 25.768 2.79346C25.7818 2.82738 25.7973 2.85906 25.8143 2.88811C25.8482 2.95438 25.8936 3.04589 25.9515 3.14844C25.9809 3.20523 26.0157 3.26519 26.0504 3.33618C26.0852 3.40718 26.1181 3.49395 26.1556 3.57914L26.2767 3.85682C26.3177 3.95621 26.3543 4.07138 26.397 4.18655C26.4398 4.30172 26.4861 4.42321 26.5244 4.55416C26.5628 4.6851 26.6046 4.82709 26.6465 4.97224C26.667 5.04481 26.6902 5.11581 26.7098 5.19154L26.765 5.42819C26.8024 5.58596 26.8443 5.74373 26.88 5.92043C27.0319 6.66591 27.1466 7.43348 27.223 8.21438C27.2958 8.99706 27.3372 9.78788 27.3469 10.5809C27.3469 10.9454 27.3513 11.2925 27.3379 11.6175C27.3335 11.7752 27.329 11.933 27.3246 12.0908C27.3201 12.2485 27.3085 12.3842 27.3014 12.523C27.2889 12.7976 27.2675 13.0453 27.2497 13.2614C27.2408 13.3703 27.2328 13.4712 27.2248 13.5643C27.2168 13.6574 27.2061 13.741 27.1972 13.8183C27.182 13.9635 27.1695 14.0802 27.1606 14.167C27.1554 14.2048 27.1521 14.2433 27.1508 14.2822Z" fill="#263238"/>
<path d="M27.2987 8.30269C27.3012 8.22741 27.2997 8.15188 27.2943 8.07709C27.2889 7.93194 27.28 7.7221 27.2666 7.46336C27.2399 6.94746 27.1989 6.23435 27.1392 5.45024C27.0795 4.66613 27.0118 3.95775 26.9477 3.44973C26.9156 3.1973 26.8853 2.99378 26.8586 2.85337C26.8482 2.7805 26.8345 2.70927 26.8176 2.64038C26.821 2.71522 26.8288 2.78923 26.8407 2.86126C26.8586 3.00325 26.8844 3.20835 26.912 3.46235C26.9682 3.97037 27.0305 4.67717 27.0902 5.46128C27.1499 6.24539 27.1954 6.95535 27.2301 7.46968C27.247 7.71579 27.2622 7.92089 27.2729 8.08024C27.2775 8.15568 27.2861 8.23017 27.2987 8.30269Z" fill="#263238"/>
<path d="M20.5031 7.05297C20.528 7.05122 20.5527 7.04541 20.577 7.03561C20.6251 7.02456 20.6955 6.99617 20.7873 6.97724C21.0449 6.91097 21.3049 6.87932 21.5652 6.88257C22.5584 6.89381 23.5292 7.40716 24.3633 8.3622C25.1973 9.31724 25.86 10.6742 26.2733 12.2735C26.3134 12.4203 26.3383 12.5402 26.3624 12.6175C26.3709 12.6586 26.3816 12.6983 26.3944 12.7358C26.3888 12.6931 26.3811 12.6514 26.3713 12.6112C26.3535 12.5307 26.3312 12.4092 26.2929 12.2609C26.1906 11.8339 26.0684 11.4229 25.9275 11.0319C25.4621 9.73142 24.8184 8.6606 24.0564 7.91911C23.6359 7.51809 23.1862 7.22184 22.7199 7.03877C22.3397 6.88917 21.9511 6.81717 21.5616 6.8242C21.3 6.82648 21.0389 6.86711 20.7811 6.94568C20.692 6.96934 20.6198 7.00248 20.5717 7.01983C20.5484 7.02762 20.5254 7.0387 20.5031 7.05297Z" fill="#263238"/>
<path d="M28.4036 6.40463C28.4225 6.29416 28.4318 6.17926 28.4312 6.06385C28.4491 5.50687 28.4083 4.94887 28.3109 4.41832C28.2951 4.3068 28.2696 4.20034 28.2352 4.10278C28.2218 4.11067 28.3243 4.60449 28.368 5.24345C28.4116 5.88241 28.3893 6.40305 28.4036 6.40463Z" fill="#263238"/>
<path d="M6.3547 15.8014L6.38055 15.7667L6.45272 15.6578L6.72982 15.2382L6.92852 14.9337C7.00336 14.8248 7.08801 14.7175 7.17711 14.5961C7.35531 14.3594 7.5549 14.0691 7.79458 13.8072C7.91338 13.6694 8.03663 13.5248 8.16435 13.3733C8.29354 13.2156 8.43165 13.0909 8.57867 12.9411C8.72569 12.7912 8.86825 12.6255 9.02952 12.5009L9.51868 12.0607C10.9907 10.8383 12.5806 10.123 14.2036 9.95292L14.7498 9.91821C14.8371 9.91034 14.9245 9.91034 15.0118 9.91821L15.2648 9.92925C15.4305 9.9403 15.5918 9.93714 15.7451 9.95923L16.1906 10.0286C16.4739 10.0586 16.7252 10.147 16.947 10.2038C17.0584 10.2353 17.1618 10.2574 17.2562 10.289L17.5137 10.3899L17.8701 10.5256L17.9592 10.5588C17.9699 10.5605 17.9806 10.5605 17.9913 10.5588C17.9816 10.5515 17.9714 10.5462 17.961 10.543L17.8719 10.5004L17.5155 10.3426L17.2589 10.2353C17.1644 10.2006 17.0611 10.1754 16.9497 10.1422C16.7278 10.0823 16.4757 9.98447 16.1924 9.9545L15.7468 9.88034C15.5927 9.85668 15.4314 9.85826 15.2648 9.84564L15.0109 9.83302C14.9218 9.82487 14.8326 9.82487 14.7436 9.83302L14.1965 9.86457C12.5671 10.0256 10.9708 10.7435 9.49552 11.9787L9.00546 12.4141C8.84419 12.5466 8.69984 12.7154 8.55461 12.8606C8.40937 13.0057 8.26949 13.1462 8.14029 13.2976L7.77052 13.7378C7.53173 14.0076 7.33482 14.301 7.15573 14.5424C7.06663 14.6655 6.98287 14.7759 6.90892 14.8848L6.712 15.2003L6.4447 15.6326L6.3752 15.7462C6.36184 15.7856 6.35381 15.7998 6.3547 15.8014Z" fill="#263238"/>
<g opacity="0.3">
<path d="M22.115 17.7483C22.1551 17.2529 22.3448 16.8349 22.5605 16.5067C23.0719 15.7179 23.7357 15.3282 24.3906 15.03C25.2899 14.6198 26.208 14.3516 27.134 14.2285L27.085 14.3863C26.6395 14.5299 26.227 14.7018 25.859 15.03C25.491 15.3581 25.197 15.6279 24.8789 16.0886L23.2635 18.4078C23.0461 18.7233 22.7823 19.0547 22.5097 18.9363C22.237 18.818 22.074 18.2437 22.115 17.7483Z" fill="black"/>
</g>
<g opacity="0.3">
<path d="M15.2905 8.33273C15.8822 8.38322 16.4685 8.66562 17.0574 8.57254C18.2113 8.38795 19.2217 6.78817 20.3773 6.92228L20.7622 6.96645C20.0646 7.27095 19.3233 7.91306 18.8786 8.67666C18.434 9.44026 17.9645 10.065 17.3595 10.3064C17.3595 10.3064 16.7536 10.1486 16.3339 10.0161C14.9805 9.61224 13.5896 9.87729 12.1729 10.42C12.9606 8.84232 14.1037 8.23018 15.2905 8.33273Z" fill="black"/>
</g>
<path d="M30.4725 4.51778C30.414 4.46813 30.3621 4.39717 30.3202 4.30952C30.2315 4.07672 30.1642 3.82062 30.1206 3.55066C30.0562 3.16679 30.0051 2.77639 29.9673 2.38159C29.9587 2.50016 29.9602 2.62037 29.9718 2.73815C29.9897 3.0233 30.0249 3.30418 30.0769 3.5759C30.1209 3.85557 30.1951 4.11753 30.2952 4.34739C30.3161 4.39682 30.3427 4.43767 30.3733 4.46709C30.4039 4.4965 30.4378 4.5138 30.4725 4.51778Z" fill="#263238"/>
<path d="M32.7678 9.11362L31.6264 9.85197C31.6264 9.85197 31.9997 11.1772 32.423 12.0402C32.8462 12.9032 34.9374 15.6689 34.9374 15.6689L33.9056 18.1695L32.4746 16.9074C30.4253 15.0646 28.2815 11.7846 28.0864 11.4675C27.8913 11.1504 27.6962 10.6329 27.7612 9.10099C27.8262 7.56906 28.8669 6.39526 29.7606 5.3887C30.313 4.77141 30.9015 4.262 31.5159 3.86938C31.5159 3.86938 32.0897 4.4484 32.4568 6.10812C32.8489 7.8988 32.7678 9.11362 32.7678 9.11362Z" fill="#FFBE9D"/>
<path d="M34.9008 15.6184C34.9008 15.6184 35.4452 16.1264 35.8702 16.2085C36.2953 16.2905 37.1533 15.9971 37.3128 15.9608C37.4723 15.9245 37.6647 15.702 37.8715 15.915C38.0782 16.128 39.3069 16.7733 39.3666 16.8616C39.4263 16.95 40.4099 18.2815 40.4768 18.4046C40.4958 18.4425 40.5093 18.488 40.5163 18.5371C40.5233 18.5863 40.5235 18.6377 40.5169 18.687L40.5213 18.7564C40.5801 18.9568 40.5133 19.0199 40.5133 19.0199L36.8272 18.9694C36.8272 18.9694 34.6888 19.0751 34.5213 18.9694C34.3538 18.8637 33.8976 18.1806 33.8976 18.1806L34.9008 15.6184Z" fill="#FFBE9D"/>
<path d="M39.3667 16.8552C39.3936 16.9081 39.4235 16.9562 39.4558 16.9987L39.7177 17.3774L40.1187 17.9453L40.361 18.2861L40.4252 18.3776L40.4582 18.4234C40.467 18.4366 40.4742 18.4526 40.4796 18.4707C40.5 18.5574 40.5065 18.6524 40.4983 18.7452L40.5339 18.7184C40.386 18.5212 40.2229 18.3193 40.0483 18.1268C39.6058 17.6325 39.1313 17.2342 38.6352 16.9404C38.4454 16.8268 38.2877 16.7573 38.179 16.7084L38.0524 16.6611C38.0381 16.6528 38.023 16.6491 38.0079 16.6501C38.0217 16.6611 38.036 16.6701 38.0507 16.6769L38.1745 16.74C38.2814 16.7968 38.4365 16.8757 38.6245 16.9956C39.1145 17.3036 39.584 17.7062 40.0242 18.1962C40.1971 18.3887 40.3593 18.5875 40.5063 18.7815L40.5384 18.8241V18.7563C40.5487 18.6466 40.5403 18.534 40.5143 18.4328C40.5062 18.4072 40.4956 18.3843 40.4831 18.365L40.4501 18.3193L40.3851 18.2309L40.1427 17.898L39.7347 17.3427C39.6233 17.1959 39.5333 17.0745 39.4674 16.983C39.4358 16.9357 39.4021 16.893 39.3667 16.8552Z" fill="#EB996E"/>
<path d="M37.9721 17.4626C38.0606 17.5352 38.1514 17.5989 38.2439 17.6535C38.4123 17.7703 38.6413 17.9438 38.8872 18.1616C39.1331 18.3793 39.3505 18.5986 39.5056 18.7595C39.5873 18.8548 39.6727 18.9397 39.7613 19.0135C39.6873 18.9001 39.6077 18.7987 39.5234 18.7106C39.3247 18.4837 39.1192 18.2762 38.9077 18.089C38.6967 17.9005 38.4788 17.7371 38.2555 17.5999C38.1664 17.5478 38.0995 17.51 38.0496 17.4895C38.0248 17.4733 37.9986 17.4642 37.9721 17.4626Z" fill="#EB996E"/>
<path d="M37.2237 18.0417C37.2893 18.0962 37.3584 18.1359 37.4296 18.1601C37.5975 18.2314 37.7632 18.3188 37.9259 18.422C38.1121 18.5529 38.2778 18.7012 38.3972 18.8006C38.4598 18.8623 38.525 18.9151 38.5923 18.9584C38.5388 18.8731 38.4788 18.8014 38.4141 18.7454C38.2623 18.5927 38.1052 18.4573 37.9437 18.3399C37.7793 18.235 37.6103 18.1543 37.4385 18.0985C37.368 18.0684 37.2961 18.0494 37.2237 18.0417Z" fill="#EB996E"/>
<path d="M30.3362 8.17162C30.3362 8.18582 30.4351 8.21264 30.5874 8.30415C30.7856 8.42636 30.9705 8.6072 31.1345 8.83898C31.298 9.07212 31.4375 9.35338 31.5471 9.67042C31.6299 9.91339 31.6664 10.0806 31.6745 10.0759C31.6715 10.0339 31.6649 9.9929 31.6549 9.9544C31.6333 9.84532 31.6065 9.73974 31.5747 9.63887C31.3644 8.96424 31.0122 8.46408 30.5946 8.24735C30.5326 8.21419 30.4691 8.19044 30.4048 8.17635C30.3822 8.16777 30.359 8.16617 30.3362 8.17162Z" fill="#EB996E"/>
<path d="M0.48204 19.001H55.518C55.7842 19.001 56 19.3831 56 19.8545V29.1755C56 29.6469 55.7842 30.029 55.518 30.029H0.48204C0.21582 30.029 0 29.6469 0 29.1755V19.8545C0 19.3831 0.21582 19.001 0.48204 19.001Z" fill="#E0E0E0"/>
<path d="M55.3914 19.0027C55.3914 18.979 43.1275 18.9648 28.0017 18.968C12.876 18.9711 0.610306 18.9932 0.610306 19.0153C0.610306 19.0374 12.8715 19.0532 28.0017 19.05C43.132 19.0468 55.3914 19.0232 55.3914 19.0027Z" fill="#263238"/>
<path d="M40.5242 19.0136C40.5351 19.0231 40.5649 18.9742 40.5721 18.8811C40.5742 18.86 40.5735 18.8384 40.57 18.8179C40.5666 18.7974 40.5605 18.7785 40.5522 18.7627C40.5378 18.7391 40.5233 18.7407 40.5206 18.7501C40.525 18.7907 40.5265 18.832 40.5251 18.8732C40.5206 18.9394 40.5116 19.0026 40.5242 19.0136Z" fill="#EB996E"/>
<path d="M48.2099 4.6172L48.5556 3.93091H49.2907C49.2907 3.93091 49.4155 3.95458 49.4841 4.27327C49.4841 4.27327 49.6507 4.10288 49.7514 4.6172C49.8282 5.10072 49.8877 5.59236 49.9296 6.08918C49.9697 6.17269 49.996 6.2741 50.0058 6.38234C50.0155 6.49057 50.0083 6.60147 49.9848 6.7029C49.9848 6.7029 50.2209 7.12099 50.0819 7.41444C49.9429 7.70789 49.0528 8.58982 48.8051 9.08363C48.6452 9.40406 48.5014 9.7488 48.3756 10.1139L47.0035 8.43205C47.0035 8.43205 47.8214 6.54987 48.1404 6.03396C48.3387 5.72015 48.5758 5.49318 48.8327 5.37134C48.823 5.26096 48.8378 5.14822 48.8741 5.05675C48.9103 4.96528 48.9651 4.90218 49.027 4.88067C48.9952 4.85124 48.9675 4.80964 48.9459 4.75888C48.9243 4.70811 48.9094 4.64948 48.9022 4.58723C48.9022 4.58723 48.847 4.88067 48.7499 4.83177C48.7499 4.83808 48.487 5.4518 48.2099 4.6172Z" fill="#FFBE9D"/>
<path d="M46.1641 18.231L48.4068 10.0002L47.0346 8.32471C47.0346 8.32471 46.0046 10.2795 45.3586 11.0951C44.7126 11.9108 43.8982 13.7441 43.5383 14.8011C43.5383 14.8011 41.9763 13.8545 41.505 14.2947L41.4542 14.3436C41.0534 14.7458 40.7357 15.3647 40.5478 16.1096C40.3599 16.8545 40.3116 17.6864 40.4099 18.4834L40.4741 19.0135H45.4887C45.6317 19.0108 45.7713 18.9357 45.891 18.797C46.0107 18.6584 46.1054 18.462 46.1641 18.231Z" fill="#FFBE9D"/>
<path d="M43.5384 14.8011C43.5438 14.8011 43.5767 14.6733 43.6542 14.454C43.7661 14.1468 43.8887 13.8523 44.0213 13.5721C44.4651 12.6532 44.9382 11.7799 45.4381 10.9563C45.5842 10.7149 45.7267 10.483 45.8684 10.2605C46.0101 10.0381 46.1491 9.82981 46.2738 9.61682C46.5269 9.194 46.7443 8.79642 46.9251 8.46038C47.106 8.12433 47.2486 7.84508 47.3457 7.65102C47.3911 7.55794 47.4286 7.48379 47.4562 7.42541C47.4699 7.39972 47.4821 7.37171 47.4927 7.3418C47.4773 7.36367 47.463 7.38796 47.45 7.41437L47.3323 7.62894L46.9011 8.41778C46.7175 8.74909 46.4984 9.14194 46.2453 9.56002C46.1188 9.77143 45.978 9.97969 45.8381 10.1911C45.6982 10.4025 45.5521 10.647 45.406 10.89C44.9043 11.7131 44.4334 12.5932 43.9964 13.5247C43.8656 13.8096 43.7465 14.1106 43.64 14.4256C43.611 14.5112 43.5853 14.6003 43.5634 14.6922C43.5528 14.7268 43.5445 14.7633 43.5384 14.8011Z" fill="#EB996E"/>
<path d="M49.4493 5.98655C49.5064 5.97095 49.5597 5.92596 49.6025 5.85718C49.6278 5.81983 49.6483 5.77333 49.6626 5.72081C49.6769 5.66829 49.6847 5.61097 49.6854 5.55268C49.6862 5.41927 49.6794 5.28605 49.6649 5.15511C49.6516 5.01627 49.6373 4.89005 49.6204 4.76699C49.6006 4.66399 49.5759 4.56423 49.5464 4.46881C49.5236 4.37904 49.4974 4.29208 49.468 4.2085C49.4728 4.30822 49.4895 4.40501 49.517 4.49248C49.5407 4.58861 49.5613 4.68712 49.5785 4.7875C49.5927 4.89952 49.6061 5.0352 49.6195 5.16931C49.6336 5.29509 49.6414 5.42287 49.6426 5.5511C49.6431 5.60027 49.6378 5.64909 49.6271 5.69444C49.6164 5.7398 49.6004 5.78071 49.5803 5.81458C49.5081 5.93133 49.4448 5.97393 49.4493 5.98655Z" fill="#EB996E"/>
<path d="M48.994 4.8917C48.994 4.91378 49.0501 4.90905 49.1098 4.94376C49.1695 4.97847 49.2123 5.03369 49.223 5.01791C49.2337 5.00213 49.1971 4.90589 49.1241 4.86014C49.051 4.81439 48.9895 4.87119 48.994 4.8917Z" fill="#EB996E"/>
<path d="M48.9485 4.33014C48.9387 4.31594 48.9031 4.36959 48.8906 4.46267C48.8781 4.55575 48.8906 4.63306 48.9075 4.62833C48.9245 4.6236 48.9245 4.55891 48.9351 4.48318C48.9458 4.40745 48.9592 4.34434 48.9485 4.33014Z" fill="#EB996E"/>
<path d="M49.7763 7.01208C49.7763 7.03416 49.8582 7.01207 49.926 6.8969C49.9937 6.78173 50.0026 6.63343 49.9901 6.63185C49.9776 6.63028 49.9509 6.73756 49.893 6.84011C49.8351 6.94266 49.7727 6.99472 49.7763 7.01208Z" fill="#EB996E"/>
<path d="M44.4152 18.862C44.4196 18.851 44.3759 18.8005 44.3261 18.6917C44.2576 18.549 44.2102 18.3784 44.1881 18.1953C44.166 18.0122 44.1699 17.8223 44.1995 17.6425C44.2227 17.5052 44.2503 17.4279 44.2441 17.42C44.2378 17.4121 44.2013 17.4816 44.1683 17.6236C44.1281 17.8109 44.1194 18.0148 44.1431 18.2107C44.1668 18.4066 44.222 18.5862 44.302 18.7279C44.3626 18.8447 44.4134 18.8699 44.4152 18.862Z" fill="#EB996E"/>
<path d="M30.6828 3.49705C30.6828 3.49705 30.4574 3.5286 30.4538 4.12812C30.4474 4.46235 30.4776 4.79562 30.5429 5.10944L31.973 4.6456C31.8705 4.21338 31.6842 3.86017 31.4476 3.64959C31.2111 3.43902 30.9398 3.38492 30.6828 3.49705Z" fill="#407BFF"/>
<g opacity="0.3">
<path d="M30.6828 3.49705C30.6828 3.49705 30.4574 3.5286 30.4538 4.12812C30.4474 4.46235 30.4776 4.79562 30.5429 5.10944L31.973 4.6456C31.8705 4.21338 31.6842 3.86017 31.4476 3.64959C31.2111 3.43902 30.9398 3.38492 30.6828 3.49705Z" fill="black"/>
</g>
<path d="M37.7548 1.27565C37.7548 1.27565 37.2095 0.426851 36.658 0.130246C36.1064 -0.166359 35.0363 0.10027 34.6024 0.366899C34.1685 0.633528 30.5242 3.58696 30.5759 3.56329C31.9953 2.90224 32.8738 7.24245 32.7678 9.11359L35.6119 6.82752L37.7548 1.27565Z" fill="#407BFF"/>
<path d="M31.6264 9.85192C31.6426 9.84976 31.6585 9.84338 31.6737 9.83299L31.8055 9.76199C31.9196 9.69415 32.0826 9.5916 32.2831 9.45592C32.6832 9.18456 33.2285 8.77752 33.8263 8.30895C34.4242 7.84037 34.9615 7.39862 35.3482 7.0752L35.8053 6.68551L35.9291 6.57665C35.9439 6.56455 35.958 6.54974 35.971 6.53247C35.9551 6.53926 35.9396 6.54877 35.9247 6.56087L35.7982 6.65711L35.3348 7.02155L33.8076 8.23322C33.2107 8.70652 32.6671 9.11672 32.2706 9.40228C32.0728 9.54427 31.9142 9.65471 31.7993 9.73044L31.6701 9.81721C31.6549 9.82588 31.6402 9.83752 31.6264 9.85192Z" fill="#263238"/>
</svg>
