<svg width="20" height="17" viewBox="0 0 20 17" fill="none" xmlns="http://www.w3.org/2000/svg">
<path fill-rule="evenodd" clip-rule="evenodd" d="M2.22222 2.22222C0.994923 2.22222 0 3.21714 0 4.44444V14.4444C0 15.6717 0.994923 16.6667 2.22222 16.6667H17.7778C19.0051 16.6667 20 15.6717 20 14.4444V4.44444C20 3.21715 19.0051 2.22222 17.7778 2.22222H15.5556L13.3333 0H6.66667L4.44444 2.22222H2.22222ZM14.4444 8.88889C14.4444 11.3435 12.4546 13.3333 10 13.3333C7.5454 13.3333 5.55556 11.3435 5.55556 8.88889C5.55556 6.43429 7.5454 4.44444 10 4.44444C12.4546 4.44444 14.4444 6.43429 14.4444 8.88889Z" fill="white"/>
</svg>
