<svg width="35" height="53" viewBox="0 0 35 53" fill="none" xmlns="http://www.w3.org/2000/svg">
<path d="M14.9359 22.6617C14.0258 17.6821 12.786 12.7821 11.2264 8.00073L8.51894 4.19178C7.3535 3.85252 6.07189 4.41749 5.25748 5.39321C4.44307 6.36893 4.04608 7.69231 3.9146 9.00869C3.78312 10.3251 3.8929 11.6527 3.97332 12.9747C4.15458 15.9831 4.17884 19.0463 4.98814 21.9272C5.30471 23.0571 5.79234 24.215 6.70631 24.8389C7.68028 25.5034 8.91976 25.4193 10.0533 25.2356C11.4137 25.0152 12.7571 24.682 14.0717 24.2389C14.3934 24.1309 14.7432 23.9893 14.9053 23.6655C15.0559 23.3655 14.9972 22.9982 14.9359 22.6617Z" fill="#263238"/>
<path d="M15.0981 0.0295071C13.3646 -0.169562 11.8991 0.661761 10.5141 1.82533C9.12914 2.98891 8.13347 4.66838 7.60882 6.49504C7.0561 8.41704 7.0178 10.5409 7.64074 12.4377C8.26367 14.3344 9.56825 15.9803 11.2558 16.7835C13.5535 17.8714 16.3873 17.2364 18.2867 15.4391C20.1862 13.6419 21.1678 10.8129 21.1027 8.06657C21.058 6.1698 20.5334 4.26323 19.479 2.7604C18.4246 1.25757 16.82 0.192126 15.0981 0.0365159" fill="#263238"/>
<path d="M10.5882 6.77972C10.7962 6.04092 10.652 5.23764 10.7069 4.4722C10.8269 2.77451 11.9834 1.34037 13.3709 0.583348C14.6628 -0.117599 16.2929 -0.100777 17.9255 0.353437C19.0437 0.66606 20.1147 1.27168 20.9036 2.19833C21.4231 2.82052 21.7995 3.57021 22.0014 4.38478C22.2032 5.19934 22.2247 6.05513 22.0639 6.88066L14.156 6.17971C13.4616 6.89888 12.7518 7.62927 11.8813 8.06386C11.6318 8.20646 11.353 8.27553 11.072 8.26433C10.9325 8.25518 10.7983 8.20241 10.6852 8.11225C10.5721 8.02208 10.4848 7.89828 10.4337 7.75544C10.3469 7.433 10.5039 7.09935 10.5882 6.77972Z" fill="#263238"/>
<path d="M19.4522 25.9995C19.4522 25.9995 18.9876 20.1929 18.9889 20.2069C18.9901 20.2209 21.7653 19.6209 22.2516 15.6087C22.4929 13.6138 22.3269 10.3586 22.1137 7.69921C21.921 5.30618 20.4071 2.40425 18.237 2.71828L11.4894 4.79168C11.1714 4.83672 10.8804 5.01156 10.6744 5.28145C10.4684 5.55133 10.3625 5.89647 10.3776 6.24825L11.5405 20.6709L11.9477 26.5757L19.4522 25.9995Z" fill="#FFBF9D"/>
<path d="M20.7529 11.124C20.7572 11.2575 20.7138 11.3876 20.632 11.4866C20.5502 11.5856 20.4365 11.6456 20.3151 11.6539C20.2558 11.6609 20.1959 11.6547 20.1389 11.6357C20.0819 11.6168 20.0289 11.5855 19.983 11.5437C19.9372 11.5018 19.8995 11.4504 19.8721 11.3922C19.8447 11.3341 19.8283 11.2705 19.8236 11.2053C19.8194 11.0718 19.8628 10.9417 19.9446 10.8427C20.0263 10.7437 20.14 10.6837 20.2615 10.6754C20.3207 10.6684 20.3806 10.6746 20.4377 10.6936C20.4947 10.7125 20.5477 10.7438 20.5935 10.7856C20.6394 10.8275 20.6771 10.879 20.7044 10.9371C20.7318 10.9952 20.7483 11.0588 20.7529 11.124Z" fill="#263238"/>
<path d="M21.5086 9.41245C21.4524 9.47974 21.0925 9.20357 20.5895 9.21759C20.0866 9.23161 19.7266 9.519 19.6704 9.45311C19.6424 9.42507 19.6985 9.3017 19.8568 9.17273C20.0699 9.00076 20.3264 8.90573 20.5908 8.90076C20.8519 8.8922 21.1087 8.97572 21.3235 9.13908C21.4805 9.26245 21.5367 9.38161 21.5086 9.41245Z" fill="#263238"/>
<path d="M16.2239 11.124C16.2281 11.2576 16.1847 11.3876 16.1029 11.4866C16.0212 11.5856 15.9075 11.6456 15.786 11.6539C15.7268 11.6609 15.6669 11.6547 15.6098 11.6358C15.5528 11.6168 15.4998 11.5855 15.454 11.5437C15.4082 11.5019 15.3704 11.4504 15.3431 11.3922C15.3157 11.3341 15.2992 11.2706 15.2946 11.2053C15.2903 11.072 15.3335 10.9421 15.415 10.8432C15.4965 10.7442 15.6099 10.6841 15.7311 10.6754C15.7905 10.6684 15.8504 10.6746 15.9076 10.6935C15.9647 10.7125 16.0177 10.7437 16.0637 10.7856C16.1096 10.8274 16.1474 10.8789 16.1749 10.937C16.2025 10.9951 16.2191 11.0587 16.2239 11.124Z" fill="#263238"/>
<path d="M16.6783 9.35761C16.6209 9.42631 16.2609 9.14873 15.7593 9.16415C15.2576 9.17957 14.8951 9.46556 14.8402 9.39967C14.8121 9.37023 14.8683 9.24827 15.0265 9.11929C15.2398 8.94783 15.4963 8.85329 15.7605 8.84872C16.0215 8.84044 16.278 8.92341 16.4932 9.08565C16.6503 9.20761 16.7051 9.32677 16.6783 9.35761Z" fill="#263238"/>
<path d="M18.4909 13.6911C18.4909 13.6588 18.7986 13.5915 19.3028 13.506C19.4304 13.4878 19.5581 13.4569 19.5708 13.3658C19.5836 13.2747 19.5415 13.1135 19.4764 12.9453C19.3487 12.6074 19.2134 12.2541 19.0717 11.884C18.5101 10.3714 18.1003 9.12649 18.1565 9.10266C18.2127 9.07883 18.7118 10.2845 19.2734 11.7957C19.4087 12.1686 19.5389 12.5247 19.6564 12.8639C19.7087 13.0238 19.7968 13.2032 19.7355 13.4149C19.7183 13.4651 19.6908 13.5103 19.6552 13.547C19.6195 13.5837 19.5767 13.6109 19.53 13.6266C19.4596 13.6504 19.3866 13.6636 19.313 13.6658C18.8101 13.7163 18.4948 13.7163 18.4909 13.6911Z" fill="#263238"/>
<path d="M18.9888 20.2069C17.2762 20.283 15.5779 19.8356 14.0832 18.9143C14.0832 18.9143 15.4669 21.8457 19.0998 21.3719L18.9888 20.2069Z" fill="#FF9A6C"/>
<path d="M16.7804 7.12724C16.7344 7.27864 16.2315 7.22116 15.6443 7.31509C15.0571 7.40902 14.5848 7.59547 14.5031 7.4665C14.4674 7.40341 14.5465 7.26042 14.7354 7.11041C14.9874 6.9248 15.2748 6.80493 15.5754 6.75998C15.8761 6.71502 16.1822 6.74618 16.4702 6.85106C16.6885 6.94639 16.8008 7.06135 16.7804 7.12724Z" fill="#263238"/>
<path d="M21.3107 7.00393C21.2252 7.1315 20.8767 7.01234 20.4606 7.01654C20.0445 7.02075 19.6947 7.12309 19.6104 6.99411C19.5734 6.93103 19.6258 6.80486 19.7777 6.68149C19.981 6.53368 20.2198 6.45557 20.4637 6.45706C20.7075 6.45856 20.9455 6.5396 21.1474 6.6899C21.2942 6.81467 21.3452 6.94224 21.3107 7.00393Z" fill="#263238"/>
<path d="M9.27213 5.70717C9.84783 3.36881 12.7621 0.0337053 14.9666 0.0995944L18.5689 2.24029C18.4809 2.90318 18.2316 3.52771 17.8475 4.04806C17.4633 4.5684 16.9584 4.96529 16.3861 5.19688C15.7733 5.4352 15.0291 5.52773 14.6832 6.13195C14.3373 6.73616 14.5862 7.60954 14.2594 8.2432C13.8088 9.12219 12.4787 9.14602 12.1506 10.0895C12.0077 10.5003 12.1111 10.9797 11.9604 11.3891C11.7613 11.9344 10.5563 12.6704 10.0457 12.519C9.53509 12.3676 9.48913 11.4129 9.30276 10.9222C8.98364 10.0811 9.08321 9.63528 9.15725 9.15443C9.32957 8.01189 8.99768 6.82308 9.27213 5.70717Z" fill="#263238"/>
<path d="M11.5621 12.9142C11.5544 12.617 11.2251 11.9231 10.957 11.8852C10.2396 11.7829 8.95292 11.8852 8.98738 13.8745C9.03333 16.5998 11.5149 15.9858 11.5174 15.9087C11.52 15.8316 11.5876 13.9418 11.5621 12.9142Z" fill="#FFBF9D"/>
<path d="M10.7426 14.8909C10.7311 14.8825 10.6992 14.926 10.6265 14.9638C10.5246 15.0144 10.4087 15.0194 10.3035 14.9778C10.0406 14.8769 9.81206 14.4255 9.79291 13.9334C9.78244 13.7001 9.81996 13.4673 9.90269 13.2521C9.92441 13.1666 9.96466 13.0881 10.02 13.0234C10.0754 12.9587 10.1442 12.9097 10.2205 12.8806C10.2697 12.8661 10.3218 12.8706 10.3683 12.8934C10.4148 12.9161 10.4527 12.9556 10.4758 13.0054C10.5103 13.0811 10.495 13.1357 10.509 13.1455C10.5231 13.1554 10.5614 13.0993 10.5397 12.9871C10.5242 12.9202 10.4887 12.8609 10.4388 12.8189C10.3696 12.7637 10.2834 12.7406 10.1988 12.7544C10.0074 12.7726 9.83887 12.9689 9.75462 13.1862C9.65235 13.4241 9.605 13.686 9.61676 13.9488C9.64229 14.497 9.90652 15.0059 10.2678 15.1124C10.3348 15.1323 10.405 15.1354 10.4732 15.1216C10.5415 15.1078 10.6061 15.0773 10.6622 15.0325C10.7388 14.9582 10.7503 14.8965 10.7426 14.8909Z" fill="#FF9A6C"/>
<path d="M17.8016 1.46645C18.094 2.55713 19.7087 3.8679 20.4299 4.681C21.8086 6.2343 22.0894 6.76141 22.2949 10.4288C22.8259 9.11799 23.2178 7.84227 23.0876 6.41374C22.9574 4.98521 22.3932 3.58612 21.4282 2.61881C20.4631 1.6515 19.082 1.16364 17.8029 1.45944" fill="#263238"/>
<path d="M8.91207 13.5325C8.81688 13.4367 8.73323 13.3278 8.66316 13.2087C8.57063 13.079 8.48538 12.9432 8.40786 12.8021L8.11171 12.2274C7.70195 11.3582 7.37772 10.0124 7.39814 8.51374C7.41537 7.81002 7.50052 7.1103 7.65217 6.42632C7.78236 5.87043 7.96415 5.33067 8.19468 4.81554C8.29552 4.59684 8.40275 4.40759 8.49466 4.24217C8.58657 4.07674 8.68741 3.94777 8.76655 3.84263C8.84766 3.73186 8.94213 3.63376 9.04738 3.55103C9.07929 3.58047 8.67337 3.99824 8.31978 4.88143C8.11255 5.39491 7.94806 5.92794 7.82832 6.47398C7.68897 7.14432 7.60903 7.82789 7.58962 8.51514C7.57175 9.97732 7.86279 11.2895 8.22787 12.1601L8.49338 12.7391C8.56869 12.9115 8.66188 13.0419 8.72187 13.1596C8.80041 13.2738 8.8644 13.3993 8.91207 13.5325Z" fill="#455A64"/>
<path d="M16.9247 14.9499C16.9487 14.825 16.9919 14.7055 17.0524 14.5966C17.0826 14.5423 17.1247 14.4972 17.1749 14.4654C17.2251 14.4335 17.2817 14.416 17.3396 14.4143C17.4235 14.4251 17.5035 14.4594 17.5719 14.5139L18.5025 15.1181L18.5842 15.3676C18.3986 15.6858 18.1563 15.9595 17.8719 16.1723C17.7903 16.2435 17.6912 16.2864 17.5872 16.2957C17.4552 16.2797 17.3322 16.2143 17.2388 16.1106C17.1004 16.0072 16.9862 15.8694 16.9056 15.7083C16.806 15.4756 16.8648 15.2008 16.9247 14.9499Z" fill="#FF9A6C"/>
<path d="M17.6242 16.3797C17.6344 16.3545 17.4072 16.3125 17.171 16.0503C17.0355 15.8984 16.9421 15.7073 16.9017 15.4994C16.8572 15.2452 16.8933 14.9821 17.0038 14.7535C17.0324 14.6941 17.0662 14.6377 17.1046 14.5853C17.1373 14.5364 17.178 14.4946 17.2246 14.462C17.2433 14.4484 17.2646 14.4401 17.2869 14.4376C17.3091 14.4352 17.3315 14.4387 17.3523 14.4479C17.4016 14.4719 17.449 14.5005 17.494 14.5334C17.6905 14.6652 17.868 14.7802 18.0173 14.8769C18.3173 15.0676 18.5088 15.1783 18.5177 15.1573C18.5266 15.1363 18.3543 14.9989 18.0671 14.7844C17.9241 14.6778 17.7518 14.5531 17.5565 14.4157C17.5049 14.3755 17.4498 14.3412 17.3918 14.3134C17.3547 14.2975 17.3147 14.291 17.2749 14.2944C17.2351 14.2978 17.1966 14.311 17.1621 14.333C17.1008 14.374 17.0471 14.4272 17.0038 14.49C16.9596 14.5493 16.9207 14.6131 16.8876 14.6806C16.7626 14.9384 16.7259 15.2369 16.7842 15.5218C16.8329 15.7528 16.9458 15.9615 17.1072 16.119C17.2123 16.2243 17.3368 16.3036 17.4723 16.3517C17.5667 16.3868 17.6229 16.3868 17.6242 16.3797Z" fill="#263238"/>
<path d="M4.41494 52.2894L6.22885 47.1598C6.22885 47.1598 6.1012 41.8649 5.65825 39.4494C5.21531 37.034 6.20459 23.5982 6.20459 23.5982L11.6323 22C11.6323 22 12.9509 24.4477 15.3431 24.2052C18.1514 23.9248 19.1317 22 19.1317 22L22.4774 22.593C22.4774 22.593 24.5594 30.7619 25.4529 32.6713C26.3465 34.5806 26.4167 40.4644 26.4167 40.4644C26.4167 40.4644 25.4491 43.7546 25.2104 44.8551C25.1756 45.0145 25.1877 45.1818 25.2449 45.3332L27.4941 52.2894H4.41494Z" fill="#FF6240"/>
<g opacity="0.3">
<path d="M8.38747 38.8719C8.33769 39.6051 8.47682 40.7392 8.35173 41.4612L7.27436 41.7149C6.86518 40.8438 6.59491 39.9021 6.47527 38.9308C6.47527 38.9308 8.40279 38.67 8.38747 38.8719Z" fill="black"/>
</g>
<g opacity="0.3">
<path d="M9.91547 43.526C10.0589 43.3544 10.2399 43.226 10.4414 43.1531C10.6572 43.1198 10.8771 43.1488 11.0796 43.2372L14.2517 44.2873L16.5137 43.6438C16.0659 44.617 15.3261 45.3908 14.4192 45.8346C13.5123 46.2785 12.4937 46.3653 11.5353 46.0803C11.1447 45.9639 10.7439 45.7845 10.3495 45.8798C9.97674 45.9695 9.6908 46.2822 9.39976 46.5513C8.50621 47.3756 7.15184 47.4233 5.99151 47.5326C7.10206 45.9317 8.57259 44.8999 9.91547 43.526Z" fill="black"/>
</g>
<path d="M8.11557 40.7068L5.90212 41.1568L6.28507 32.1427L6.20976 23.5911C6.20976 23.5911 3.41167 24.5724 2.01901 27.4603C0.626344 30.3482 0.360832 34.324 0.211481 36.4689C0.0391532 38.9418 -0.107641 45.0275 0.106811 46.4995C0.321263 47.9715 1.84285 49.4981 4.415 48.5911C5.71448 48.1327 10.306 43.8331 10.306 43.8331L8.11557 40.7068Z" fill="#FF6240"/>
<path d="M22.4774 22.5889C22.4774 22.5889 27.1264 23.5478 28.071 25.5567C29.0156 27.5656 33.5013 38.6742 32.9217 41.8734C32.3422 45.0725 28.8931 46.4996 27.7289 45.2253C26.5648 43.951 25.4516 40.3986 25.4516 40.3986L22.4774 22.5889Z" fill="#FF6240"/>
<path d="M5.42472 47.9939L5.45025 47.9771L5.52301 47.921L5.79873 47.6995L6.81993 46.8584L10.3265 43.9831L10.352 43.9607L10.3316 43.9326L9.11763 42.2503C8.72447 41.7092 8.3428 41.1835 7.97899 40.6802L7.96623 40.6634H7.9458L6.05914 41.1162H6.07062C5.48425 41.0275 4.8873 41.0811 4.32182 41.2732C3.88484 41.4184 3.47257 41.6415 3.10149 41.9335C2.86251 42.1212 2.6433 42.3375 2.44792 42.5784C2.37899 42.6611 2.33431 42.7312 2.30112 42.7761L2.26538 42.8279C2.26109 42.8336 2.25725 42.8397 2.25389 42.8462C2.25389 42.8462 2.25389 42.8461 2.26921 42.8307L2.30878 42.7831C2.34325 42.7396 2.39175 42.6723 2.46068 42.5924C2.97185 41.9974 3.61827 41.5628 4.33331 41.3335C4.89248 41.1496 5.48142 41.1018 6.05914 41.1933H6.06935L7.9573 40.7475L7.92538 40.7349L9.06274 42.305C9.48399 42.8868 9.89374 43.4518 10.2792 43.9873V43.9382L6.79185 46.8387L5.77831 47.6911L5.50769 47.9224L5.43876 47.9827C5.4311 47.9855 5.42344 47.9925 5.42472 47.9939Z" fill="#263238"/>
<path d="M5.89574 32.8101C5.89054 32.8379 5.88713 32.866 5.88553 32.8942C5.88553 32.9573 5.87404 33.0344 5.86638 33.1354C5.85234 33.3554 5.83319 33.6569 5.80894 34.0256C5.76554 34.7756 5.71065 35.8144 5.69022 36.9625C5.6698 38.1107 5.70044 39.1537 5.75788 39.9065C5.77064 40.0944 5.78851 40.2626 5.80256 40.4112C5.8166 40.5598 5.83192 40.6916 5.84596 40.7925L5.88042 41.0322C5.88316 41.0603 5.88828 41.088 5.89574 41.1149C5.89884 41.087 5.89884 41.0588 5.89574 41.0308C5.89574 40.9677 5.88297 40.8906 5.87531 40.7897C5.86765 40.6888 5.85234 40.557 5.84213 40.4084C5.83192 40.2598 5.81659 40.0902 5.80766 39.9023C5.76171 39.1523 5.73873 38.1135 5.75916 36.9653C5.77958 35.8172 5.82681 34.7812 5.85872 34.0298C5.87404 33.6611 5.88553 33.3583 5.89446 33.1396C5.89446 33.04 5.89446 32.9601 5.90085 32.897C5.9029 32.8679 5.90118 32.8387 5.89574 32.8101Z" fill="#263238"/>
<path d="M25.5678 29.9991C25.5663 30.0121 25.5663 30.0253 25.5678 30.0383L25.5934 30.1505C25.6202 30.2528 25.6546 30.3958 25.7006 30.5711C25.7465 30.7463 25.8053 30.9818 25.8665 31.2454C25.9278 31.5089 26.0044 31.8061 26.0733 32.144C26.2478 32.9238 26.3846 33.7133 26.4831 34.509C26.5061 34.7347 26.538 34.9646 26.5558 35.2001C26.5737 35.4356 26.5877 35.6782 26.6043 35.9235C26.6209 36.1688 26.6158 36.4212 26.6209 36.6749C26.626 36.9286 26.6107 37.188 26.6069 37.4487C26.5625 38.4327 26.4563 39.4122 26.289 40.3801L26.1614 41.0278C26.1218 41.2381 26.0835 41.4484 26.0337 41.6376C25.9406 42.0273 25.8665 42.3946 25.7784 42.7241C25.6904 43.0535 25.6163 43.3521 25.5474 43.6143C25.4785 43.8764 25.4108 44.0979 25.3585 44.283L25.241 44.7036C25.2296 44.7484 25.2206 44.7849 25.213 44.8129C25.2087 44.8255 25.2061 44.8387 25.2053 44.8522C25.2108 44.8404 25.2155 44.8282 25.2193 44.8157L25.2538 44.7078C25.2857 44.6068 25.3291 44.4666 25.3815 44.2872C25.4338 44.1077 25.5091 43.8806 25.5806 43.6227C25.6521 43.3647 25.7325 43.0619 25.8206 42.7339C25.9086 42.4058 25.9903 42.0329 26.0848 41.6474C26.1346 41.4526 26.1729 41.2479 26.2125 41.0376C26.252 40.8273 26.2967 40.617 26.3401 40.3885C26.5122 39.4202 26.6214 38.4397 26.6669 37.4543C26.6669 37.1908 26.6835 36.9314 26.6809 36.6763C26.6784 36.4212 26.6694 36.1688 26.6631 35.9221C26.6567 35.6753 26.6286 35.4328 26.612 35.1945C26.5954 34.9562 26.5609 34.7277 26.5367 34.502C26.4357 33.7042 26.2942 32.9132 26.1129 32.1328C26.0401 31.7991 25.9623 31.4991 25.8959 31.237C25.8295 30.9748 25.7682 30.7477 25.7184 30.564C25.6687 30.3804 25.6291 30.243 25.5997 30.1435C25.587 30.0986 25.5768 30.0622 25.5678 30.0341C25.5688 30.0225 25.5688 30.0107 25.5678 29.9991Z" fill="#263238"/>
<path d="M26.0913 31.1514C26.2293 30.8632 26.3479 30.5643 26.4461 30.257C26.5652 29.9585 26.6638 29.6506 26.741 29.336C26.602 29.6239 26.4829 29.9228 26.3849 30.2304C26.2652 30.5285 26.167 30.8364 26.0913 31.1514Z" fill="#263238"/>
<path d="M5.01369 30.6216C5.14737 31.0052 5.30168 31.3797 5.47579 31.7432C5.63015 32.1177 5.80448 32.4818 5.99787 32.8338C5.86419 32.4503 5.70989 32.0758 5.53578 31.7123C5.38142 31.3378 5.20708 30.9736 5.01369 30.6216Z" fill="#263238"/>
<path d="M22.2465 22.5886L16.5916 31.1514L8.47306 22.848L11.6324 21.9956H19.1318L22.2465 22.5886Z" fill="#FFBF9D"/>
<g opacity="0.3">
<path d="M26.5801 29.7833C26.5801 31.687 26.7218 33.7716 27.1137 35.6264L26.995 37.7292C26.9248 39.5222 27.3396 40.7923 28.0685 42.3975C27.3907 42.0498 26.9452 41.29 26.7537 40.4951C26.5623 39.7003 26.5916 38.8619 26.6363 38.0418C26.7027 36.8152 26.7142 35.6222 26.5086 34.4137C26.3899 33.7128 26.1857 32.3683 26.0236 31.7165C26.0249 31.7109 25.9368 31.4235 26.5801 29.7833Z" fill="black"/>
</g>
<g opacity="0.3">
<path d="M1.65259 42.7845C1.80704 41.8705 2.59209 41.2116 3.41671 41.0013C4.24133 40.791 5.05701 40.9508 5.88929 41.1134C4.03454 41.0237 2.88441 41.9434 2.08405 43.0761C2.03855 43.1622 1.96442 43.2255 1.87725 43.2527C1.83021 43.2544 1.7839 43.2395 1.7451 43.2103C1.70629 43.181 1.67701 43.1389 1.66152 43.0901C1.63282 42.9911 1.62973 42.8853 1.65259 42.7845Z" fill="black"/>
</g>
<path d="M15.8934 37.5176C15.9144 37.3863 15.9032 37.2512 15.8608 37.1262C15.8184 37.0013 15.7463 36.891 15.6521 36.8069C15.4602 36.6401 15.2201 36.5545 14.9756 36.5657C14.7616 36.5657 14.5521 36.6328 14.3718 36.7592C14.2695 36.829 14.1839 36.9246 14.1219 37.0379C14.06 37.1513 14.0235 37.2793 14.0155 37.4112C14.0075 37.5431 14.0283 37.6753 14.076 37.7966C14.1238 37.918 14.1971 38.0252 14.2901 38.1092C14.4955 38.3026 14.7602 38.4029 15.0305 38.3896C15.257 38.3916 15.4755 38.2978 15.6406 38.1275C15.7964 37.9508 15.9138 37.7069 15.8959 37.519" fill="#FF6240"/>
<path d="M18.2292 38.1864C19.1432 38.342 20.0227 37.205 20.227 36.4831C20.2422 36.4466 20.2492 36.4067 20.2474 36.3667C20.2457 36.3267 20.2351 36.2878 20.2168 36.2531C20.187 36.2251 20.1513 36.2057 20.1129 36.1969C20.0745 36.1881 20.0347 36.19 19.9972 36.2027C19.5483 36.2828 19.1346 36.5186 18.8164 36.8755C18.4983 37.2324 18.2926 37.6918 18.2292 38.1864Z" fill="#455A64"/>
<path d="M19.2416 37.6128C19.2627 37.4815 19.2514 37.3463 19.209 37.2214C19.1666 37.0964 19.0945 36.9862 19.0003 36.902C18.8087 36.7355 18.5692 36.65 18.325 36.6609C18.111 36.6597 17.9012 36.727 17.7213 36.8544C17.6185 36.9241 17.5324 37.0197 17.4702 37.1334C17.4079 37.247 17.3712 37.3753 17.3632 37.5077C17.3552 37.64 17.3761 37.7725 17.4242 37.8942C17.4723 38.0159 17.5461 38.1232 17.6396 38.2072C17.845 38.4004 18.1097 38.5007 18.3799 38.4876C18.6065 38.4899 18.8251 38.396 18.9901 38.2254C19.1471 38.0474 19.2633 37.8048 19.2454 37.617" fill="#FF6240"/>
<path d="M9.9946 37.6128C10.0162 37.4816 10.0054 37.3464 9.96316 37.2214C9.92095 37.0964 9.84892 36.9861 9.75462 36.9021C9.5627 36.7353 9.32262 36.6497 9.07808 36.661C8.86403 36.66 8.65431 36.7272 8.47429 36.8544C8.37155 36.9241 8.28546 37.0198 8.22318 37.1334C8.16091 37.2471 8.12425 37.3754 8.11626 37.5077C8.10827 37.6401 8.12917 37.7726 8.17724 37.8943C8.22531 38.0159 8.29914 38.1232 8.39259 38.2073C8.59811 38.4004 8.86274 38.5006 9.13297 38.4876C9.3599 38.4899 9.57889 38.396 9.74441 38.2255C9.90014 38.0474 10.0176 37.8049 9.99971 37.6171" fill="#FF6240"/>
<g opacity="0.3">
<path d="M15.8934 37.5176C15.9144 37.3863 15.9032 37.2512 15.8608 37.1262C15.8184 37.0013 15.7463 36.891 15.6521 36.8069C15.4602 36.6401 15.2201 36.5545 14.9756 36.5657C14.7616 36.5657 14.5521 36.6328 14.3718 36.7592C14.2695 36.829 14.1839 36.9246 14.1219 37.0379C14.06 37.1513 14.0235 37.2793 14.0155 37.4112C14.0075 37.5431 14.0283 37.6753 14.076 37.7966C14.1238 37.918 14.1971 38.0252 14.2901 38.1092C14.4955 38.3026 14.7602 38.4029 15.0305 38.3896C15.257 38.3916 15.4755 38.2978 15.6406 38.1275C15.7964 37.9508 15.9138 37.7069 15.8959 37.519" fill="black"/>
</g>
<g opacity="0.3">
<path d="M19.2416 37.6128C19.2627 37.4815 19.2514 37.3463 19.209 37.2214C19.1666 37.0964 19.0945 36.9862 19.0003 36.902C18.8087 36.7355 18.5692 36.65 18.325 36.6609C18.111 36.6597 17.9012 36.727 17.7213 36.8544C17.6185 36.9241 17.5324 37.0197 17.4702 37.1334C17.4079 37.247 17.3712 37.3753 17.3632 37.5077C17.3552 37.64 17.3761 37.7725 17.4242 37.8942C17.4723 38.0159 17.5461 38.1232 17.6396 38.2072C17.845 38.4004 18.1097 38.5007 18.3799 38.4876C18.6065 38.4899 18.8251 38.396 18.9901 38.2254C19.1471 38.0474 19.2633 37.8048 19.2454 37.617" fill="black"/>
</g>
<g opacity="0.3">
<path d="M9.9946 37.6128C10.0162 37.4816 10.0054 37.3464 9.96316 37.2214C9.92095 37.0964 9.84892 36.9861 9.75462 36.9021C9.5627 36.7353 9.32262 36.6497 9.07808 36.661C8.86403 36.66 8.65431 36.7272 8.47429 36.8544C8.37155 36.9241 8.28546 37.0198 8.22318 37.1334C8.16091 37.2471 8.12425 37.3754 8.11626 37.5077C8.10827 37.6401 8.12917 37.7726 8.17724 37.8943C8.22531 38.0159 8.29914 38.1232 8.39259 38.2073C8.59811 38.4004 8.86274 38.5006 9.13297 38.4876C9.3599 38.4899 9.57889 38.396 9.74441 38.2255C9.90014 38.0474 10.0176 37.8049 9.99971 37.6171" fill="black"/>
</g>
<path d="M14.5453 37.9467C14.5262 37.4266 14.1853 36.7985 13.8981 36.385C13.6072 35.9669 13.2061 35.6575 12.7493 35.499C12.7181 35.4858 12.6835 35.4858 12.6523 35.499C12.6374 35.5092 12.6246 35.5227 12.6148 35.5386C12.6049 35.5546 12.5981 35.5725 12.5948 35.5915C12.5045 35.8989 12.4898 36.227 12.5519 36.5427C12.6141 36.8584 12.7511 37.1505 12.949 37.3895C13.1469 37.6284 13.3987 37.8058 13.679 37.9036C13.9593 38.0014 14.2581 38.0163 14.5453 37.9467Z" fill="#455A64"/>
<path d="M11.2085 37.1378C11.0236 36.914 10.8574 36.6723 10.712 36.4158C10.5671 36.1569 10.4907 35.8589 10.4911 35.555C10.4893 35.5326 10.492 35.5101 10.499 35.489C10.5061 35.4679 10.5174 35.4488 10.532 35.4331C10.5493 35.4223 10.5684 35.4156 10.5882 35.4134C10.608 35.4113 10.628 35.4136 10.6469 35.4204C11.1644 35.5341 11.6364 35.8234 11.9962 36.2475C12.356 36.6716 12.5855 37.209 12.6522 37.784L12.6816 37.9312C12.2535 38.2226 11.7391 38.3201 11.2468 38.2032C10.8494 38.1361 10.4683 37.9821 10.126 37.7504C9.78161 37.5151 9.53153 37.1447 9.42653 36.7144C9.73366 36.6372 10.0525 36.6351 10.3604 36.7083C10.6684 36.7815 10.9579 36.9281 11.2085 37.1378Z" fill="#455A64"/>
<path d="M16.8608 36.1127C17.277 35.6221 17.8629 35.3445 18.4539 35.1749C18.4974 35.505 18.4809 35.8414 18.4054 36.1645C18.3298 36.4876 18.1966 36.791 18.0136 37.0572C17.8305 37.3234 17.6012 37.5471 17.3389 37.7154C17.0767 37.8837 16.7866 37.9932 16.4855 38.0375L16.4485 37.9674C16.2302 37.3408 16.4447 36.6034 16.8608 36.1127Z" fill="#455A64"/>
<path d="M8.68996 38.1736C8.67209 37.6535 8.33126 37.0255 8.04405 36.6105C7.75224 36.1936 7.3514 35.8844 6.8952 35.7245C6.86397 35.7114 6.82941 35.7114 6.79818 35.7245C6.78357 35.7349 6.77105 35.7485 6.76139 35.7644C6.75173 35.7803 6.74514 35.7983 6.74202 35.8171C6.65078 36.1242 6.63499 36.4524 6.69626 36.7684C6.75753 37.0844 6.89368 37.377 7.09094 37.6167C7.28821 37.8564 7.53959 38.0346 7.81969 38.1334C8.09979 38.2322 8.39868 38.248 8.68613 38.1793" fill="#455A64"/>
<path d="M20.1479 37.6802C20.1479 37.6802 18.9072 41.7387 17.8349 42.3696C16.7626 43.0004 14.3692 43.5976 13.1553 43.5822C11.9413 43.5668 11.2099 43.5345 10.2333 42.9387L10.204 42.9205C9.01432 42.1845 8.08994 41.0234 7.58461 39.6303L6.81871 37.5274L20.1479 37.6802Z" fill="#E0E0E0"/>
<path d="M7.67903 39.9696C7.79796 40.0869 7.93385 40.1817 8.08113 40.25C8.25262 40.3343 8.43461 40.3901 8.62109 40.4154C8.86897 40.4506 9.12078 40.4306 9.36146 40.3565C9.62825 40.278 9.89759 40.114 10.2129 40.0762C10.3754 40.0643 10.5384 40.0916 10.6903 40.1561C10.8499 40.2163 11.0069 40.3047 11.1741 40.386C11.3445 40.476 11.5274 40.5338 11.7153 40.557C11.9121 40.5716 12.1097 40.5474 12.2987 40.4855C12.6816 40.3734 13.0518 40.1631 13.459 40.0874C13.6579 40.0493 13.8621 40.0633 14.0552 40.128C14.2429 40.2001 14.423 40.2941 14.5926 40.4084C14.7602 40.518 14.9347 40.6145 15.1146 40.6972C15.2911 40.7787 15.4832 40.8109 15.6738 40.7911C16.0478 40.735 16.3375 40.5009 16.6452 40.4196C16.9354 40.3569 17.2345 40.3636 17.5221 40.4392C17.7637 40.4984 18.0084 40.5406 18.2548 40.5654C18.4425 40.5818 18.6313 40.5619 18.8127 40.5065C18.9271 40.4705 19.0342 40.4105 19.128 40.3299C19.1613 40.303 19.1914 40.2714 19.2173 40.236C19.0987 40.3509 18.9576 40.4343 18.805 40.4799C18.6261 40.5285 18.4409 40.5437 18.2574 40.5248C18.0129 40.4943 17.7703 40.4475 17.5311 40.3846C17.2384 40.3047 16.9335 40.2961 16.6375 40.3593C16.3171 40.442 16.0235 40.6734 15.6712 40.721C15.4909 40.7392 15.3093 40.7079 15.1427 40.6299C14.9671 40.5489 14.7965 40.4553 14.6321 40.3495C14.4586 40.2343 14.2741 40.1403 14.082 40.0691C13.8791 40.0007 13.6643 39.9858 13.4552 40.0257C13.0339 40.1056 12.6663 40.3159 12.2897 40.4266C11.9315 40.5535 11.5421 40.5203 11.206 40.3341C11.0413 40.2556 10.8818 40.1673 10.7171 40.1056C10.5573 40.0386 10.386 40.0113 10.2154 40.0257C9.88482 40.0649 9.61548 40.2332 9.35635 40.3131C9.1216 40.3883 8.87551 40.4112 8.63258 40.3804C8.44897 40.3586 8.26922 40.3076 8.099 40.229C7.98769 40.1781 7.88087 40.1162 7.77988 40.0439C7.71477 39.9948 7.68031 39.9682 7.67903 39.9696Z" fill="#263238"/>
<path d="M7.67896 39.4998C7.7994 39.6177 7.93706 39.7125 8.08616 39.7802C8.25982 39.865 8.44392 39.9212 8.63251 39.947C8.883 39.9825 9.13743 39.962 9.38054 39.8867C9.64988 39.8082 9.92305 39.6442 10.2422 39.6064C10.4064 39.5952 10.5708 39.6224 10.7247 39.6863C10.8868 39.748 11.0451 39.8363 11.2149 39.9162C11.3868 40.0069 11.5716 40.0647 11.7612 40.0872C11.9604 40.1016 12.1604 40.0779 12.3522 40.0171C12.7352 39.9036 13.1181 39.6947 13.5241 39.6176C13.7255 39.5802 13.9321 39.5941 14.1278 39.6582C14.318 39.7303 14.5007 39.8243 14.6729 39.9386C14.8424 40.048 15.0186 40.1444 15.2001 40.2274C15.3787 40.3091 15.573 40.3409 15.7656 40.3199C16.1485 40.2639 16.437 40.0297 16.7485 39.9498C17.042 39.886 17.3446 39.8922 17.6357 39.9681C17.8793 40.0273 18.1262 40.0694 18.3748 40.0942C18.5644 40.1103 18.7552 40.0909 18.939 40.0367C19.0545 40.0003 19.1627 39.9404 19.2581 39.8601C19.2916 39.8329 19.3221 39.8014 19.3487 39.7662C19.2279 39.8804 19.0853 39.9633 18.9313 40.0087C18.7503 40.0581 18.563 40.0733 18.3773 40.0536C18.1307 40.0232 17.886 39.9764 17.6446 39.9134C17.3469 39.8329 17.0369 39.8238 16.7357 39.8867C16.4115 39.9695 16.1141 40.2008 15.7579 40.2484C15.5756 40.2671 15.392 40.2363 15.2231 40.1587C15.0443 40.0756 14.8708 39.9796 14.7035 39.8713C14.5276 39.7564 14.3411 39.6624 14.147 39.5909C13.9403 39.5216 13.7216 39.5067 13.5087 39.5475C13.0837 39.6274 12.7097 39.8377 12.3293 39.9484C11.9673 40.0771 11.5738 40.0439 11.234 39.8559C11.0668 39.7774 10.906 39.6891 10.7387 39.6274C10.5758 39.5604 10.4016 39.5332 10.2281 39.5475C9.89369 39.5867 9.62179 39.755 9.35883 39.8349C9.12153 39.9105 8.87295 39.9338 8.6274 39.9036C8.44186 39.8811 8.2601 39.8301 8.08744 39.7522C7.97816 39.7021 7.87309 39.6416 7.77342 39.5713C7.74346 39.5451 7.7119 39.5213 7.67896 39.4998Z" fill="#263238"/>
<path d="M12.4276 43.5767C12.4276 43.5767 14.267 42.315 14.6985 42.4678C14.8211 42.5141 14.9279 42.6004 15.0048 42.7151C15.0816 42.8298 15.1248 42.9675 15.1287 43.1098C15.461 42.7658 15.816 42.449 16.1907 42.1621C16.4052 42.0107 16.6681 41.9 16.9068 42.022L16.9796 42.1201L16.9477 42.2953C16.9477 42.2953 18.0404 41.942 17.5438 42.6486C17.0472 43.3552 14.8836 44.8061 14.5287 44.9884C14.1738 45.1706 12.531 45.7075 11.7715 45.2057C11.3007 45.066 10.8741 44.7866 10.5384 44.3982C10.0124 43.7617 9.23761 42.7257 9.23761 42.7257L9.28867 41.6883L11.3974 43.4098L12.4276 43.5767Z" fill="#FFBF9D"/>
<path d="M7.89851 41.0785C7.91622 40.9353 7.97068 40.8006 8.05552 40.6901C8.14615 40.5878 8.36698 40.4995 8.46655 40.5934C8.71547 40.7869 9.00651 41.3546 9.00651 41.3546C9.17373 41.4822 9.38946 41.4948 9.54136 41.642C9.6226 41.7087 9.68935 41.7943 9.73681 41.8927C9.78427 41.9912 9.81125 42.0999 9.81581 42.2112C9.80242 42.3434 9.75424 42.4684 9.67715 42.571C9.60007 42.6736 9.49743 42.7493 9.3818 42.7888C9.14878 42.8631 8.90331 42.8775 8.66441 42.8308C8.40911 42.7972 8.12956 42.7355 7.96872 42.5154C7.84706 42.3133 7.79376 42.0707 7.81809 41.8299C7.82377 41.5772 7.85069 41.3257 7.89851 41.0785Z" fill="#FFBF9D"/>
<path d="M15.6495 44.0744C15.7548 44.0097 15.8517 43.93 15.938 43.8375C16.1556 43.6253 16.3516 43.3879 16.5227 43.1295C16.6948 42.8718 16.8395 42.5934 16.9541 42.2996C16.9767 42.2457 16.9851 42.186 16.9784 42.1272C16.9719 42.0814 16.9495 42.0401 16.9158 42.0122C16.8571 41.9674 16.8137 41.994 16.8175 41.9968C16.848 41.9983 16.877 42.0117 16.8992 42.0346C16.9241 42.0603 16.9392 42.0954 16.9414 42.1328C16.9432 42.184 16.9326 42.2347 16.9107 42.28C16.7851 42.5623 16.6374 42.832 16.4691 43.0861C16.3 43.3409 16.1117 43.5796 15.9061 43.7996C15.8159 43.8858 15.7302 43.9775 15.6495 44.0744Z" fill="#FF9A6C"/>
<path d="M11.8404 45.0948C11.8915 45.1028 11.9433 45.1051 11.9948 45.1018C12.0554 45.1022 12.1159 45.0989 12.1761 45.092C12.2463 45.0849 12.328 45.0807 12.4161 45.0639C12.623 45.0303 12.827 44.9783 13.0263 44.9083C13.2705 44.8208 13.5072 44.7097 13.7334 44.5761C13.9589 44.4388 14.1726 44.2793 14.3717 44.0994C14.5323 43.9518 14.6817 43.79 14.8185 43.6158C14.8719 43.55 14.9222 43.4812 14.9691 43.4097C15.007 43.3574 15.0419 43.3026 15.0738 43.2457C15.1048 43.2003 15.1305 43.1509 15.1504 43.0985C15.1401 43.0985 15.0227 43.2947 14.784 43.5821C14.644 43.7487 14.4934 43.9043 14.3334 44.0475C14.1361 44.2211 13.9261 44.3763 13.7054 44.5116C13.4826 44.6426 13.2509 44.7541 13.0122 44.8452C12.816 44.9162 12.6156 44.972 12.4123 45.012C12.06 45.0793 11.8391 45.0793 11.8404 45.0948Z" fill="#FF9A6C"/>
<path d="M8.89673 42.8756C8.92295 42.89 8.95167 42.8982 8.98098 42.8995C9.06005 42.911 9.14034 42.9077 9.2184 42.8896C9.33572 42.8673 9.44647 42.8144 9.54136 42.7354C9.65899 42.6343 9.74218 42.4925 9.77751 42.3331C9.81511 42.1732 9.79832 42.0037 9.73028 41.8565C9.67153 41.738 9.58288 41.6406 9.47498 41.5761C9.40459 41.5326 9.32682 41.5054 9.24649 41.4962C9.19032 41.4962 9.15969 41.4962 9.15969 41.4962C9.26182 41.518 9.36008 41.5578 9.45073 41.6139C9.54425 41.679 9.62009 41.7705 9.67029 41.8789C9.72906 42.0123 9.74263 42.1644 9.70858 42.3079C9.67553 42.4517 9.60178 42.5803 9.49796 42.6752C9.41153 42.7525 9.31096 42.8084 9.20309 42.8392C9.10217 42.8614 8.99964 42.8736 8.89673 42.8756Z" fill="#FF9A6C"/>
<g opacity="0.6">
<path d="M17.0498 41.4443C17.1422 41.1239 17.2824 40.8226 17.4647 40.5527L18.5395 38.7582C18.6042 38.6283 18.6972 38.518 18.8101 38.4372C18.9148 38.3741 19.2199 38.2185 19.2837 38.4989C19.2968 38.5652 19.2923 38.6343 19.271 38.698C18.918 39.8114 18.3137 40.8084 17.5145 41.5957C17.3945 41.7134 17.2081 41.8312 17.0907 41.677C17.0678 41.6444 17.0522 41.6064 17.0451 41.5659C17.038 41.5255 17.0396 41.4839 17.0498 41.4443Z" fill="white"/>
</g>
<path d="M31.5814 19.2311C31.8189 18.8232 32.0627 18.4068 32.4086 18.1096C32.4659 18.0498 32.5334 18.003 32.6072 17.9719C32.6811 17.9409 32.7598 17.9262 32.8388 17.9288C32.9064 17.9413 32.9703 17.9712 33.0253 18.016C33.0803 18.0608 33.1249 18.1193 33.1554 18.1867C33.2153 18.3227 33.2426 18.4733 33.2345 18.6241C33.223 19.1484 32.9652 19.6293 32.6716 20.0442C32.378 20.4592 32.0333 20.8391 31.8099 21.3059H30.3777L31.5814 19.2311Z" fill="#FF9A6C"/>
<path d="M22.4277 19.994C22.8655 19.6141 23.4285 19.4501 23.9837 19.387C23.9824 19.6919 23.926 19.9935 23.8177 20.2743C23.7093 20.555 23.5513 20.8093 23.3527 21.0225C23.1542 21.2356 22.919 21.4033 22.6609 21.5157C22.4029 21.6282 22.127 21.6833 21.8494 21.6777L21.8252 21.609C21.7065 21.0062 21.9911 20.3753 22.4277 19.994Z" fill="#455A64"/>
<path d="M23.3774 19.9715C23.2824 20.0264 23.194 20.0942 23.1144 20.1733C22.9587 20.3135 22.7519 20.5042 22.5349 20.7341C22.3179 20.964 22.134 21.1897 22.0077 21.3565C21.9347 21.442 21.8704 21.536 21.8162 21.6369C21.8989 21.5622 21.9749 21.4791 22.0434 21.3888C22.1774 21.2318 22.3664 21.0159 22.5808 20.786C22.7953 20.5561 22.9982 20.3542 23.145 20.2098C23.2281 20.1372 23.3058 20.0575 23.3774 19.9715Z" fill="#263238"/>
<path d="M20.4873 19.8129C20.5256 19.2045 20.795 18.6396 21.1256 18.1475C21.3286 18.3537 21.4924 18.6021 21.6074 18.8783C21.7224 19.1544 21.7864 19.4529 21.7957 19.7565C21.8049 20.06 21.7593 20.3625 21.6614 20.6466C21.5634 20.9306 21.4152 21.1904 21.2252 21.4111L21.1613 21.3845C20.6814 21.0789 20.4478 20.4228 20.4873 19.8129Z" fill="#455A64"/>
<path d="M21.0555 18.8023C21.0497 18.9204 21.0552 19.0388 21.0721 19.1556C21.0912 19.3981 21.1142 19.6855 21.1397 19.9967C21.1652 20.3079 21.1831 20.6009 21.201 20.8448C21.2031 20.9631 21.215 21.0809 21.2367 21.1967C21.2522 21.0793 21.2556 20.9603 21.2469 20.842C21.2469 20.6247 21.2316 20.3219 21.2061 19.9897C21.1806 19.6574 21.1474 19.3574 21.118 19.1415C21.1083 19.0263 21.0873 18.9126 21.0555 18.8023Z" fill="#263238"/>
<path d="M21.5724 21.7954C21.1374 21.7954 20.7848 21.4081 20.7848 20.9304C20.7848 20.4527 21.1374 20.0655 21.5724 20.0655C22.0073 20.0655 22.36 20.4527 22.36 20.9304C22.36 21.4081 22.0073 21.7954 21.5724 21.7954Z" fill="#FF6240"/>
<g opacity="0.3">
<path d="M21.5724 21.7954C21.1374 21.7954 20.7848 21.4081 20.7848 20.9304C20.7848 20.4527 21.1374 20.0655 21.5724 20.0655C22.0073 20.0655 22.36 20.4527 22.36 20.9304C22.36 21.4081 22.0073 21.7954 21.5724 21.7954Z" fill="black"/>
</g>
<path d="M24.6986 22.0716C25.4403 22.0716 26.1998 21.4071 26.7129 20.8393L26.7308 20.8197C26.7505 20.7984 26.7724 20.7796 26.7959 20.7636C26.8605 20.7211 26.9339 20.6974 27.0091 20.6949C30.3535 20.5225 34.7957 19.2229 34.8404 19.2103C34.8834 19.1976 34.9201 19.1668 34.9423 19.1244C34.9646 19.0821 34.9706 19.0318 34.9591 18.9846C34.9476 18.9374 34.9195 18.8971 34.881 18.8726C34.8424 18.8482 34.7966 18.8416 34.7536 18.8542C34.7089 18.8682 30.3012 20.1566 26.9938 20.3262C26.8583 20.3311 26.7264 20.3746 26.6108 20.4524C26.5666 20.4829 26.5259 20.5191 26.4896 20.5603L26.4704 20.5813C25.79 21.3342 25.1377 21.7323 24.6386 21.7029C23.7859 21.6524 21.6376 20.9528 21.6159 20.9458C21.5948 20.9387 21.5727 20.9363 21.5508 20.9387C21.5289 20.9411 21.5077 20.9482 21.4883 20.9597C21.469 20.9712 21.4519 20.9868 21.438 21.0056C21.4242 21.0244 21.4139 21.046 21.4078 21.0692C21.3951 21.116 21.3998 21.1665 21.4208 21.2096C21.4418 21.2527 21.4776 21.2849 21.5201 21.2991C21.6095 21.3285 23.7285 22.0169 24.6208 22.0702L24.6986 22.0716Z" fill="#E0E0E0"/>
<path d="M24.6986 22.0714H24.6245C24.576 22.0644 24.5033 22.0602 24.4088 22.0462C24.2186 22.0196 23.9416 21.9635 23.588 21.878C23.2344 21.7925 22.803 21.6733 22.3115 21.5247C22.0639 21.4504 21.7945 21.3677 21.5201 21.2752C21.4895 21.2611 21.4643 21.2359 21.4485 21.2039C21.4328 21.1719 21.4274 21.1349 21.4334 21.0991C21.4393 21.0633 21.4562 21.0309 21.4813 21.007C21.5063 20.9832 21.538 20.9695 21.5712 20.9682C21.6074 20.9705 21.6432 20.979 21.6771 20.9934L21.7907 21.0298L22.0218 21.1027C22.6472 21.2934 23.334 21.5009 24.0859 21.6565C24.2778 21.6965 24.4718 21.7241 24.6667 21.7392C24.8717 21.739 25.0744 21.6912 25.2615 21.599C25.6451 21.4048 25.9963 21.1414 26.3006 20.8196C26.464 20.6639 26.5942 20.4607 26.8035 20.399C26.9076 20.3683 27.0149 20.3528 27.1226 20.3527L27.4584 20.3289C27.9064 20.2952 28.3634 20.242 28.8268 20.1803C29.7548 20.0513 30.7083 19.8747 31.681 19.6616C32.6537 19.4485 33.5958 19.2158 34.5021 18.9606L34.6719 18.913L34.7561 18.8891C34.7796 18.883 34.8041 18.883 34.8276 18.8891C34.8506 18.894 34.872 18.9054 34.8898 18.9221C34.9075 18.9388 34.9211 18.9602 34.929 18.9844C34.937 19.0085 34.9391 19.0345 34.9352 19.0599C34.9313 19.0852 34.9215 19.109 34.9067 19.1289C34.8787 19.1723 34.8314 19.1807 34.7727 19.1976L34.608 19.2438L34.28 19.3349C33.8434 19.4527 33.4158 19.563 32.9971 19.6658C31.5161 20.037 30.019 20.3261 28.5115 20.5322C28.1898 20.577 27.8822 20.6037 27.5911 20.6331L27.1673 20.6639C27.0971 20.671 27.0333 20.6724 26.9631 20.6808C26.8948 20.6905 26.8298 20.7189 26.7742 20.7635C26.7241 20.8067 26.6768 20.8535 26.6325 20.9037L26.5048 21.0439C26.4167 21.1322 26.3312 21.2163 26.2495 21.2934C26.0952 21.4344 25.9322 21.5636 25.7619 21.6803C25.527 21.8453 25.2679 21.9644 24.996 22.0322C24.901 22.0514 24.8051 22.0645 24.7088 22.0714H24.7828C24.8552 22.0695 24.9273 22.0615 24.9986 22.0476C25.2732 21.9842 25.5356 21.8679 25.7734 21.7042C25.9459 21.5888 26.111 21.4605 26.2674 21.32C26.3542 21.2443 26.441 21.1602 26.5291 21.0719L26.6567 20.9317C26.6992 20.881 26.7453 20.8341 26.7946 20.7915C26.8453 20.751 26.9046 20.7254 26.9669 20.7172C27.0295 20.7102 27.0946 20.7074 27.1686 20.7032L27.5937 20.6738C27.8847 20.6471 28.1936 20.6205 28.5153 20.5784C30.0259 20.3794 31.5261 20.0944 33.0099 19.7247C33.4286 19.6237 33.8566 19.5144 34.294 19.3966L34.6221 19.3069L34.788 19.2592C34.8174 19.2508 34.8404 19.2466 34.8736 19.234C34.9057 19.2204 34.9339 19.1977 34.9553 19.1681C34.977 19.1386 34.9915 19.1034 34.9972 19.0659C35.003 19.0285 34.9998 18.99 34.9879 18.9543C34.9761 18.9186 34.9561 18.8868 34.9298 18.8622C34.9035 18.8375 34.8718 18.8207 34.8378 18.8134C34.8046 18.8073 34.7705 18.8097 34.7383 18.8205L34.654 18.8443L34.4855 18.892C33.5805 19.1429 32.6371 19.3756 31.6657 19.5929C30.6943 19.8102 29.7433 19.9826 28.8178 20.1116C28.3545 20.1747 27.8988 20.228 27.452 20.263L27.1188 20.2868C27.0055 20.2874 26.8926 20.3039 26.7831 20.3359C26.7282 20.3541 26.6755 20.3796 26.6261 20.4116C26.5776 20.4438 26.5367 20.4873 26.4908 20.5252C26.4104 20.6065 26.3376 20.692 26.2572 20.7705C25.9584 21.088 25.6132 21.3481 25.236 21.5401C25.0568 21.63 24.8624 21.6778 24.6654 21.6803C24.4731 21.666 24.2817 21.6393 24.0922 21.6004C23.3429 21.4476 22.6562 21.2443 22.0307 21.0565L21.7996 20.985L21.686 20.9485C21.6476 20.9326 21.6071 20.9236 21.566 20.9219C21.5234 20.9245 21.4828 20.9428 21.4508 20.9738C21.4188 21.0049 21.3972 21.0468 21.3896 21.093C21.3819 21.1391 21.3886 21.1867 21.4086 21.2281C21.4285 21.2696 21.4606 21.3024 21.4997 21.3214C21.7843 21.4154 22.0473 21.4925 22.2975 21.5668C22.7966 21.707 23.228 21.8275 23.5842 21.9088C23.9403 21.9901 24.2224 22.042 24.4075 22.063C24.5033 22.0743 24.576 22.0771 24.6245 22.0813C24.6494 22.0795 24.6741 22.0762 24.6986 22.0714Z" fill="#263238"/>
<path d="M34.3834 22.4725C34.3834 22.4725 34.22 19.5285 33.9009 19.2341C33.5818 18.9397 32.29 18.5893 32.1202 18.6734C31.9504 18.7575 30.9713 19.1753 30.9369 19.3533C30.9209 19.4116 30.9172 19.4732 30.9262 19.5333C30.9352 19.5934 30.9566 19.6505 30.9887 19.7001C31.0209 19.7498 31.0629 19.7907 31.1117 19.8198C31.1604 19.8488 31.2146 19.8652 31.27 19.8678L32.0359 19.715L32.8018 20.1692L32.8925 20.9809C32.8925 20.9809 32.1125 20.2968 31.8508 20.0949C31.5892 19.893 30.9407 19.9014 30.9152 20.4285C30.9152 20.4285 29.9067 20.5617 29.8761 21.201C29.8761 21.201 28.9825 21.9117 28.9328 22.2762C28.883 22.6407 29.3247 23.3697 29.3247 23.3697C29.3247 23.3697 27.9626 24.8165 27.9996 25.3085C28.0367 25.8006 27.9001 27.3497 27.9001 27.3497L30.9981 27.7703L31.0658 26.3684C31.0658 26.3684 34.1817 23.1636 34.3834 22.4725Z" fill="#FFBF9D"/>
<path d="M29.3706 22.3547C29.3956 22.5109 29.4568 22.6574 29.5482 22.7801C29.6396 22.9029 29.7582 22.9978 29.8927 23.0557C29.9029 23.0374 29.742 22.9281 29.5991 22.7332C29.4561 22.5384 29.3884 22.3477 29.3706 22.3547Z" fill="#FF9A6C"/>
<path d="M29.1537 22.6477C29.1383 22.6603 29.2137 22.75 29.3375 22.7444C29.4613 22.7388 29.5302 22.6421 29.5149 22.6309C29.4996 22.6196 29.4319 22.6687 29.3349 22.6715C29.2379 22.6743 29.1651 22.6323 29.1537 22.6477Z" fill="#FF9A6C"/>
<path d="M29.9042 21.2388C29.9042 21.2514 30.0101 21.2935 30.1709 21.3986C30.3791 21.5348 30.5623 21.7127 30.7109 21.9229C30.8236 22.0825 30.9139 22.2597 30.979 22.4486V22.4627H30.9892C31.1366 22.5349 31.2895 22.5926 31.4462 22.6351C31.3079 22.5454 31.1627 22.4694 31.0122 22.408L31.0275 22.4262C30.9681 22.2268 30.8773 22.0403 30.7594 21.8753C30.6062 21.6572 30.412 21.4779 30.1901 21.3496C30.1016 21.294 30.0048 21.2565 29.9042 21.2388Z" fill="#FF9A6C"/>
<path d="M32.4571 22.0954C32.4571 22.0954 32.4443 22.0618 32.3996 22.0211C32.3341 21.9675 32.2601 21.9275 32.1814 21.9033C32.0706 21.8712 31.966 21.8175 31.8725 21.7449C31.7675 21.6394 31.6698 21.5255 31.5801 21.4043C31.3772 21.1505 31.1972 20.9248 31.0542 20.7636C30.9845 20.6709 30.9062 20.5863 30.8206 20.5113C30.8775 20.612 30.9438 20.706 31.0185 20.7916C31.1461 20.9613 31.3274 21.194 31.5291 21.4463C31.6211 21.5711 31.7228 21.6869 31.8329 21.7926C31.9337 21.8673 32.0469 21.9197 32.166 21.9468C32.242 21.9656 32.3151 21.9963 32.3831 22.0379C32.4303 22.0744 32.4533 22.0996 32.4571 22.0954Z" fill="#FF9A6C"/>
<path d="M32.9065 20.971C32.9626 21.1793 33.0663 21.3685 33.2077 21.5204C33.3491 21.6723 33.5236 21.7819 33.7145 21.8388C33.5513 21.7301 33.397 21.6058 33.2537 21.4673C33.1251 21.3132 33.009 21.1471 32.9065 20.971Z" fill="#FF9A6C"/>
<path d="M29.2915 23.3892C29.2915 23.4005 29.3375 23.3892 29.4064 23.3892C29.4961 23.3879 29.5844 23.4136 29.6617 23.4635L29.709 23.4944V23.4341V23.4159C29.7101 23.3127 29.7265 23.2105 29.7575 23.1131C29.783 23.0402 29.8136 23.0023 29.8072 22.9939C29.8009 22.9855 29.7562 23.0135 29.7153 23.0892C29.6679 23.1888 29.643 23.2993 29.6426 23.4117V23.4299L29.6936 23.4005C29.6064 23.3439 29.504 23.3221 29.4039 23.3388C29.3273 23.3458 29.2877 23.3766 29.2915 23.3892Z" fill="#FF9A6C"/>
<path d="M31.4335 27.3145C31.4335 27.3145 33.3482 39.1479 33.1938 40.3956C33.0393 41.6433 32.7125 46.6228 29.3413 46.0761C25.9701 45.5293 26.5547 40.3521 26.6721 39.3596C26.7896 38.3671 27.5823 31.7389 27.5823 31.7389L27.8376 27.1028L31.4335 27.3145Z" fill="#FF6240"/>
<path d="M26.995 37.3633C27.0042 37.3295 27.0102 37.2947 27.0129 37.2596C27.0205 37.1839 27.0333 37.0857 27.0473 36.9624C27.0767 36.703 27.115 36.3287 27.1584 35.8647C27.2452 34.9366 27.346 33.6539 27.4482 32.2352C27.5503 30.8165 27.6447 29.5337 27.7201 28.6057C27.7571 28.1472 27.7877 27.7743 27.8094 27.5066C27.8179 27.3823 27.8256 27.2827 27.8324 27.208C27.8341 27.173 27.8341 27.1379 27.8324 27.1028C27.8231 27.1361 27.8171 27.1704 27.8145 27.2052C27.806 27.2809 27.7945 27.3804 27.78 27.5038C27.7507 27.7617 27.7124 28.1374 27.669 28.6015C27.5822 29.5281 27.4813 30.8122 27.3779 32.2296C27.2746 33.6469 27.1826 34.931 27.1112 35.8661C27.0741 36.3245 27.0435 36.6988 27.0218 36.9652C27.0129 37.0899 27.0052 37.1895 26.9988 37.2652C26.9961 37.2978 26.9948 37.3305 26.995 37.3633Z" fill="#263238"/>
</svg>
