<svg xmlns="http://www.w3.org/2000/svg" width="56" height="54" fill="none" viewBox="0 0 56 54"><path fill="#263238" d="M22.7916 9.35143L23.406 9.31738L25.6775 14.7967V20.7555L25.982 23.5377L24.1537 22.1828C24.1537 22.1828 24.1278 18.301 24.1319 18.0967C24.1781 15.1272 22.7861 9.35143 22.7861 9.35143H22.7916Z"/><path fill="#263238" d="M34.8602 17.2951L30.0833 15.9217L26.9567 14.1624C26.9567 14.1624 24.4337 10.2651 23.996 10.0196C23.7277 9.87256 23.422 9.81699 23.1219 9.86071L25.9182 16.8127C25.9182 16.8127 28.4031 18.911 29.2772 18.955C30.1513 18.999 34.4918 19.7382 34.4918 19.7382L34.8602 17.2951Z"/><path fill="#455A64" d="M25.7333 15.6279C25.7329 15.5704 25.7256 15.5132 25.7115 15.4576C25.6938 15.3484 25.6626 15.1909 25.6218 14.9979C25.5389 14.6134 25.4111 14.0842 25.2588 13.5025C25.1066 12.9208 24.9571 12.3973 24.851 12.0213C24.7953 11.8326 24.7477 11.6794 24.7151 11.5758C24.7015 11.5201 24.6814 11.4662 24.6553 11.4155C24.6612 11.4724 24.6726 11.5285 24.6893 11.5829C24.7205 11.705 24.7586 11.8568 24.8048 12.0355C24.9095 12.4314 25.0454 12.9492 25.1977 13.5224C25.3499 14.0956 25.4859 14.629 25.5797 15.0107C25.6245 15.1909 25.6612 15.3413 25.6911 15.4633C25.6999 15.5195 25.714 15.5746 25.7333 15.6279Z"/><path fill="#FFBE9D" d="M28.0401 37.6387C28.3242 38.043 27.6146 42.2766 27.0885 41.8127L27.6214 42.7008L29.5966 42.8739L30.9438 38.5892L28.0401 37.6387Z"/><path fill="#407BFF" d="M25.5157 23.1885C25.5157 23.1885 32.8388 28.523 33.2112 30.5022C33.2112 30.5022 33.74 30.9889 33.3975 32.1565C33.0549 33.3242 30.6515 40.5017 30.6515 40.5017C30.6515 40.5017 27.8797 39.9342 27.601 39.6121L27.7098 38.1579L29.0148 32.6729L29.3574 32.1877C29.1191 32.1799 28.886 32.1128 28.6777 31.9919C28.3664 31.7976 23.667 28.7997 23.667 28.7997L22.4925 24.9861L25.5157 23.1885Z"/><path fill="#407BFF" d="M29.7067 42.6515L29.6578 42.8231C29.6578 42.8231 32.1047 44.8633 31.981 45.4252L26.4537 43.663L27.0913 41.7676C27.4409 42.1023 27.8554 42.3545 28.3067 42.507C28.758 42.6595 29.2355 42.7088 29.7067 42.6515Z"/><g opacity=".6"><path fill="#fff" d="M26.4537 43.6629L26.6074 43.2075L31.8492 45.0633C31.8492 45.0633 32.0626 45.2534 31.9851 45.425L26.4537 43.6629Z"/></g><path fill="#263238" d="M29.6727 42.8457C29.6632 42.8727 29.5246 42.8457 29.3655 42.8911C29.2065 42.9365 29.1004 43.033 29.0787 43.0159C29.0569 42.9989 29.1453 42.8471 29.3397 42.7918C29.5341 42.7364 29.6863 42.8216 29.6727 42.8457Z"/><path fill="#263238" d="M30.1784 43.2798C30.1784 43.3096 30.0425 43.3196 29.9201 43.4104C29.7978 43.5012 29.7298 43.6175 29.704 43.6076C29.6782 43.5976 29.704 43.4331 29.8658 43.3238C30.0275 43.2146 30.1866 43.2529 30.1784 43.2798Z"/><path fill="#263238" d="M30.2967 44.1099C30.2695 44.1099 30.2736 43.9552 30.3878 43.8261C30.502 43.697 30.6474 43.6715 30.6515 43.6999C30.6556 43.7282 30.5536 43.7836 30.4612 43.8942C30.3687 44.0049 30.3239 44.1156 30.2967 44.1099Z"/><path fill="#263238" d="M31.0008 30.9465C30.8959 30.9659 30.7946 31.0023 30.7004 31.0544C30.2301 31.2794 29.8192 31.6202 29.5028 32.0475C29.4328 32.1326 29.3755 32.2283 29.3329 32.3312C29.5632 32.0454 29.816 31.7801 30.0887 31.5382C30.3759 31.314 30.6811 31.1161 31.0008 30.9465Z"/><path fill="#263238" d="M30.5277 30.1265C30.4322 30.2002 30.3467 30.287 30.2735 30.3847C30.0853 30.6105 29.9203 30.8563 29.7814 31.1182C29.643 31.3802 29.531 31.6564 29.447 31.9425C29.4065 32.0595 29.3813 32.1816 29.3723 32.3057C29.4198 32.193 29.4607 32.0774 29.4946 31.9595C29.5906 31.6817 29.7075 31.4123 29.844 31.1536C29.9816 30.8966 30.1379 30.6509 30.3116 30.4187C30.3898 30.3265 30.462 30.2288 30.5277 30.1265Z"/><g opacity=".3"><path fill="#000" d="M23.6887 28.4963C23.7294 28.3671 23.8001 28.2508 23.8382 28.1217C23.857 27.9948 23.8937 27.8714 23.9469 27.7557C24.0297 27.6501 24.141 27.573 24.2664 27.5343C24.9008 27.2667 25.5492 27.0302 26.2117 26.8249L26.6847 27.1186C26.6671 27.2873 26.6157 27.4501 26.534 27.5968C26.4523 27.7434 26.342 27.8705 26.2103 27.9699C25.9469 28.1687 25.6532 28.3198 25.3417 28.4168C25.0308 28.5142 24.7292 28.641 24.4404 28.7956C24.3311 28.871 24.2133 28.932 24.0897 28.9772C24.0271 28.9983 23.9602 29.0011 23.8963 28.9854C23.8323 28.9696 23.7736 28.9359 23.7267 28.8878C23.6892 28.8312 23.666 28.7656 23.6593 28.6972C23.6527 28.6287 23.6628 28.5596 23.6887 28.4963Z"/></g><path fill="#E0E0E0" d="M21.6334 30.6598L20.6356 27.1753H21.511L22.3702 30.4498L21.6334 30.6598Z"/><path fill="#263238" d="M11.3672 42.5635C11.3862 42.5635 10.8085 40.4765 10.0785 37.9156C9.34848 35.3548 8.73948 33.2819 8.71909 33.2876C8.69869 33.2933 9.27779 35.3746 10.0091 37.9369C10.7405 40.4992 11.3481 42.5692 11.3672 42.5635Z"/><path fill="#263238" d="M11.3672 42.5635C11.3862 42.5635 11.1442 40.4098 10.8234 37.7581C10.5026 35.1065 10.2334 32.957 10.2131 32.957C10.1927 32.957 10.436 35.1107 10.7568 37.7624C11.0776 40.4141 11.3481 42.5663 11.3672 42.5635Z"/><path fill="#263238" d="M11.3672 42.5633C11.3862 42.5633 11.5127 40.4025 11.65 37.7395C11.7873 35.0764 11.8811 32.9057 11.862 32.9043C11.843 32.9029 11.7084 35.0608 11.5725 37.7295C11.4365 40.3982 11.3482 42.5618 11.3672 42.5633Z"/><path fill="#263238" d="M11.3672 42.5635C11.3862 42.5635 11.8579 40.458 12.4194 37.8518C12.9808 35.2455 13.4226 33.1258 13.4036 33.1216C13.3845 33.1173 12.9128 35.227 12.3514 37.8347C11.79 40.4424 11.3482 42.5592 11.3672 42.5635Z"/><path fill="#263238" d="M11.3672 42.5632C11.3848 42.5718 12.1828 40.577 13.1602 38.1012C14.1376 35.6255 14.9057 33.6179 14.888 33.6094C14.8703 33.6009 14.0724 35.5957 13.095 38.0728C12.1176 40.55 11.3495 42.5562 11.3672 42.5632Z"/><path fill="#263238" d="M11.3672 42.5634C11.3835 42.5748 12.4955 40.7446 13.8508 38.4774C15.2062 36.2102 16.2896 34.363 16.2733 34.3516C16.257 34.3403 15.145 36.1691 13.7897 38.4377C12.4344 40.7063 11.3509 42.5535 11.3672 42.5634Z"/><path fill="#263238" d="M11.3673 42.5633C11.3822 42.5775 12.7715 40.9672 14.4707 38.9681C16.17 36.9691 17.5348 35.3361 17.5212 35.3233C17.5076 35.3105 16.117 36.9194 14.4177 38.9185C12.7185 40.9175 11.3523 42.5505 11.3673 42.5633Z"/><path fill="#263238" d="M11.3673 42.5635C11.3795 42.5791 13.008 41.2356 15.0023 39.56C16.9965 37.8844 18.606 36.5153 18.5938 36.504C18.5815 36.4926 16.9543 37.8319 14.9588 39.5075C12.9632 41.1831 11.355 42.5479 11.3673 42.5635Z"/><path fill="#263238" d="M11.3672 42.5633C11.3767 42.5818 13.1969 41.5404 15.4331 40.238C17.6693 38.9356 19.4746 37.8644 19.465 37.8459C19.4555 37.8275 17.6353 38.8703 15.3991 40.1727C13.1629 41.4751 11.3577 42.5463 11.3672 42.5633Z"/><path fill="#263238" d="M11.3672 42.5633C11.374 42.5832 13.3356 41.8738 15.7485 40.98C18.1614 40.0861 20.1135 39.3413 20.1067 39.3257C20.0999 39.3101 18.1383 40.0166 15.7254 40.9104C13.3125 41.8043 11.3604 42.5449 11.3672 42.5633Z"/><path fill="#263238" d="M11.3672 42.5633C11.3672 42.5831 13.4185 42.227 15.9402 41.7674C18.4619 41.3077 20.505 40.9161 20.5023 40.8976C20.4996 40.8792 18.451 41.2339 15.928 41.695C13.4049 42.1561 11.3645 42.5434 11.3672 42.5633Z"/><path fill="#263238" d="M11.3673 42.5635C11.3673 42.5848 13.4431 42.5905 16.0041 42.5763C18.5652 42.5621 20.641 42.5365 20.641 42.5167C20.641 42.4968 18.5652 42.4897 16.0041 42.5025C13.4431 42.5153 11.3673 42.5436 11.3673 42.5635Z"/><path fill="#263238" d="M11.3672 42.5633C11.3672 42.5832 13.4063 42.9521 15.9361 43.3862C18.466 43.8204 20.5145 44.1552 20.5173 44.1353C20.52 44.1155 18.4782 43.7466 15.9484 43.3124C13.4185 42.8783 11.3699 42.5435 11.3672 42.5633Z"/><path fill="#263238" d="M11.3672 42.5633C11.3604 42.5832 13.3193 43.3025 15.7404 44.1722C18.1615 45.0419 20.1299 45.7258 20.1366 45.7102C20.1434 45.6946 18.1859 44.971 15.7635 44.1027C13.3411 43.2344 11.374 42.5449 11.3672 42.5633Z"/><path fill="#263238" d="M11.3672 42.5632C11.3577 42.5816 13.1724 43.6329 15.4209 44.9127C17.6693 46.1924 19.499 47.2153 19.5085 47.1969C19.5181 47.1784 17.7033 46.1271 15.4549 44.8474C13.2064 43.5677 11.3767 42.5462 11.3672 42.5632Z"/><path fill="#263238" d="M11.3673 42.5634C11.355 42.5804 12.9768 43.9339 14.9873 45.5868C16.9979 47.2396 18.6414 48.5633 18.6509 48.5534C18.6604 48.5435 17.0427 47.1843 15.0308 45.53C13.0189 43.8757 11.3795 42.5478 11.3673 42.5634Z"/><path fill="#263238" d="M11.3673 42.5633C11.3523 42.5775 12.7335 44.1949 14.4517 46.1769C16.17 48.1589 17.5783 49.7536 17.5892 49.7408C17.6001 49.7281 16.223 48.1093 14.5047 46.1272C12.7865 44.1452 11.3822 42.5505 11.3673 42.5633Z"/><path fill="#263238" d="M11.3672 42.5635C11.3509 42.5749 12.4547 44.4079 13.829 46.6652C15.2034 48.9224 16.3344 50.737 16.3507 50.7257C16.367 50.7143 15.2632 48.8813 13.8888 46.6254C12.5145 44.3696 11.3835 42.5536 11.3672 42.5635Z"/><path fill="#263238" d="M11.3673 42.5635C11.3496 42.572 12.1421 44.5739 13.1345 47.0369C14.1268 49.4998 14.952 51.489 14.9696 51.4804C14.9873 51.4719 14.1961 49.4701 13.2024 47.0071C12.2087 44.5441 11.3849 42.5564 11.3673 42.5635Z"/><path fill="#263238" d="M11.3673 42.5635C11.3482 42.5635 11.8091 44.6817 12.3949 47.2823C12.9808 49.8829 13.4729 51.9884 13.4933 51.9841C13.5137 51.9798 13.0515 49.8673 12.4643 47.2653C11.877 44.6633 11.3863 42.5592 11.3673 42.5635Z"/><path fill="#263238" d="M11.3673 42.5635C11.3482 42.5635 11.4638 44.7285 11.6242 47.3958C11.7846 50.0631 11.9328 52.2196 11.9532 52.2196C11.9736 52.2196 11.8567 50.056 11.6949 47.3873C11.5331 44.7186 11.3863 42.562 11.3673 42.5635Z"/><path fill="#263238" d="M11.3672 42.5635C11.3482 42.5635 11.1144 44.7143 10.8466 47.3717C10.5788 50.029 10.3776 52.187 10.3966 52.1884C10.4156 52.1898 10.6494 50.039 10.9172 47.3802C11.185 44.7214 11.3862 42.5663 11.3672 42.5635Z"/><path fill="#263238" d="M11.3673 42.5635C11.3482 42.5635 10.7732 44.6405 10.084 47.2142C9.39479 49.7878 8.84832 51.8777 8.86735 51.8834C8.88638 51.889 9.4614 49.8077 10.152 47.2341C10.8425 44.6604 11.3863 42.5691 11.3673 42.5635Z"/><path fill="#263238" d="M11.3673 42.5635C11.3496 42.555 10.4497 44.5072 9.35672 46.9234C8.26378 49.3395 7.39105 51.3074 7.40872 51.3216C7.42639 51.3357 8.32767 49.3778 9.42062 46.9617C10.5136 44.5455 11.3849 42.572 11.3673 42.5635Z"/><path fill="#263238" d="M11.3672 42.5635C11.3509 42.5522 10.1506 44.32 8.68652 46.512C7.22246 48.704 6.04659 50.4845 6.06154 50.5015C6.07649 50.5186 7.28499 48.7465 8.74361 46.5531C10.2022 44.3597 11.3835 42.5749 11.3672 42.5635Z"/><path fill="#263238" d="M11.3672 42.5633C11.3536 42.5491 9.88681 44.0828 8.09106 45.9868C6.29531 47.8908 4.85028 49.4486 4.86523 49.4628C4.88018 49.477 6.3456 47.9447 8.14136 46.0393C9.93711 44.1339 11.3808 42.5775 11.3672 42.5633Z"/><path fill="#263238" d="M11.3672 42.5634C11.3563 42.5478 9.6639 43.802 7.58811 45.3669C5.51233 46.9318 3.83892 48.2143 3.85116 48.2313C3.86339 48.2484 5.55311 46.9928 7.63025 45.4279C9.7074 43.863 11.3794 42.5804 11.3672 42.5634Z"/><path fill="#263238" d="M11.3672 42.5632C11.3591 42.5448 9.48994 43.4883 7.19257 44.6687C4.8952 45.8491 3.03964 46.821 3.0478 46.8394C3.05595 46.8579 4.92647 45.9158 7.22248 44.7325C9.51848 43.5493 11.3754 42.5817 11.3672 42.5632Z"/><path fill="#263238" d="M11.3673 42.5635C11.3673 42.5436 9.36761 43.1466 6.91391 43.9099C4.46022 44.6732 2.47415 45.3074 2.47959 45.3286C2.48502 45.3499 4.47925 44.7455 6.9343 43.9836C9.38936 43.2218 11.3727 42.5833 11.3673 42.5635Z"/><path fill="#263238" d="M11.3672 42.5634C11.3672 42.5435 9.30226 42.789 6.7602 43.1124C4.21815 43.4359 2.16003 43.7154 2.16275 43.7353C2.16547 43.7551 4.22767 43.5097 6.76972 43.1862C9.31178 42.8627 11.3699 42.5847 11.3672 42.5634Z"/><path fill="#263238" d="M11.3672 42.5633C11.3672 42.5435 9.29546 42.4215 6.73709 42.3009C4.17873 42.1803 2.10566 42.0923 2.1043 42.1122C2.10294 42.132 4.17601 42.254 6.73438 42.3746C9.29274 42.4952 11.3658 42.5846 11.3672 42.5633Z"/><path fill="#263238" d="M11.3672 42.5632C11.3672 42.5434 9.34712 42.0652 6.84449 41.4963C4.34185 40.9274 2.31093 40.4819 2.30685 40.5032C2.30277 40.5244 4.32826 40.9997 6.82953 41.5701C9.33081 42.1404 11.3631 42.5831 11.3672 42.5632Z"/><path fill="#263238" d="M11.3673 42.5635C11.3741 42.545 9.4546 41.7207 7.07975 40.7191C4.7049 39.7174 2.77321 38.9272 2.76505 38.9456C2.7569 38.9641 4.67771 39.7898 7.05392 40.79C9.43013 41.7903 11.3605 42.5833 11.3673 42.5635Z"/><path fill="#263238" d="M11.3672 42.5633C11.3781 42.5462 9.61634 41.3985 7.43588 39.9996C5.25542 38.6006 3.47598 37.4798 3.46647 37.4983C3.45695 37.5167 5.216 38.6631 7.39782 40.062C9.57963 41.4609 11.3577 42.5817 11.3672 42.5633Z"/><path fill="#263238" d="M11.3672 42.5634C11.3808 42.5478 9.82836 41.1092 7.90211 39.3499C5.97586 37.5906 4.40169 36.1747 4.38945 36.1903C4.37722 36.2059 5.92828 37.6389 7.85453 39.4052C9.78078 41.1716 11.355 42.579 11.3672 42.5634Z"/><path fill="#263238" d="M11.3673 42.5633C11.3822 42.5505 10.0826 40.8608 8.46634 38.7894C6.85003 36.718 5.52463 35.0481 5.50831 35.0609C5.492 35.0736 6.79293 36.7634 8.4106 38.8362C10.0283 40.909 11.3523 42.5761 11.3673 42.5633Z"/><path fill="#263238" d="M11.3672 42.5635C11.3848 42.5536 10.3748 40.661 9.11195 38.3356C7.84907 36.0102 6.8105 34.1346 6.80099 34.1446C6.79147 34.1545 7.79334 36.0471 9.05621 38.3725C10.3191 40.6979 11.3509 42.5735 11.3672 42.5635Z"/><path fill="#263238" d="M26.3205 47.0227C24.819 47.0227 23.6017 45.7523 23.6017 44.1852C23.6017 42.6181 24.819 41.3476 26.3205 41.3476C27.822 41.3476 29.0393 42.6181 29.0393 44.1852C29.0393 45.7523 27.822 47.0227 26.3205 47.0227Z"/><path fill="#263238" d="M45.4702 42.5635C45.4879 42.5635 44.9115 40.4765 44.1801 37.9156C43.4488 35.3548 42.8411 33.2819 42.8207 33.2876C42.8003 33.2933 43.3822 35.3689 44.1122 37.9369C44.8421 40.5049 45.4511 42.5692 45.4702 42.5635Z"/><path fill="#263238" d="M45.4702 42.5635C45.4893 42.5635 45.2459 40.4098 44.9265 37.7581C44.607 35.1065 44.3338 32.957 44.3161 32.957C44.2984 32.957 44.5391 35.1107 44.8599 37.7624C45.1807 40.4141 45.4498 42.5663 45.4702 42.5635Z"/><path fill="#263238" d="M45.4701 42.5633C45.4892 42.5633 45.6156 40.4025 45.7515 37.7395C45.8875 35.0764 45.9826 32.9057 45.9636 32.9043C45.9446 32.9029 45.8181 35.0665 45.6808 37.7352C45.5435 40.4039 45.4497 42.5618 45.4701 42.5633Z"/><path fill="#263238" d="M45.4702 42.5635C45.4892 42.5635 45.9596 40.458 46.5224 37.8518C47.0852 35.2455 47.5243 33.1258 47.5052 33.1216C47.4862 33.1173 47.0158 35.227 46.4531 37.8347C45.8903 40.4424 45.4512 42.5592 45.4702 42.5635Z"/><path fill="#263238" d="M45.4702 42.5632C45.4879 42.5718 46.2859 40.577 47.2633 38.1012C48.2407 35.6255 49.0087 33.6179 48.991 33.6094C48.9734 33.6009 48.1754 35.5957 47.1966 38.0728C46.2179 40.55 45.4512 42.5562 45.4702 42.5632Z"/><path fill="#263238" d="M45.4702 42.5634C45.4865 42.5748 46.5985 40.7446 47.9524 38.4774C49.3064 36.2102 50.3925 34.363 50.3762 34.3516C50.3599 34.3403 49.2479 36.1691 47.8926 38.4377C46.5373 40.7063 45.4525 42.5535 45.4702 42.5634Z"/><path fill="#263238" d="M45.4701 42.5633C45.4837 42.5775 46.873 40.9672 48.5723 38.9681C50.2715 36.9691 51.6377 35.3361 51.6227 35.3233C51.6078 35.3105 50.2185 36.9194 48.5192 38.9156C46.82 40.9118 45.4552 42.5505 45.4701 42.5633Z"/><path fill="#263238" d="M45.4702 42.5635C45.4824 42.5791 47.1096 41.2356 49.1052 39.56C51.1008 37.8844 52.709 36.5153 52.6967 36.504C52.6845 36.4926 51.0573 37.8319 49.0604 39.5075C47.0634 41.1831 45.458 42.5479 45.4702 42.5635Z"/><path fill="#263238" d="M45.4702 42.5633C45.4797 42.5818 47.2999 41.5404 49.5348 40.238C51.7696 38.9356 53.5776 37.8644 53.5667 37.8459C53.5558 37.8275 51.737 38.8703 49.5008 40.1727C47.2646 41.4751 45.4607 42.5463 45.4702 42.5633Z"/><path fill="#263238" d="M45.4702 42.5632C45.4702 42.5831 47.4386 41.8737 49.8515 40.9799C52.2644 40.086 54.2151 39.3455 54.2015 39.3256C54.1879 39.3057 52.2345 40.0165 49.8202 40.9104C47.406 41.8042 45.4634 42.5448 45.4702 42.5632Z"/><path fill="#263238" d="M45.4702 42.5633C45.4702 42.5831 47.5215 42.227 50.0432 41.7674C52.5649 41.3077 54.608 40.9161 54.6039 40.8976C54.5999 40.8792 52.554 41.2339 50.031 41.695C47.5079 42.1561 45.4661 42.5434 45.4702 42.5633Z"/><path fill="#263238" d="M45.4702 42.5635C45.4702 42.5848 47.546 42.5905 50.1057 42.5763C52.6654 42.5621 54.7426 42.5365 54.7426 42.5167C54.7426 42.4968 52.6668 42.4897 50.1057 42.5025C47.5446 42.5153 45.4702 42.5436 45.4702 42.5635Z"/><path fill="#263238" d="M45.4702 42.5633C45.4702 42.5832 47.5092 42.9521 50.0391 43.3862C52.5689 43.8204 54.6161 44.1552 54.6202 44.1353C54.6243 44.1155 52.5811 43.7466 50.0499 43.3124C47.5188 42.8783 45.4729 42.5435 45.4702 42.5633Z"/><path fill="#263238" d="M45.4702 42.5633C45.4702 42.5832 47.4209 43.3025 49.8419 44.1722C52.263 45.0419 54.2328 45.7329 54.2382 45.7102C54.2436 45.6875 52.2875 44.971 49.8651 44.1027C47.4426 43.2344 45.4756 42.5449 45.4702 42.5633Z"/><path fill="#263238" d="M45.4701 42.5632C45.4606 42.5816 47.2754 43.6329 49.5238 44.9127C51.7722 46.1924 53.602 47.2153 53.6115 47.1969C53.621 47.1784 51.8103 46.1271 49.5564 44.8474C47.3026 43.5677 45.4796 42.5462 45.4701 42.5632Z"/><path fill="#263238" d="M45.4702 42.5634C45.458 42.5804 47.0783 43.9339 49.0902 45.5868C51.1021 47.2396 52.7416 48.5662 52.7538 48.5534C52.766 48.5406 51.1456 47.1843 49.1337 45.53C47.1218 43.8757 45.4824 42.5478 45.4702 42.5634Z"/><path fill="#263238" d="M45.4702 42.5633C45.4553 42.5775 46.8296 44.1949 48.5547 46.1769C50.2797 48.1589 51.6745 49.7536 51.6908 49.7408C51.7071 49.7281 50.3246 48.1093 48.6063 46.1272C46.8881 44.1452 45.4838 42.5505 45.4702 42.5633Z"/><path fill="#263238" d="M45.4702 42.5635C45.4539 42.5749 46.5577 44.4079 47.932 46.6652C49.3064 48.9224 50.436 50.737 50.451 50.7257C50.4659 50.7143 49.3635 48.8813 47.9878 46.6254C46.6121 44.3696 45.4865 42.5536 45.4702 42.5635Z"/><path fill="#263238" d="M45.4702 42.5635C45.4512 42.572 46.2437 44.5739 47.2374 47.0369C48.2311 49.4998 49.0549 51.489 49.0726 51.4804C49.0902 51.4719 48.2977 49.4701 47.3054 47.0071C46.313 44.5441 45.4879 42.5564 45.4702 42.5635Z"/><path fill="#263238" d="M45.4702 42.5635C45.4512 42.5635 45.9107 44.6817 46.4979 47.2823C47.0852 49.8829 47.5759 51.9884 47.595 51.9841C47.614 51.9798 47.1532 49.8673 46.5673 47.2653C45.9814 44.6633 45.4893 42.5592 45.4702 42.5635Z"/><path fill="#263238" d="M45.4702 42.5635C45.4498 42.5635 45.5653 44.7285 45.7271 47.3958C45.8889 50.0631 46.0357 52.2196 46.0547 52.2196C46.0737 52.2196 45.9596 50.056 45.7978 47.3873C45.636 44.7186 45.4892 42.562 45.4702 42.5635Z"/><path fill="#263238" d="M45.4702 42.5635C45.4498 42.5635 45.2173 44.7143 44.9495 47.3717C44.6817 50.029 44.4792 52.187 44.4982 52.1884C44.5172 52.1898 44.751 50.039 45.0188 47.3802C45.2866 44.7214 45.4892 42.5663 45.4702 42.5635Z"/><path fill="#263238" d="M45.4702 42.5635C45.4511 42.5635 44.8761 44.6405 44.1855 47.2142C43.495 49.7878 42.9512 51.8777 42.9702 51.8834C42.9893 51.889 43.5629 49.8077 44.2535 47.2341C44.9441 44.6604 45.4878 42.5691 45.4702 42.5635Z"/><path fill="#263238" d="M45.4702 42.5635C45.4525 42.555 44.5512 44.5072 43.4583 46.9234C42.3654 49.3395 41.494 51.3074 41.5117 51.3216C41.5293 51.3357 42.4306 49.3722 43.5181 46.956C44.6056 44.5398 45.4879 42.572 45.4702 42.5635Z"/><path fill="#263238" d="M45.4702 42.5635C45.4539 42.5522 44.2468 44.32 42.7881 46.512C41.3295 48.704 40.1482 50.4845 40.1645 50.5015C40.1808 50.5186 41.3812 48.7465 42.8466 46.5531C44.312 44.3597 45.4852 42.5749 45.4702 42.5635Z"/><path fill="#263238" d="M45.4701 42.5633C45.4552 42.5491 43.9884 44.0828 42.1926 45.9868C40.3969 47.8908 38.9532 49.4486 38.9668 49.4628C38.9804 49.477 40.4472 47.9447 42.2443 46.0393C44.0414 44.1339 45.4837 42.5775 45.4701 42.5633Z"/><path fill="#263238" d="M45.4702 42.5634C45.4579 42.5478 43.7655 43.802 41.6911 45.3669C39.6166 46.9318 37.9419 48.2143 37.9528 48.2313C37.9636 48.2484 39.6561 46.9928 41.7319 45.4279C43.8076 43.863 45.481 42.5804 45.4702 42.5634Z"/><path fill="#263238" d="M45.4702 42.5632C45.4607 42.5448 43.5915 43.4883 41.2942 44.6687C38.9968 45.8491 37.1412 46.821 37.1507 46.8394C37.1603 46.8579 39.0321 45.9158 41.3254 44.7325C43.6187 43.5493 45.4784 42.5817 45.4702 42.5632Z"/><path fill="#263238" d="M45.4702 42.5635C45.4702 42.5436 43.4706 43.1466 41.0155 43.9099C38.5604 44.6732 36.5771 45.3074 36.5825 45.3286C36.588 45.3499 38.5822 44.7455 41.0359 43.9836C43.4896 43.2218 45.4757 42.5833 45.4702 42.5635Z"/><path fill="#263238" d="M45.4702 42.5634C45.4702 42.5435 43.4053 42.789 40.8633 43.1124C38.3212 43.4359 36.2617 43.7154 36.2644 43.7353C36.2672 43.7551 38.3294 43.5097 40.8714 43.1862C43.4135 42.8627 45.4716 42.5847 45.4702 42.5634Z"/><path fill="#263238" d="M45.4702 42.5633C45.4702 42.5435 43.3972 42.4215 40.8402 42.3009C38.2831 42.1803 36.2074 42.0923 36.2074 42.1122C36.2074 42.132 38.2777 42.254 40.8374 42.3746C43.3972 42.4952 45.4689 42.5846 45.4702 42.5633Z"/><path fill="#263238" d="M45.4702 42.5632C45.4702 42.5434 43.4488 42.0652 40.9475 41.4963C38.4463 40.9274 36.414 40.4819 36.4099 40.5032C36.4058 40.5244 38.43 40.9997 40.9326 41.5701C43.4352 42.1404 45.4661 42.5831 45.4702 42.5632Z"/><path fill="#263238" d="M45.4702 42.5635C45.4702 42.545 43.5576 41.7207 41.1827 40.7191C38.8079 39.7174 36.8748 38.9272 36.868 38.9456C36.8612 38.9641 38.7793 39.7898 41.1555 40.79C43.5317 41.7903 45.4621 42.5833 45.4702 42.5635Z"/><path fill="#263238" d="M45.4702 42.5633C45.4797 42.5462 43.7193 41.3985 41.5375 39.9996C39.3557 38.6006 37.5789 37.4798 37.5681 37.4983C37.5572 37.5167 39.3176 38.6631 41.5008 40.062C43.684 41.4609 45.4593 42.5817 45.4702 42.5633Z"/><path fill="#263238" d="M45.4702 42.5634C45.4824 42.5478 43.9313 41.1092 42.0037 39.3499C40.0761 37.5906 38.5047 36.1747 38.4911 36.1903C38.4775 36.2059 40.0299 37.6445 41.9575 39.4052C43.8851 41.1659 45.4566 42.579 45.4702 42.5634Z"/><path fill="#263238" d="M45.4702 42.5633C45.4852 42.5505 44.1856 40.8608 42.5679 38.7894C40.9502 36.718 39.6262 35.0481 39.6112 35.0609C39.5963 35.0736 40.8945 36.7634 42.5135 38.8362C44.1326 40.909 45.4539 42.5761 45.4702 42.5633Z"/><path fill="#263238" d="M45.4701 42.5635C45.4865 42.5536 44.4764 40.661 43.2136 38.3356C41.9507 36.0102 40.9135 34.1346 40.9026 34.1446C40.8917 34.1545 41.8963 36.0471 43.1592 38.3725C44.4221 40.6979 45.4525 42.5735 45.4701 42.5635Z"/><path fill="#263238" d="M56 42.5635C56 44.7374 55.3823 46.8625 54.2251 48.67C53.0678 50.4775 51.423 51.8863 49.4986 52.7181C47.5742 53.55 45.4567 53.7676 43.4138 53.3434C41.3709 52.9192 39.4944 51.8722 38.0217 50.3349C36.5489 48.7976 35.546 46.839 35.1398 44.7069C34.7336 42.5747 34.9424 40.3647 35.7397 38.3563C36.537 36.348 37.887 34.6315 39.619 33.4239C41.351 32.2164 43.3873 31.572 45.4702 31.5723C46.8531 31.5723 48.2225 31.8566 49.5001 32.4089C50.7777 32.9613 51.9386 33.7709 52.9164 34.7916C53.8942 35.8122 54.6698 37.0239 55.1989 38.3574C55.7279 39.6909 56.0002 41.1201 56 42.5635ZM55.111 42.5635C55.111 40.5731 54.5454 38.6274 53.4859 36.9724C52.4263 35.3175 50.9203 34.0277 49.1584 33.266C47.3964 32.5044 45.4577 32.3052 43.5872 32.6936C41.7168 33.082 39.9987 34.0406 38.6503 35.4481C37.3019 36.8556 36.3837 38.6489 36.0118 40.6011C35.6399 42.5533 35.831 44.5767 36.561 46.4155C37.291 48.2543 38.5271 49.8259 40.1129 50.9315C41.6987 52.0371 43.5631 52.6271 45.4702 52.6268C48.0272 52.6264 50.4794 51.566 52.2873 49.6788C54.0953 47.7916 55.111 45.2322 55.111 42.5635Z"/><path fill="#E0E0E0" d="M55.111 42.5633C55.111 44.5537 54.5454 46.4994 53.4859 48.1544C52.4263 49.8093 50.9204 51.0991 49.1584 51.8608C47.3965 52.6224 45.4577 52.8216 43.5873 52.4332C41.7168 52.0448 39.9988 51.0862 38.6503 49.6787C37.3019 48.2711 36.3837 46.4779 36.0118 44.5257C35.6399 42.5735 35.8311 40.5501 36.5611 38.7113C37.2911 36.8725 38.5271 35.3009 40.1129 34.1953C41.6988 33.0897 43.5631 32.4997 45.4702 32.5C46.7364 32.5 47.9901 32.7603 49.1599 33.266C50.3296 33.7718 51.3925 34.5131 52.2877 35.4476C53.183 36.382 53.8931 37.4914 54.3775 38.7124C54.8619 39.9333 55.1112 41.2419 55.111 42.5633ZM54.7412 42.5633C54.7412 40.6492 54.1974 38.7782 53.1785 37.1867C52.1595 35.5952 50.7113 34.3548 49.0169 33.6224C47.3225 32.89 45.4581 32.6984 43.6594 33.0719C41.8607 33.4455 40.2085 34.3673 38.9118 35.7209C37.6151 37.0744 36.7321 38.7989 36.3745 40.6762C36.0168 42.5536 36.2007 44.4994 36.9027 46.2677C37.6047 48.036 38.7934 49.5473 40.3184 50.6105C41.8434 51.6737 43.6362 52.241 45.4702 52.2407C47.9292 52.2404 50.2873 51.2206 52.0259 49.4058C53.7645 47.591 54.7412 45.1297 54.7412 42.5633Z"/><path fill="#263238" d="M21.9038 42.5635C21.9038 44.7373 21.2862 46.8624 20.129 48.6698C18.9718 50.4773 17.3271 51.8861 15.4028 52.718C13.4785 53.5499 11.361 53.7676 9.31814 53.3435C7.27529 52.9194 5.39881 51.8726 3.926 50.3354C2.45319 48.7983 1.45019 46.8398 1.04385 44.7077C0.637497 42.5757 0.846052 40.3657 1.64313 38.3573C2.44021 36.3489 3.79002 34.6323 5.52186 33.4246C7.2537 32.2169 9.2898 31.5723 11.3727 31.5723C12.7557 31.5721 14.1252 31.8562 15.403 32.4085C16.6808 32.9608 17.8418 33.7704 18.8197 34.7911C19.7977 35.8118 20.5734 37.0235 21.1026 38.3571C21.6318 39.6907 21.904 41.12 21.9038 42.5635ZM21.0148 42.5635C21.0148 40.5731 20.4493 38.6275 19.3898 36.9726C18.3303 35.3177 16.8244 34.0278 15.0626 33.2662C13.3007 32.5045 11.362 32.3052 9.49158 32.6935C7.62119 33.0818 5.90313 34.0402 4.55465 35.4476C3.20617 36.855 2.28785 38.6481 1.9158 40.6002C1.54376 42.5523 1.73471 44.5757 2.4645 46.4145C3.19429 48.2534 4.43015 49.825 6.01579 50.9308C7.60143 52.0366 9.46564 52.6268 11.3727 52.6268C13.929 52.6253 16.3801 51.5644 18.1872 49.6773C19.9943 47.7902 21.0094 45.2314 21.0094 42.5635H21.0148Z"/><path fill="#E0E0E0" d="M21.0093 42.5633C21.0093 44.5537 20.4438 46.4993 19.3843 48.1542C18.3248 49.8091 16.8189 51.099 15.0571 51.8606C13.2952 52.6223 11.3565 52.8216 9.48609 52.4333C7.6157 52.045 5.89764 51.0866 4.54916 49.6792C3.20068 48.2718 2.28236 46.4787 1.91031 44.5266C1.53827 42.5745 1.72922 40.5511 2.45901 38.7123C3.1888 36.8734 4.42465 35.3017 6.01029 34.196C7.59594 33.0902 9.46014 32.5 11.3672 32.5C13.9244 32.5 16.3769 33.5602 18.1852 35.4475C19.9934 37.3347 21.0093 39.8944 21.0093 42.5633ZM20.6382 42.5633C20.6379 40.6496 20.094 38.779 19.0751 37.188C18.0562 35.597 16.6082 34.357 14.9141 33.6249C13.22 32.8927 11.356 32.7013 9.55766 33.0748C7.75934 33.4483 6.10753 34.37 4.81109 35.7233C3.51465 37.0765 2.63181 38.8006 2.27419 40.6776C1.91658 42.5545 2.10026 44.4999 2.802 46.2679C3.50374 48.0359 4.69203 49.547 6.21661 50.6101C7.7412 51.6733 9.5336 52.2407 11.3672 52.2407C12.5848 52.2407 13.7905 51.9904 14.9154 51.5041C16.0403 51.0177 17.0624 50.3049 17.9233 49.4062C18.7842 48.5076 19.467 47.4407 19.9329 46.2666C20.3987 45.0925 20.6384 43.8341 20.6382 42.5633Z"/><path fill="#455A64" d="M15.7513 41.7305H16.3508V43.5238H15.7513V41.7305Z"/><path fill="#263238" d="M25.5457 44.9142L28.1285 48.2525L28.5961 48.1319L26.0146 44.4814L25.5457 44.9142Z"/><path fill="#263238" d="M29.77 48.8062L27.1029 48.8096L27.102 48.025L29.7691 48.0216L29.77 48.8062Z"/><path fill="#455A64" d="M22.1976 31.4193L22.4823 31.7261L11.6719 42.6559L11.3872 42.3492L22.1976 31.4193Z"/><path fill="#455A64" d="M1.90735e-06 39.8237C1.90735e-06 39.8237 2.32863 30.6428 11.0627 30.6428C19.7968 30.6428 22.9152 37.8346 22.9152 43.5238L22.1458 43.3493C22.1458 43.3493 22.5658 31.4189 11.0301 31.4189C3.17145 31.4189 0.674255 40.1315 0.674255 40.1315L1.90735e-06 39.8237Z"/><path fill="#263238" d="M29.2636 43.9454C29.2636 43.9454 28.7552 41.2937 26.6808 40.9447C24.6064 40.5956 16.2787 40.9447 16.2787 40.9447C16.2787 40.9447 15.421 40.9815 15.421 42.1123L21.4308 42.3379L23.8777 43.3495C23.8777 43.3495 24.4731 41.532 26.6794 42.1123C28.3406 42.5493 28.3474 43.9454 28.3474 43.9454H29.2636Z"/><path fill="#455A64" d="M24.3426 38.2446V37.2131C26.3069 37.2131 27.6595 36.708 28.4479 36.2838C28.9116 36.0503 29.3343 35.7371 29.6985 35.3574L29.7081 35.346L37.8087 26.1467L38.5318 26.8405L30.4299 36.0384C30.2899 36.22 28.4873 38.2446 24.3426 38.2446Z"/><path fill="#455A64" d="M22.3714 30.1302L26.3201 44.5596L25.375 44.8413L21.4263 30.4119L22.3714 30.1302Z"/><path fill="#455A64" d="M26.0351 45.2476L11.2993 43.0712L11.4366 42.0554L25.6599 44.1551L38.8201 29.1304L39.546 29.8227L26.0351 45.2476Z"/><path fill="#263238" d="M36.0863 20.9102H33.2751C33.1051 20.9102 32.9665 21.2223 32.9665 21.6053C32.9665 21.9884 33.1024 22.3005 33.2751 22.3005L36.0863 22.0863C36.679 21.3656 36.0863 20.9102 36.0863 20.9102Z"/><path fill="#E0E0E0" d="M37.6496 23.4966L36.9101 23.7704L37.6496 26.3355L38.3266 26.005L37.6496 23.4966Z"/><path fill="#455A64" d="M34.3844 46.5332C34.3844 46.5332 32.5887 40.7603 35.8281 35.9464C39.0675 31.1325 43.4638 30.7509 45.2079 30.5068L45.2541 31.2744C45.2541 31.2744 40.6322 31.5922 37.9542 34.3517C36.4994 35.8383 35.444 37.6975 34.8937 39.7434C34.3433 41.7892 34.3173 43.95 34.8181 46.0097L34.3844 46.5332Z"/><path fill="#455A64" d="M45.1656 43.0004C43.1102 41.3121 41.343 37.3736 41.2655 37.2133L41.2479 37.1679L37.4892 26.0504L38.4163 25.7085L42.1668 36.8018C42.3028 37.114 43.9775 40.7247 45.7733 42.2017L45.1656 43.0004Z"/><path fill="#455A64" d="M20.4779 33.1568L17.8257 29.6936H6.33208C6.27774 29.6932 6.22574 29.6705 6.18732 29.6304C6.1489 29.5903 6.12716 29.5361 6.12681 29.4794C6.12716 29.4227 6.1489 29.3684 6.18732 29.3283C6.22574 29.2882 6.27774 29.2655 6.33208 29.2651H18.0228L20.7769 32.8574L20.4779 33.1568Z"/><path fill="#455A64" d="M9.27491 29.4448L11.487 42.5251L11.0841 42.5994L8.87196 29.519L9.27491 29.4448Z"/><path fill="#263238" d="M13.4933 42.657C13.4936 42.2809 13.3869 41.9132 13.187 41.6003C12.987 41.2875 12.7026 41.0436 12.3697 40.8995C12.0369 40.7554 11.6706 40.7175 11.3172 40.7907C10.9637 40.8639 10.639 41.0449 10.3841 41.3107C10.1292 41.5765 9.95562 41.9153 9.88522 42.2841C9.81483 42.6529 9.85082 43.0353 9.98865 43.3827C10.1265 43.7302 10.36 44.0272 10.6595 44.2362C10.9591 44.4452 11.3114 44.5567 11.6717 44.5567C12.1546 44.5567 12.6177 44.3566 12.9593 44.0004C13.3008 43.6441 13.4929 43.1609 13.4933 42.657Z"/><path fill="#263238" d="M47.2904 42.657C47.2904 42.2813 47.1836 41.914 46.9836 41.6016C46.7836 41.2892 46.4993 41.0457 46.1667 40.9019C45.8341 40.7581 45.4681 40.7205 45.115 40.7938C44.762 40.8671 44.4376 41.048 44.1831 41.3137C43.9285 41.5794 43.7551 41.9179 43.6849 42.2864C43.6147 42.6549 43.6507 43.0369 43.7885 43.384C43.9263 43.7312 44.1596 44.0279 44.4589 44.2366C44.7582 44.4454 45.1101 44.5568 45.4701 44.5568C45.9528 44.5564 46.4156 44.3561 46.7568 43.9999C47.0981 43.6438 47.29 43.1608 47.2904 42.657Z"/><path fill="#263238" d="M28.5961 45.737C28.4222 45.9606 28.2227 46.1612 28.0021 46.3343C27.7401 46.5323 27.4515 46.6886 27.1457 46.7982C26.7397 46.9431 26.3207 47.0443 25.895 47.1004C25.3813 47.1849 24.8626 47.2323 24.3426 47.2423C23.7459 47.24 23.1499 47.2002 22.5577 47.1231C21.303 46.9713 19.93 46.7514 18.4972 46.4733C17.0644 46.1953 15.7037 45.8959 14.4694 45.6221L12.7158 45.2234C12.2062 45.1178 11.7109 44.9477 11.2408 44.7169C11.0392 44.6112 10.8495 44.4822 10.6753 44.3324C10.5204 44.1966 10.3833 44.0401 10.2675 43.8671C10.0817 43.591 9.96232 43.2722 9.91949 42.9378C9.89251 42.7266 9.90873 42.512 9.96707 42.3078C10.0079 42.166 10.0446 42.0993 10.0391 42.0964C10.0337 42.0936 10.0296 42.1135 10.0147 42.1475C9.99053 42.1974 9.97007 42.2491 9.95348 42.3022C9.88859 42.5078 9.86771 42.7257 9.89231 42.9406C9.93036 43.2819 10.048 43.6083 10.2349 43.8912C10.3502 44.0681 10.4873 44.2283 10.6427 44.3679C10.8182 44.5217 11.0097 44.6545 11.2136 44.7637C11.6866 44.9997 12.1857 45.1741 12.6994 45.283L14.4503 45.6888C15.686 45.9725 17.0454 46.2747 18.4796 46.5514C19.9137 46.828 21.2894 47.0494 22.5455 47.1969C23.1409 47.2725 23.7401 47.31 24.3399 47.309C24.862 47.2959 25.3826 47.2443 25.8977 47.1544C26.3263 47.0959 26.7478 46.9903 27.1552 46.8394C27.4633 46.7262 27.753 46.5644 28.0143 46.3598C28.1793 46.2309 28.3298 46.0828 28.4629 45.9186L28.5608 45.7852C28.5866 45.7526 28.5961 45.737 28.5961 45.737Z"/><path fill="#E0E0E0" d="M39.1491 21.4335C38.8527 20.6433 36.0863 20.91 36.0863 20.91V21.6066C36.0863 21.6066 36.2223 21.5868 36.4235 21.5626C36.4597 21.7642 36.4684 21.9701 36.4493 22.1741C36.4411 22.2914 36.4093 22.4055 36.3562 22.5091C36.303 22.6127 36.2296 22.7035 36.1407 22.7757C35.9246 22.9332 35.2082 22.963 34.9458 22.9956C34.5788 23.041 34.3491 23.0438 34.3491 23.3574C35.0451 23.5333 35.7723 23.3574 36.467 23.1758C36.7116 23.1338 36.9424 23.029 37.1385 22.8708C37.2304 22.7728 37.3025 22.6568 37.3509 22.5293C37.3992 22.4019 37.4227 22.2657 37.4199 22.1287C37.4194 21.9135 37.3915 21.6993 37.337 21.4917C37.9609 21.4676 38.5999 21.5116 38.6814 21.784C38.8459 22.3345 37.6428 23.5035 37.6428 23.5035L37.772 23.9816C38.5686 23.5929 39.44 22.2238 39.1491 21.4335Z"/><path fill="#263238" d="M18.7514 26.4063C18.8602 26.7582 19.3468 28.2365 20.0605 28.2919C20.7742 28.3472 25.7006 27.5456 26.4401 27.3484C26.9105 27.2249 27.1823 26.4063 26.0622 26.4063C24.4554 26.4063 18.5054 25.6217 18.7514 26.4063Z"/><path fill="#263238" d="M38.1282 18.0967C38.1282 18.0967 39.6738 18.4471 39.8546 18.5791C40.0354 18.711 40.1169 19.1537 39.9905 19.4048C39.8641 19.6559 39.5827 19.7056 39.4264 19.7453C39.27 19.785 37.7421 18.921 37.7421 18.921C37.7421 18.921 37.5504 18.169 38.1282 18.0967Z"/><path fill="#E0E0E0" d="M39.9633 19.2104C40.1135 19.3492 40.246 19.5075 40.3576 19.6814C40.4689 19.8573 40.5117 20.071 40.4772 20.2787C40.409 20.5001 40.2822 20.6968 40.1115 20.8462L39.3802 21.6166C39.336 21.6743 39.2748 21.7152 39.2062 21.733C39.1649 21.735 39.124 21.7247 39.0881 21.7034C39.0522 21.682 39.0229 21.6505 39.0036 21.6124C38.9659 21.5354 38.9428 21.4516 38.9356 21.3655C39.2465 21.1302 39.5263 20.853 39.7676 20.5412C39.9144 20.3681 40.0707 20.1468 39.9987 19.9297C39.9535 19.8304 39.8908 19.7408 39.8138 19.6658C39.776 19.6277 39.7465 19.5814 39.7275 19.5302C39.7085 19.479 39.7004 19.4241 39.7037 19.3693C39.7241 19.2615 39.8886 19.1324 39.9633 19.2104Z"/><path fill="#FFBE9D" d="M19.9218 47.5078C19.9218 47.5078 20.2073 51.4222 20.2018 51.6123L20.9332 52.2664L22.7888 51.8336L22.8458 47.5078H19.9218Z"/><path fill="#407BFF" d="M22.8228 51.5968V51.7684C22.8228 51.7684 25.6286 52.9035 25.6653 53.4554L20.1204 53.4965L20.1829 51.5698C20.5953 51.7719 21.0445 51.879 21.5 51.8836C21.9556 51.8883 22.4068 51.7904 22.8228 51.5968Z"/><g opacity=".6"><path fill="#fff" d="M20.123 53.4964L20.1366 53.0325L25.445 53.1644C25.445 53.1644 25.6924 53.2736 25.6666 53.4553L20.123 53.4964Z"/></g><path fill="#263238" d="M22.8459 51.784C22.8459 51.8124 22.71 51.8266 22.5741 51.9188C22.4381 52.011 22.3715 52.1288 22.347 52.1189C22.3226 52.1089 22.3606 51.9443 22.5238 51.8351C22.6869 51.7259 22.8555 51.7585 22.8459 51.784Z"/><path fill="#263238" d="M23.429 52.0309C23.429 52.0578 23.3175 52.1075 23.2265 52.2281C23.1354 52.3487 23.1096 52.4735 23.0824 52.4735C23.0552 52.4735 23.0375 52.3118 23.1544 52.1657C23.2713 52.0195 23.4277 52.0039 23.429 52.0309Z"/><path fill="#263238" d="M23.7635 52.7543C23.739 52.7543 23.7009 52.6124 23.7635 52.4706C23.826 52.3287 23.9579 52.2535 23.9701 52.2762C23.9823 52.2989 23.9035 52.3826 23.8491 52.5117C23.7947 52.6408 23.7907 52.7515 23.7635 52.7543Z"/><path fill="#407BFF" d="M24.6009 25.3778L23.9946 27.5229L23.3421 29.8157V40.1613L23.0362 40.5004L22.956 50.5013H20.1013C20.1013 50.5013 18.9893 42.4143 19.1035 40.3812C19.2177 38.3481 19.3754 36.481 19.3754 36.481L17.6598 29.6355C17.6598 29.6355 16.7382 26.4518 17.0101 24.8599C17.2819 23.2681 17.6204 22.4721 17.6204 22.4721C17.6204 22.4721 21.8536 23.6256 22.9587 23.3078C24.0639 22.99 24.5995 21.6365 24.5995 21.6365C24.5995 21.6365 25.7047 21.7556 25.7428 22.3459C25.7808 22.9361 25.5144 23.1815 25.5144 23.1815L24.6009 25.3778Z"/><path fill="#263238" d="M23.3421 29.8158C23.3724 29.7516 23.397 29.6846 23.4155 29.6157C23.459 29.4852 23.5188 29.2951 23.5895 29.0596C23.7323 28.5885 23.9212 27.9359 24.1156 27.2152C24.31 26.4944 24.469 25.8262 24.5696 25.3438C24.6199 25.1012 24.658 24.9054 24.6797 24.7692C24.6951 24.6993 24.7042 24.6281 24.7069 24.5564C24.6828 24.6236 24.6646 24.6929 24.6526 24.7635L24.5166 25.331C24.4024 25.8106 24.2352 26.4661 24.0422 27.1953C23.8492 27.9245 23.6711 28.5587 23.5351 29.044C23.474 29.2724 23.4223 29.4611 23.3829 29.6115C23.363 29.678 23.3494 29.7465 23.3421 29.8158Z"/><path fill="#263238" d="M21.3859 38.8391C21.455 38.9455 21.5358 39.0431 21.6265 39.13C21.8357 39.3494 22.0602 39.5523 22.2981 39.7372C22.5366 39.9217 22.7884 40.0867 23.0512 40.2309C23.157 40.2973 23.2702 40.3497 23.3883 40.387C23.2889 40.312 23.1844 40.2447 23.0757 40.1855C22.8813 40.0649 22.6175 39.8918 22.3402 39.6776C22.0629 39.4634 21.8277 39.252 21.6605 39.0916C21.5755 39 21.4837 38.9156 21.3859 38.8391Z"/><path fill="#263238" d="M18.3694 4.3148C18.4904 4.3077 18.6331 4.32615 18.7133 4.23251C18.7935 4.13887 18.7432 3.94875 18.6535 3.84944C18.5491 3.75945 18.4643 3.64723 18.4047 3.52029C18.3896 3.43965 18.3941 3.35636 18.4179 3.27803C18.4416 3.1997 18.4839 3.12884 18.5407 3.07196C18.6378 2.96055 18.7573 2.87296 18.8907 2.81549C19.024 2.75801 19.168 2.73207 19.3121 2.73953C19.4562 2.74699 19.597 2.78767 19.7242 2.85863C19.8515 2.9296 19.9622 3.0291 20.0482 3.14999L20.3853 3.17978C20.3651 3.5913 20.2948 3.99845 20.176 4.39141C20.0539 4.78738 19.7932 5.12073 19.446 5.32496C19.2988 5.4088 19.129 5.43924 18.9634 5.41151C18.8811 5.39669 18.8044 5.35834 18.7418 5.30073C18.6792 5.24312 18.6331 5.16851 18.6086 5.08519C18.5882 5.00079 18.5997 4.91144 18.6407 4.83564C18.6817 4.75985 18.7491 4.7034 18.8288 4.678C18.6471 4.70149 18.4628 4.68995 18.2851 4.64395C18.255 4.63862 18.2264 4.62628 18.2014 4.60786C18.1765 4.58945 18.1558 4.56541 18.141 4.53754C18.0975 4.41979 18.2525 4.32047 18.3694 4.3148Z"/><path fill="#263238" d="M20.2114 5.02418C20.0851 4.4559 20.0064 3.87723 19.9762 3.2947C19.9453 2.70829 20.0551 2.1231 20.2957 1.59218C20.3337 1.51415 20.6437 0.992042 20.7266 1.01049C20.7864 1.02326 20.5757 1.51982 20.6002 1.57799C20.8169 2.14154 20.8643 2.76055 20.7361 3.35287C20.6226 3.92689 20.4485 4.486 20.2168 5.01993"/><path fill="#FFBE9D" d="M21.2432 11.054C20.3854 10.9334 19.7125 9.11029 19.8104 8.21646L20.399 2.81237C20.5119 1.35529 21.4199 0.210347 22.8119 0.369249L22.9397 0.39195C23.5602 0.500776 24.1187 0.849565 24.5039 1.36884C24.8891 1.88812 25.0727 2.53978 25.0182 3.19402C24.9122 4.45672 24.7803 5.84995 24.6648 6.51678C24.4242 7.89724 23.0648 7.87879 23.0648 7.87879C23.0648 7.87879 23.0213 8.20085 22.9724 8.60946C22.8622 9.5274 22.4558 11.6144 21.5776 11.4896L21.2432 11.054Z"/><path fill="#EB996E" d="M23.0648 7.87447C22.4529 7.76568 21.8838 7.47561 21.4254 7.03882C21.4254 7.03882 21.6823 8.1185 23.0254 8.22633L23.0648 7.87447Z"/><path fill="#263238" d="M24.4269 4.1174C24.4188 4.1689 24.3919 4.21514 24.3519 4.24636C24.3118 4.27759 24.2617 4.29137 24.2121 4.28481C24.1877 4.28252 24.164 4.27515 24.1424 4.26315C24.1207 4.25114 24.1016 4.23474 24.0862 4.2149C24.0707 4.19507 24.0592 4.17221 24.0524 4.14766C24.0455 4.12312 24.0434 4.09739 24.0463 4.072C24.0537 4.02045 24.0802 3.974 24.1201 3.94268C24.1601 3.91136 24.2102 3.89768 24.2597 3.90458C24.2842 3.9067 24.3081 3.91393 24.3298 3.92586C24.3516 3.93779 24.3709 3.95417 24.3865 3.97402C24.4021 3.99387 24.4137 4.01679 24.4206 4.04143C24.4276 4.06606 24.4297 4.09189 24.4269 4.1174Z"/><path fill="#263238" d="M24.6417 3.71445C24.6145 3.73573 24.4894 3.59953 24.2855 3.56406C24.0816 3.52859 23.9144 3.60946 23.8967 3.57967C23.8791 3.54987 23.9198 3.52433 23.9919 3.48603C24.0906 3.43754 24.2012 3.42217 24.3086 3.44205C24.4147 3.46018 24.5124 3.5134 24.5873 3.59385C24.6417 3.65486 24.6553 3.70452 24.6417 3.71445Z"/><path fill="#263238" d="M22.4354 3.87213C22.4273 3.92363 22.4004 3.96987 22.3604 4.00109C22.3203 4.03232 22.2702 4.04611 22.2206 4.03954C22.1962 4.03724 22.1724 4.02988 22.1507 4.01789C22.129 4.00591 22.1098 3.98953 22.0943 3.96972C22.0787 3.94991 22.0671 3.92706 22.06 3.90251C22.053 3.87796 22.0508 3.8522 22.0534 3.82673C22.0615 3.77522 22.0883 3.72899 22.1284 3.69776C22.1685 3.66654 22.2186 3.65275 22.2682 3.65931C22.2927 3.66143 22.3166 3.66866 22.3383 3.68059C22.3601 3.69252 22.3794 3.7089 22.395 3.72875C22.4106 3.7486 22.4222 3.77153 22.4291 3.79616C22.4361 3.82079 22.4382 3.84662 22.4354 3.87213Z"/><path fill="#263238" d="M22.6325 3.44631C22.6053 3.4676 22.4802 3.33139 22.2763 3.29593C22.0724 3.26046 21.9052 3.34133 21.8875 3.31153C21.8699 3.28174 21.9107 3.25478 21.9841 3.21789C22.0823 3.16952 22.1925 3.15415 22.2994 3.17391C22.4027 3.19362 22.4977 3.24614 22.5713 3.3243C22.6325 3.38956 22.6461 3.44631 22.6325 3.44631Z"/><path fill="#263238" d="M23.0987 5.21136C23.212 5.19629 23.3266 5.19629 23.4399 5.21136C23.4929 5.21136 23.5446 5.21136 23.5582 5.17731C23.5717 5.12192 23.5688 5.06357 23.55 5.00989C23.5228 4.86801 23.4929 4.72614 23.463 4.57007C23.3448 3.94298 23.2686 3.43506 23.2931 3.43506C23.3176 3.43506 23.429 3.93446 23.5514 4.56014C23.5786 4.71479 23.6058 4.86092 23.6302 5.00138C23.653 5.07272 23.6506 5.15022 23.6234 5.21987C23.6126 5.23735 23.5982 5.25214 23.5813 5.26317C23.5644 5.27421 23.5454 5.28122 23.5256 5.28371C23.4953 5.28743 23.4647 5.28743 23.4345 5.28371C23.3201 5.27427 23.2073 5.24997 23.0987 5.21136Z"/><path fill="#263238" d="M22.4762 5.25268C22.5102 5.25268 22.4762 5.48678 22.6352 5.67831C22.7943 5.86984 23.0431 5.89255 23.0335 5.92376C23.024 5.95497 22.9737 5.96065 22.8745 5.94504C22.7444 5.92455 22.6255 5.8567 22.5387 5.7535C22.4563 5.65379 22.4139 5.52468 22.4205 5.39314C22.4273 5.30092 22.4612 5.24842 22.4762 5.25268Z"/><path fill="#263238" d="M22.7616 2.5839C22.7317 2.63923 22.5332 2.57539 22.2885 2.56404C22.0438 2.55269 21.8413 2.58532 21.8181 2.52715C21.8073 2.50019 21.8494 2.45196 21.9364 2.40939C22.0514 2.35843 22.1761 2.33609 22.3007 2.34413C22.4256 2.35072 22.5472 2.38816 22.6555 2.45337C22.7371 2.50587 22.7738 2.55836 22.7616 2.5839Z"/><path fill="#263238" d="M24.6715 2.99247C24.628 3.03503 24.4961 2.95984 24.3276 2.92863C24.159 2.89741 24.0108 2.90593 23.9864 2.84918C23.9755 2.82222 24.0068 2.77824 24.0761 2.74277C24.1687 2.70249 24.2707 2.69205 24.3691 2.71278C24.4675 2.73351 24.5576 2.78447 24.628 2.85911C24.6797 2.91869 24.6919 2.97261 24.6715 2.99247Z"/><path fill="#FFBE9D" d="M20.3405 3.85096C20.3201 3.83677 19.476 3.40972 19.3509 4.3603C19.2258 5.31087 20.1665 5.24561 20.1665 5.21156C20.1665 5.17751 20.3405 3.85096 20.3405 3.85096Z"/><path fill="#EB996E" d="M19.9409 4.8185C19.9409 4.8185 19.9246 4.82843 19.896 4.83694C19.8559 4.84845 19.813 4.84337 19.7764 4.82276C19.7223 4.77547 19.6812 4.71404 19.6573 4.64474C19.6334 4.57544 19.6276 4.50076 19.6404 4.42834C19.6483 4.34679 19.6739 4.26818 19.7152 4.1985C19.7278 4.17012 19.7467 4.14528 19.7704 4.12604C19.794 4.1068 19.8217 4.0937 19.8512 4.08783C19.8702 4.08557 19.8894 4.09027 19.9055 4.10113C19.9217 4.112 19.9337 4.12836 19.9395 4.14742C19.9477 4.17438 19.9395 4.19282 19.9395 4.19566C19.9395 4.1985 19.9613 4.18289 19.9585 4.14175C19.9561 4.11773 19.9461 4.09525 19.93 4.0779C19.919 4.06623 19.9059 4.05695 19.8914 4.05062C19.8769 4.04428 19.8614 4.04102 19.8457 4.04101C19.8073 4.04334 19.7702 4.05591 19.7378 4.07752C19.7054 4.09913 19.6789 4.12907 19.6608 4.16445C19.611 4.24098 19.5802 4.32922 19.5711 4.42124C19.5555 4.50534 19.5641 4.59238 19.5958 4.6714C19.6275 4.75042 19.6808 4.81789 19.7492 4.86532C19.7723 4.877 19.7976 4.88306 19.8233 4.88306C19.8489 4.88306 19.8743 4.877 19.8974 4.86532C19.9368 4.8412 19.945 4.82134 19.9409 4.8185Z"/><path fill="#263238" d="M24.6226 1.53549C24.7803 1.47023 24.3983 0.912649 24.0571 0.69274C23.5405 0.359329 22.7222 0.0883449 22.1988 0.170634C21.5681 0.269947 21.0243 0.519651 20.6477 1.05736C20.2825 1.60692 20.0634 2.24777 20.0129 2.91453C19.9809 3.11586 20.0006 3.32247 20.07 3.51325C20.172 3.74168 20.4003 3.90625 20.3541 4.19426C20.3442 4.24648 20.3444 4.30023 20.3547 4.35236C20.365 4.4045 20.3851 4.45397 20.4139 4.49788C20.558 4.70502 20.7823 4.55889 20.8979 4.39715C21.1439 4.05097 21.22 3.60831 21.2907 3.18268C21.356 2.88363 21.3734 2.57539 21.3424 2.27041C21.3179 2.10583 21.2649 1.94693 21.2472 1.78094C21.2342 1.69842 21.2384 1.61393 21.2598 1.53332C21.2812 1.45271 21.3191 1.37793 21.3709 1.31416C21.3961 1.2884 21.4239 1.26557 21.4539 1.24606C21.5949 1.14632 21.7589 1.08791 21.9289 1.07693C22.099 1.06595 22.2687 1.1028 22.4204 1.18363C22.9111 1.44185 23.7539 1.84052 24.0054 1.69014C24.1824 1.59832 24.3393 1.46935 24.4663 1.31132L24.6226 1.53549Z"/><path fill="#263238" d="M22.26 0.0485225C22.5207 -0.0109978 22.7902 -0.0158109 23.0528 0.0343642C23.3153 0.0845393 23.5657 0.188701 23.7893 0.340789C23.9101 0.419423 24.0143 0.522849 24.0956 0.644793C24.1769 0.766736 24.2337 0.904653 24.2624 1.05017C24.3045 1.34244 24.1468 1.67443 23.8736 1.74963L23.8546 1.75956C23.4467 1.84468 23.2021 1.75956 22.8309 1.56519C22.5183 1.40345 22.2546 1.15374 21.9419 0.997678C21.6067 0.82723 21.2303 0.765461 20.8612 0.820332C21.254 0.438637 21.7366 0.172337 22.26 0.0485225Z"/><path fill="#455A64" d="M20.9822 0.688521C21.1294 0.643074 21.2839 0.629555 21.4362 0.648796C21.6014 0.674299 21.7602 0.733088 21.9039 0.821886C22.0802 0.931461 22.2472 1.05678 22.4028 1.19644C22.5611 1.3384 22.7297 1.46742 22.9071 1.58235C23.0542 1.67689 23.217 1.74186 23.387 1.77388C23.5015 1.79676 23.6191 1.79676 23.7336 1.77388C23.7763 1.76772 23.8172 1.75173 23.8532 1.72706C23.7024 1.7575 23.5473 1.7575 23.3965 1.72706C23.2344 1.68889 23.0798 1.62169 22.9397 1.52843C22.7673 1.41027 22.6029 1.27991 22.4476 1.13827C22.2888 0.996613 22.1177 0.870742 21.9365 0.762298C21.7852 0.673615 21.6183 0.617643 21.4458 0.59772C21.3297 0.583631 21.2122 0.594741 21.1005 0.630353C21.0176 0.657309 20.9795 0.684265 20.9822 0.688521Z"/><path fill="#455A64" d="M21.4049 0.427385C21.5426 0.400744 21.6836 0.397869 21.8222 0.418873C21.9705 0.44892 22.1129 0.50454 22.2436 0.583449C22.4042 0.682787 22.5537 0.800311 22.6895 0.933885C22.8377 1.07576 22.9763 1.21764 23.1123 1.32972C23.2314 1.43523 23.3613 1.52659 23.4997 1.60213C23.5932 1.65352 23.6929 1.69169 23.7961 1.71563C23.8336 1.72665 23.8727 1.73049 23.9116 1.72698C23.629 1.63991 23.3694 1.486 23.1531 1.27723C23.0171 1.15947 22.8812 1.01901 22.7371 0.878554C22.5968 0.741978 22.4416 0.622943 22.2749 0.523861C22.137 0.443068 21.9857 0.390123 21.829 0.367797C21.7234 0.351968 21.616 0.357264 21.5123 0.383403C21.4739 0.389877 21.4373 0.404875 21.4049 0.427385Z"/><path fill="#455A64" d="M23.5759 0.410269C23.5677 0.417363 23.6112 0.485464 23.6778 0.596128C23.768 0.73632 23.8406 0.887931 23.894 1.0473C23.9429 1.20592 23.9514 1.37512 23.9185 1.53819C23.8913 1.66162 23.8464 1.73114 23.8559 1.73682C23.8654 1.74249 23.9239 1.68291 23.966 1.55238C24.0196 1.38089 24.0196 1.19608 23.966 1.0246C23.9126 0.85783 23.8306 0.702562 23.7241 0.566333C23.6398 0.46702 23.5827 0.404594 23.5759 0.410269Z"/><path fill="#455A64" d="M24.1536 0.950802C24.1512 1.09905 24.1306 1.24637 24.0925 1.3892C24.0338 1.52394 23.9589 1.65029 23.8695 1.76518C23.8695 1.76518 23.9212 1.75241 23.9824 1.69424C24.0623 1.61592 24.123 1.51856 24.1591 1.41048C24.1964 1.30444 24.2095 1.19074 24.1971 1.07849C24.1849 0.996202 24.1618 0.947964 24.1536 0.950802Z"/><path fill="#407BFF" d="M19.9735 2.94702C19.9236 3.07552 19.9049 3.21492 19.9191 3.35279C19.9107 3.49408 19.9486 3.63416 20.0265 3.75004C20.0442 3.74153 19.9953 3.56986 19.9898 3.34995C19.9985 3.21542 19.993 3.0803 19.9735 2.94702Z"/><path fill="#FFBE9D" d="M39.2088 18.3634C39.2088 18.3634 38.6447 17.1348 38.4815 17.0369C38.3184 16.939 37.5531 16.8198 37.5531 16.8198C37.5531 16.8198 36.3459 17.3348 36.1366 17.2951C35.9273 17.2554 34.8601 17.2951 34.8601 17.2951L34.6277 18.7337H35.707C35.707 18.7337 36.1597 19.0104 36.486 19.0303C36.7727 19.0718 37.0532 19.1514 37.3206 19.2672C37.3206 19.2672 38.1036 20.0958 38.1961 20.1185C38.2885 20.1412 38.4748 20.1185 38.4979 19.8276C38.521 19.5368 37.9541 19.0288 37.9541 19.0288C37.9541 19.0288 37.6822 18.9082 37.8386 18.5777C37.9949 18.2471 38.0194 18.0925 38.2273 18.1166C38.4353 18.1407 39.2088 18.3634 39.2088 18.3634Z"/><path fill="#455A64" d="M12.7524 18.4457L13.4321 12.5834C13.5096 11.9194 13.5939 11.2284 13.9392 10.6652C14.2845 10.1019 14.9723 9.70468 15.5704 9.93168L15.8355 9.94729C15.9261 13.0175 16.014 16.0882 16.0992 19.1594C16.1251 20.0461 16.0992 21.0591 15.4562 21.6379C14.7684 22.2537 13.5952 21.9983 13.076 21.2237C12.5567 20.449 12.6423 19.3935 12.7524 18.4457Z"/><path fill="#EBEBEB" d="M22.9383 9.53003L23.0267 9.08454L22.9071 8.67168L22.5414 10.1869H22.3538L19.8729 7.01172L19.6337 7.38343C19.6337 7.38343 20.8299 10.1146 21.2405 11.9987C21.651 13.8828 22.1689 17.295 22.1689 17.295L21.6687 23.3091C22.2126 23.4902 22.8017 23.4522 23.32 23.2024C23.8384 22.9527 24.2483 22.5094 24.469 21.9599L24.6049 21.6336C24.6049 21.6336 24.4826 15.7528 24.5003 15.7528C24.5179 15.7528 24.3303 13.8374 24.3303 13.8374L22.9383 9.53003Z"/><path fill="#263238" d="M19.5507 7.20605L19.0287 7.80619C19.0287 7.80619 17.0087 8.61205 16.7042 8.85041C16.3997 9.08876 15.5772 10.2919 15.4236 11.0623C15.27 11.8327 16.5777 21.4292 16.5777 21.4292C16.5777 21.4292 15.3475 25.3393 14.8187 26.6645C14.7127 26.9027 14.6973 27.174 14.7755 27.4236C14.8537 27.6733 15.0197 27.8826 15.2401 28.0095C15.2401 28.0095 17.3811 28.9274 18.3015 29.4438C18.8452 29.7517 20.051 29.9035 20.331 29.2665C20.611 28.6295 21.7679 25.5933 22.067 23.9206C22.366 22.2478 22.2967 19.1322 22.1689 17.2949C22.0411 15.4576 21.3043 12.0341 20.8476 10.4962C20.4876 9.36993 20.0543 8.27066 19.5507 7.20605Z"/><path fill="#263238" d="M18.1261 9.86638C18.1261 9.86638 18.6943 11.725 18.6943 12.6174C18.6943 13.5098 18.485 16.0763 18.2797 16.5445C18.169 16.8087 18.0323 17.0602 17.8719 17.2951L18.1886 17.6157L23.4155 16.9503L23.6398 20.2929C23.6398 20.2929 17.7604 21.1442 17.2044 21.1442C16.6484 21.1442 15.4943 21.0761 15.0675 20.7866C14.6406 20.4972 14.3402 19.2913 14.3402 18.2428C14.3402 17.1943 14.729 10.0551 16.711 8.85338C17.6748 8.26175 18.1261 9.86638 18.1261 9.86638Z"/><path fill="#455A64" d="M18.4469 15.7515C19.6133 13.9809 19.6337 11.3534 18.7528 9.40964C18.6005 9.07623 18.2213 8.45339 17.9154 8.26611C17.7701 8.28272 17.6272 8.31749 17.4899 8.36968C17.3019 8.42989 17.1314 8.53816 16.9937 8.68465C18.4456 10.4141 18.8697 12.1606 18.5475 14.9017"/><path fill="#455A64" d="M19.0967 7.84472C19.1029 7.8786 19.112 7.91183 19.1239 7.94404C19.1456 8.01498 19.1755 8.10862 19.2122 8.22779C19.2884 8.47182 19.4012 8.82368 19.5263 9.26208C19.8564 10.4047 20.1211 11.5668 20.3188 12.7423C20.3854 13.1438 20.4425 13.5354 20.4901 13.9071V13.9511L20.5295 13.9369L20.9373 13.795L20.8992 13.7425C20.7633 13.9454 20.6274 14.1682 20.6369 14.4207C20.6688 14.6441 20.7533 14.8557 20.8829 15.0365C21.0896 15.3912 21.2731 15.7033 21.4267 15.9658C21.5803 16.2282 21.6986 16.4226 21.7856 16.5702L21.8848 16.7305C21.8952 16.7493 21.9076 16.7669 21.9215 16.783C21.9141 16.7628 21.905 16.7433 21.8943 16.7248L21.8046 16.5588L21.462 15.9431L20.9319 15.0067C20.81 14.8329 20.7302 14.6309 20.6994 14.4179C20.6913 14.1951 20.819 13.9837 20.955 13.7823L21.0134 13.6943L20.9156 13.7284C20.7796 13.7766 20.6437 13.8234 20.5077 13.8702L20.554 13.9C20.5064 13.5269 20.4493 13.1339 20.3827 12.731C20.1844 11.553 19.9119 10.3899 19.567 9.24931C19.4311 8.81091 19.3142 8.46189 19.2313 8.2207L19.1293 7.94404C19.1221 7.90976 19.1111 7.87644 19.0967 7.84472Z"/><path fill="#455A64" d="M15.0607 20.7837C15.0607 20.7837 15.0716 20.7923 15.0961 20.8079C15.1315 20.8324 15.1693 20.8528 15.2089 20.8689C15.3595 20.9334 15.5163 20.981 15.6765 21.0107C15.931 21.0642 16.1884 21.1011 16.4473 21.1214C16.5996 21.1356 16.7627 21.1455 16.9367 21.1512C17.0237 21.1512 17.112 21.1512 17.2086 21.1512C17.3051 21.1512 17.3962 21.1413 17.4927 21.1313C19.0329 20.9682 21.1807 20.6646 23.6412 20.317H23.6738V20.2829C23.6194 19.4728 23.5623 18.6215 23.5039 17.7476C23.4858 17.4771 23.4681 17.208 23.4509 16.9403V16.902H23.4142L18.1873 17.5731L18.2118 17.5816L17.8951 17.2624V17.3021C17.9953 17.1553 18.0861 17.0017 18.1669 16.8424C18.2505 16.6934 18.3163 16.5343 18.3627 16.3685C18.4301 16.0611 18.4805 15.7499 18.5136 15.4364C18.5843 14.8504 18.6237 14.3397 18.6495 13.9197C18.6753 13.4998 18.6917 13.172 18.6971 12.9493C18.6971 12.8372 18.6971 12.7521 18.6971 12.6939C18.6971 12.6357 18.6971 12.606 18.6971 12.606C18.6971 12.606 18.6971 12.6357 18.6971 12.6939C18.6971 12.7521 18.6971 12.8358 18.6862 12.9479C18.6767 13.1706 18.6577 13.4998 18.6237 13.9183C18.5897 14.3369 18.5462 14.8462 18.4728 15.4307C18.4369 15.7413 18.3847 16.0497 18.3165 16.3543C18.2703 16.5159 18.205 16.6708 18.1221 16.8154C18.0417 16.9718 17.9508 17.1221 17.8502 17.2652L17.8352 17.2865L17.8529 17.3049L18.1601 17.6341L18.171 17.644H18.1846L23.4128 16.9843L23.3734 16.9502C23.3911 17.217 23.4087 17.4851 23.4278 17.7575L23.5977 20.2928L23.6276 20.2545C21.1685 20.605 19.0206 20.9171 17.4845 21.093C17.388 21.1044 17.2956 21.1101 17.2045 21.1157H16.9326C16.7586 21.1157 16.5968 21.103 16.4446 21.0902C16.1865 21.0728 15.9297 21.0401 15.6752 20.9923C15.5155 20.9634 15.3588 20.9182 15.2075 20.8575C15.1069 20.8164 15.0634 20.7795 15.0607 20.7837Z"/><path fill="#455A64" d="M15.8451 18.027C15.8546 18.0355 15.9321 17.9121 16.0966 17.7546C16.3098 17.5481 16.5693 17.401 16.8513 17.3266C17.1332 17.2522 17.4286 17.253 17.7102 17.329C17.9263 17.3857 18.05 17.4552 18.0554 17.4439C18.0609 17.4325 18.0296 17.4183 17.9739 17.3857C17.8939 17.3417 17.8102 17.3056 17.7238 17.2779C17.4344 17.1842 17.1259 17.1756 16.8321 17.2529C16.5384 17.3303 16.2707 17.4906 16.0585 17.7163C15.9949 17.7837 15.9372 17.8568 15.8859 17.9348C15.856 17.9915 15.841 18.0256 15.8451 18.027Z"/><path fill="#455A64" d="M16.6022 16.4993C17.1132 16.6275 17.5658 16.9369 17.8827 17.3747C17.859 17.296 17.8196 17.2235 17.7672 17.1618C17.6544 17.0041 17.5164 16.8678 17.3594 16.7589C17.2008 16.6496 17.025 16.5704 16.8401 16.5248C16.7634 16.4986 16.6823 16.4899 16.6022 16.4993Z"/><path fill="#455A64" d="M21.0433 23.2226C21.1274 23.3225 21.2309 23.4023 21.347 23.4569C21.463 23.5115 21.5889 23.5395 21.7162 23.539C21.6066 23.4809 21.493 23.4311 21.3764 23.3901C21.2694 23.3259 21.1581 23.2699 21.0433 23.2226Z"/><path fill="#455A64" d="M16.0585 23.3276C16.0935 23.3545 16.1319 23.376 16.1727 23.3915C16.2488 23.4269 16.3589 23.4766 16.4962 23.5333C16.7681 23.6483 17.1582 23.793 17.5919 23.9292C18.0255 24.0654 18.4252 24.1661 18.7161 24.2285C18.8602 24.2598 18.9785 24.2825 19.0614 24.2952C19.1032 24.306 19.1462 24.3108 19.1892 24.3094C19.0382 24.2544 18.8838 24.2103 18.727 24.1775C18.4402 24.1023 18.0473 23.9945 17.6123 23.8582C17.1773 23.722 16.7967 23.5858 16.5139 23.4851C16.3654 23.4229 16.2133 23.3703 16.0585 23.3276Z"/><path fill="#455A64" d="M15.6901 24.3137C15.7421 24.3505 15.7971 24.3823 15.8545 24.4088C15.9633 24.4655 16.1264 24.5421 16.3208 24.6329C16.8404 24.8648 17.3729 25.0638 17.9154 25.2288C18.3545 25.3707 18.7704 25.4643 19.1225 25.5367L19.1551 25.5438V25.5112C19.1944 25.2203 19.1944 24.9252 19.1551 24.6344C19.1402 24.5308 19.1239 24.4499 19.1103 24.3946C19.0967 24.3393 19.0885 24.3109 19.0845 24.3123C19.0804 24.3137 19.1008 24.4315 19.1198 24.6386C19.1449 24.9262 19.1362 25.2159 19.094 25.5012L19.1293 25.4757C18.7799 25.3948 18.3667 25.2927 17.9303 25.1579C17.2969 24.9664 16.7368 24.7507 16.3358 24.5904L15.8613 24.3889C15.8068 24.3579 15.7494 24.3327 15.6901 24.3137Z"/><path fill="#FFBE9D" d="M26.5489 16.5488L25.9113 16.1416H24.7789L23.7662 17.1021L23.4644 17.2596L23.5772 18.921L24.2352 18.8373C24.2352 18.8373 25.6394 18.8997 25.7754 18.8046C25.9027 18.6897 26.0147 18.5575 26.1084 18.4116C26.1084 18.4116 26.9077 18.1747 26.954 18.0796C26.9668 18.05 26.9734 18.0178 26.9734 17.9853C26.9734 17.9528 26.9668 17.9206 26.954 17.8909L27.2557 17.6852C27.3323 17.5439 27.3978 17.3963 27.4515 17.244L27.4678 17.1503C27.5318 17.1257 27.5882 17.0831 27.6306 17.0273C27.673 16.9715 27.6999 16.9046 27.7084 16.834C27.7234 16.7375 27.3427 16.7588 27.3427 16.7588L26.3912 16.7715L26.5489 16.5488Z"/><path fill="#455A64" d="M26.3722 16.7985L27.0301 15.865H28.395V15.9856L27.7071 16.8184L26.3722 16.7985Z"/></svg>