<svg xmlns="http://www.w3.org/2000/svg" width="15" height="16" fill="none" viewBox="0 0 15 16"><path fill="#fff" d="M6.22222 0H8V0.96263C10.5224 1.38581 12.4444 3.57956 12.4444 6.22222V8.44444C12.4444 8.71428 12.6384 9.04418 13.0298 9.3866C13.2068 9.54147 13.388 9.66648 13.5267 9.75317C13.5951 9.79593 13.6508 9.82792 13.6874 9.84819C13.7057 9.85828 13.719 9.86537 13.7266 9.86934L13.7331 9.87275L14.2222 10.1173V13.3333H0V10.1173L0.488827 9.8729L0.495669 9.86934C0.503219 9.86537 0.51653 9.85828 0.534775 9.84819C0.571381 9.82792 0.627131 9.79593 0.695556 9.75317C0.83426 9.66648 1.01545 9.54147 1.19244 9.3866C1.58377 9.04418 1.77778 8.71428 1.77778 8.44444V6.22222C1.77778 3.57956 3.69981 1.38581 6.22222 0.96263V0Z"/><path fill="#fff" d="M7.11111 16C8.09295 16 8.88889 15.2041 8.88889 14.2222H5.33333C5.33333 15.2041 6.12927 16 7.11111 16Z"/></svg>