<svg xmlns="http://www.w3.org/2000/svg" width="18" height="14" fill="none" viewBox="0 0 18 14"><path fill="#000" fill-rule="evenodd" d="M18 6.75C16 2.25 13 0 9 0C5 0 2 2.25 0 6.75C2 11.25 5 13.5 9 13.5C13 13.5 16 11.25 18 6.75ZM5.01621 4.5321L5.25437 4.3173L5.2511 4.40838L5.25798 4.74656C5.38494 6.7027 7.01178 8.25 9 8.25C11.0711 8.25 12.75 6.57107 12.75 4.5L12.7449 4.31966C13.4012 4.87399 13.9965 5.61211 14.5413 6.55113L14.652 6.75L14.5413 6.94887C13.1075 9.42019 11.3236 10.5 9 10.5L8.69997 10.4939C6.52197 10.4035 4.83012 9.31274 3.4587 6.94887L3.3465 6.75L3.4587 6.55113C3.93662 5.72736 4.45345 5.0582 5.01621 4.5321Z" clip-rule="evenodd"/></svg>